<svg width="31" height="28" viewBox="0 0 31 28" fill="none" xmlns="http://www.w3.org/2000/svg">
<path d="M0 3.36706V18.7604C0 20.6193 1.51742 22.1274 3.39083 22.1274H18.6669L24.0349 27.8995V22.1269H27.6092C29.4815 22.1269 31 20.6188 31 18.7599V3.36706C30.9995 1.50761 29.4815 0 27.6092 0H3.39083C1.51742 0 0 1.50761 0 3.36706ZM21.5932 11.0632C21.5932 9.86817 22.5687 8.89892 23.773 8.89892C24.9773 8.89892 25.9528 9.86817 25.9528 11.0632C25.9528 12.2593 24.9773 13.228 23.773 13.228C22.5687 13.228 21.5932 12.2598 21.5932 11.0632ZM13.32 11.0632C13.32 9.86817 14.2964 8.89892 15.4997 8.89892C16.703 8.89892 17.6795 9.86817 17.6795 11.0632C17.6795 12.2593 16.703 13.228 15.4997 13.228C14.2964 13.228 13.32 12.2598 13.32 11.0632ZM5.04723 11.0632C5.04723 9.86817 6.02372 8.89892 7.22701 8.89892C8.43134 8.89892 9.40679 9.86817 9.40679 11.0632C9.40679 12.2593 8.43134 13.228 7.22701 13.228C6.0232 13.2285 5.04723 12.2598 5.04723 11.0632Z" fill="black"/>
</svg>
