<svg width="31" height="31" viewBox="0 0 31 31" fill="none" xmlns="http://www.w3.org/2000/svg">
<path d="M26.6387 0.991515L26.9327 0.697446C27.1541 0.476237 27.4168 0.30079 27.7059 0.181122C27.9951 0.0614536 28.3049 -9.15315e-05 28.6179 1.02173e-07C28.9308 9.17358e-05 29.2406 0.0618184 29.5297 0.181656C29.8187 0.301493 30.0814 0.477094 30.3026 0.698433C30.5238 0.919772 30.6992 1.18251 30.8189 1.47166C30.9385 1.7608 31.0001 2.07068 31 2.38361C30.9999 2.69654 30.9382 3.00639 30.8183 3.29546C30.6985 3.58454 30.5229 3.84718 30.3016 4.06838L30.0075 4.36048C30.5106 4.92466 30.7787 5.6599 30.7571 6.41547C30.7354 7.17104 30.4256 7.88971 29.8911 8.42416L9.57927 28.7386C9.45229 28.8649 9.29333 28.9543 9.11943 28.9971L1.22521 30.9708C1.06001 31.0119 0.886978 31.0096 0.72293 30.9641C0.558883 30.9185 0.409403 30.8314 0.28902 30.711C0.168638 30.5906 0.0814489 30.4411 0.035928 30.277C-0.0095928 30.113 -0.0118967 29.94 0.0292402 29.7747L2.00279 21.8803C2.04598 21.7071 2.13533 21.5488 2.26133 21.4224L21.2903 2.39278C21.1 2.25883 20.8685 2.19646 20.6366 2.21668C20.4048 2.23691 20.1876 2.33843 20.0233 2.50331L13.5264 9.00243C13.4346 9.09418 13.3257 9.16696 13.2058 9.21661C13.086 9.26627 12.9575 9.29182 12.8277 9.29182C12.698 9.29182 12.5695 9.26627 12.4496 9.21661C12.3298 9.16696 12.2208 9.09418 12.1291 9.00243C12.0374 8.91068 11.9646 8.80176 11.9149 8.68188C11.8653 8.562 11.8397 8.43352 11.8397 8.30377C11.8397 8.17401 11.8653 8.04553 11.9149 7.92565C11.9646 7.80578 12.0374 7.69686 12.1291 7.60511L18.63 1.10796C19.1648 0.573139 19.884 0.263292 20.64 0.242005C21.396 0.220719 22.1315 0.489607 22.6955 0.993489C23.2378 0.508845 23.9395 0.240775 24.6667 0.240411C25.394 0.240047 26.0959 0.507415 26.6387 0.991515Z" fill="black"/>
</svg>
