<svg width="31" height="29" viewBox="0 0 31 29" fill="none" xmlns="http://www.w3.org/2000/svg">
<path d="M3.44444 5.07983C2.53092 5.07983 1.65481 5.43663 1.00885 6.07173C0.362896 6.70683 0 7.56822 0 8.46639V25.3992C0 26.2973 0.362896 27.1587 1.00885 27.7938C1.65481 28.4289 2.53092 28.7857 3.44444 28.7857H27.5556C28.4691 28.7857 29.3452 28.4289 29.9911 27.7938C30.6371 27.1587 31 26.2973 31 25.3992V8.46639C31 7.56822 30.6371 6.70683 29.9911 6.07173C29.3452 5.43663 28.4691 5.07983 27.5556 5.07983H3.44444ZM3.44444 23.7059L9.47222 16.0861L13.7778 21.166L19.8056 13.5462L27.5556 23.7059H3.44444ZM25.8333 0C26.7469 0 27.623 0.356797 28.2689 0.991899C28.9149 1.627 29.2778 2.48838 29.2778 3.38655H1.72222C1.72222 2.48838 2.08512 1.627 2.73108 0.991899C3.37704 0.356797 4.25314 0 5.16667 0H25.8333Z" fill="black"/>
</svg>
