<svg width="140" height="84" viewBox="0 0 140 84" fill="none" xmlns="http://www.w3.org/2000/svg">
<rect x="68.3395" y="1.01426" width="3.36137" height="82.6039" fill="#333848" stroke="#9D9D9D" stroke-width="0.3"/>
<path d="M71.9227 4.53635L126.414 32.1957L126.414 33.1712L71.9227 5.51178L71.9227 4.53635Z" fill="#333848" stroke="#9D9D9D" stroke-width="0.3"/>
<mask id="path-3-inside-1_153_1145" fill="white">
<path fill-rule="evenodd" clip-rule="evenodd" d="M101.896 30.5434C101.896 30.5426 101.896 30.5417 101.896 30.5409L102.966 30.7238C102.831 31.5135 103.023 32.326 103.5 32.9823C103.977 33.6387 104.701 34.0853 105.511 34.2238C106.321 34.3622 107.151 34.1813 107.819 33.7208C108.488 33.2603 108.939 32.5579 109.074 31.7682L110.144 31.9511C109.961 33.0174 109.352 33.9658 108.45 34.5875C107.547 35.2093 106.426 35.4536 105.332 35.2666C104.239 35.0796 103.262 34.4766 102.618 33.5904C102.389 33.2757 102.209 32.9345 102.079 32.5775C101.839 32.8722 101.555 33.1349 101.233 33.3563C100.331 33.9781 99.2098 34.2223 98.1161 34.0353C97.0224 33.8483 96.046 33.2454 95.4015 32.3591C95.1714 32.0426 94.9903 31.6992 94.8609 31.3398C94.6194 31.636 94.3342 31.9001 94.0117 32.1223C93.1094 32.7441 91.9881 32.9884 90.8945 32.8014C89.8008 32.6144 88.8243 32.0114 88.1799 31.1252C87.9048 30.7469 87.6999 30.3302 87.5695 29.8939C87.3019 30.2609 86.9708 30.5848 86.5866 30.8496C85.6844 31.4714 84.5631 31.7156 83.4694 31.5286C82.3757 31.3416 81.3993 30.7387 80.7549 29.8525C80.1104 28.9662 79.8508 27.8693 80.0332 26.8029L81.1027 26.9858C80.9677 27.7756 81.16 28.588 81.6372 29.2444C82.1145 29.9007 82.8377 30.3473 83.6477 30.4858C84.4577 30.6243 85.2882 30.4434 85.9564 29.9829C86.6247 29.5224 87.0759 28.82 87.211 28.0302L88.2805 28.2131L88.28 28.2162L88.5278 28.2586C88.3928 29.0483 88.585 29.8608 89.0623 30.5171C89.5396 31.1735 90.2628 31.6201 91.0728 31.7585C91.8828 31.897 92.7132 31.7161 93.3815 31.2556C94.0497 30.7951 94.501 30.0927 94.636 29.303L94.6797 29.3104L94.6798 29.3096L95.7494 29.4925C95.6144 30.2823 95.8067 31.0947 96.2839 31.7511C96.7612 32.4074 97.4844 32.854 98.2944 32.9925C99.1044 33.131 99.9349 32.9501 100.603 32.4896C101.271 32.0291 101.723 31.3267 101.858 30.5369L101.896 30.5434Z"/>
</mask>
<path fill-rule="evenodd" clip-rule="evenodd" d="M101.896 30.5434C101.896 30.5426 101.896 30.5417 101.896 30.5409L102.966 30.7238C102.831 31.5135 103.023 32.326 103.5 32.9823C103.977 33.6387 104.701 34.0853 105.511 34.2238C106.321 34.3622 107.151 34.1813 107.819 33.7208C108.488 33.2603 108.939 32.5579 109.074 31.7682L110.144 31.9511C109.961 33.0174 109.352 33.9658 108.45 34.5875C107.547 35.2093 106.426 35.4536 105.332 35.2666C104.239 35.0796 103.262 34.4766 102.618 33.5904C102.389 33.2757 102.209 32.9345 102.079 32.5775C101.839 32.8722 101.555 33.1349 101.233 33.3563C100.331 33.9781 99.2098 34.2223 98.1161 34.0353C97.0224 33.8483 96.046 33.2454 95.4015 32.3591C95.1714 32.0426 94.9903 31.6992 94.8609 31.3398C94.6194 31.636 94.3342 31.9001 94.0117 32.1223C93.1094 32.7441 91.9881 32.9884 90.8945 32.8014C89.8008 32.6144 88.8243 32.0114 88.1799 31.1252C87.9048 30.7469 87.6999 30.3302 87.5695 29.8939C87.3019 30.2609 86.9708 30.5848 86.5866 30.8496C85.6844 31.4714 84.5631 31.7156 83.4694 31.5286C82.3757 31.3416 81.3993 30.7387 80.7549 29.8525C80.1104 28.9662 79.8508 27.8693 80.0332 26.8029L81.1027 26.9858C80.9677 27.7756 81.16 28.588 81.6372 29.2444C82.1145 29.9007 82.8377 30.3473 83.6477 30.4858C84.4577 30.6243 85.2882 30.4434 85.9564 29.9829C86.6247 29.5224 87.0759 28.82 87.211 28.0302L88.2805 28.2131L88.28 28.2162L88.5278 28.2586C88.3928 29.0483 88.585 29.8608 89.0623 30.5171C89.5396 31.1735 90.2628 31.6201 91.0728 31.7585C91.8828 31.897 92.7132 31.7161 93.3815 31.2556C94.0497 30.7951 94.501 30.0927 94.636 29.303L94.6797 29.3104L94.6798 29.3096L95.7494 29.4925C95.6144 30.2823 95.8067 31.0947 96.2839 31.7511C96.7612 32.4074 97.4844 32.854 98.2944 32.9925C99.1044 33.131 99.9349 32.9501 100.603 32.4896C101.271 32.0291 101.723 31.3267 101.858 30.5369L101.896 30.5434Z" fill="#333848"/>
<path d="M101.896 30.5409L101.947 30.2452L101.651 30.1946L101.6 30.4903L101.896 30.5409ZM101.896 30.5434L101.845 30.8391L102.141 30.8897L102.191 30.594L101.896 30.5434ZM102.966 30.7238L103.261 30.7743L103.312 30.4786L103.016 30.4281L102.966 30.7238ZM103.5 32.9823L103.258 33.1588L103.258 33.1588L103.5 32.9823ZM105.511 34.2238L105.561 33.928L105.511 34.2238ZM107.819 33.7208L107.99 33.9679L107.99 33.9679L107.819 33.7208ZM109.074 31.7682L109.124 31.4725L108.829 31.4219L108.778 31.7176L109.074 31.7682ZM110.144 31.9511L110.439 32.0016L110.49 31.7059L110.194 31.6554L110.144 31.9511ZM105.332 35.2666L105.383 34.9709L105.332 35.2666ZM102.618 33.5904L102.375 33.7668L102.375 33.7668L102.618 33.5904ZM102.079 32.5775L102.362 32.4754L102.182 31.9784L101.847 32.3876L102.079 32.5775ZM101.233 33.3563L101.404 33.6033L101.233 33.3563ZM98.1161 34.0353L98.1666 33.7396L98.1161 34.0353ZM95.4015 32.3591L95.1589 32.5356L95.1589 32.5356L95.4015 32.3591ZM94.8609 31.3398L95.1432 31.2382L94.9635 30.7393L94.6284 31.1502L94.8609 31.3398ZM94.0117 32.1223L93.8415 31.8753L94.0117 32.1223ZM90.8945 32.8014L90.945 32.5057L90.8945 32.8014ZM88.1799 31.1252L87.9373 31.3016L88.1799 31.1252ZM87.5695 29.8939L87.8569 29.8079L87.6836 29.2281L87.3271 29.7171L87.5695 29.8939ZM86.5866 30.8496L86.7569 31.0966L86.5866 30.8496ZM83.4694 31.5286L83.52 31.2329L83.52 31.2329L83.4694 31.5286ZM80.7549 29.8525L80.9975 29.676L80.7549 29.8525ZM80.0332 26.8029L80.0837 26.5072L79.788 26.4567L79.7375 26.7524L80.0332 26.8029ZM81.1027 26.9858L81.3984 27.0364L81.449 26.7407L81.1533 26.6901L81.1027 26.9858ZM81.6372 29.2444L81.3946 29.4208L81.3946 29.4208L81.6372 29.2444ZM83.6477 30.4858L83.6983 30.1901L83.6477 30.4858ZM85.9564 29.9829L85.7862 29.7359L85.7862 29.7359L85.9564 29.9829ZM87.211 28.0302L87.2615 27.7345L86.9658 27.684L86.9153 27.9797L87.211 28.0302ZM88.2805 28.2131L88.5762 28.2638L88.6269 27.968L88.3311 27.9174L88.2805 28.2131ZM88.28 28.2162L87.9843 28.1656L87.9337 28.4613L88.2295 28.5119L88.28 28.2162ZM88.5278 28.2586L88.8235 28.3091L88.8741 28.0134L88.5783 27.9629L88.5278 28.2586ZM89.0623 30.5171L88.8197 30.6936L89.0623 30.5171ZM91.0728 31.7585L91.1233 31.4628L91.0728 31.7585ZM93.3815 31.2556L93.5517 31.5027L93.5517 31.5027L93.3815 31.2556ZM94.636 29.303L94.6866 29.0073L94.3909 28.9567L94.3403 29.2524L94.636 29.303ZM94.6797 29.3104L94.6291 29.6062L94.9249 29.6567L94.9754 29.361L94.6797 29.3104ZM94.6798 29.3096L94.7304 29.0139L94.4347 28.9634L94.3841 29.2591L94.6798 29.3096ZM95.7494 29.4925L96.0451 29.5431L96.0957 29.2474L95.8 29.1968L95.7494 29.4925ZM96.2839 31.7511L96.0413 31.9275L96.0413 31.9275L96.2839 31.7511ZM98.2944 32.9925L98.345 32.6968L98.2944 32.9925ZM100.603 32.4896L100.773 32.7366L100.773 32.7366L100.603 32.4896ZM101.858 30.5369L101.908 30.2412L101.613 30.1906L101.562 30.4864L101.858 30.5369ZM101.6 30.4903C101.6 30.4903 101.6 30.4903 101.6 30.4903C101.6 30.4903 101.6 30.4904 101.6 30.4904C101.6 30.4904 101.6 30.4904 101.6 30.4904C101.6 30.4904 101.6 30.4904 101.6 30.4904C101.6 30.4904 101.6 30.4904 101.6 30.4904C101.6 30.4904 101.6 30.4904 101.6 30.4904C101.6 30.4904 101.6 30.4904 101.6 30.4904C101.6 30.4904 101.6 30.4904 101.6 30.4904C101.6 30.4904 101.6 30.4904 101.6 30.4904C101.6 30.4904 101.6 30.4904 101.6 30.4904C101.6 30.4904 101.6 30.4904 101.6 30.4904C101.6 30.4904 101.6 30.4904 101.6 30.4904C101.6 30.4904 101.6 30.4904 101.6 30.4904C101.6 30.4904 101.6 30.4904 101.6 30.4904C101.6 30.4904 101.6 30.4904 101.6 30.4904C101.6 30.4904 101.6 30.4904 101.6 30.4904C101.6 30.4904 101.6 30.4904 101.6 30.4904C101.6 30.4904 101.6 30.4904 101.6 30.4904C101.6 30.4904 101.6 30.4904 101.6 30.4904C101.6 30.4904 101.6 30.4904 101.6 30.4904C101.6 30.4904 101.6 30.4904 101.6 30.4904C101.6 30.4904 101.6 30.4904 101.6 30.4905C101.6 30.4905 101.6 30.4905 101.6 30.4905C101.6 30.4905 101.6 30.4905 101.6 30.4905C101.6 30.4905 101.6 30.4905 101.6 30.4905C101.6 30.4905 101.6 30.4905 101.6 30.4905C101.6 30.4905 101.6 30.4905 101.6 30.4905C101.6 30.4905 101.6 30.4905 101.6 30.4905C101.6 30.4905 101.6 30.4905 101.6 30.4905C101.6 30.4905 101.6 30.4905 101.6 30.4905C101.6 30.4905 101.6 30.4905 101.6 30.4905C101.6 30.4905 101.6 30.4905 101.6 30.4905C101.6 30.4905 101.6 30.4905 101.6 30.4905C101.6 30.4905 101.6 30.4905 101.6 30.4905C101.6 30.4905 101.6 30.4905 101.6 30.4905C101.6 30.4905 101.6 30.4905 101.6 30.4905C101.6 30.4905 101.6 30.4905 101.6 30.4905C101.6 30.4905 101.6 30.4905 101.6 30.4905C101.6 30.4905 101.6 30.4905 101.6 30.4905C101.6 30.4905 101.6 30.4905 101.6 30.4905C101.6 30.4905 101.6 30.4905 101.6 30.4905C101.6 30.4905 101.6 30.4905 101.6 30.4905C101.6 30.4906 101.6 30.4906 101.6 30.4906C101.6 30.4906 101.6 30.4906 101.6 30.4906C101.6 30.4906 101.6 30.4906 101.6 30.4906C101.6 30.4906 101.6 30.4906 101.6 30.4906C101.6 30.4906 101.6 30.4906 101.6 30.4906C101.6 30.4906 101.6 30.4906 101.6 30.4906C101.6 30.4906 101.6 30.4906 101.6 30.4906C101.6 30.4906 101.6 30.4906 101.6 30.4906C101.6 30.4906 101.6 30.4906 101.6 30.4906C101.6 30.4906 101.6 30.4906 101.6 30.4906C101.6 30.4906 101.6 30.4906 101.6 30.4906C101.6 30.4906 101.6 30.4906 101.6 30.4906C101.6 30.4906 101.6 30.4906 101.6 30.4906C101.6 30.4906 101.6 30.4906 101.6 30.4906C101.6 30.4906 101.6 30.4906 101.6 30.4906C101.6 30.4906 101.6 30.4906 101.6 30.4906C101.6 30.4906 101.6 30.4906 101.6 30.4906C101.6 30.4906 101.6 30.4906 101.6 30.4906C101.6 30.4906 101.6 30.4906 101.6 30.4906C101.6 30.4906 101.6 30.4906 101.6 30.4906C101.6 30.4906 101.6 30.4907 101.6 30.4907C101.6 30.4907 101.6 30.4907 101.6 30.4907C101.6 30.4907 101.6 30.4907 101.6 30.4907C101.6 30.4907 101.6 30.4907 101.6 30.4907C101.6 30.4907 101.6 30.4907 101.6 30.4907C101.6 30.4907 101.6 30.4907 101.6 30.4907C101.6 30.4907 101.6 30.4907 101.6 30.4907C101.6 30.4907 101.6 30.4907 101.6 30.4907C101.6 30.4907 101.6 30.4907 101.6 30.4907C101.6 30.4907 101.6 30.4907 101.6 30.4907C101.6 30.4907 101.6 30.4907 101.6 30.4907C101.6 30.4907 101.6 30.4907 101.6 30.4907C101.6 30.4907 101.6 30.4907 101.6 30.4907C101.6 30.4907 101.6 30.4907 101.6 30.4907C101.6 30.4907 101.6 30.4907 101.6 30.4907C101.6 30.4907 101.6 30.4907 101.6 30.4907C101.6 30.4907 101.6 30.4907 101.6 30.4907C101.6 30.4907 101.6 30.4907 101.6 30.4907C101.6 30.4907 101.6 30.4907 101.6 30.4907C101.6 30.4907 101.6 30.4907 101.6 30.4907C101.6 30.4907 101.6 30.4907 101.6 30.4908C101.6 30.4908 101.6 30.4908 101.6 30.4908C101.6 30.4908 101.6 30.4908 101.6 30.4908C101.6 30.4908 101.6 30.4908 101.6 30.4908C101.6 30.4908 101.6 30.4908 101.6 30.4908C101.6 30.4908 101.6 30.4908 101.6 30.4908C101.6 30.4908 101.6 30.4908 101.6 30.4908C101.6 30.4908 101.6 30.4908 101.6 30.4908C101.6 30.4908 101.6 30.4908 101.6 30.4908C101.6 30.4908 101.6 30.4908 101.6 30.4908C101.6 30.4908 101.6 30.4908 101.6 30.4908C101.6 30.4908 101.6 30.4908 101.6 30.4908C101.6 30.4908 101.6 30.4908 101.6 30.4908C101.6 30.4908 101.6 30.4908 101.6 30.4908C101.6 30.4908 101.6 30.4908 101.6 30.4908C101.6 30.4908 101.6 30.4908 101.6 30.4908C101.6 30.4908 101.6 30.4908 101.6 30.4908C101.6 30.4908 101.6 30.4908 101.6 30.4908C101.6 30.4908 101.6 30.4908 101.6 30.4908C101.6 30.4908 101.6 30.4908 101.6 30.4908C101.6 30.4908 101.6 30.4908 101.6 30.4908C101.6 30.4909 101.6 30.4909 101.6 30.4909C101.6 30.4909 101.6 30.4909 101.6 30.4909C101.6 30.4909 101.6 30.4909 101.6 30.4909C101.6 30.4909 101.6 30.4909 101.6 30.4909C101.6 30.4909 101.6 30.4909 101.6 30.4909C101.6 30.4909 101.6 30.4909 101.6 30.4909C101.6 30.4909 101.6 30.4909 101.6 30.4909C101.6 30.4909 101.6 30.4909 101.6 30.4909C101.6 30.4909 101.6 30.4909 101.6 30.4909C101.6 30.4909 101.6 30.4909 101.6 30.4909C101.6 30.4909 101.6 30.4909 101.6 30.4909C101.6 30.4909 101.6 30.4909 101.6 30.4909C101.6 30.4909 101.6 30.4909 101.6 30.4909C101.6 30.4909 101.6 30.4909 101.6 30.4909C101.6 30.4909 101.6 30.4909 101.6 30.4909C101.6 30.4909 101.6 30.4909 101.6 30.4909C101.6 30.4909 101.6 30.4909 101.6 30.4909C101.6 30.4909 101.6 30.4909 101.6 30.4909C101.6 30.4909 101.6 30.4909 101.6 30.4909C101.6 30.4909 101.6 30.4909 101.6 30.4909C101.6 30.4909 101.6 30.491 101.6 30.491C101.6 30.491 101.6 30.491 101.6 30.491C101.6 30.491 101.6 30.491 101.6 30.491C101.6 30.491 101.6 30.491 101.6 30.491C101.6 30.491 101.6 30.491 101.6 30.491C101.6 30.491 101.6 30.491 101.6 30.491C101.6 30.491 101.6 30.491 101.6 30.491C101.6 30.491 101.6 30.491 101.6 30.491C101.6 30.491 101.6 30.491 101.6 30.491C101.6 30.491 101.6 30.491 101.6 30.491C101.6 30.491 101.6 30.491 101.6 30.491C101.6 30.491 101.6 30.491 101.6 30.491C101.6 30.491 101.6 30.491 101.6 30.491C101.6 30.491 101.6 30.491 101.6 30.491C101.6 30.491 101.6 30.491 101.6 30.491C101.6 30.491 101.6 30.491 101.6 30.491C101.6 30.491 101.6 30.491 101.6 30.491C101.6 30.491 101.6 30.491 101.6 30.491C101.6 30.491 101.6 30.491 101.6 30.491C101.6 30.491 101.6 30.491 101.6 30.491C101.6 30.491 101.6 30.491 101.6 30.4911C101.6 30.4911 101.6 30.4911 101.6 30.4911C101.6 30.4911 101.6 30.4911 101.6 30.4911C101.6 30.4911 101.6 30.4911 101.6 30.4911C101.6 30.4911 101.6 30.4911 101.6 30.4911C101.6 30.4911 101.6 30.4911 101.6 30.4911C101.6 30.4911 101.6 30.4911 101.6 30.4911C101.6 30.4911 101.6 30.4911 101.6 30.4911C101.6 30.4911 101.6 30.4911 101.6 30.4911C101.6 30.4911 101.6 30.4911 101.6 30.4911C101.6 30.4911 101.6 30.4911 101.6 30.4911C101.6 30.4911 101.6 30.4911 101.6 30.4911C101.6 30.4911 101.6 30.4911 101.6 30.4911C101.6 30.4911 101.6 30.4911 101.6 30.4911C101.6 30.4911 101.6 30.4911 101.6 30.4911C101.6 30.4911 101.6 30.4911 101.6 30.4911C101.6 30.4911 101.6 30.4911 101.6 30.4911C101.6 30.4911 101.6 30.4911 101.6 30.4911C101.6 30.4911 101.6 30.4911 101.6 30.4911C101.6 30.4911 101.6 30.4911 101.6 30.4911C101.6 30.4911 101.6 30.4911 101.6 30.4911C101.6 30.4912 101.6 30.4912 101.6 30.4912C101.6 30.4912 101.6 30.4912 101.6 30.4912C101.6 30.4912 101.6 30.4912 101.6 30.4912C101.6 30.4912 101.6 30.4912 101.6 30.4912C101.6 30.4912 101.6 30.4912 101.6 30.4912C101.6 30.4912 101.6 30.4912 101.6 30.4912C101.6 30.4912 101.6 30.4912 101.6 30.4912C101.6 30.4912 101.6 30.4912 101.6 30.4912C101.6 30.4912 101.6 30.4912 101.6 30.4912C101.6 30.4912 101.6 30.4912 101.6 30.4912C101.6 30.4912 101.6 30.4912 101.6 30.4912C101.6 30.4912 101.6 30.4912 101.6 30.4912C101.6 30.4912 101.6 30.4912 101.6 30.4912C101.6 30.4912 101.6 30.4912 101.6 30.4912C101.6 30.4912 101.6 30.4912 101.6 30.4912C101.6 30.4912 101.6 30.4912 101.6 30.4912C101.6 30.4912 101.6 30.4912 101.6 30.4912C101.6 30.4912 101.6 30.4912 101.6 30.4912C101.6 30.4912 101.6 30.4912 101.6 30.4912C101.6 30.4912 101.6 30.4912 101.6 30.4912C101.6 30.4912 101.6 30.4913 101.6 30.4913C101.6 30.4913 101.6 30.4913 101.6 30.4913C101.6 30.4913 101.6 30.4913 101.6 30.4913C101.6 30.4913 101.6 30.4913 101.6 30.4913C101.6 30.4913 101.6 30.4913 101.6 30.4913C101.6 30.4913 101.6 30.4913 101.6 30.4913C101.6 30.4913 101.6 30.4913 101.6 30.4913C101.6 30.4913 101.6 30.4913 101.6 30.4913C101.6 30.4913 101.6 30.4913 101.6 30.4913C101.6 30.4913 101.6 30.4913 101.6 30.4913C101.6 30.4913 101.6 30.4913 101.6 30.4913C101.6 30.4913 101.6 30.4913 101.6 30.4913C101.6 30.4913 101.6 30.4913 101.6 30.4913C101.6 30.4913 101.6 30.4913 101.6 30.4913C101.6 30.4913 101.6 30.4913 101.6 30.4913C101.6 30.4913 101.6 30.4913 101.6 30.4913C101.6 30.4913 101.6 30.4913 101.6 30.4913C101.6 30.4913 101.6 30.4913 101.6 30.4913C101.6 30.4913 101.6 30.4913 101.6 30.4913C101.6 30.4913 101.6 30.4913 101.6 30.4913C101.6 30.4913 101.6 30.4913 101.6 30.4914C101.6 30.4914 101.6 30.4914 101.6 30.4914C101.6 30.4914 101.6 30.4914 101.6 30.4914C101.6 30.4914 101.6 30.4914 101.6 30.4914C101.6 30.4914 101.6 30.4914 101.6 30.4914C101.6 30.4914 101.6 30.4914 101.6 30.4914C101.6 30.4914 101.6 30.4914 101.6 30.4914C101.6 30.4914 101.6 30.4914 101.6 30.4914C101.6 30.4914 101.6 30.4914 101.6 30.4914C101.6 30.4914 101.6 30.4914 101.6 30.4914C101.6 30.4914 101.6 30.4914 101.6 30.4914C101.6 30.4914 101.6 30.4914 101.6 30.4914C101.6 30.4914 101.6 30.4914 101.6 30.4914C101.6 30.4914 101.6 30.4914 101.6 30.4914C101.6 30.4914 101.6 30.4914 101.6 30.4914C101.6 30.4914 101.6 30.4914 101.6 30.4914C101.6 30.4914 101.6 30.4914 101.6 30.4914C101.6 30.4914 101.6 30.4914 101.6 30.4914C101.6 30.4914 101.6 30.4914 101.6 30.4914C101.6 30.4914 101.6 30.4914 101.6 30.4914C101.6 30.4914 101.6 30.4914 101.6 30.4914C101.6 30.4915 101.6 30.4915 101.6 30.4915C101.6 30.4915 101.6 30.4915 101.6 30.4915C101.6 30.4915 101.6 30.4915 101.6 30.4915C101.6 30.4915 101.6 30.4915 101.6 30.4915C101.6 30.4915 101.6 30.4915 101.6 30.4915C101.6 30.4915 101.6 30.4915 101.6 30.4915C101.6 30.4915 101.6 30.4915 101.6 30.4915C101.6 30.4915 101.6 30.4915 101.6 30.4915C101.6 30.4915 101.6 30.4915 101.6 30.4915C101.6 30.4915 101.6 30.4915 101.6 30.4915C101.6 30.4915 101.6 30.4915 101.6 30.4915C101.6 30.4915 101.6 30.4915 101.6 30.4915C101.6 30.4915 101.6 30.4915 101.6 30.4915C101.6 30.4915 101.6 30.4915 101.6 30.4915C101.6 30.4915 101.6 30.4915 101.6 30.4915C101.6 30.4915 101.6 30.4915 101.6 30.4915C101.6 30.4915 101.6 30.4915 101.6 30.4915C101.6 30.4915 101.6 30.4915 101.6 30.4915C101.6 30.4915 101.6 30.4915 101.6 30.4915C101.6 30.4915 101.6 30.4915 101.6 30.4915C101.6 30.4915 101.6 30.4916 101.6 30.4916C101.6 30.4916 101.6 30.4916 101.6 30.4916C101.6 30.4916 101.6 30.4916 101.6 30.4916C101.6 30.4916 101.6 30.4916 101.6 30.4916C101.6 30.4916 101.6 30.4916 101.6 30.4916C101.6 30.4916 101.6 30.4916 101.6 30.4916C101.6 30.4916 101.6 30.4916 101.6 30.4916C101.6 30.4916 101.6 30.4916 101.6 30.4916C101.6 30.4916 101.6 30.4916 101.6 30.4916C101.6 30.4916 101.6 30.4916 101.6 30.4916C101.6 30.4916 101.6 30.4916 101.6 30.4916C101.6 30.4916 101.6 30.4916 101.6 30.4916C101.6 30.4916 101.6 30.4916 101.6 30.4916C101.6 30.4916 101.6 30.4916 101.6 30.4916C101.6 30.4916 101.6 30.4916 101.6 30.4916C101.6 30.4916 101.6 30.4916 101.6 30.4916C101.6 30.4916 101.6 30.4916 101.6 30.4916C101.6 30.4916 101.6 30.4916 101.6 30.4916C101.6 30.4916 101.6 30.4916 101.6 30.4916C101.6 30.4916 101.6 30.4916 101.6 30.4916C101.6 30.4916 101.6 30.4916 101.6 30.4917C101.6 30.4917 101.6 30.4917 101.6 30.4917C101.6 30.4917 101.6 30.4917 101.6 30.4917C101.6 30.4917 101.6 30.4917 101.6 30.4917C101.6 30.4917 101.6 30.4917 101.6 30.4917C101.6 30.4917 101.6 30.4917 101.6 30.4917C101.6 30.4917 101.6 30.4917 101.6 30.4917C101.6 30.4917 101.6 30.4917 101.6 30.4917C101.6 30.4917 101.6 30.4917 101.6 30.4917C101.6 30.4917 101.6 30.4917 101.6 30.4917C101.6 30.4917 101.6 30.4917 101.6 30.4917C101.6 30.4917 101.6 30.4917 101.6 30.4917C101.6 30.4917 101.6 30.4917 101.6 30.4917C101.6 30.4917 101.6 30.4917 101.6 30.4917C101.6 30.4917 101.6 30.4917 101.6 30.4917C101.6 30.4917 101.6 30.4917 101.6 30.4917C101.6 30.4917 101.6 30.4917 101.6 30.4917C101.6 30.4917 101.6 30.4917 101.6 30.4917C101.6 30.4917 101.6 30.4917 101.6 30.4917C101.6 30.4917 101.6 30.4917 101.6 30.4917C101.6 30.4917 101.6 30.4917 101.6 30.4917C101.6 30.4918 101.6 30.4918 101.6 30.4918C101.6 30.4918 101.6 30.4918 101.6 30.4918C101.6 30.4918 101.6 30.4918 101.6 30.4918C101.6 30.4918 101.6 30.4918 101.6 30.4918C101.6 30.4918 101.6 30.4918 101.6 30.4918C101.6 30.4918 101.6 30.4918 101.6 30.4918C101.6 30.4918 101.6 30.4918 101.6 30.4918C101.6 30.4918 101.6 30.4918 101.6 30.4918C101.6 30.4918 101.6 30.4918 101.6 30.4918C101.6 30.4918 101.6 30.4918 101.6 30.4918C101.6 30.4918 101.6 30.4918 101.6 30.4918C101.6 30.4918 101.6 30.4918 101.6 30.4918C101.6 30.4918 101.6 30.4918 101.6 30.4918C101.6 30.4918 101.6 30.4918 101.6 30.4918C101.6 30.4918 101.6 30.4918 101.6 30.4918C101.6 30.4918 101.6 30.4918 101.6 30.4918C101.6 30.4918 101.6 30.4918 101.6 30.4918C101.6 30.4918 101.6 30.4918 101.6 30.4918C101.6 30.4918 101.6 30.4918 101.6 30.4918C101.6 30.4918 101.6 30.4918 101.6 30.4918C101.6 30.4918 101.6 30.4919 101.6 30.4919C101.6 30.4919 101.6 30.4919 101.6 30.4919C101.6 30.4919 101.6 30.4919 101.6 30.4919C101.6 30.4919 101.6 30.4919 101.6 30.4919C101.6 30.4919 101.6 30.4919 101.6 30.4919C101.6 30.4919 101.6 30.4919 101.6 30.4919C101.6 30.4919 101.6 30.4919 101.6 30.4919C101.6 30.4919 101.6 30.4919 101.6 30.4919C101.6 30.4919 101.6 30.4919 101.6 30.4919C101.6 30.4919 101.6 30.4919 101.6 30.4919C101.6 30.4919 101.6 30.4919 101.6 30.4919C101.6 30.4919 101.6 30.4919 101.6 30.4919C101.6 30.4919 101.6 30.4919 101.6 30.4919C101.6 30.4919 101.6 30.4919 101.6 30.4919C101.6 30.4919 101.6 30.4919 101.6 30.4919C101.6 30.4919 101.6 30.4919 101.6 30.4919C101.6 30.4919 101.6 30.4919 101.6 30.4919C101.6 30.4919 101.6 30.4919 101.6 30.4919C101.6 30.4919 101.6 30.4919 101.6 30.4919C101.6 30.4919 101.6 30.4919 101.6 30.4919C101.6 30.4919 101.6 30.4919 101.6 30.492C101.6 30.492 101.6 30.492 101.6 30.492C101.6 30.492 101.6 30.492 101.6 30.492C101.6 30.492 101.6 30.492 101.6 30.492C101.6 30.492 101.6 30.492 101.6 30.492C101.6 30.492 101.6 30.492 101.6 30.492C101.6 30.492 101.6 30.492 101.6 30.492C101.6 30.492 101.6 30.492 101.6 30.492C101.6 30.492 101.6 30.492 101.6 30.492C101.6 30.492 101.6 30.492 101.6 30.492C101.6 30.492 101.6 30.492 101.6 30.492C101.6 30.492 101.6 30.492 101.6 30.492C101.6 30.492 101.6 30.492 101.6 30.492C101.6 30.492 101.6 30.492 101.6 30.492C101.6 30.492 101.6 30.492 101.6 30.492C101.6 30.492 101.6 30.492 101.6 30.492C101.6 30.492 101.6 30.492 101.6 30.492C101.6 30.492 101.6 30.492 101.6 30.492C101.6 30.492 101.6 30.492 101.6 30.492C101.6 30.492 101.6 30.492 101.6 30.492C101.6 30.492 101.6 30.492 101.6 30.492C101.6 30.4921 101.6 30.4921 101.6 30.4921C101.6 30.4921 101.6 30.4921 101.6 30.4921C101.6 30.4921 101.6 30.4921 101.6 30.4921C101.6 30.4921 101.6 30.4921 101.6 30.4921C101.6 30.4921 101.6 30.4921 101.6 30.4921C101.6 30.4921 101.6 30.4921 101.6 30.4921C101.6 30.4921 101.6 30.4921 101.6 30.4921C101.6 30.4921 101.6 30.4921 101.6 30.4921C101.6 30.4921 101.6 30.4921 101.6 30.4921C101.6 30.4921 101.6 30.4921 101.6 30.4921C101.6 30.4921 101.6 30.4921 101.6 30.4921C101.6 30.4921 101.6 30.4921 101.6 30.4921C101.6 30.4921 101.6 30.4921 101.6 30.4921C101.6 30.4921 101.6 30.4921 101.6 30.4921C101.6 30.4921 101.6 30.4921 101.6 30.4921C101.6 30.4921 101.6 30.4921 101.6 30.4921C101.6 30.4921 101.6 30.4921 101.6 30.4921C101.6 30.4921 101.6 30.4921 101.6 30.4921C101.6 30.4921 101.6 30.4921 101.6 30.4921C101.6 30.4921 101.6 30.4921 101.6 30.4921C101.6 30.4921 101.6 30.4922 101.6 30.4922C101.6 30.4922 101.6 30.4922 101.6 30.4922C101.6 30.4922 101.6 30.4922 101.6 30.4922C101.6 30.4922 101.6 30.4922 101.6 30.4922C101.6 30.4922 101.6 30.4922 101.6 30.4922C101.6 30.4922 101.6 30.4922 101.6 30.4922C101.6 30.4922 101.6 30.4922 101.6 30.4922C101.6 30.4922 101.6 30.4922 101.6 30.4922C101.6 30.4922 101.6 30.4922 101.6 30.4922C101.6 30.4922 101.6 30.4922 101.6 30.4922C101.6 30.4922 101.6 30.4922 101.6 30.4922C101.6 30.4922 101.6 30.4922 101.6 30.4922C101.6 30.4922 101.6 30.4922 101.6 30.4922C101.6 30.4922 101.6 30.4922 101.6 30.4922C101.6 30.4922 101.6 30.4922 101.6 30.4922C101.6 30.4922 101.6 30.4922 101.6 30.4922C101.6 30.4922 101.6 30.4922 101.6 30.4922C101.6 30.4922 101.6 30.4922 101.6 30.4922C101.6 30.4922 101.6 30.4922 101.6 30.4922C101.6 30.4922 101.6 30.4922 101.6 30.4922C101.6 30.4922 101.6 30.4922 101.6 30.4923C101.6 30.4923 101.6 30.4923 101.6 30.4923C101.6 30.4923 101.6 30.4923 101.6 30.4923C101.6 30.4923 101.6 30.4923 101.6 30.4923C101.6 30.4923 101.6 30.4923 101.6 30.4923C101.6 30.4923 101.6 30.4923 101.6 30.4923C101.6 30.4923 101.6 30.4923 101.6 30.4923C101.6 30.4923 101.6 30.4923 101.6 30.4923C101.6 30.4923 101.6 30.4923 101.6 30.4923C101.6 30.4923 101.6 30.4923 101.6 30.4923C101.6 30.4923 101.6 30.4923 101.6 30.4923C101.6 30.4923 101.6 30.4923 101.6 30.4923C101.6 30.4923 101.6 30.4923 101.6 30.4923C101.6 30.4923 101.6 30.4923 101.6 30.4923C101.6 30.4923 101.6 30.4923 101.6 30.4923C101.6 30.4923 101.6 30.4923 101.6 30.4923C101.6 30.4923 101.6 30.4923 101.6 30.4923C101.6 30.4923 101.6 30.4923 101.6 30.4923C101.6 30.4923 101.6 30.4923 101.6 30.4923C101.6 30.4923 101.6 30.4923 101.6 30.4923C101.6 30.4923 101.6 30.4923 101.6 30.4923C101.6 30.4924 101.6 30.4924 101.6 30.4924C101.6 30.4924 101.6 30.4924 101.6 30.4924C101.6 30.4924 101.6 30.4924 101.6 30.4924C101.6 30.4924 101.6 30.4924 101.6 30.4924C101.6 30.4924 101.6 30.4924 101.6 30.4924C101.6 30.4924 101.6 30.4924 101.6 30.4924C101.6 30.4924 101.6 30.4924 101.6 30.4924C101.6 30.4924 101.6 30.4924 101.6 30.4924C101.6 30.4924 101.6 30.4924 101.6 30.4924C101.6 30.4924 101.6 30.4924 101.6 30.4924C101.6 30.4924 101.6 30.4924 101.6 30.4924C101.6 30.4924 101.6 30.4924 101.6 30.4924C101.6 30.4924 101.6 30.4924 101.6 30.4924C101.6 30.4924 101.6 30.4924 101.6 30.4924C101.6 30.4924 101.6 30.4924 101.6 30.4924C101.6 30.4924 101.6 30.4924 101.6 30.4924C101.6 30.4924 101.6 30.4924 101.6 30.4924C101.6 30.4924 101.6 30.4924 101.6 30.4924C101.6 30.4924 101.6 30.4924 101.6 30.4924C101.6 30.4924 101.6 30.4924 101.6 30.4924C101.6 30.4924 101.6 30.4925 101.6 30.4925C101.6 30.4925 101.6 30.4925 101.6 30.4925C101.6 30.4925 101.6 30.4925 101.6 30.4925C101.6 30.4925 101.6 30.4925 101.6 30.4925C101.6 30.4925 101.6 30.4925 101.6 30.4925C101.6 30.4925 101.6 30.4925 101.6 30.4925C101.6 30.4925 101.6 30.4925 101.6 30.4925C101.6 30.4925 101.6 30.4925 101.6 30.4925C101.6 30.4925 101.6 30.4925 101.6 30.4925C101.6 30.4925 101.6 30.4925 101.6 30.4925C101.6 30.4925 101.6 30.4925 101.6 30.4925C101.6 30.4925 101.6 30.4925 101.6 30.4925C101.6 30.4925 101.6 30.4925 101.6 30.4925C101.6 30.4925 101.6 30.4925 101.6 30.4925C101.6 30.4925 101.6 30.4925 101.6 30.4925C101.6 30.4925 101.6 30.4925 101.6 30.4925C101.6 30.4925 101.6 30.4925 101.6 30.4925C101.6 30.4925 101.6 30.4925 101.6 30.4925C101.6 30.4925 101.6 30.4925 101.6 30.4925C101.6 30.4925 101.6 30.4925 101.6 30.4925C101.6 30.4925 101.6 30.4925 101.6 30.4926C101.6 30.4926 101.6 30.4926 101.6 30.4926C101.6 30.4926 101.6 30.4926 101.6 30.4926C101.6 30.4926 101.6 30.4926 101.6 30.4926C101.6 30.4926 101.6 30.4926 101.6 30.4926C101.6 30.4926 101.6 30.4926 101.6 30.4926C101.6 30.4926 101.6 30.4926 101.6 30.4926C101.6 30.4926 101.6 30.4926 101.6 30.4926C101.6 30.4926 101.6 30.4926 101.6 30.4926C101.6 30.4926 101.6 30.4926 101.6 30.4926C101.6 30.4926 101.6 30.4926 101.6 30.4926C101.6 30.4926 101.6 30.4926 101.6 30.4926C101.6 30.4926 101.6 30.4926 101.6 30.4926C101.6 30.4926 101.6 30.4926 101.6 30.4926C101.6 30.4926 101.6 30.4926 101.6 30.4926C101.6 30.4926 101.6 30.4926 101.6 30.4926C101.6 30.4926 101.6 30.4926 101.6 30.4926C101.6 30.4926 101.6 30.4926 101.6 30.4926C101.6 30.4926 101.6 30.4926 101.6 30.4926C101.6 30.4926 101.6 30.4926 101.6 30.4926C101.6 30.4926 101.6 30.4926 101.6 30.4926C101.6 30.4927 101.6 30.4927 101.6 30.4927C101.6 30.4927 101.6 30.4927 101.6 30.4927C101.6 30.4927 101.6 30.4927 101.6 30.4927C101.6 30.4927 101.6 30.4927 101.6 30.4927C101.6 30.4927 101.6 30.4927 101.6 30.4927C101.6 30.4927 101.6 30.4927 101.6 30.4927C101.6 30.4927 101.6 30.4927 101.6 30.4927C101.6 30.4927 101.6 30.4927 101.6 30.4927C101.6 30.4927 101.6 30.4927 101.6 30.4927C101.6 30.4927 101.6 30.4927 101.6 30.4927C101.6 30.4927 101.6 30.4927 101.6 30.4927C101.6 30.4927 101.6 30.4927 101.6 30.4927C101.6 30.4927 101.6 30.4927 101.6 30.4927C101.6 30.4927 101.6 30.4927 101.6 30.4927C101.6 30.4927 101.6 30.4927 101.6 30.4927C101.6 30.4927 101.6 30.4927 101.6 30.4927C101.6 30.4927 101.6 30.4927 101.6 30.4927C101.6 30.4927 101.6 30.4927 101.6 30.4927C101.6 30.4927 101.6 30.4927 101.6 30.4927C101.6 30.4927 101.6 30.4927 101.6 30.4927C101.6 30.4927 101.6 30.4928 101.6 30.4928C101.6 30.4928 101.6 30.4928 101.6 30.4928C101.6 30.4928 101.6 30.4928 101.6 30.4928C101.6 30.4928 101.6 30.4928 101.6 30.4928C101.6 30.4928 101.6 30.4928 101.6 30.4928C101.6 30.4928 101.6 30.4928 101.6 30.4928C101.6 30.4928 101.6 30.4928 101.6 30.4928C101.6 30.4928 101.6 30.4928 101.6 30.4928C101.6 30.4928 101.6 30.4928 101.6 30.4928C101.6 30.4928 101.6 30.4928 101.6 30.4928C101.6 30.4928 101.6 30.4928 101.6 30.4928C101.6 30.4928 101.6 30.4928 101.6 30.4928C101.6 30.4928 101.6 30.4928 101.6 30.4928C101.6 30.4928 101.6 30.4928 101.6 30.4928C101.6 30.4928 101.6 30.4928 101.6 30.4928C101.6 30.4928 101.6 30.4928 101.6 30.4928C101.6 30.4928 101.6 30.4928 101.6 30.4928C101.6 30.4928 101.6 30.4928 101.6 30.4928C101.6 30.4928 101.6 30.4928 101.6 30.4928C101.6 30.4928 101.6 30.4928 101.6 30.4928C101.6 30.4928 101.6 30.4928 101.6 30.4929C101.6 30.4929 101.6 30.4929 101.6 30.4929C101.6 30.4929 101.6 30.4929 101.6 30.4929L102.191 30.594C102.191 30.594 102.191 30.594 102.191 30.594C102.191 30.594 102.191 30.594 102.191 30.594C102.191 30.594 102.191 30.594 102.191 30.594C102.191 30.594 102.191 30.594 102.191 30.594C102.191 30.594 102.191 30.594 102.191 30.594C102.191 30.594 102.191 30.594 102.191 30.594C102.191 30.594 102.191 30.5939 102.191 30.5939C102.191 30.5939 102.191 30.5939 102.191 30.5939C102.191 30.5939 102.191 30.5939 102.191 30.5939C102.191 30.5939 102.191 30.5939 102.191 30.5939C102.191 30.5939 102.191 30.5939 102.191 30.5939C102.191 30.5939 102.191 30.5939 102.191 30.5939C102.191 30.5939 102.191 30.5939 102.191 30.5939C102.191 30.5939 102.191 30.5939 102.191 30.5939C102.191 30.5939 102.191 30.5939 102.191 30.5939C102.191 30.5939 102.191 30.5939 102.191 30.5939C102.191 30.5939 102.191 30.5939 102.191 30.5939C102.191 30.5939 102.191 30.5939 102.191 30.5939C102.191 30.5939 102.191 30.5939 102.191 30.5939C102.191 30.5939 102.191 30.5939 102.191 30.5939C102.191 30.5939 102.191 30.5939 102.191 30.5939C102.191 30.5939 102.191 30.5939 102.191 30.5939C102.191 30.5939 102.191 30.5939 102.191 30.5939C102.191 30.5939 102.191 30.5939 102.191 30.5939C102.191 30.5939 102.191 30.5939 102.191 30.5939C102.191 30.5939 102.191 30.5939 102.191 30.5939C102.191 30.5939 102.191 30.5939 102.191 30.5938C102.191 30.5938 102.191 30.5938 102.191 30.5938C102.191 30.5938 102.191 30.5938 102.191 30.5938C102.191 30.5938 102.191 30.5938 102.191 30.5938C102.191 30.5938 102.191 30.5938 102.191 30.5938C102.191 30.5938 102.191 30.5938 102.191 30.5938C102.191 30.5938 102.191 30.5938 102.191 30.5938C102.191 30.5938 102.191 30.5938 102.191 30.5938C102.191 30.5938 102.191 30.5938 102.191 30.5938C102.191 30.5938 102.191 30.5938 102.191 30.5938C102.191 30.5938 102.191 30.5938 102.191 30.5938C102.191 30.5938 102.191 30.5938 102.191 30.5938C102.191 30.5938 102.191 30.5938 102.191 30.5938C102.191 30.5938 102.191 30.5938 102.191 30.5938C102.191 30.5938 102.191 30.5938 102.191 30.5938C102.191 30.5938 102.191 30.5938 102.191 30.5938C102.191 30.5938 102.191 30.5938 102.191 30.5938C102.191 30.5938 102.191 30.5938 102.191 30.5938C102.191 30.5938 102.191 30.5938 102.191 30.5938C102.191 30.5938 102.191 30.5938 102.191 30.5938C102.191 30.5938 102.191 30.5938 102.191 30.5938C102.191 30.5937 102.191 30.5937 102.191 30.5937C102.191 30.5937 102.191 30.5937 102.191 30.5937C102.191 30.5937 102.191 30.5937 102.191 30.5937C102.191 30.5937 102.191 30.5937 102.191 30.5937C102.191 30.5937 102.191 30.5937 102.191 30.5937C102.191 30.5937 102.191 30.5937 102.191 30.5937C102.191 30.5937 102.191 30.5937 102.191 30.5937C102.191 30.5937 102.191 30.5937 102.191 30.5937C102.191 30.5937 102.191 30.5937 102.191 30.5937C102.191 30.5937 102.191 30.5937 102.191 30.5937C102.191 30.5937 102.191 30.5937 102.191 30.5937C102.191 30.5937 102.191 30.5937 102.191 30.5937C102.191 30.5937 102.191 30.5937 102.191 30.5937C102.191 30.5937 102.191 30.5937 102.191 30.5937C102.191 30.5937 102.191 30.5937 102.191 30.5937C102.191 30.5937 102.191 30.5937 102.191 30.5937C102.191 30.5937 102.191 30.5937 102.191 30.5937C102.191 30.5937 102.191 30.5937 102.191 30.5937C102.191 30.5937 102.191 30.5937 102.191 30.5937C102.191 30.5937 102.191 30.5937 102.191 30.5937C102.191 30.5937 102.191 30.5936 102.191 30.5936C102.191 30.5936 102.191 30.5936 102.191 30.5936C102.191 30.5936 102.191 30.5936 102.191 30.5936C102.191 30.5936 102.191 30.5936 102.191 30.5936C102.191 30.5936 102.191 30.5936 102.191 30.5936C102.191 30.5936 102.191 30.5936 102.191 30.5936C102.191 30.5936 102.191 30.5936 102.191 30.5936C102.191 30.5936 102.191 30.5936 102.191 30.5936C102.191 30.5936 102.191 30.5936 102.191 30.5936C102.191 30.5936 102.191 30.5936 102.191 30.5936C102.191 30.5936 102.191 30.5936 102.191 30.5936C102.191 30.5936 102.191 30.5936 102.191 30.5936C102.191 30.5936 102.191 30.5936 102.191 30.5936C102.191 30.5936 102.191 30.5936 102.191 30.5936C102.191 30.5936 102.191 30.5936 102.191 30.5936C102.191 30.5936 102.191 30.5936 102.191 30.5936C102.191 30.5936 102.191 30.5936 102.191 30.5936C102.191 30.5936 102.191 30.5936 102.191 30.5936C102.191 30.5936 102.191 30.5936 102.191 30.5936C102.191 30.5936 102.191 30.5936 102.191 30.5936C102.191 30.5936 102.191 30.5936 102.191 30.5935C102.191 30.5935 102.191 30.5935 102.191 30.5935C102.191 30.5935 102.191 30.5935 102.191 30.5935C102.191 30.5935 102.191 30.5935 102.191 30.5935C102.191 30.5935 102.191 30.5935 102.191 30.5935C102.191 30.5935 102.191 30.5935 102.191 30.5935C102.191 30.5935 102.191 30.5935 102.191 30.5935C102.191 30.5935 102.191 30.5935 102.191 30.5935C102.191 30.5935 102.191 30.5935 102.191 30.5935C102.191 30.5935 102.191 30.5935 102.191 30.5935C102.191 30.5935 102.191 30.5935 102.191 30.5935C102.191 30.5935 102.191 30.5935 102.191 30.5935C102.191 30.5935 102.191 30.5935 102.191 30.5935C102.191 30.5935 102.191 30.5935 102.191 30.5935C102.191 30.5935 102.191 30.5935 102.191 30.5935C102.191 30.5935 102.191 30.5935 102.191 30.5935C102.191 30.5935 102.191 30.5935 102.191 30.5935C102.191 30.5935 102.191 30.5935 102.191 30.5935C102.191 30.5935 102.191 30.5935 102.191 30.5935C102.191 30.5935 102.191 30.5935 102.191 30.5935C102.191 30.5935 102.191 30.5935 102.191 30.5935C102.191 30.5934 102.191 30.5934 102.191 30.5934C102.191 30.5934 102.191 30.5934 102.191 30.5934C102.191 30.5934 102.191 30.5934 102.191 30.5934C102.191 30.5934 102.191 30.5934 102.191 30.5934C102.191 30.5934 102.191 30.5934 102.191 30.5934C102.191 30.5934 102.191 30.5934 102.191 30.5934C102.191 30.5934 102.191 30.5934 102.191 30.5934C102.191 30.5934 102.191 30.5934 102.191 30.5934C102.191 30.5934 102.191 30.5934 102.191 30.5934C102.191 30.5934 102.191 30.5934 102.191 30.5934C102.191 30.5934 102.191 30.5934 102.191 30.5934C102.191 30.5934 102.191 30.5934 102.191 30.5934C102.191 30.5934 102.191 30.5934 102.192 30.5934C102.192 30.5934 102.192 30.5934 102.192 30.5934C102.192 30.5934 102.192 30.5934 102.192 30.5934C102.192 30.5934 102.192 30.5934 102.192 30.5934C102.192 30.5934 102.192 30.5934 102.192 30.5934C102.192 30.5934 102.192 30.5934 102.192 30.5934C102.192 30.5934 102.192 30.5934 102.192 30.5934C102.192 30.5934 102.192 30.5934 102.192 30.5934C102.192 30.5934 102.192 30.5933 102.192 30.5933C102.192 30.5933 102.192 30.5933 102.192 30.5933C102.192 30.5933 102.192 30.5933 102.192 30.5933C102.192 30.5933 102.192 30.5933 102.192 30.5933C102.192 30.5933 102.192 30.5933 102.192 30.5933C102.192 30.5933 102.192 30.5933 102.192 30.5933C102.192 30.5933 102.192 30.5933 102.192 30.5933C102.192 30.5933 102.192 30.5933 102.192 30.5933C102.192 30.5933 102.192 30.5933 102.192 30.5933C102.192 30.5933 102.192 30.5933 102.192 30.5933C102.192 30.5933 102.192 30.5933 102.192 30.5933C102.192 30.5933 102.192 30.5933 102.192 30.5933C102.192 30.5933 102.192 30.5933 102.192 30.5933C102.192 30.5933 102.192 30.5933 102.192 30.5933C102.192 30.5933 102.192 30.5933 102.192 30.5933C102.192 30.5933 102.192 30.5933 102.192 30.5933C102.192 30.5933 102.192 30.5933 102.192 30.5933C102.192 30.5933 102.192 30.5933 102.192 30.5933C102.192 30.5933 102.192 30.5933 102.192 30.5933C102.192 30.5933 102.192 30.5933 102.192 30.5933C102.192 30.5933 102.192 30.5933 102.192 30.5932C102.192 30.5932 102.192 30.5932 102.192 30.5932C102.192 30.5932 102.192 30.5932 102.192 30.5932C102.192 30.5932 102.192 30.5932 102.192 30.5932C102.192 30.5932 102.192 30.5932 102.192 30.5932C102.192 30.5932 102.192 30.5932 102.192 30.5932C102.192 30.5932 102.192 30.5932 102.192 30.5932C102.192 30.5932 102.192 30.5932 102.192 30.5932C102.192 30.5932 102.192 30.5932 102.192 30.5932C102.192 30.5932 102.192 30.5932 102.192 30.5932C102.192 30.5932 102.192 30.5932 102.192 30.5932C102.192 30.5932 102.192 30.5932 102.192 30.5932C102.192 30.5932 102.192 30.5932 102.192 30.5932C102.192 30.5932 102.192 30.5932 102.192 30.5932C102.192 30.5932 102.192 30.5932 102.192 30.5932C102.192 30.5932 102.192 30.5932 102.192 30.5932C102.192 30.5932 102.192 30.5932 102.192 30.5932C102.192 30.5932 102.192 30.5932 102.192 30.5932C102.192 30.5932 102.192 30.5932 102.192 30.5932C102.192 30.5932 102.192 30.5932 102.192 30.5932C102.192 30.5932 102.192 30.5932 102.192 30.5932C102.192 30.5931 102.192 30.5931 102.192 30.5931C102.192 30.5931 102.192 30.5931 102.192 30.5931C102.192 30.5931 102.192 30.5931 102.192 30.5931C102.192 30.5931 102.192 30.5931 102.192 30.5931C102.192 30.5931 102.192 30.5931 102.192 30.5931C102.192 30.5931 102.192 30.5931 102.192 30.5931C102.192 30.5931 102.192 30.5931 102.192 30.5931C102.192 30.5931 102.192 30.5931 102.192 30.5931C102.192 30.5931 102.192 30.5931 102.192 30.5931C102.192 30.5931 102.192 30.5931 102.192 30.5931C102.192 30.5931 102.192 30.5931 102.192 30.5931C102.192 30.5931 102.192 30.5931 102.192 30.5931C102.192 30.5931 102.192 30.5931 102.192 30.5931C102.192 30.5931 102.192 30.5931 102.192 30.5931C102.192 30.5931 102.192 30.5931 102.192 30.5931C102.192 30.5931 102.192 30.5931 102.192 30.5931C102.192 30.5931 102.192 30.5931 102.192 30.5931C102.192 30.5931 102.192 30.5931 102.192 30.5931C102.192 30.5931 102.192 30.5931 102.192 30.5931C102.192 30.5931 102.192 30.5931 102.192 30.5931C102.192 30.5931 102.192 30.593 102.192 30.593C102.192 30.593 102.192 30.593 102.192 30.593C102.192 30.593 102.192 30.593 102.192 30.593C102.192 30.593 102.192 30.593 102.192 30.593C102.192 30.593 102.192 30.593 102.192 30.593C102.192 30.593 102.192 30.593 102.192 30.593C102.192 30.593 102.192 30.593 102.192 30.593C102.192 30.593 102.192 30.593 102.192 30.593C102.192 30.593 102.192 30.593 102.192 30.593C102.192 30.593 102.192 30.593 102.192 30.593C102.192 30.593 102.192 30.593 102.192 30.593C102.192 30.593 102.192 30.593 102.192 30.593C102.192 30.593 102.192 30.593 102.192 30.593C102.192 30.593 102.192 30.593 102.192 30.593C102.192 30.593 102.192 30.593 102.192 30.593C102.192 30.593 102.192 30.593 102.192 30.593C102.192 30.593 102.192 30.593 102.192 30.593C102.192 30.593 102.192 30.593 102.192 30.593C102.192 30.593 102.192 30.593 102.192 30.593C102.192 30.593 102.192 30.593 102.192 30.593C102.192 30.593 102.192 30.593 102.192 30.5929C102.192 30.5929 102.192 30.5929 102.192 30.5929C102.192 30.5929 102.192 30.5929 102.192 30.5929C102.192 30.5929 102.192 30.5929 102.192 30.5929C102.192 30.5929 102.192 30.5929 102.192 30.5929C102.192 30.5929 102.192 30.5929 102.192 30.5929C102.192 30.5929 102.192 30.5929 102.192 30.5929C102.192 30.5929 102.192 30.5929 102.192 30.5929C102.192 30.5929 102.192 30.5929 102.192 30.5929C102.192 30.5929 102.192 30.5929 102.192 30.5929C102.192 30.5929 102.192 30.5929 102.192 30.5929C102.192 30.5929 102.192 30.5929 102.192 30.5929C102.192 30.5929 102.192 30.5929 102.192 30.5929C102.192 30.5929 102.192 30.5929 102.192 30.5929C102.192 30.5929 102.192 30.5929 102.192 30.5929C102.192 30.5929 102.192 30.5929 102.192 30.5929C102.192 30.5929 102.192 30.5929 102.192 30.5929C102.192 30.5929 102.192 30.5929 102.192 30.5929C102.192 30.5929 102.192 30.5929 102.192 30.5929C102.192 30.5929 102.192 30.5929 102.192 30.5929C102.192 30.5929 102.192 30.5929 102.192 30.5929C102.192 30.5928 102.192 30.5928 102.192 30.5928C102.192 30.5928 102.192 30.5928 102.192 30.5928C102.192 30.5928 102.192 30.5928 102.192 30.5928C102.192 30.5928 102.192 30.5928 102.192 30.5928C102.192 30.5928 102.192 30.5928 102.192 30.5928C102.192 30.5928 102.192 30.5928 102.192 30.5928C102.192 30.5928 102.192 30.5928 102.192 30.5928C102.192 30.5928 102.192 30.5928 102.192 30.5928C102.192 30.5928 102.192 30.5928 102.192 30.5928C102.192 30.5928 102.192 30.5928 102.192 30.5928C102.192 30.5928 102.192 30.5928 102.192 30.5928C102.192 30.5928 102.192 30.5928 102.192 30.5928C102.192 30.5928 102.192 30.5928 102.192 30.5928C102.192 30.5928 102.192 30.5928 102.192 30.5928C102.192 30.5928 102.192 30.5928 102.192 30.5928C102.192 30.5928 102.192 30.5928 102.192 30.5928C102.192 30.5928 102.192 30.5928 102.192 30.5928C102.192 30.5928 102.192 30.5928 102.192 30.5928C102.192 30.5928 102.192 30.5928 102.192 30.5928C102.192 30.5928 102.192 30.5928 102.192 30.5928C102.192 30.5928 102.192 30.5927 102.192 30.5927C102.192 30.5927 102.192 30.5927 102.192 30.5927C102.192 30.5927 102.192 30.5927 102.192 30.5927C102.192 30.5927 102.192 30.5927 102.192 30.5927C102.192 30.5927 102.192 30.5927 102.192 30.5927C102.192 30.5927 102.192 30.5927 102.192 30.5927C102.192 30.5927 102.192 30.5927 102.192 30.5927C102.192 30.5927 102.192 30.5927 102.192 30.5927C102.192 30.5927 102.192 30.5927 102.192 30.5927C102.192 30.5927 102.192 30.5927 102.192 30.5927C102.192 30.5927 102.192 30.5927 102.192 30.5927C102.192 30.5927 102.192 30.5927 102.192 30.5927C102.192 30.5927 102.192 30.5927 102.192 30.5927C102.192 30.5927 102.192 30.5927 102.192 30.5927C102.192 30.5927 102.192 30.5927 102.192 30.5927C102.192 30.5927 102.192 30.5927 102.192 30.5927C102.192 30.5927 102.192 30.5927 102.192 30.5927C102.192 30.5927 102.192 30.5927 102.192 30.5927C102.192 30.5927 102.192 30.5927 102.192 30.5927C102.192 30.5927 102.192 30.5927 102.192 30.5927C102.192 30.5927 102.192 30.5927 102.192 30.5926C102.192 30.5926 102.192 30.5926 102.192 30.5926C102.192 30.5926 102.192 30.5926 102.192 30.5926C102.192 30.5926 102.192 30.5926 102.192 30.5926C102.192 30.5926 102.192 30.5926 102.192 30.5926C102.192 30.5926 102.192 30.5926 102.192 30.5926C102.192 30.5926 102.192 30.5926 102.192 30.5926C102.192 30.5926 102.192 30.5926 102.192 30.5926C102.192 30.5926 102.192 30.5926 102.192 30.5926C102.192 30.5926 102.192 30.5926 102.192 30.5926C102.192 30.5926 102.192 30.5926 102.192 30.5926C102.192 30.5926 102.192 30.5926 102.192 30.5926C102.192 30.5926 102.192 30.5926 102.192 30.5926C102.192 30.5926 102.192 30.5926 102.192 30.5926C102.192 30.5926 102.192 30.5926 102.192 30.5926C102.192 30.5926 102.192 30.5926 102.192 30.5926C102.192 30.5926 102.192 30.5926 102.192 30.5926C102.192 30.5926 102.192 30.5926 102.192 30.5926C102.192 30.5926 102.192 30.5926 102.192 30.5926C102.192 30.5926 102.192 30.5926 102.192 30.5926C102.192 30.5926 102.192 30.5926 102.192 30.5926C102.192 30.5925 102.192 30.5925 102.192 30.5925C102.192 30.5925 102.192 30.5925 102.192 30.5925C102.192 30.5925 102.192 30.5925 102.192 30.5925C102.192 30.5925 102.192 30.5925 102.192 30.5925C102.192 30.5925 102.192 30.5925 102.192 30.5925C102.192 30.5925 102.192 30.5925 102.192 30.5925C102.192 30.5925 102.192 30.5925 102.192 30.5925C102.192 30.5925 102.192 30.5925 102.192 30.5925C102.192 30.5925 102.192 30.5925 102.192 30.5925C102.192 30.5925 102.192 30.5925 102.192 30.5925C102.192 30.5925 102.192 30.5925 102.192 30.5925C102.192 30.5925 102.192 30.5925 102.192 30.5925C102.192 30.5925 102.192 30.5925 102.192 30.5925C102.192 30.5925 102.192 30.5925 102.192 30.5925C102.192 30.5925 102.192 30.5925 102.192 30.5925C102.192 30.5925 102.192 30.5925 102.192 30.5925C102.192 30.5925 102.192 30.5925 102.192 30.5925C102.192 30.5925 102.192 30.5925 102.192 30.5925C102.192 30.5925 102.192 30.5925 102.192 30.5925C102.192 30.5925 102.192 30.5925 102.192 30.5925C102.192 30.5925 102.192 30.5924 102.192 30.5924C102.192 30.5924 102.192 30.5924 102.192 30.5924C102.192 30.5924 102.192 30.5924 102.192 30.5924C102.192 30.5924 102.192 30.5924 102.192 30.5924C102.192 30.5924 102.192 30.5924 102.192 30.5924C102.192 30.5924 102.192 30.5924 102.192 30.5924C102.192 30.5924 102.192 30.5924 102.192 30.5924C102.192 30.5924 102.192 30.5924 102.192 30.5924C102.192 30.5924 102.192 30.5924 102.192 30.5924C102.192 30.5924 102.192 30.5924 102.192 30.5924C102.192 30.5924 102.192 30.5924 102.192 30.5924C102.192 30.5924 102.192 30.5924 102.192 30.5924C102.192 30.5924 102.192 30.5924 102.192 30.5924C102.192 30.5924 102.192 30.5924 102.192 30.5924C102.192 30.5924 102.192 30.5924 102.192 30.5924C102.192 30.5924 102.192 30.5924 102.192 30.5924C102.192 30.5924 102.192 30.5924 102.192 30.5924C102.192 30.5924 102.192 30.5924 102.192 30.5924C102.192 30.5924 102.192 30.5924 102.192 30.5924C102.192 30.5924 102.192 30.5924 102.192 30.5924C102.192 30.5924 102.192 30.5924 102.192 30.5923C102.192 30.5923 102.192 30.5923 102.192 30.5923C102.192 30.5923 102.192 30.5923 102.192 30.5923C102.192 30.5923 102.192 30.5923 102.192 30.5923C102.192 30.5923 102.192 30.5923 102.192 30.5923C102.192 30.5923 102.192 30.5923 102.192 30.5923C102.192 30.5923 102.192 30.5923 102.192 30.5923C102.192 30.5923 102.192 30.5923 102.192 30.5923C102.192 30.5923 102.192 30.5923 102.192 30.5923C102.192 30.5923 102.192 30.5923 102.192 30.5923C102.192 30.5923 102.192 30.5923 102.192 30.5923C102.192 30.5923 102.192 30.5923 102.192 30.5923C102.192 30.5923 102.192 30.5923 102.192 30.5923C102.192 30.5923 102.192 30.5923 102.192 30.5923C102.192 30.5923 102.192 30.5923 102.192 30.5923C102.192 30.5923 102.192 30.5923 102.192 30.5923C102.192 30.5923 102.192 30.5923 102.192 30.5923C102.192 30.5923 102.192 30.5923 102.192 30.5923C102.192 30.5923 102.192 30.5923 102.192 30.5923C102.192 30.5923 102.192 30.5923 102.192 30.5923C102.192 30.5923 102.192 30.5923 102.192 30.5923C102.192 30.5922 102.192 30.5922 102.192 30.5922C102.192 30.5922 102.192 30.5922 102.192 30.5922C102.192 30.5922 102.192 30.5922 102.192 30.5922C102.192 30.5922 102.192 30.5922 102.192 30.5922C102.192 30.5922 102.192 30.5922 102.192 30.5922C102.192 30.5922 102.192 30.5922 102.192 30.5922C102.192 30.5922 102.192 30.5922 102.192 30.5922C102.192 30.5922 102.192 30.5922 102.192 30.5922C102.192 30.5922 102.192 30.5922 102.192 30.5922C102.192 30.5922 102.192 30.5922 102.192 30.5922C102.192 30.5922 102.192 30.5922 102.192 30.5922C102.192 30.5922 102.192 30.5922 102.192 30.5922C102.192 30.5922 102.192 30.5922 102.192 30.5922C102.192 30.5922 102.192 30.5922 102.192 30.5922C102.192 30.5922 102.192 30.5922 102.192 30.5922C102.192 30.5922 102.192 30.5922 102.192 30.5922C102.192 30.5922 102.192 30.5922 102.192 30.5922C102.192 30.5922 102.192 30.5922 102.192 30.5922C102.192 30.5922 102.192 30.5922 102.192 30.5922C102.192 30.5922 102.192 30.5922 102.192 30.5922C102.192 30.5922 102.192 30.5921 102.192 30.5921C102.192 30.5921 102.192 30.5921 102.192 30.5921C102.192 30.5921 102.192 30.5921 102.192 30.5921C102.192 30.5921 102.192 30.5921 102.192 30.5921C102.192 30.5921 102.192 30.5921 102.192 30.5921C102.192 30.5921 102.192 30.5921 102.192 30.5921C102.192 30.5921 102.192 30.5921 102.192 30.5921C102.192 30.5921 102.192 30.5921 102.192 30.5921C102.192 30.5921 102.192 30.5921 102.192 30.5921C102.192 30.5921 102.192 30.5921 102.192 30.5921C102.192 30.5921 102.192 30.5921 102.192 30.5921C102.192 30.5921 102.192 30.5921 102.192 30.5921C102.192 30.5921 102.192 30.5921 102.192 30.5921C102.192 30.5921 102.192 30.5921 102.192 30.5921C102.192 30.5921 102.192 30.5921 102.192 30.5921C102.192 30.5921 102.192 30.5921 102.192 30.5921C102.192 30.5921 102.192 30.5921 102.192 30.5921C102.192 30.5921 102.192 30.5921 102.192 30.5921C102.192 30.5921 102.192 30.5921 102.192 30.5921C102.192 30.5921 102.192 30.5921 102.192 30.5921C102.192 30.5921 102.192 30.5921 102.192 30.592C102.192 30.592 102.192 30.592 102.192 30.592C102.192 30.592 102.192 30.592 102.192 30.592C102.192 30.592 102.192 30.592 102.192 30.592C102.192 30.592 102.192 30.592 102.192 30.592C102.192 30.592 102.192 30.592 102.192 30.592C102.192 30.592 102.192 30.592 102.192 30.592C102.192 30.592 102.192 30.592 102.192 30.592C102.192 30.592 102.192 30.592 102.192 30.592C102.192 30.592 102.192 30.592 102.192 30.592C102.192 30.592 102.192 30.592 102.192 30.592C102.192 30.592 102.192 30.592 102.192 30.592C102.192 30.592 102.192 30.592 102.192 30.592C102.192 30.592 102.192 30.592 102.192 30.592C102.192 30.592 102.192 30.592 102.192 30.592C102.192 30.592 102.192 30.592 102.192 30.592C102.192 30.592 102.192 30.592 102.192 30.592C102.192 30.592 102.192 30.592 102.192 30.592C102.192 30.592 102.192 30.592 102.192 30.592C102.192 30.592 102.192 30.592 102.192 30.592C102.192 30.592 102.192 30.592 102.192 30.592C102.192 30.5919 102.192 30.5919 102.192 30.5919C102.192 30.5919 102.192 30.5919 102.192 30.5919C102.192 30.5919 102.192 30.5919 102.192 30.5919C102.192 30.5919 102.192 30.5919 102.192 30.5919C102.192 30.5919 102.192 30.5919 102.192 30.5919C102.192 30.5919 102.192 30.5919 102.192 30.5919C102.192 30.5919 102.192 30.5919 102.192 30.5919C102.192 30.5919 102.192 30.5919 102.192 30.5919C102.192 30.5919 102.192 30.5919 102.192 30.5919C102.192 30.5919 102.192 30.5919 102.192 30.5919C102.192 30.5919 102.192 30.5919 102.192 30.5919C102.192 30.5919 102.192 30.5919 102.192 30.5919C102.192 30.5919 102.192 30.5919 102.192 30.5919C102.192 30.5919 102.192 30.5919 102.192 30.5919C102.192 30.5919 102.192 30.5919 102.192 30.5919C102.192 30.5919 102.192 30.5919 102.192 30.5919C102.192 30.5919 102.192 30.5919 102.192 30.5919C102.192 30.5919 102.192 30.5919 102.192 30.5919C102.192 30.5919 102.192 30.5919 102.192 30.5919C102.192 30.5919 102.192 30.5919 102.192 30.5919C102.192 30.5919 102.192 30.5918 102.192 30.5918C102.192 30.5918 102.192 30.5918 102.192 30.5918C102.192 30.5918 102.192 30.5918 102.192 30.5918C102.192 30.5918 102.192 30.5918 102.192 30.5918C102.192 30.5918 102.192 30.5918 102.192 30.5918C102.192 30.5918 102.192 30.5918 102.192 30.5918C102.192 30.5918 102.192 30.5918 102.192 30.5918C102.192 30.5918 102.192 30.5918 102.192 30.5918C102.192 30.5918 102.192 30.5918 102.192 30.5918C102.192 30.5918 102.192 30.5918 102.192 30.5918C102.192 30.5918 102.192 30.5918 102.192 30.5918C102.192 30.5918 102.192 30.5918 102.192 30.5918C102.192 30.5918 102.192 30.5918 102.192 30.5918C102.192 30.5918 102.192 30.5918 102.192 30.5918C102.192 30.5918 102.192 30.5918 102.192 30.5918C102.192 30.5918 102.192 30.5918 102.192 30.5918C102.192 30.5918 102.192 30.5918 102.192 30.5918C102.192 30.5918 102.192 30.5918 102.192 30.5918C102.192 30.5918 102.192 30.5918 102.192 30.5918C102.192 30.5918 102.192 30.5918 102.192 30.5918C102.192 30.5918 102.192 30.5918 102.192 30.5917C102.192 30.5917 102.192 30.5917 102.192 30.5917C102.192 30.5917 102.192 30.5917 102.192 30.5917C102.192 30.5917 102.192 30.5917 102.192 30.5917C102.192 30.5917 102.192 30.5917 102.192 30.5917C102.192 30.5917 102.192 30.5917 102.192 30.5917C102.192 30.5917 102.192 30.5917 102.192 30.5917C102.192 30.5917 102.192 30.5917 102.192 30.5917C102.192 30.5917 102.192 30.5917 102.192 30.5917C102.192 30.5917 102.192 30.5917 102.192 30.5917C102.192 30.5917 102.192 30.5917 102.192 30.5917C102.192 30.5917 102.192 30.5917 102.192 30.5917C102.192 30.5917 102.192 30.5917 102.192 30.5917C102.192 30.5917 102.192 30.5917 102.192 30.5917C102.192 30.5917 102.192 30.5917 102.192 30.5917C102.192 30.5917 102.192 30.5917 102.192 30.5917C102.192 30.5917 102.192 30.5917 102.192 30.5917C102.192 30.5917 102.192 30.5917 102.192 30.5917C102.192 30.5917 102.192 30.5917 102.192 30.5917C102.192 30.5917 102.192 30.5917 102.192 30.5917C102.192 30.5917 102.192 30.5917 102.192 30.5917C102.192 30.5916 102.192 30.5916 102.192 30.5916C102.192 30.5916 102.192 30.5916 102.192 30.5916C102.192 30.5916 102.192 30.5916 102.192 30.5916C102.192 30.5916 102.192 30.5916 102.192 30.5916C102.192 30.5916 102.192 30.5916 102.192 30.5916C102.192 30.5916 102.192 30.5916 102.192 30.5916C102.192 30.5916 102.192 30.5916 102.192 30.5916C102.192 30.5916 102.192 30.5916 102.192 30.5916C102.192 30.5916 102.192 30.5916 102.192 30.5916C102.192 30.5916 102.192 30.5916 102.192 30.5916C102.192 30.5916 102.192 30.5916 102.192 30.5916C102.192 30.5916 102.192 30.5916 102.192 30.5916C102.192 30.5916 102.192 30.5916 102.192 30.5916C102.192 30.5916 102.192 30.5916 102.192 30.5916C102.192 30.5916 102.192 30.5916 102.192 30.5916C102.192 30.5916 102.192 30.5916 102.192 30.5916C102.192 30.5916 102.192 30.5916 102.192 30.5916C102.192 30.5916 102.192 30.5916 102.192 30.5916C102.192 30.5916 102.192 30.5916 102.192 30.5916C102.192 30.5916 102.192 30.5916 102.192 30.5916C102.192 30.5916 102.192 30.5915 102.192 30.5915C102.192 30.5915 102.192 30.5915 102.192 30.5915C102.192 30.5915 102.192 30.5915 102.192 30.5915C102.192 30.5915 102.192 30.5915 102.192 30.5915C102.192 30.5915 102.192 30.5915 102.192 30.5915C102.192 30.5915 102.192 30.5915 102.192 30.5915C102.192 30.5915 102.192 30.5915 102.192 30.5915C102.192 30.5915 102.192 30.5915 102.192 30.5915C102.192 30.5915 102.192 30.5915 102.192 30.5915C102.192 30.5915 102.192 30.5915 102.192 30.5915C102.192 30.5915 102.192 30.5915 102.192 30.5915C102.192 30.5915 102.192 30.5915 102.192 30.5915C102.192 30.5915 102.192 30.5915 102.192 30.5915C102.192 30.5915 102.192 30.5915 102.192 30.5915C102.192 30.5915 102.192 30.5915 102.192 30.5915C102.192 30.5915 102.192 30.5915 102.192 30.5915C102.192 30.5915 102.192 30.5915 102.192 30.5915C102.192 30.5915 102.192 30.5915 102.192 30.5915L101.6 30.4903ZM103.016 30.4281L101.947 30.2452L101.846 30.8366L102.915 31.0195L103.016 30.4281ZM103.743 32.8059C103.312 32.214 103.14 31.4832 103.261 30.7743L102.67 30.6732C102.521 31.5439 102.733 32.4379 103.258 33.1588L103.743 32.8059ZM105.561 33.928C104.827 33.8025 104.173 33.3981 103.743 32.8059L103.258 33.1588C103.782 33.8793 104.574 34.368 105.46 34.5195L105.561 33.928ZM107.649 33.4738C107.046 33.8893 106.295 34.0535 105.561 33.928L105.46 34.5195C106.346 34.671 107.256 34.4734 107.99 33.9679L107.649 33.4738ZM108.778 31.7176C108.657 32.4265 108.252 33.0585 107.649 33.4738L107.99 33.9679C108.723 33.4621 109.221 32.6894 109.37 31.8187L108.778 31.7176ZM110.194 31.6554L109.124 31.4725L109.023 32.0639L110.093 32.2468L110.194 31.6554ZM108.62 34.8346C109.588 34.1676 110.243 33.1488 110.439 32.0016L109.848 31.9005C109.679 32.886 109.116 33.764 108.279 34.3405L108.62 34.8346ZM105.282 35.5623C106.452 35.7623 107.652 35.5014 108.62 34.8346L108.279 34.3405C107.442 34.9173 106.401 35.1449 105.383 34.9709L105.282 35.5623ZM102.375 33.7668C103.066 34.7172 104.112 35.3623 105.282 35.5623L105.383 34.9709C104.365 34.7969 103.458 34.236 102.86 33.414L102.375 33.7668ZM101.797 32.6796C101.936 33.0631 102.13 33.4293 102.375 33.7668L102.86 33.414C102.648 33.1221 102.481 32.8059 102.362 32.4754L101.797 32.6796ZM101.404 33.6033C101.748 33.3659 102.053 33.0839 102.312 32.7674L101.847 32.3876C101.624 32.6605 101.361 32.904 101.063 33.1093L101.404 33.6033ZM98.0655 34.331C99.2352 34.531 100.436 34.2701 101.404 33.6033L101.063 33.1093C100.226 33.686 99.1843 33.9136 98.1666 33.7396L98.0655 34.331ZM95.1589 32.5356C95.85 33.486 96.8958 34.131 98.0655 34.331L98.1666 33.7396C97.149 33.5656 96.2419 33.0048 95.6442 32.1827L95.1589 32.5356ZM94.5786 31.4415C94.7176 31.8274 94.912 32.196 95.1589 32.5356L95.6442 32.1827C95.4307 31.8891 95.263 31.5709 95.1432 31.2382L94.5786 31.4415ZM94.1819 32.3694C94.5279 32.131 94.8339 31.8476 95.0934 31.5294L94.6284 31.1502C94.4048 31.4245 94.1406 31.6692 93.8415 31.8753L94.1819 32.3694ZM90.8439 33.0971C92.0136 33.2971 93.2143 33.0362 94.1819 32.3694L93.8415 31.8753C93.0045 32.4521 91.9626 32.6797 90.945 32.5057L90.8439 33.0971ZM87.9373 31.3016C88.6284 32.252 89.6742 32.8971 90.8439 33.0971L90.945 32.5057C89.9274 32.3317 89.0203 31.7708 88.4226 30.9488L87.9373 31.3016ZM87.282 29.9798C87.4221 30.4485 87.6422 30.8959 87.9373 31.3016L88.4226 30.9488C88.1674 30.5979 87.9776 30.2118 87.8569 29.8079L87.282 29.9798ZM86.7569 31.0966C87.1689 30.8127 87.5244 30.4649 87.8119 30.0706L87.3271 29.7171C87.0794 30.0569 86.7727 30.357 86.4164 30.6026L86.7569 31.0966ZM83.4188 31.8243C84.5886 32.0243 85.7893 31.7634 86.7569 31.0966L86.4164 30.6026C85.5795 31.1793 84.5376 31.4069 83.52 31.2329L83.4188 31.8243ZM80.5122 30.0289C81.2033 30.9793 82.2491 31.6243 83.4188 31.8243L83.52 31.2329C82.5023 31.0589 81.5953 30.4981 80.9975 29.676L80.5122 30.0289ZM79.7375 26.7524C79.5413 27.8996 79.8209 29.0782 80.5122 30.0289L80.9975 29.676C80.4 28.8543 80.1604 27.839 80.3289 26.8535L79.7375 26.7524ZM81.1533 26.6901L80.0837 26.5072L79.9826 27.0987L81.0522 27.2815L81.1533 26.6901ZM81.8799 29.0679C81.4495 28.476 81.2772 27.7453 81.3984 27.0364L80.807 26.9353C80.6582 27.8059 80.8705 28.7 81.3946 29.4208L81.8799 29.0679ZM83.6983 30.1901C82.9643 30.0646 82.3105 29.6601 81.8799 29.0679L81.3946 29.4208C81.9185 30.1414 82.7111 30.63 83.5972 30.7815L83.6983 30.1901ZM85.7862 29.7359C85.1833 30.1513 84.4322 30.3156 83.6983 30.1901L83.5972 30.7815C84.4832 30.933 85.3931 30.7354 86.1267 30.2299L85.7862 29.7359ZM86.9153 27.9797C86.7941 28.6885 86.3888 29.3206 85.7862 29.7359L86.1267 30.2299C86.8605 29.7242 87.3578 28.9514 87.5067 28.0808L86.9153 27.9797ZM88.3311 27.9174L87.2615 27.7345L87.1604 28.3259L88.23 28.5088L88.3311 27.9174ZM88.5757 28.2669L88.5762 28.2638L87.9849 28.1625L87.9843 28.1656L88.5757 28.2669ZM88.5783 27.9629L88.3306 27.9205L88.2295 28.5119L88.4772 28.5543L88.5783 27.9629ZM89.3049 30.3407C88.8745 29.7488 88.7023 29.018 88.8235 28.3091L88.2321 28.208C88.0832 29.0786 88.2955 29.9727 88.8197 30.6936L89.3049 30.3407ZM91.1233 31.4628C90.3894 31.3373 89.7355 30.9329 89.3049 30.3407L88.8197 30.6936C89.3436 31.4141 90.1362 31.9028 91.0222 32.0543L91.1233 31.4628ZM93.2112 31.0086C92.6083 31.4241 91.8573 31.5883 91.1233 31.4628L91.0222 32.0543C91.9083 32.2058 92.8181 32.0082 93.5517 31.5027L93.2112 31.0086ZM94.3403 29.2524C94.2191 29.9613 93.8139 30.5933 93.2112 31.0086L93.5517 31.5027C94.2856 30.9969 94.7829 30.2242 94.9317 29.3535L94.3403 29.2524ZM94.7303 29.0147L94.6866 29.0073L94.5855 29.5987L94.6291 29.6062L94.7303 29.0147ZM94.3841 29.2591L94.384 29.2599L94.9754 29.361L94.9756 29.3602L94.3841 29.2591ZM95.8 29.1968L94.7304 29.0139L94.6293 29.6053L95.6989 29.7882L95.8 29.1968ZM96.5266 31.5746C96.0962 30.9827 95.9239 30.252 96.0451 29.5431L95.4537 29.442C95.3048 30.3126 95.5171 31.2067 96.0413 31.9275L96.5266 31.5746ZM98.345 32.6968C97.611 32.5713 96.9572 32.1668 96.5266 31.5746L96.0413 31.9275C96.5652 32.648 97.3578 33.1367 98.2438 33.2882L98.345 32.6968ZM100.433 32.2425C99.83 32.658 99.0789 32.8223 98.345 32.6968L98.2438 33.2882C99.1299 33.4397 100.04 33.2421 100.773 32.7366L100.433 32.2425ZM101.562 30.4864C101.441 31.1952 101.035 31.8273 100.433 32.2425L100.773 32.7366C101.507 32.2309 102.005 31.4581 102.153 30.5875L101.562 30.4864ZM101.946 30.2477L101.908 30.2412L101.807 30.8326L101.845 30.8391L101.946 30.2477Z" fill="#9D9D9D" mask="url(#path-3-inside-1_153_1145)"/>
<rect x="87.2749" y="28.1907" width="1.24631" height="1.50402" rx="0.623153" transform="rotate(9.70273 87.2749 28.1907)" fill="#333848" stroke="#9D9D9D" stroke-width="0.3"/>
<rect x="79.9136" y="26.9339" width="1.24631" height="1.50402" rx="0.623153" transform="rotate(9.70273 79.9136 26.9339)" fill="#333848" stroke="#9D9D9D" stroke-width="0.3"/>
<rect x="94.6343" y="29.4554" width="1.24631" height="1.50402" rx="0.623153" transform="rotate(9.70273 94.6343 29.4554)" fill="#333848" stroke="#9D9D9D" stroke-width="0.3"/>
<rect x="101.75" y="30.6653" width="1.24631" height="1.50402" rx="0.623153" transform="rotate(9.70273 101.75 30.6653)" fill="#333848" stroke="#9D9D9D" stroke-width="0.3"/>
<rect x="108.853" y="31.8831" width="1.24631" height="1.50402" rx="0.623153" transform="rotate(9.70273 108.853 31.8831)" fill="#333848" stroke="#9D9D9D" stroke-width="0.3"/>
<path d="M77.1414 23.2654L137.267 33.8079C138.114 33.9565 138.635 34.7541 138.431 35.5895C138.226 36.4248 137.374 36.9816 136.527 36.8331L76.4006 26.2905L77.1414 23.2654Z" fill="#333848" stroke="#9D9D9D" stroke-width="0.3"/>
<path d="M79.348 24.9506C79.7228 23.1418 78.5286 21.381 76.7095 21.0601L72.5922 20.3339C72.0014 20.2297 71.4581 20.6799 71.4507 21.2798L71.3936 25.9191C71.3884 26.3411 71.6829 26.7076 72.0962 26.7932L75.4759 27.4935C77.2473 27.8606 78.9809 26.7221 79.348 24.9506Z" fill="#333848" stroke="#9D9D9D" stroke-width="0.3"/>
<circle cx="76.9574" cy="24.5311" r="1.13859" transform="rotate(11.7066 76.9574 24.5311)" fill="#333848" stroke="#9D9D9D" stroke-width="0.3"/>
<path d="M68.1808 4.46537L13.6891 32.2018L13.6891 33.177L68.1808 5.44061L68.1808 4.46537Z" fill="#333848" stroke="#9D9D9D" stroke-width="0.3"/>
<mask id="path-14-inside-2_153_1145" fill="white">
<path fill-rule="evenodd" clip-rule="evenodd" d="M37.8533 30.5402C37.8531 30.5388 37.8528 30.5374 37.8526 30.5359L36.783 30.7188C36.918 31.5086 36.7258 32.321 36.2485 32.9774C35.7712 33.6337 35.048 34.0803 34.238 34.2188C33.428 34.3573 32.5976 34.1764 31.9293 33.7159C31.2611 33.2554 30.8098 32.553 30.6748 31.7632L29.6052 31.9461C29.7875 33.0124 30.3968 33.9608 31.2991 34.5826C32.2014 35.2044 33.3227 35.4486 34.4163 35.2616C35.51 35.0746 36.4865 34.4717 37.1309 33.5854C37.3616 33.2681 37.5431 32.9237 37.6725 32.5634C37.915 32.8618 38.2016 33.1277 38.5261 33.3513C39.4283 33.9731 40.5497 34.2173 41.6433 34.0303C42.737 33.8433 43.7134 33.2404 44.3579 32.3542C44.5861 32.0403 44.7661 31.7 44.8952 31.3439C45.1352 31.6365 45.4178 31.8974 45.737 32.1174C46.6393 32.7391 47.7606 32.9834 48.8542 32.7964C49.9479 32.6094 50.9244 32.0065 51.5688 31.1202C51.845 30.7404 52.0505 30.3219 52.1808 29.8837C52.4491 30.2529 52.7814 30.5786 53.1674 30.8446C54.0697 31.4664 55.191 31.7107 56.2847 31.5237C57.3783 31.3367 58.3548 30.7337 58.9992 29.8475C59.6436 28.9612 59.9032 27.8643 59.7209 26.798L58.6513 26.9809C58.7864 27.7706 58.5941 28.583 58.1168 29.2394C57.6395 29.8958 56.9164 30.3423 56.1063 30.4808C55.2963 30.6193 54.4659 30.4384 53.7976 29.9779C53.1294 29.5174 52.6781 28.815 52.5431 28.0253L51.4735 28.2081L51.4739 28.2104L51.2209 28.2536C51.3559 29.0434 51.1637 29.8558 50.6864 30.5122C50.2091 31.1685 49.4859 31.6151 48.6759 31.7536C47.8659 31.8921 47.0355 31.7112 46.3672 31.2507C45.699 30.7902 45.2477 30.0878 45.1127 29.298L44.0431 29.4809L44.0433 29.4819L44.01 29.4875C44.145 30.2773 43.9528 31.0897 43.4755 31.7461C42.9982 32.4025 42.275 32.849 41.465 32.9875C40.655 33.126 39.8245 32.9451 39.1563 32.4846C38.4881 32.0241 38.0368 31.3217 37.9018 30.5319L37.8533 30.5402Z"/>
</mask>
<path fill-rule="evenodd" clip-rule="evenodd" d="M37.8533 30.5402C37.8531 30.5388 37.8528 30.5374 37.8526 30.5359L36.783 30.7188C36.918 31.5086 36.7258 32.321 36.2485 32.9774C35.7712 33.6337 35.048 34.0803 34.238 34.2188C33.428 34.3573 32.5976 34.1764 31.9293 33.7159C31.2611 33.2554 30.8098 32.553 30.6748 31.7632L29.6052 31.9461C29.7875 33.0124 30.3968 33.9608 31.2991 34.5826C32.2014 35.2044 33.3227 35.4486 34.4163 35.2616C35.51 35.0746 36.4865 34.4717 37.1309 33.5854C37.3616 33.2681 37.5431 32.9237 37.6725 32.5634C37.915 32.8618 38.2016 33.1277 38.5261 33.3513C39.4283 33.9731 40.5497 34.2173 41.6433 34.0303C42.737 33.8433 43.7134 33.2404 44.3579 32.3542C44.5861 32.0403 44.7661 31.7 44.8952 31.3439C45.1352 31.6365 45.4178 31.8974 45.737 32.1174C46.6393 32.7391 47.7606 32.9834 48.8542 32.7964C49.9479 32.6094 50.9244 32.0065 51.5688 31.1202C51.845 30.7404 52.0505 30.3219 52.1808 29.8837C52.4491 30.2529 52.7814 30.5786 53.1674 30.8446C54.0697 31.4664 55.191 31.7107 56.2847 31.5237C57.3783 31.3367 58.3548 30.7337 58.9992 29.8475C59.6436 28.9612 59.9032 27.8643 59.7209 26.798L58.6513 26.9809C58.7864 27.7706 58.5941 28.583 58.1168 29.2394C57.6395 29.8958 56.9164 30.3423 56.1063 30.4808C55.2963 30.6193 54.4659 30.4384 53.7976 29.9779C53.1294 29.5174 52.6781 28.815 52.5431 28.0253L51.4735 28.2081L51.4739 28.2104L51.2209 28.2536C51.3559 29.0434 51.1637 29.8558 50.6864 30.5122C50.2091 31.1685 49.4859 31.6151 48.6759 31.7536C47.8659 31.8921 47.0355 31.7112 46.3672 31.2507C45.699 30.7902 45.2477 30.0878 45.1127 29.298L44.0431 29.4809L44.0433 29.4819L44.01 29.4875C44.145 30.2773 43.9528 31.0897 43.4755 31.7461C42.9982 32.4025 42.275 32.849 41.465 32.9875C40.655 33.126 39.8245 32.9451 39.1563 32.4846C38.4881 32.0241 38.0368 31.3217 37.9018 30.5319L37.8533 30.5402Z" fill="#333848"/>
<path d="M37.8526 30.5359L37.802 30.2402L38.0977 30.1897L38.1483 30.4854L37.8526 30.5359ZM37.8533 30.5402L37.9039 30.8359L37.6082 30.8865L37.5576 30.5908L37.8533 30.5402ZM36.783 30.7188L36.4873 30.7694L36.4367 30.4737L36.7325 30.4231L36.783 30.7188ZM36.2485 32.9774L36.4911 33.1538L36.4911 33.1538L36.2485 32.9774ZM34.238 34.2188L34.1875 33.9231L34.238 34.2188ZM31.9293 33.7159L31.7591 33.9629L31.7591 33.9629L31.9293 33.7159ZM30.6748 31.7632L30.6242 31.4675L30.9199 31.4169L30.9705 31.7127L30.6748 31.7632ZM29.6052 31.9461L29.3095 31.9967L29.2589 31.7009L29.5546 31.6504L29.6052 31.9461ZM34.4163 35.2616L34.3658 34.9659L34.4163 35.2616ZM37.1309 33.5854L36.8882 33.409L37.1309 33.5854ZM37.6725 32.5634L37.3902 32.462L37.57 31.9615L37.9053 32.3742L37.6725 32.5634ZM38.5261 33.3513L38.3559 33.5983L38.3559 33.5983L38.5261 33.3513ZM41.6433 34.0303L41.5928 33.7346L41.6433 34.0303ZM44.3579 32.3542L44.6005 32.5306L44.6005 32.5306L44.3579 32.3542ZM44.8952 31.3439L44.6132 31.2416L44.7929 30.7462L45.1272 31.1537L44.8952 31.3439ZM45.737 32.1174L45.9072 31.8703L45.9072 31.8703L45.737 32.1174ZM48.8542 32.7964L48.8037 32.5007L48.8542 32.7964ZM51.5688 31.1202L51.8114 31.2967L51.8114 31.2967L51.5688 31.1202ZM52.1808 29.8837L51.8932 29.7981L52.0664 29.2159L52.4235 29.7073L52.1808 29.8837ZM53.1674 30.8446L52.9972 31.0916L53.1674 30.8446ZM56.2847 31.5237L56.2341 31.2279L56.2341 31.2279L56.2847 31.5237ZM58.9992 29.8475L58.7566 29.6711L58.9992 29.8475ZM59.7209 26.798L59.6703 26.5023L59.966 26.4517L60.0166 26.7474L59.7209 26.798ZM58.6513 26.9809L58.3556 27.0314L58.3051 26.7357L58.6008 26.6851L58.6513 26.9809ZM58.1168 29.2394L58.3594 29.4158L58.3594 29.4158L58.1168 29.2394ZM56.1063 30.4808L56.0558 30.1851L56.1063 30.4808ZM53.7976 29.9779L53.9679 29.7309L53.9679 29.7309L53.7976 29.9779ZM52.5431 28.0253L52.4925 27.7295L52.7882 27.679L52.8388 27.9747L52.5431 28.0253ZM51.4735 28.2081L51.1778 28.2588L51.1271 27.963L51.4229 27.9124L51.4735 28.2081ZM51.4739 28.2104L51.7696 28.1597L51.8203 28.4555L51.5245 28.5061L51.4739 28.2104ZM51.2209 28.2536L50.9252 28.3042L50.8746 28.0085L51.1704 27.9579L51.2209 28.2536ZM50.6864 30.5122L50.929 30.6886L50.6864 30.5122ZM48.6759 31.7536L48.6254 31.4579L48.6759 31.7536ZM46.3672 31.2507L46.197 31.4977L46.197 31.4977L46.3672 31.2507ZM45.1127 29.298L45.0621 29.0023L45.3578 28.9517L45.4084 29.2474L45.1127 29.298ZM44.0431 29.4809L43.7474 29.5314L43.6968 29.2357L43.9925 29.1852L44.0431 29.4809ZM44.0433 29.4819L44.339 29.4313L44.3895 29.727L44.0938 29.7776L44.0433 29.4819ZM44.01 29.4875L43.7143 29.5381L43.6637 29.2424L43.9594 29.1918L44.01 29.4875ZM43.4755 31.7461L43.7181 31.9225L43.7181 31.9225L43.4755 31.7461ZM41.465 32.9875L41.4145 32.6918L41.465 32.9875ZM39.1563 32.4846L38.9861 32.7316L38.9861 32.7316L39.1563 32.4846ZM37.9018 30.5319L37.8512 30.2362L38.1469 30.1857L38.1975 30.4814L37.9018 30.5319ZM38.1483 30.4854C38.1484 30.4862 38.1486 30.487 38.1487 30.4877C38.1488 30.4884 38.1489 30.4891 38.149 30.4897L37.5576 30.5908C37.5575 30.59 37.5573 30.5891 37.5572 30.5884C37.5571 30.5877 37.557 30.5871 37.5569 30.5865L38.1483 30.4854ZM36.7325 30.4231L37.802 30.2402L37.9031 30.8316L36.8336 31.0145L36.7325 30.4231ZM36.0059 32.8009C36.4363 32.209 36.6085 31.4782 36.4873 30.7694L37.0787 30.6683C37.2276 31.5389 37.0153 32.433 36.4911 33.1538L36.0059 32.8009ZM34.1875 33.9231C34.9214 33.7976 35.5753 33.3931 36.0059 32.8009L36.4911 33.1538C35.9672 33.8743 35.1746 34.363 34.2886 34.5145L34.1875 33.9231ZM32.0996 33.4688C32.7025 33.8843 33.4535 34.0486 34.1875 33.9231L34.2886 34.5145C33.4026 34.666 32.4927 34.4684 31.7591 33.9629L32.0996 33.4688ZM30.9705 31.7127C31.0917 32.4215 31.4969 33.0536 32.0996 33.4688L31.7591 33.9629C31.0252 33.4572 30.5279 32.6844 30.3791 31.8138L30.9705 31.7127ZM29.5546 31.6504L30.6242 31.4675L30.7253 32.0589L29.6558 32.2418L29.5546 31.6504ZM31.1289 34.8296C30.161 34.1626 29.5056 33.1439 29.3095 31.9967L29.9009 31.8955C30.0694 32.881 30.6327 33.759 31.4693 34.3355L31.1289 34.8296ZM34.4669 35.5573C33.2972 35.7573 32.0965 35.4964 31.1289 34.8296L31.4693 34.3355C32.3063 34.9123 33.3482 35.1399 34.3658 34.9659L34.4669 35.5573ZM37.3735 33.7619C36.6824 34.7123 35.6366 35.3573 34.4669 35.5573L34.3658 34.9659C35.3834 34.7919 36.2905 34.2311 36.8882 33.409L37.3735 33.7619ZM37.9548 32.6649C37.8158 33.0519 37.621 33.4215 37.3735 33.7619L36.8882 33.409C37.1023 33.1147 37.2703 32.7956 37.3902 32.462L37.9548 32.6649ZM38.3559 33.5983C38.0078 33.3585 37.7001 33.0731 37.4397 32.7526L37.9053 32.3742C38.1298 32.6505 38.3954 32.8969 38.6963 33.1043L38.3559 33.5983ZM41.6939 34.3261C40.5242 34.5261 39.3234 34.2651 38.3559 33.5983L38.6963 33.1043C39.5332 33.681 40.5751 33.9086 41.5928 33.7346L41.6939 34.3261ZM44.6005 32.5306C43.9094 33.481 42.8636 34.1261 41.6939 34.3261L41.5928 33.7346C42.6104 33.5606 43.5175 32.9998 44.1152 32.1777L44.6005 32.5306ZM45.1772 31.4462C45.0385 31.8287 44.8453 32.1939 44.6005 32.5306L44.1152 32.1777C44.3269 31.8866 44.4936 31.5713 44.6132 31.2416L45.1772 31.4462ZM45.5668 32.3644C45.2244 32.1284 44.921 31.8484 44.6633 31.5342L45.1272 31.1537C45.3494 31.4245 45.6112 31.6663 45.9072 31.8703L45.5668 32.3644ZM48.9048 33.0921C47.7351 33.2921 46.5344 33.0312 45.5668 32.3644L45.9072 31.8703C46.7442 32.4471 47.7861 32.6747 48.8037 32.5007L48.9048 33.0921ZM51.8114 31.2967C51.1203 32.2471 50.0745 32.8921 48.9048 33.0921L48.8037 32.5007C49.8213 32.3267 50.7284 31.7659 51.3261 30.9438L51.8114 31.2967ZM52.4683 29.9692C52.3283 30.44 52.1077 30.8893 51.8114 31.2967L51.3261 30.9438C51.5823 30.5916 51.7726 30.2038 51.8932 29.7981L52.4683 29.9692ZM52.9972 31.0916C52.5832 30.8063 52.2263 30.4567 51.9381 30.06L52.4235 29.7073C52.6718 30.0491 52.9797 30.3509 53.3376 30.5976L52.9972 31.0916ZM56.3352 31.8194C55.1655 32.0194 53.9648 31.7584 52.9972 31.0916L53.3376 30.5976C54.1746 31.1743 55.2165 31.4019 56.2341 31.2279L56.3352 31.8194ZM59.2418 30.0239C58.5507 30.9743 57.5049 31.6194 56.3352 31.8194L56.2341 31.2279C57.2517 31.054 58.1588 30.4931 58.7566 29.6711L59.2418 30.0239ZM60.0166 26.7474C60.2128 27.8946 59.9331 29.0732 59.2418 30.0239L58.7566 29.6711C59.3541 28.8493 59.5937 27.834 59.4252 26.8485L60.0166 26.7474ZM58.6008 26.6851L59.6703 26.5023L59.7715 27.0937L58.7019 27.2766L58.6008 26.6851ZM57.8742 29.063C58.3046 28.4711 58.4768 27.7403 58.3556 27.0314L58.947 26.9303C59.0959 27.8009 58.8836 28.695 58.3594 29.4158L57.8742 29.063ZM56.0558 30.1851C56.7897 30.0596 57.4436 29.6552 57.8742 29.063L58.3594 29.4158C57.8355 30.1364 57.043 30.625 56.1569 30.7765L56.0558 30.1851ZM53.9679 29.7309C54.5708 30.1464 55.3218 30.3106 56.0558 30.1851L56.1569 30.7765C55.2709 30.928 54.361 30.7305 53.6274 30.2249L53.9679 29.7309ZM52.8388 27.9747C52.96 28.6836 53.3653 29.3156 53.9679 29.7309L53.6274 30.2249C52.8935 29.7192 52.3962 28.9464 52.2474 28.0758L52.8388 27.9747ZM51.4229 27.9124L52.4925 27.7295L52.5936 28.321L51.5241 28.5038L51.4229 27.9124ZM51.1782 28.261L51.1778 28.2588L51.7692 28.1574L51.7696 28.1597L51.1782 28.261ZM51.1704 27.9579L51.4233 27.9146L51.5245 28.5061L51.2715 28.5493L51.1704 27.9579ZM50.4438 30.3357C50.8742 29.7438 51.0464 29.013 50.9252 28.3042L51.5166 28.203C51.6655 29.0737 51.4532 29.9678 50.929 30.6886L50.4438 30.3357ZM48.6254 31.4579C49.3593 31.3324 50.0132 30.9279 50.4438 30.3357L50.929 30.6886C50.4051 31.4091 49.6125 31.8978 48.7265 32.0493L48.6254 31.4579ZM46.5375 31.0036C47.1404 31.4191 47.8914 31.5834 48.6254 31.4579L48.7265 32.0493C47.8405 32.2008 46.9306 32.0032 46.197 31.4977L46.5375 31.0036ZM45.4084 29.2474C45.5296 29.9563 45.9348 30.5884 46.5375 31.0036L46.197 31.4977C45.4631 30.9919 44.9658 30.2192 44.817 29.3486L45.4084 29.2474ZM43.9925 29.1852L45.0621 29.0023L45.1632 29.5937L44.0937 29.7766L43.9925 29.1852ZM43.7476 29.5324L43.7474 29.5314L44.3388 29.4303L44.339 29.4313L43.7476 29.5324ZM43.9594 29.1918L43.9927 29.1861L44.0938 29.7776L44.0606 29.7833L43.9594 29.1918ZM43.2328 31.5697C43.6632 30.9778 43.8355 30.247 43.7143 29.5381L44.3057 29.437C44.4546 30.3076 44.2423 31.2017 43.7181 31.9225L43.2328 31.5697ZM41.4145 32.6918C42.1484 32.5663 42.8022 32.1619 43.2328 31.5697L43.7181 31.9225C43.1942 32.6431 42.4016 33.1317 41.5156 33.2832L41.4145 32.6918ZM39.3265 32.2376C39.9294 32.6531 40.6805 32.8173 41.4145 32.6918L41.5156 33.2832C40.6295 33.4347 39.7196 33.2372 38.9861 32.7316L39.3265 32.2376ZM38.1975 30.4814C38.3187 31.1903 38.7239 31.8223 39.3265 32.2376L38.9861 32.7316C38.2522 32.2259 37.7549 31.4531 37.606 30.5825L38.1975 30.4814ZM37.8028 30.2445L37.8512 30.2362L37.9523 30.8277L37.9039 30.8359L37.8028 30.2445Z" fill="#9D9D9D" mask="url(#path-14-inside-2_153_1145)"/>
<rect x="-0.122574" y="0.173135" width="1.24631" height="1.50402" rx="0.623153" transform="matrix(-0.985695 0.168536 0.168536 0.985695 52.3446 28.0417)" fill="#333848" stroke="#9D9D9D" stroke-width="0.3"/>
<rect x="-0.122574" y="0.173135" width="1.24631" height="1.50402" rx="0.623153" transform="matrix(-0.985695 0.168536 0.168536 0.985695 59.6923 26.7849)" fill="#333848" stroke="#9D9D9D" stroke-width="0.3"/>
<rect x="-0.122574" y="0.173135" width="1.24631" height="1.50402" rx="0.623153" transform="matrix(-0.985695 0.168536 0.168536 0.985695 44.9774 29.3005)" fill="#333848" stroke="#9D9D9D" stroke-width="0.3"/>
<rect x="-0.122574" y="0.173135" width="1.24631" height="1.50402" rx="0.623153" transform="matrix(-0.985695 0.168536 0.168536 0.985695 37.8602 30.5192)" fill="#333848" stroke="#9D9D9D" stroke-width="0.3"/>
<rect x="-0.122574" y="0.173135" width="1.24631" height="1.50402" rx="0.623153" transform="matrix(-0.985695 0.168536 0.168536 0.985695 30.7548 31.7341)" fill="#333848" stroke="#9D9D9D" stroke-width="0.3"/>
<path d="M62.6125 23.2673L2.48657 33.8099C1.63945 33.9584 1.11855 34.756 1.3231 35.5914C1.52766 36.4268 2.38022 36.9836 3.22734 36.835L63.3533 26.2924L62.6125 23.2673Z" fill="#333848" stroke="#9D9D9D" stroke-width="0.3"/>
<path d="M60.4137 24.9526C60.0389 23.1437 61.2331 21.3829 63.0523 21.0621L67.1696 20.3359C67.7603 20.2317 68.3036 20.6819 68.311 21.2817L68.3682 25.9211C68.3734 26.343 68.0788 26.7095 67.6655 26.7951L64.2859 27.4955C62.5144 27.8625 60.7808 26.724 60.4137 24.9526Z" fill="#333848" stroke="#9D9D9D" stroke-width="0.3"/>
<circle cx="1.28859" cy="1.28859" r="1.13859" transform="matrix(-0.979199 0.202901 0.202901 0.979199 63.8047 23.0098)" fill="#333848" stroke="#9D9D9D" stroke-width="0.3"/>
<line y1="-0.15" x2="3.18328" y2="-0.15" transform="matrix(0.164399 0.986394 0.986394 -0.164399 5.02344 33.2959)" stroke="#9D9D9D" stroke-width="0.3"/>
<line x1="134.654" y1="33.3206" x2="134.13" y2="36.4605" stroke="#9D9D9D" stroke-width="0.3"/>
</svg>
