<svg width="97" height="97" viewBox="0 0 97 97" fill="none" xmlns="http://www.w3.org/2000/svg">
<rect x="83.3219" y="31.2408" width="5.38145" height="64.6816" fill="#333848" stroke="#9D9D9D" stroke-width="0.3"/>
<rect x="83.3219" y="25.5592" width="5.38445" height="5.73972" fill="#333848" stroke="#9D9D9D" stroke-width="0.3"/>
<path d="M87.7981 19.275L92.0092 20.1476C94.1256 20.5861 95.4858 22.6573 95.0472 24.7737C94.6087 26.8901 92.5375 28.2503 90.421 27.8118L86.21 26.9392L87.7981 19.275Z" fill="#333848" stroke="#9D9D9D" stroke-width="0.3"/>
<mask id="path-4-inside-1_153_1056" fill="white">
<path fill-rule="evenodd" clip-rule="evenodd" d="M46.8509 17.9641C46.8512 17.9623 46.8516 17.9604 46.852 17.9586L48.4484 18.2894C48.2041 19.4681 48.4501 20.6981 49.1323 21.7087C49.8145 22.7193 50.8769 23.4278 52.0858 23.6784C53.2948 23.9289 54.5513 23.7009 55.5788 23.0445C56.6064 22.3882 57.3209 21.3572 57.5652 20.1785L59.1615 20.5093C58.8318 22.1008 57.867 23.4928 56.4796 24.379C55.0922 25.2652 53.3957 25.5731 51.7633 25.2348C50.131 24.8966 48.6965 23.94 47.7754 22.5754C47.4465 22.0881 47.1927 21.563 47.0173 21.0168C46.6384 21.4503 46.1953 21.833 45.698 22.1507C44.3106 23.0369 42.6141 23.3447 40.9817 23.0065C39.3494 22.6683 37.9149 21.7116 36.9939 20.3471C36.6667 19.8624 36.4139 19.3404 36.2386 18.7974C35.8614 19.2273 35.421 19.6069 34.9271 19.9224C33.5397 20.8086 31.8432 21.1164 30.2109 20.7782C28.5785 20.4399 27.144 19.4833 26.223 18.1188C25.8313 17.5385 25.5461 16.9047 25.3731 16.2455C24.9532 16.779 24.4414 17.2451 23.8538 17.6204C22.4664 18.5066 20.7699 18.8145 19.1375 18.4763C17.5052 18.138 16.0707 17.1814 15.1496 15.8168C14.2286 14.4523 13.8964 12.7916 14.2262 11.2L15.8226 11.5308C15.5783 12.7095 15.8243 13.9395 16.5065 14.9502C17.1886 15.9608 18.2511 16.6693 19.46 16.9198C20.669 17.1703 21.9255 16.9423 22.953 16.2859C23.9806 15.6296 24.6951 14.5986 24.9394 13.4199L26.5357 13.7507L26.5343 13.7578L26.8959 13.8327C26.6517 15.0115 26.8977 16.2414 27.5798 17.2521C28.262 18.2627 29.3244 18.9712 30.5334 19.2217C31.7423 19.4722 32.9988 19.2442 34.0264 18.5879C35.054 17.9315 35.7685 16.9006 36.0127 15.7218L36.0697 15.7336L36.0704 15.7303L37.6668 16.0611C37.4225 17.2398 37.6686 18.4698 38.3507 19.4804C39.0329 20.491 40.0953 21.1995 41.3042 21.45C42.5132 21.7006 43.7697 21.4725 44.7973 20.8162C45.8248 20.1598 46.5393 19.1289 46.7836 17.9502L46.8509 17.9641Z"/>
</mask>
<path fill-rule="evenodd" clip-rule="evenodd" d="M46.8509 17.9641C46.8512 17.9623 46.8516 17.9604 46.852 17.9586L48.4484 18.2894C48.2041 19.4681 48.4501 20.6981 49.1323 21.7087C49.8145 22.7193 50.8769 23.4278 52.0858 23.6784C53.2948 23.9289 54.5513 23.7009 55.5788 23.0445C56.6064 22.3882 57.3209 21.3572 57.5652 20.1785L59.1615 20.5093C58.8318 22.1008 57.867 23.4928 56.4796 24.379C55.0922 25.2652 53.3957 25.5731 51.7633 25.2348C50.131 24.8966 48.6965 23.94 47.7754 22.5754C47.4465 22.0881 47.1927 21.563 47.0173 21.0168C46.6384 21.4503 46.1953 21.833 45.698 22.1507C44.3106 23.0369 42.6141 23.3447 40.9817 23.0065C39.3494 22.6683 37.9149 21.7116 36.9939 20.3471C36.6667 19.8624 36.4139 19.3404 36.2386 18.7974C35.8614 19.2273 35.421 19.6069 34.9271 19.9224C33.5397 20.8086 31.8432 21.1164 30.2109 20.7782C28.5785 20.4399 27.144 19.4833 26.223 18.1188C25.8313 17.5385 25.5461 16.9047 25.3731 16.2455C24.9532 16.779 24.4414 17.2451 23.8538 17.6204C22.4664 18.5066 20.7699 18.8145 19.1375 18.4763C17.5052 18.138 16.0707 17.1814 15.1496 15.8168C14.2286 14.4523 13.8964 12.7916 14.2262 11.2L15.8226 11.5308C15.5783 12.7095 15.8243 13.9395 16.5065 14.9502C17.1886 15.9608 18.2511 16.6693 19.46 16.9198C20.669 17.1703 21.9255 16.9423 22.953 16.2859C23.9806 15.6296 24.6951 14.5986 24.9394 13.4199L26.5357 13.7507L26.5343 13.7578L26.8959 13.8327C26.6517 15.0115 26.8977 16.2414 27.5798 17.2521C28.262 18.2627 29.3244 18.9712 30.5334 19.2217C31.7423 19.4722 32.9988 19.2442 34.0264 18.5879C35.054 17.9315 35.7685 16.9006 36.0127 15.7218L36.0697 15.7336L36.0704 15.7303L37.6668 16.0611C37.4225 17.2398 37.6686 18.4698 38.3507 19.4804C39.0329 20.491 40.0953 21.1995 41.3042 21.45C42.5132 21.7006 43.7697 21.4725 44.7973 20.8162C45.8248 20.1598 46.5393 19.1289 46.7836 17.9502L46.8509 17.9641Z" fill="#333848"/>
<path d="M46.852 17.9586L46.9129 17.6648L46.6191 17.604L46.5582 17.8977L46.852 17.9586ZM46.8509 17.9641L46.79 18.2579L47.0838 18.3187L47.1446 18.025L46.8509 17.9641ZM48.4484 18.2894L48.7421 18.3502L48.803 18.0565L48.5092 17.9956L48.4484 18.2894ZM49.1323 21.7087L49.381 21.5409L49.381 21.5409L49.1323 21.7087ZM52.0858 23.6784L52.025 23.9721L52.0858 23.6784ZM57.5652 20.1785L57.626 19.8847L57.3323 19.8238L57.2714 20.1176L57.5652 20.1785ZM59.1615 20.5093L59.4553 20.5701L59.5162 20.2764L59.2224 20.2155L59.1615 20.5093ZM56.4796 24.379L56.6411 24.6318L56.6411 24.6318L56.4796 24.379ZM51.7633 25.2348L51.7024 25.5286L51.7633 25.2348ZM47.7754 22.5754L48.0241 22.4076L47.7754 22.5754ZM47.0173 21.0168L47.3029 20.9251L47.1407 20.4198L46.7914 20.8194L47.0173 21.0168ZM45.698 22.1507L45.8595 22.4035L45.8595 22.4035L45.698 22.1507ZM40.9817 23.0065L40.9209 23.3003L40.9817 23.0065ZM36.9939 20.3471L37.2425 20.1792L36.9939 20.3471ZM36.2386 18.7974L36.5241 18.7053L36.3617 18.2023L36.0131 18.5996L36.2386 18.7974ZM34.9271 19.9224L35.0886 20.1752L35.0886 20.1752L34.9271 19.9224ZM30.2109 20.7782L30.15 21.0719L30.2109 20.7782ZM26.223 18.1188L25.9743 18.2866L25.9743 18.2866L26.223 18.1188ZM25.3731 16.2455L25.6632 16.1693L25.5101 15.5862L25.1373 16.06L25.3731 16.2455ZM23.8538 17.6204L23.6923 17.3676L23.8538 17.6204ZM19.1375 18.4763L19.0766 18.77L19.1375 18.4763ZM15.1496 15.8168L15.3983 15.649L15.1496 15.8168ZM14.2262 11.2L14.2871 10.9063L13.9933 10.8454L13.9324 11.1391L14.2262 11.2ZM15.8226 11.5308L16.1163 11.5917L16.1772 11.2979L15.8834 11.237L15.8226 11.5308ZM16.5065 14.9502L16.2578 15.118L16.5065 14.9502ZM19.46 16.9198L19.3992 17.2136L19.46 16.9198ZM22.953 16.2859L23.1145 16.5388L23.1145 16.5388L22.953 16.2859ZM24.9394 13.4199L25.0002 13.1261L24.7065 13.0653L24.6456 13.359L24.9394 13.4199ZM26.5357 13.7507L26.8295 13.8118L26.8906 13.5178L26.5966 13.4569L26.5357 13.7507ZM26.5343 13.7578L26.2405 13.6967L26.1794 13.9906L26.4734 14.0516L26.5343 13.7578ZM26.8959 13.8327L27.1897 13.8936L27.2505 13.5998L26.9568 13.539L26.8959 13.8327ZM27.5798 17.2521L27.3312 17.4199L27.5798 17.2521ZM30.5334 19.2217L30.4725 19.5155L30.5334 19.2217ZM34.0264 18.5879L33.8649 18.335L33.8649 18.335L34.0264 18.5879ZM36.0127 15.7218L36.0736 15.4281L35.7798 15.3672L35.7189 15.661L36.0127 15.7218ZM36.0697 15.7336L36.0088 16.0274L36.3028 16.0883L36.3635 15.7944L36.0697 15.7336ZM36.0704 15.7303L36.1313 15.4365L35.8374 15.3756L35.7766 15.6696L36.0704 15.7303ZM37.6668 16.0611L37.9605 16.1219L38.0214 15.8282L37.7277 15.7673L37.6668 16.0611ZM38.3507 19.4804L38.1021 19.6482L38.1021 19.6482L38.3507 19.4804ZM41.3042 21.45L41.2434 21.7438L41.3042 21.45ZM46.7836 17.9502L46.8445 17.6564L46.5507 17.5955L46.4898 17.8893L46.7836 17.9502ZM46.5582 17.8977C46.558 17.8988 46.5578 17.8999 46.5576 17.9008C46.5574 17.9017 46.5573 17.9025 46.5571 17.9032L47.1446 18.025C47.1448 18.0239 47.1451 18.0228 47.1453 18.0219C47.1454 18.021 47.1456 18.0202 47.1458 18.0195L46.5582 17.8977ZM48.5092 17.9956L46.9129 17.6648L46.7911 18.2523L48.3875 18.5831L48.5092 17.9956ZM49.381 21.5409C48.7434 20.5963 48.5145 19.4486 48.7421 18.3502L48.1546 18.2285C47.8937 19.4876 48.1569 20.7999 48.8836 21.8766L49.381 21.5409ZM52.1467 23.3846C51.0133 23.1497 50.0187 22.4857 49.381 21.5409L48.8836 21.8766C49.6102 22.953 50.7405 23.706 52.025 23.9721L52.1467 23.3846ZM55.4174 22.7917C54.4566 23.4053 53.2801 23.6195 52.1467 23.3846L52.025 23.9721C53.3095 24.2383 54.6459 23.9964 55.7403 23.2973L55.4174 22.7917ZM57.2714 20.1176C57.0438 21.216 56.3778 22.1782 55.4174 22.7917L55.7403 23.2973C56.8351 22.5981 57.598 21.4984 57.8589 20.2393L57.2714 20.1176ZM59.2224 20.2155L57.626 19.8847L57.5043 20.4722L59.1007 20.803L59.2224 20.2155ZM56.6411 24.6318C58.0957 23.7027 59.1089 22.242 59.4553 20.5701L58.8678 20.4484C58.5546 21.9596 57.6384 23.2829 56.3181 24.1262L56.6411 24.6318ZM51.7024 25.5286C53.4103 25.8825 55.1868 25.5608 56.6411 24.6318L56.3181 24.1262C54.9975 24.9697 53.381 25.2636 51.8242 24.9411L51.7024 25.5286ZM47.5268 22.7432C48.4922 24.1736 49.9946 25.1747 51.7024 25.5286L51.8242 24.9411C50.2674 24.6185 48.9008 23.7064 48.0241 22.4076L47.5268 22.7432ZM46.7317 21.1085C46.9157 21.6817 47.182 22.2324 47.5268 22.7432L48.0241 22.4076C47.7111 21.9438 47.4697 21.4443 47.3029 20.9251L46.7317 21.1085ZM45.8595 22.4035C46.3809 22.0705 46.8456 21.6692 47.2432 21.2142L46.7914 20.8194C46.4312 21.2315 46.0098 21.5955 45.5365 21.8979L45.8595 22.4035ZM40.9209 23.3003C42.6288 23.6542 44.4052 23.3324 45.8595 22.4035L45.5365 21.8979C44.216 22.7414 42.5994 23.0353 41.0426 22.7127L40.9209 23.3003ZM36.7452 20.5149C37.7106 21.9452 39.213 22.9464 40.9209 23.3003L41.0426 22.7127C39.4858 22.3902 38.1192 21.478 37.2425 20.1792L36.7452 20.5149ZM35.9531 18.8896C36.137 19.4594 36.4023 20.0069 36.7452 20.5149L37.2425 20.1792C36.9312 19.718 36.6907 19.2215 36.5241 18.7053L35.9531 18.8896ZM35.0886 20.1752C35.6064 19.8445 36.0683 19.4464 36.4641 18.9953L36.0131 18.5996C35.6545 19.0082 35.2357 19.3693 34.7656 19.6695L35.0886 20.1752ZM30.15 21.0719C31.8579 21.4258 33.6343 21.1041 35.0886 20.1752L34.7656 19.6695C33.4451 20.513 31.8285 20.807 30.2717 20.4844L30.15 21.0719ZM25.9743 18.2866C26.9398 19.7169 28.4421 20.7181 30.15 21.0719L30.2717 20.4844C28.7149 20.1618 27.3483 19.2497 26.4716 17.9509L25.9743 18.2866ZM25.0829 16.3217C25.2646 17.0135 25.5637 17.6783 25.9743 18.2866L26.4716 17.9509C26.0989 17.3987 25.8277 16.7959 25.6632 16.1693L25.0829 16.3217ZM24.0153 17.8733C24.6313 17.4798 25.1682 16.991 25.6088 16.431L25.1373 16.06C24.7382 16.5671 24.2515 17.0104 23.6923 17.3676L24.0153 17.8733ZM19.0766 18.77C20.7845 19.1239 22.561 18.8022 24.0153 17.8733L23.6923 17.3676C22.3717 18.2111 20.7552 18.5051 19.1984 18.1825L19.0766 18.77ZM14.901 15.9847C15.8664 17.415 17.3688 18.4161 19.0766 18.77L19.1984 18.1825C17.6416 17.8599 16.2749 16.9478 15.3983 15.649L14.901 15.9847ZM13.9324 11.1391C13.586 12.811 13.9353 14.5541 14.901 15.9847L15.3983 15.649C14.5218 14.3505 14.2068 12.7721 14.52 11.2609L13.9324 11.1391ZM15.8834 11.237L14.2871 10.9063L14.1653 11.4938L15.7617 11.8246L15.8834 11.237ZM16.7551 14.7823C16.1176 13.8377 15.8887 12.6901 16.1163 11.5917L15.5288 11.4699C15.2679 12.729 15.5311 14.0413 16.2578 15.118L16.7551 14.7823ZM19.5209 16.626C18.3875 16.3912 17.3929 15.7272 16.7551 14.7823L16.2578 15.118C16.9844 16.1944 18.1147 16.9474 19.3992 17.2136L19.5209 16.626ZM22.7916 16.0331C21.8308 16.6468 20.6543 16.8609 19.5209 16.626L19.3992 17.2136C20.6837 17.4797 22.0201 17.2378 23.1145 16.5388L22.7916 16.0331ZM24.6456 13.359C24.418 14.4574 23.752 15.4197 22.7916 16.0331L23.1145 16.5388C24.2093 15.8395 24.9722 14.7399 25.2331 13.4808L24.6456 13.359ZM26.5966 13.4569L25.0002 13.1261L24.8785 13.7137L26.4749 14.0445L26.5966 13.4569ZM26.828 13.8189L26.8295 13.8118L26.242 13.6896L26.2405 13.6967L26.828 13.8189ZM26.9568 13.539L26.5951 13.464L26.4734 14.0516L26.835 14.1265L26.9568 13.539ZM27.8285 17.0842C27.1909 16.1397 26.9621 14.992 27.1897 13.8936L26.6021 13.7719C26.3413 15.0309 26.6044 16.3432 27.3312 17.4199L27.8285 17.0842ZM30.5942 18.928C29.4608 18.6931 28.4663 18.0291 27.8285 17.0842L27.3312 17.4199C28.0577 18.4963 29.188 19.2493 30.4725 19.5155L30.5942 18.928ZM33.8649 18.335C32.9042 18.9487 31.7277 19.1628 30.5942 18.928L30.4725 19.5155C31.757 19.7816 33.0934 19.5398 34.1879 18.8407L33.8649 18.335ZM35.7189 15.661C35.4913 16.7594 34.8253 17.7216 33.8649 18.335L34.1879 18.8407C35.2826 18.1414 36.0456 17.0418 36.3065 15.7827L35.7189 15.661ZM36.1306 15.4399L36.0736 15.4281L35.9518 16.0156L36.0088 16.0274L36.1306 15.4399ZM35.7766 15.6696L35.7759 15.6729L36.3635 15.7944L36.3642 15.791L35.7766 15.6696ZM37.7277 15.7673L36.1313 15.4365L36.0095 16.024L37.6059 16.3548L37.7277 15.7673ZM38.5994 19.3126C37.9618 18.368 37.7329 17.2203 37.9605 16.1219L37.373 16.0002C37.1121 17.2593 37.3753 18.5715 38.1021 19.6482L38.5994 19.3126ZM41.3651 21.1563C40.2317 20.9214 39.2371 20.2574 38.5994 19.3126L38.1021 19.6482C38.8286 20.7246 39.9589 21.4776 41.2434 21.7438L41.3651 21.1563ZM44.6358 20.5634C43.6751 21.177 42.4985 21.3911 41.3651 21.1563L41.2434 21.7438C42.5279 22.01 43.8643 21.7681 44.9587 21.069L44.6358 20.5634ZM46.4898 17.8893C46.2622 18.9877 45.5962 19.9499 44.6358 20.5634L44.9587 21.069C46.0535 20.3698 46.8165 19.2701 47.0773 18.011L46.4898 17.8893ZM46.9117 17.6703L46.8445 17.6564L46.7227 18.2439L46.79 18.2579L46.9117 17.6703Z" fill="#9D9D9D" mask="url(#path-4-inside-1_153_1056)"/>
<rect x="24.9426" y="13.5748" width="2.02324" height="2.41044" rx="0.85" transform="rotate(11.7066 24.9426 13.5748)" fill="#333848" stroke="#9D9D9D" stroke-width="0.3"/>
<rect x="13.9582" y="11.2935" width="2.02324" height="2.41044" rx="0.85" transform="rotate(11.7066 13.9582 11.2935)" fill="#333848" stroke="#9D9D9D" stroke-width="0.3"/>
<rect x="35.9407" y="15.8541" width="2.02324" height="2.41044" rx="0.85" transform="rotate(11.7066 35.9407 15.8541)" fill="#333848" stroke="#9D9D9D" stroke-width="0.3"/>
<rect x="46.5461" y="18.0455" width="2.02324" height="2.41044" rx="0.85" transform="rotate(11.7066 46.5461 18.0455)" fill="#333848" stroke="#9D9D9D" stroke-width="0.3"/>
<rect x="57.1516" y="20.2457" width="2.02324" height="2.41044" rx="0.85" transform="rotate(11.7066 57.1516 20.2457)" fill="#333848" stroke="#9D9D9D" stroke-width="0.3"/>
<rect x="9.47191" y="3.0406" width="80.1411" height="7.74411" transform="rotate(11.7066 9.47191 3.0406)" fill="#333848" stroke="#9D9D9D" stroke-width="0.3"/>
<path d="M13.2227 7.63327C13.7914 4.88898 12.0277 2.20332 9.2834 1.63467L4.51355 0.646307C3.77571 0.493418 3.05363 0.967615 2.90074 1.70545L1.39515 8.97145C1.24226 9.70929 1.71645 10.4314 2.45429 10.5843L7.22414 11.5726C9.96843 12.1413 12.6541 10.3776 13.2227 7.63327Z" fill="#333848" stroke="#9D9D9D" stroke-width="0.3"/>
<circle cx="9.53809" cy="7.06885" r="1.78603" transform="rotate(11.7066 9.53809 7.06885)" fill="#333848" stroke="#9D9D9D" stroke-width="0.3"/>
</svg>
