<svg width="92" height="108" viewBox="0 0 92 108" fill="none" xmlns="http://www.w3.org/2000/svg">
<rect x="0.605078" y="0.510352" width="4.41637" height="106.492" fill="#333848" stroke="#9D9D9D" stroke-width="0.3"/>
<path d="M5.31744 5.31944L75.4262 40.5566L75.4262 41.8901L5.31744 6.65293L5.31744 5.31944Z" fill="#333848" stroke="#9D9D9D" stroke-width="0.3"/>
<mask id="path-3-inside-1_153_1123" fill="white">
<path fill-rule="evenodd" clip-rule="evenodd" d="M34.5554 36.995L34.5553 36.9953L34.5081 36.9873C34.3341 38.0046 33.7528 38.9094 32.892 39.5026C32.0312 40.0958 30.9615 40.3288 29.9181 40.1504C28.8747 39.972 27.9431 39.3968 27.3283 38.5513C26.7135 37.7058 26.4658 36.6592 26.6398 35.6419L25.262 35.4064L25.2614 35.4097L24.931 35.3532C24.757 36.3705 24.1757 37.2753 23.3149 37.8685C22.4541 38.4617 21.3844 38.6947 20.341 38.5163C19.2976 38.3379 18.366 37.7627 17.7512 36.9172C17.1364 36.0717 16.8887 35.0251 17.0627 34.0078L15.6849 33.7723C15.4501 35.1458 15.7845 36.5589 16.6146 37.7005C17.4447 38.8421 18.7025 39.6187 20.1113 39.8596C21.5201 40.1005 22.9645 39.7859 24.1267 38.9849C24.6264 38.6406 25.0563 38.2185 25.4028 37.74C25.5706 38.3051 25.8355 38.8448 26.1917 39.3346C27.0218 40.4762 28.2796 41.2528 29.6884 41.4937C31.0972 41.7346 32.5416 41.42 33.7038 40.619C34.1166 40.3346 34.4818 39.997 34.7916 39.6185C34.9581 40.0783 35.1903 40.5178 35.485 40.9232C36.3151 42.0648 37.5729 42.8414 38.9817 43.0823C40.3905 43.3232 41.8349 43.0085 42.9972 42.2076C43.4072 41.9251 43.7702 41.5902 44.0787 41.2147C44.2451 41.6727 44.4767 42.1106 44.7703 42.5144C45.6005 43.656 46.8583 44.4327 48.2671 44.6736C49.6759 44.9145 51.1203 44.5998 52.2825 43.7989C53.4448 42.9979 54.2296 41.7763 54.4645 40.4027L53.0867 40.1671C52.9128 41.1845 52.3315 42.0892 51.4707 42.6824C50.6099 43.2756 49.5401 43.5087 48.4967 43.3303C47.4533 43.1519 46.5218 42.5766 45.907 41.7311C45.2922 40.8856 45.0445 39.8391 45.2185 38.8218L45.1786 38.815C45.1788 38.8138 45.179 38.8126 45.1792 38.8114L43.8014 38.5759C43.6275 39.5932 43.0462 40.498 42.1854 41.0912C41.3246 41.6844 40.2548 41.9174 39.2114 41.739C38.168 41.5606 37.2364 40.9854 36.6216 40.1399C36.0068 39.2944 35.7592 38.2478 35.9331 37.2305L34.5554 36.995Z"/>
</mask>
<path fill-rule="evenodd" clip-rule="evenodd" d="M34.5554 36.995L34.5553 36.9953L34.5081 36.9873C34.3341 38.0046 33.7528 38.9094 32.892 39.5026C32.0312 40.0958 30.9615 40.3288 29.9181 40.1504C28.8747 39.972 27.9431 39.3968 27.3283 38.5513C26.7135 37.7058 26.4658 36.6592 26.6398 35.6419L25.262 35.4064L25.2614 35.4097L24.931 35.3532C24.757 36.3705 24.1757 37.2753 23.3149 37.8685C22.4541 38.4617 21.3844 38.6947 20.341 38.5163C19.2976 38.3379 18.366 37.7627 17.7512 36.9172C17.1364 36.0717 16.8887 35.0251 17.0627 34.0078L15.6849 33.7723C15.4501 35.1458 15.7845 36.5589 16.6146 37.7005C17.4447 38.8421 18.7025 39.6187 20.1113 39.8596C21.5201 40.1005 22.9645 39.7859 24.1267 38.9849C24.6264 38.6406 25.0563 38.2185 25.4028 37.74C25.5706 38.3051 25.8355 38.8448 26.1917 39.3346C27.0218 40.4762 28.2796 41.2528 29.6884 41.4937C31.0972 41.7346 32.5416 41.42 33.7038 40.619C34.1166 40.3346 34.4818 39.997 34.7916 39.6185C34.9581 40.0783 35.1903 40.5178 35.485 40.9232C36.3151 42.0648 37.5729 42.8414 38.9817 43.0823C40.3905 43.3232 41.8349 43.0085 42.9972 42.2076C43.4072 41.9251 43.7702 41.5902 44.0787 41.2147C44.2451 41.6727 44.4767 42.1106 44.7703 42.5144C45.6005 43.656 46.8583 44.4327 48.2671 44.6736C49.6759 44.9145 51.1203 44.5998 52.2825 43.7989C53.4448 42.9979 54.2296 41.7763 54.4645 40.4027L53.0867 40.1671C52.9128 41.1845 52.3315 42.0892 51.4707 42.6824C50.6099 43.2756 49.5401 43.5087 48.4967 43.3303C47.4533 43.1519 46.5218 42.5766 45.907 41.7311C45.2922 40.8856 45.0445 39.8391 45.2185 38.8218L45.1786 38.815C45.1788 38.8138 45.179 38.8126 45.1792 38.8114L43.8014 38.5759C43.6275 39.5932 43.0462 40.498 42.1854 41.0912C41.3246 41.6844 40.2548 41.9174 39.2114 41.739C38.168 41.5606 37.2364 40.9854 36.6216 40.1399C36.0068 39.2944 35.7592 38.2478 35.9331 37.2305L34.5554 36.995Z" fill="#333848"/>
<path d="M34.5553 36.9953L34.5047 37.2911L34.8004 37.3416L34.851 37.0459L34.5553 36.9953ZM34.5554 36.995L34.6059 36.6992L34.3102 36.6487L34.2597 36.9444L34.5554 36.995ZM34.5081 36.9873L34.5586 36.6916L34.2629 36.641L34.2123 36.9367L34.5081 36.9873ZM32.892 39.5026L33.0622 39.7496L33.0622 39.7496L32.892 39.5026ZM29.9181 40.1504L29.8675 40.4461L29.9181 40.1504ZM27.3283 38.5513L27.5709 38.3748L27.3283 38.5513ZM26.6398 35.6419L26.9355 35.6925L26.986 35.3968L26.6903 35.3462L26.6398 35.6419ZM25.262 35.4064L25.3126 35.1107L25.0168 35.0601L24.9663 35.3559L25.262 35.4064ZM25.2614 35.4097L25.2109 35.7054L25.5067 35.756L25.5572 35.4602L25.2614 35.4097ZM24.931 35.3532L24.9815 35.0575L24.6858 35.0069L24.6353 35.3026L24.931 35.3532ZM23.3149 37.8685L23.1447 37.6214L23.3149 37.8685ZM20.341 38.5163L20.3915 38.2206L20.341 38.5163ZM17.7512 36.9172L17.9938 36.7407L17.9938 36.7407L17.7512 36.9172ZM17.0627 34.0078L17.3584 34.0584L17.4089 33.7627L17.1132 33.7121L17.0627 34.0078ZM15.6849 33.7723L15.7355 33.4766L15.4398 33.426L15.3892 33.7217L15.6849 33.7723ZM16.6146 37.7005L16.3719 37.8769L16.3719 37.8769L16.6146 37.7005ZM24.1267 38.9849L23.9565 38.7379L24.1267 38.9849ZM25.4028 37.74L25.6904 37.6545L25.517 37.0707L25.1598 37.564L25.4028 37.74ZM26.1917 39.3346L26.4343 39.1581L26.1917 39.3346ZM33.7038 40.619L33.8741 40.866L33.8741 40.866L33.7038 40.619ZM34.7916 39.6185L35.0737 39.5164L34.8939 39.0198L34.5595 39.4285L34.7916 39.6185ZM35.485 40.9232L35.7277 40.7467L35.7277 40.7467L35.485 40.9232ZM42.9972 42.2076L43.1674 42.4546L42.9972 42.2076ZM44.0787 41.2147L44.3607 41.1123L44.1811 40.6176L43.8469 41.0243L44.0787 41.2147ZM44.7703 42.5144L45.013 42.338L45.013 42.338L44.7703 42.5144ZM54.4645 40.4027L54.7602 40.4533L54.8108 40.1576L54.5151 40.107L54.4645 40.4027ZM53.0867 40.1671L53.1373 39.8714L52.8416 39.8209L52.791 40.1166L53.0867 40.1671ZM51.4707 42.6824L51.3005 42.4354L51.3005 42.4354L51.4707 42.6824ZM48.4967 43.3303L48.5473 43.0346L48.4967 43.3303ZM45.907 41.7311L46.1496 41.5547L45.907 41.7311ZM45.2185 38.8218L45.5142 38.8724L45.5647 38.5767L45.269 38.5261L45.2185 38.8218ZM45.1786 38.815L44.8829 38.7644L44.8323 39.0601L45.128 39.1107L45.1786 38.815ZM45.1792 38.8114L45.4749 38.862L45.5254 38.5663L45.2297 38.5157L45.1792 38.8114ZM43.8014 38.5759L43.852 38.2802L43.5563 38.2296L43.5057 38.5253L43.8014 38.5759ZM42.1854 41.0912L42.3556 41.3382L42.3556 41.3382L42.1854 41.0912ZM39.2114 41.739L39.1609 42.0347L39.2114 41.739ZM36.6216 40.1399L36.8643 39.9634L36.6216 40.1399ZM35.9331 37.2305L36.2288 37.2811L36.2794 36.9854L35.9837 36.9348L35.9331 37.2305ZM34.851 37.0459L34.8511 37.0455L34.2597 36.9444L34.2596 36.9448L34.851 37.0459ZM34.4575 37.283L34.5047 37.2911L34.6059 36.6996L34.5586 36.6916L34.4575 37.283ZM33.0622 39.7496C33.9887 39.1112 34.616 38.136 34.8038 37.0378L34.2123 36.9367C34.0522 37.8731 33.5169 38.7076 32.7218 39.2555L33.0622 39.7496ZM29.8675 40.4461C30.9869 40.6375 32.1361 40.3878 33.0622 39.7496L32.7218 39.2555C31.9263 39.8037 30.936 40.0201 29.9686 39.8547L29.8675 40.4461ZM27.0857 38.7277C27.7471 39.6374 28.748 40.2547 29.8675 40.4461L29.9686 39.8547C29.0013 39.6893 28.1391 39.1562 27.5709 38.3748L27.0857 38.7277ZM26.3441 35.5914C26.1563 36.6896 26.424 37.8177 27.0857 38.7277L27.5709 38.3748C27.003 37.5938 26.7754 36.6289 26.9355 35.6925L26.3441 35.5914ZM25.2114 35.7021L26.5892 35.9376L26.6903 35.3462L25.3126 35.1107L25.2114 35.7021ZM25.5572 35.4602L25.5577 35.4568L24.9663 35.3559L24.9657 35.3592L25.5572 35.4602ZM24.8804 35.6489L25.2109 35.7054L25.312 35.114L24.9815 35.0575L24.8804 35.6489ZM23.4852 38.1155C24.4116 37.4771 25.0389 36.5019 25.2267 35.4037L24.6353 35.3026C24.4751 36.239 23.9399 37.0735 23.1447 37.6214L23.4852 38.1155ZM20.2904 38.812C21.4099 39.0034 22.559 38.7537 23.4852 38.1155L23.1447 37.6214C22.3492 38.1696 21.3589 38.386 20.3915 38.2206L20.2904 38.812ZM17.5086 37.0936C18.17 38.0033 19.171 38.6206 20.2904 38.812L20.3915 38.2206C19.4242 38.0552 18.562 37.5221 17.9938 36.7407L17.5086 37.0936ZM16.767 33.9573C16.5792 35.0555 16.8469 36.1836 17.5086 37.0936L17.9938 36.7407C17.4259 35.9597 17.1983 34.9948 17.3584 34.0584L16.767 33.9573ZM15.6344 34.068L17.0121 34.3035L17.1132 33.7121L15.7355 33.4766L15.6344 34.068ZM16.8572 37.524C16.074 36.4469 15.7596 35.1155 15.9806 33.8228L15.3892 33.7217C15.1405 35.1762 15.495 36.6708 16.3719 37.8769L16.8572 37.524ZM20.1618 39.5639C18.8291 39.336 17.6406 38.6015 16.8572 37.524L16.3719 37.8769C17.2487 39.0827 18.5759 39.9014 20.0607 40.1553L20.1618 39.5639ZM23.9565 38.7379C22.8596 39.4938 21.4946 39.7918 20.1618 39.5639L20.0607 40.1553C21.5456 40.4092 23.0694 40.0779 24.297 39.2319L23.9565 38.7379ZM25.1598 37.564C24.8333 38.0149 24.428 38.4129 23.9565 38.7379L24.297 39.2319C24.8248 38.8682 25.2793 38.422 25.6458 37.9159L25.1598 37.564ZM26.4343 39.1581C26.0982 38.696 25.8485 38.187 25.6904 37.6545L25.1152 37.8254C25.2927 38.4231 25.5728 38.9936 25.949 39.511L26.4343 39.1581ZM29.7389 41.198C28.4062 40.9701 27.2177 40.2356 26.4343 39.1581L25.949 39.511C26.8258 40.7168 28.153 41.5355 29.6378 41.7894L29.7389 41.198ZM33.5336 40.372C32.4367 41.1279 31.0717 41.4259 29.7389 41.198L29.6378 41.7894C31.1227 42.0433 32.6465 41.712 33.8741 40.866L33.5336 40.372ZM34.5595 39.4285C34.2674 39.7852 33.9231 40.1036 33.5336 40.372L33.8741 40.866C34.3101 40.5656 34.6961 40.2088 35.0238 39.8085L34.5595 39.4285ZM35.7277 40.7467C35.4495 40.3642 35.2306 39.9498 35.0737 39.5164L34.5095 39.7206C34.6856 40.2069 34.9311 40.6714 35.2424 41.0996L35.7277 40.7467ZM39.0323 42.7866C37.6995 42.5587 36.5111 41.8242 35.7277 40.7467L35.2424 41.0996C36.1191 42.3054 37.4463 43.1241 38.9312 43.378L39.0323 42.7866ZM42.827 41.9606C41.73 42.7165 40.3651 43.0145 39.0323 42.7866L38.9312 43.378C40.416 43.6319 41.9398 43.3006 43.1674 42.4546L42.827 41.9606ZM43.8469 41.0243C43.5562 41.3781 43.2139 41.694 42.827 41.9606L43.1674 42.4546C43.6005 42.1562 43.9843 41.8022 44.3105 41.4052L43.8469 41.0243ZM43.7967 41.3171C43.9726 41.8015 44.2175 42.2643 44.5277 42.6909L45.013 42.338C44.7359 41.9569 44.5175 41.544 44.3607 41.1123L43.7967 41.3171ZM44.5277 42.6909C45.4045 43.8966 46.7317 44.7154 48.2165 44.9693L48.3176 44.3779C46.9849 44.15 45.7964 43.4154 45.013 42.338L44.5277 42.6909ZM48.2165 44.9693C49.7014 45.2232 51.2252 44.8919 52.4527 44.0459L52.1123 43.5519C51.0154 44.3078 49.6504 44.6058 48.3176 44.3779L48.2165 44.9693ZM52.4527 44.0459C53.6806 43.1997 54.5115 41.9077 54.7602 40.4533L54.1688 40.3522C53.9478 41.6449 53.2089 42.7961 52.1123 43.5519L52.4527 44.0459ZM54.5151 40.107L53.1373 39.8714L53.0362 40.4629L54.4139 40.6984L54.5151 40.107ZM52.791 40.1166C52.6309 41.053 52.0956 41.8874 51.3005 42.4354L51.6409 42.9295C52.5674 42.291 53.1947 41.3159 53.3825 40.2177L52.791 40.1166ZM51.3005 42.4354C50.505 42.9836 49.5147 43.2 48.5473 43.0346L48.4462 43.626C49.5656 43.8174 50.7148 43.5677 51.6409 42.9295L51.3005 42.4354ZM48.5473 43.0346C47.58 42.8692 46.7178 42.336 46.1496 41.5547L45.6643 41.9076C46.3258 42.8172 47.3267 43.4346 48.4462 43.626L48.5473 43.0346ZM46.1496 41.5547C45.5817 40.7737 45.354 39.8088 45.5142 38.8724L44.9227 38.7712C44.735 39.8694 45.0027 40.9976 45.6643 41.9076L46.1496 41.5547ZM45.269 38.5261L45.2291 38.5193L45.128 39.1107L45.1679 39.1175L45.269 38.5261ZM44.8835 38.7609C44.8834 38.7613 44.8833 38.7618 44.8832 38.7624C44.8831 38.763 44.883 38.7637 44.8829 38.7644L45.4743 38.8655C45.4744 38.8651 45.4744 38.8646 45.4745 38.864C45.4746 38.8634 45.4748 38.8627 45.4749 38.862L44.8835 38.7609ZM43.7509 38.8716L45.1286 39.1071L45.2297 38.5157L43.852 38.2802L43.7509 38.8716ZM42.3556 41.3382C43.282 40.6998 43.9094 39.7246 44.0971 38.6264L43.5057 38.5253C43.3456 39.4617 42.8103 40.2962 42.0151 40.8441L42.3556 41.3382ZM39.1609 42.0347C40.2803 42.2261 41.4295 41.9764 42.3556 41.3382L42.0151 40.8441C41.2197 41.3923 40.2293 41.6087 39.262 41.4433L39.1609 42.0347ZM36.379 40.3163C37.0405 41.226 38.0414 41.8433 39.1609 42.0347L39.262 41.4433C38.2946 41.2779 37.4324 40.7448 36.8643 39.9634L36.379 40.3163ZM35.6374 37.18C35.4496 38.2782 35.7173 39.4063 36.379 40.3163L36.8643 39.9634C36.2964 39.1824 36.0687 38.2175 36.2288 37.2811L35.6374 37.18ZM34.5048 37.2907L35.8826 37.5262L35.9837 36.9348L34.6059 36.6992L34.5048 37.2907Z" fill="#9D9D9D" mask="url(#path-3-inside-1_153_1123)"/>
<rect x="24.9839" y="35.511" width="1.69187" height="2.02384" rx="0.845933" transform="rotate(9.70273 24.9839 35.511)" fill="#333848" stroke="#9D9D9D" stroke-width="0.3"/>
<rect x="15.4995" y="33.885" width="1.69187" height="2.02384" rx="0.845933" transform="rotate(9.70273 15.4995 33.885)" fill="#333848" stroke="#9D9D9D" stroke-width="0.3"/>
<rect x="34.4722" y="37.1302" width="1.69187" height="2.02384" rx="0.845933" transform="rotate(9.70273 34.4722 37.1302)" fill="#333848" stroke="#9D9D9D" stroke-width="0.3"/>
<rect x="43.6362" y="38.6995" width="1.69187" height="2.02384" rx="0.845933" transform="rotate(9.70273 43.6362 38.6995)" fill="#333848" stroke="#9D9D9D" stroke-width="0.3"/>
<rect x="52.7847" y="40.261" width="1.69187" height="2.02384" rx="0.845933" transform="rotate(9.70273 52.7847 40.261)" fill="#333848" stroke="#9D9D9D" stroke-width="0.3"/>
<path d="M12.1199 29.1677L89.6134 42.7555C90.7281 42.951 91.4135 44.0006 91.1444 45.0998C90.8752 46.1991 89.7533 46.9318 88.6386 46.7363L11.1451 33.1485L12.1199 29.1677Z" fill="#333848" stroke="#9D9D9D" stroke-width="0.3"/>
<path d="M15.0225 31.3936C15.5103 29.0397 13.9563 26.7483 11.5889 26.3308L6.28522 25.3953C5.498 25.2565 4.77399 25.8564 4.76414 26.6557L4.69052 32.6319C4.68357 33.1961 5.07749 33.6862 5.63006 33.8007L9.98357 34.7028C12.2888 35.1804 14.5449 33.6989 15.0225 31.3936Z" fill="#333848" stroke="#9D9D9D" stroke-width="0.3"/>
<circle cx="11.9058" cy="30.8538" r="1.50989" transform="rotate(11.7066 11.9058 30.8538)" fill="#333848" stroke="#9D9D9D" stroke-width="0.3"/>
<line x1="86.5132" y1="42.1594" x2="85.8391" y2="46.2042" stroke="#9D9D9D" stroke-width="0.3"/>
</svg>
