<svg width="146" height="52" viewBox="0 0 146 52" fill="none" xmlns="http://www.w3.org/2000/svg">
<path d="M132.626 28.9615L139.068 30.2964C142.31 30.9681 144.393 34.1403 143.722 37.3819C143.05 40.6234 139.878 42.7066 136.636 42.035L130.194 40.7001L132.626 28.9615Z" fill="#333848" stroke="#9D9D9D" stroke-width="0.3"/>
<mask id="path-2-inside-1_153_1037" fill="white">
<path fill-rule="evenodd" clip-rule="evenodd" d="M54.464 23.6908L54.4638 23.6917L54.3746 23.6733C54.0053 25.4555 52.925 27.0143 51.3714 28.0067C49.8177 28.9991 47.9179 29.3438 46.09 28.965C44.2621 28.5863 42.6557 27.515 41.6243 25.987C40.5929 24.4589 40.2209 22.5992 40.5902 20.817L38.1765 20.3168L38.1757 20.3207L37.6268 20.207C37.2575 21.9892 36.1772 23.548 34.6235 24.5404C33.0698 25.5328 31.1701 25.8775 29.3421 25.4987C27.5142 25.12 25.9078 24.0487 24.8764 22.5207C23.845 20.9926 23.4731 19.1329 23.8424 17.3507L21.4287 16.8506C20.9301 19.2569 21.4323 21.7679 22.8249 23.8311C24.2175 25.8943 26.3864 27.3407 28.8545 27.8521C31.3226 28.3635 33.8876 27.898 35.9854 26.5581C36.877 25.9886 37.6532 25.2809 38.2892 24.4707C38.5511 25.4654 38.9817 26.4217 39.5728 27.2974C40.9654 29.3606 43.1343 30.807 45.6024 31.3184C48.0704 31.8298 50.6355 31.3643 52.7333 30.0244C53.4803 29.5472 54.1462 28.9732 54.7166 28.323C54.9817 29.1459 55.3646 29.937 55.8602 30.6713C57.2528 32.7345 59.4217 34.1809 61.8898 34.6923C64.3579 35.2037 66.923 34.7382 69.0207 33.3983C69.7676 32.9213 70.4334 32.3473 71.0038 31.6973C71.2689 32.5205 71.6518 33.3119 72.1477 34.0466C73.5403 36.1098 75.7092 37.5561 78.1773 38.0676C80.6454 38.579 83.2104 38.1135 85.3082 36.7736C87.406 35.4336 88.8646 33.329 89.3633 30.9226L86.9496 30.4225C86.5803 32.2047 85.5 33.7635 83.9463 34.7559C82.3926 35.7483 80.4929 36.093 78.6649 35.7142C76.837 35.3355 75.2307 34.2642 74.1992 32.7362C73.1678 31.2081 72.7959 29.3484 73.1652 27.5662L73.0757 27.5476C73.0757 27.5475 73.0758 27.5474 73.0758 27.5473L70.6621 27.0472C70.2928 28.8294 69.2125 30.3882 67.6588 31.3806C66.1052 32.373 64.2054 32.7177 62.3775 32.339C60.5495 31.9602 58.9432 30.8889 57.9118 29.3609C56.8804 27.8328 56.5084 25.9731 56.8777 24.1909L54.464 23.6908Z"/>
</mask>
<path fill-rule="evenodd" clip-rule="evenodd" d="M54.464 23.6908L54.4638 23.6917L54.3746 23.6733C54.0053 25.4555 52.925 27.0143 51.3714 28.0067C49.8177 28.9991 47.9179 29.3438 46.09 28.965C44.2621 28.5863 42.6557 27.515 41.6243 25.987C40.5929 24.4589 40.2209 22.5992 40.5902 20.817L38.1765 20.3168L38.1757 20.3207L37.6268 20.207C37.2575 21.9892 36.1772 23.548 34.6235 24.5404C33.0698 25.5328 31.1701 25.8775 29.3421 25.4987C27.5142 25.12 25.9078 24.0487 24.8764 22.5207C23.845 20.9926 23.4731 19.1329 23.8424 17.3507L21.4287 16.8506C20.9301 19.2569 21.4323 21.7679 22.8249 23.8311C24.2175 25.8943 26.3864 27.3407 28.8545 27.8521C31.3226 28.3635 33.8876 27.898 35.9854 26.5581C36.877 25.9886 37.6532 25.2809 38.2892 24.4707C38.5511 25.4654 38.9817 26.4217 39.5728 27.2974C40.9654 29.3606 43.1343 30.807 45.6024 31.3184C48.0704 31.8298 50.6355 31.3643 52.7333 30.0244C53.4803 29.5472 54.1462 28.9732 54.7166 28.323C54.9817 29.1459 55.3646 29.937 55.8602 30.6713C57.2528 32.7345 59.4217 34.1809 61.8898 34.6923C64.3579 35.2037 66.923 34.7382 69.0207 33.3983C69.7676 32.9213 70.4334 32.3473 71.0038 31.6973C71.2689 32.5205 71.6518 33.3119 72.1477 34.0466C73.5403 36.1098 75.7092 37.5561 78.1773 38.0676C80.6454 38.579 83.2104 38.1135 85.3082 36.7736C87.406 35.4336 88.8646 33.329 89.3633 30.9226L86.9496 30.4225C86.5803 32.2047 85.5 33.7635 83.9463 34.7559C82.3926 35.7483 80.4929 36.093 78.6649 35.7142C76.837 35.3355 75.2307 34.2642 74.1992 32.7362C73.1678 31.2081 72.7959 29.3484 73.1652 27.5662L73.0757 27.5476C73.0757 27.5475 73.0758 27.5474 73.0758 27.5473L70.6621 27.0472C70.2928 28.8294 69.2125 30.3882 67.6588 31.3806C66.1052 32.373 64.2054 32.7177 62.3775 32.339C60.5495 31.9602 58.9432 30.8889 57.9118 29.3609C56.8804 27.8328 56.5084 25.9731 56.8777 24.1909L54.464 23.6908Z" fill="#333848"/>
<path d="M54.4638 23.6917L54.4029 23.9855L54.6967 24.0464L54.7576 23.7526L54.4638 23.6917ZM54.464 23.6908L54.5249 23.397L54.2311 23.3361L54.1703 23.6299L54.464 23.6908ZM54.3746 23.6733L54.4355 23.3795L54.1417 23.3186L54.0809 23.6124L54.3746 23.6733ZM51.3714 28.0067L51.5328 28.2595L51.3714 28.0067ZM46.09 28.965L46.1509 28.6713L46.09 28.965ZM41.6243 25.987L41.3756 26.1548L41.6243 25.987ZM40.5902 20.817L40.884 20.8779L40.9449 20.5841L40.6511 20.5232L40.5902 20.817ZM38.1765 20.3168L38.2374 20.0231L37.9436 19.9622L37.8828 20.256L38.1765 20.3168ZM38.1757 20.3207L38.1149 20.6145L38.4086 20.6754L38.4695 20.3816L38.1757 20.3207ZM37.6268 20.207L37.6876 19.9132L37.3939 19.8524L37.333 20.1461L37.6268 20.207ZM34.6235 24.5404L34.462 24.2876L34.6235 24.5404ZM29.3421 25.4987L29.403 25.205L29.3421 25.4987ZM24.8764 22.5207L25.1251 22.3528L24.8764 22.5207ZM23.8424 17.3507L24.1361 17.4116L24.197 17.1178L23.9032 17.0569L23.8424 17.3507ZM21.4287 16.8506L21.4895 16.5568L21.1958 16.4959L21.1349 16.7897L21.4287 16.8506ZM22.8249 23.8311L23.0736 23.6633L22.8249 23.8311ZM28.8545 27.8521L28.9154 27.5583L28.8545 27.8521ZM35.9854 26.5581L36.1469 26.8109L35.9854 26.5581ZM38.2892 24.4707L38.5793 24.3943L38.4258 23.8109L38.0532 24.2855L38.2892 24.4707ZM39.5728 27.2974L39.8214 27.1295L39.5728 27.2974ZM45.6024 31.3184L45.6632 31.0246L45.6024 31.3184ZM52.7333 30.0244L52.5718 29.7715L52.7333 30.0244ZM54.7166 28.323L55.0022 28.231L54.84 27.7275L54.4911 28.1252L54.7166 28.323ZM55.8602 30.6713L56.1089 30.5035L55.8602 30.6713ZM61.8898 34.6923L61.9507 34.3985L61.8898 34.6923ZM69.0207 33.3983L69.1822 33.6511L69.0207 33.3983ZM71.0038 31.6973L71.2893 31.6053L71.1272 31.1018L70.7783 31.4994L71.0038 31.6973ZM72.1477 34.0466L72.3964 33.8787L72.1477 34.0466ZM78.1773 38.0676L78.2382 37.7738L78.1773 38.0676ZM89.3633 30.9226L89.657 30.9835L89.7179 30.6897L89.4241 30.6288L89.3633 30.9226ZM86.9496 30.4225L87.0105 30.1287L86.7167 30.0678L86.6558 30.3616L86.9496 30.4225ZM83.9463 34.7559L83.7848 34.503L83.7848 34.503L83.9463 34.7559ZM78.6649 35.7142L78.7258 35.4205L78.6649 35.7142ZM74.1992 32.7362L73.9506 32.904L74.1992 32.7362ZM73.1652 27.5662L73.4589 27.627L73.5198 27.3333L73.226 27.2724L73.1652 27.5662ZM73.0757 27.5476L72.782 27.4868L72.7211 27.7805L73.0149 27.8414L73.0757 27.5476ZM73.0758 27.5473L73.3695 27.6082L73.4304 27.3144L73.1367 27.2536L73.0758 27.5473ZM70.6621 27.0472L70.723 26.7534L70.4292 26.6926L70.3683 26.9863L70.6621 27.0472ZM67.6588 31.3806L67.4973 31.1278L67.6588 31.3806ZM62.3775 32.339L62.4383 32.0452L62.3775 32.339ZM57.9118 29.3609L57.6631 29.5287L57.9118 29.3609ZM56.8777 24.1909L57.1715 24.2518L57.2323 23.958L56.9386 23.8972L56.8777 24.1909ZM54.7576 23.7526L54.7578 23.7516L54.1703 23.6299L54.1701 23.6309L54.7576 23.7526ZM54.3138 23.967L54.4029 23.9855L54.5247 23.398L54.4355 23.3795L54.3138 23.967ZM51.5328 28.2595C53.1537 27.2242 54.2824 25.5967 54.6684 23.7341L54.0809 23.6124C53.7282 25.3143 52.6964 26.8043 51.2099 27.7538L51.5328 28.2595ZM46.0291 29.2588C47.9326 29.6532 49.9123 29.2946 51.5328 28.2595L51.2099 27.7538C49.7231 28.7035 47.9032 29.0344 46.1509 28.6713L46.0291 29.2588ZM41.3756 26.1548C42.4514 27.7486 44.1256 28.8644 46.0291 29.2588L46.1509 28.6713C44.3985 28.3082 42.86 27.2814 41.873 25.8191L41.3756 26.1548ZM40.2965 20.7561C39.9105 22.6187 40.2996 24.5607 41.3756 26.1548L41.873 25.8191C40.8861 24.3571 40.5313 22.5797 40.884 20.8779L40.2965 20.7561ZM38.1157 20.6106L40.5294 21.1107L40.6511 20.5232L38.2374 20.0231L38.1157 20.6106ZM38.4695 20.3816L38.4703 20.3777L37.8828 20.256L37.882 20.2599L38.4695 20.3816ZM37.5659 20.5007L38.1149 20.6145L38.2366 20.027L37.6876 19.9132L37.5659 20.5007ZM34.785 24.7932C36.4058 23.7579 37.5346 22.1304 37.9205 20.2679L37.333 20.1461C36.9804 21.848 35.9485 23.3381 34.462 24.2876L34.785 24.7932ZM29.2813 25.7925C31.1847 26.1869 33.1644 25.8283 34.785 24.7932L34.462 24.2876C32.9752 25.2372 31.1554 25.5681 29.403 25.205L29.2813 25.7925ZM24.6278 22.6885C25.7036 24.2823 27.3778 25.3981 29.2813 25.7925L29.403 25.205C27.6506 24.8419 26.1121 23.8151 25.1251 22.3528L24.6278 22.6885ZM23.5486 17.2898C23.1627 19.1524 23.5518 21.0944 24.6278 22.6885L25.1251 22.3528C24.1383 20.8909 23.7835 19.1135 24.1361 17.4116L23.5486 17.2898ZM21.3678 17.1443L23.7815 17.6445L23.9032 17.0569L21.4895 16.5568L21.3678 17.1443ZM23.0736 23.6633C21.7255 21.6661 21.2405 19.2375 21.7224 16.9114L21.1349 16.7897C20.6196 19.2764 21.139 21.8697 22.5762 23.9989L23.0736 23.6633ZM28.9154 27.5583C26.5228 27.0626 24.4218 25.6607 23.0736 23.6633L22.5762 23.9989C24.0132 26.1279 26.25 27.6188 28.7936 28.1458L28.9154 27.5583ZM35.8239 26.3053C33.793 27.6025 31.3079 28.0541 28.9154 27.5583L28.7936 28.1458C31.3372 28.6729 33.9823 28.1936 36.1469 26.8109L35.8239 26.3053ZM38.0532 24.2855C37.438 25.0692 36.687 25.754 35.8239 26.3053L36.1469 26.8109C37.067 26.2232 37.8683 25.4927 38.5252 24.6559L38.0532 24.2855ZM39.8214 27.1295C39.2493 26.2819 38.8326 25.3565 38.5793 24.3943L37.9991 24.5471C38.2695 25.5744 38.7142 26.5616 39.3241 27.4652L39.8214 27.1295ZM45.6632 31.0246C43.2707 30.5288 41.1696 29.127 39.8214 27.1295L39.3241 27.4652C40.7611 29.5942 42.9979 31.0851 45.5415 31.6121L45.6632 31.0246ZM52.5718 29.7715C50.5409 31.0688 48.0558 31.5204 45.6632 31.0246L45.5415 31.6121C48.0851 32.1392 50.7301 31.6599 52.8948 30.2772L52.5718 29.7715ZM54.4911 28.1252C53.9393 28.7541 53.2949 29.3097 52.5718 29.7715L52.8948 30.2772C53.6656 29.7848 54.3531 29.1922 54.9421 28.5209L54.4911 28.1252ZM56.1089 30.5035C55.6291 29.7926 55.2586 29.0271 55.0022 28.231L54.4311 28.415C54.7048 29.2647 55.1001 30.0813 55.6116 30.8391L56.1089 30.5035ZM61.9507 34.3985C59.5582 33.9028 57.4571 32.5009 56.1089 30.5035L55.6116 30.8391C57.0486 32.9681 59.2853 34.459 61.829 34.9861L61.9507 34.3985ZM68.8593 33.1455C66.8283 34.4427 64.3432 34.8943 61.9507 34.3985L61.829 34.9861C64.3726 35.5131 67.0176 35.0338 69.1822 33.6511L68.8593 33.1455ZM70.7783 31.4994C70.2265 32.1282 69.5822 32.6837 68.8593 33.1455L69.1822 33.6511C69.9529 33.1589 70.6403 32.5664 71.2293 31.8952L70.7783 31.4994ZM70.7182 31.7893C70.992 32.6394 71.3873 33.4563 71.899 34.2144L72.3964 33.8787C71.9163 33.1676 71.5458 32.4017 71.2893 31.6053L70.7182 31.7893ZM71.899 34.2144C73.336 36.3434 75.5728 37.8343 78.1164 38.3613L78.2382 37.7738C75.8456 37.278 73.7446 35.8762 72.3964 33.8787L71.899 34.2144ZM78.1164 38.3613C80.66 38.8884 83.3051 38.409 85.4697 37.0264L85.1467 36.5207C83.1158 37.818 80.6307 38.2696 78.2382 37.7738L78.1164 38.3613ZM85.4697 37.0264C87.6347 35.6436 89.1417 33.4702 89.657 30.9835L89.0695 30.8617C88.5875 33.1878 87.1773 35.2237 85.1467 36.5207L85.4697 37.0264ZM89.4241 30.6288L87.0105 30.1287L86.8887 30.7162L89.3024 31.2164L89.4241 30.6288ZM86.6558 30.3616C86.3032 32.0635 85.2713 33.5535 83.7848 34.503L84.1078 35.0087C85.7286 33.9734 86.8574 32.3459 87.2433 30.4833L86.6558 30.3616ZM83.7848 34.503C82.298 35.4527 80.4782 35.7836 78.7258 35.4205L78.6041 36.008C80.5075 36.4024 82.4873 36.0438 84.1078 35.0087L83.7848 34.503ZM78.7258 35.4205C76.9734 35.0573 75.4349 34.0306 74.4479 32.5683L73.9506 32.904C75.0264 34.4978 76.7006 35.6136 78.6041 36.008L78.7258 35.4205ZM74.4479 32.5683C73.4611 31.1063 73.1063 29.3289 73.4589 27.627L72.8714 27.5053C72.4855 29.3679 72.8746 31.3099 73.9506 32.904L74.4479 32.5683ZM73.226 27.2724L73.1366 27.2539L73.0149 27.8414L73.1043 27.8599L73.226 27.2724ZM72.782 27.4865C72.782 27.4865 72.782 27.4866 72.782 27.4866C72.782 27.4867 72.782 27.4867 72.782 27.4868L73.3695 27.6085C73.3695 27.6085 73.3695 27.6084 73.3695 27.6084C73.3695 27.6083 73.3695 27.6083 73.3695 27.6082L72.782 27.4865ZM70.6012 27.341L73.0149 27.8411L73.1367 27.2536L70.723 26.7534L70.6012 27.341ZM67.8203 31.6334C69.4412 30.5981 70.5699 28.9706 70.9559 27.1081L70.3683 26.9863C70.0157 28.6882 68.9838 30.1783 67.4973 31.1278L67.8203 31.6334ZM62.3166 32.6327C64.2201 33.0271 66.1998 32.6685 67.8203 31.6334L67.4973 31.1278C66.0105 32.0774 64.1907 32.4083 62.4383 32.0452L62.3166 32.6327ZM57.6631 29.5287C58.7389 31.1225 60.4131 32.2383 62.3166 32.6327L62.4383 32.0452C60.686 31.6821 59.1474 30.6553 58.1604 29.1931L57.6631 29.5287ZM56.5839 24.13C56.198 25.9926 56.5871 27.9346 57.6631 29.5287L58.1604 29.1931C57.1736 27.7311 56.8188 25.9537 57.1715 24.2518L56.5839 24.13ZM54.4031 23.9845L56.8168 24.4847L56.9386 23.8972L54.5249 23.397L54.4031 23.9845Z" fill="#9D9D9D" mask="url(#path-2-inside-1_153_1037)"/>
<rect x="37.595" y="20.3492" width="3.21268" height="3.79813" rx="0.85" transform="rotate(11.7066 37.595 20.3492)" fill="#333848" stroke="#9D9D9D" stroke-width="0.3"/>
<rect x="20.9778" y="16.9019" width="3.21268" height="3.79813" rx="0.85" transform="rotate(11.7066 20.9778 16.9019)" fill="#333848" stroke="#9D9D9D" stroke-width="0.3"/>
<rect x="54.2121" y="23.7886" width="3.21268" height="3.79813" rx="0.85" transform="rotate(11.7066 54.2121 23.7886)" fill="#333848" stroke="#9D9D9D" stroke-width="0.3"/>
<rect x="70.2571" y="27.1138" width="3.21268" height="3.79813" rx="0.85" transform="rotate(11.7066 70.2571 27.1138)" fill="#333848" stroke="#9D9D9D" stroke-width="0.3"/>
<rect x="86.2981" y="30.4381" width="3.21268" height="3.79813" rx="0.85" transform="rotate(11.7066 86.2981 30.4381)" fill="#333848" stroke="#9D9D9D" stroke-width="0.3"/>
<rect x="14.1985" y="4.4195" width="121.325" height="11.8625" transform="rotate(11.7066 14.1985 4.4195)" fill="#333848" stroke="#9D9D9D" stroke-width="0.3"/>
<path d="M20.0081 11.4683C20.8765 7.27746 18.1831 3.17615 13.9923 2.30776L6.78039 0.813374C5.62326 0.573605 4.49085 1.31727 4.25108 2.4744L1.97465 13.4604C1.73488 14.6176 2.47855 15.75 3.63568 15.9897L10.8476 17.4841C15.0384 18.3525 19.1398 15.6591 20.0081 11.4683Z" fill="#333848" stroke="#9D9D9D" stroke-width="0.3"/>
<circle cx="14.3779" cy="10.6048" r="2.77724" transform="rotate(11.7066 14.3779 10.6048)" fill="#333848" stroke="#9D9D9D" stroke-width="0.3"/>
</svg>
