<svg width="140" height="70" viewBox="0 0 140 70" fill="none" xmlns="http://www.w3.org/2000/svg">
<rect x="130.625" y="23.1217" width="3.77037" height="46.2548" fill="#333848" stroke="#9D9D9D" stroke-width="0.3"/>
<rect x="68.2789" y="1.27207" width="3.64108" height="68.1059" fill="#333848" stroke="#9D9D9D" stroke-width="0.3"/>
<rect x="130.625" y="19.0504" width="3.77251" height="4.02704" fill="#333848" stroke="#9D9D9D" stroke-width="0.3"/>
<rect x="-0.15" y="0.15" width="3.77037" height="46.2548" transform="matrix(-1 0 0 1 9.37578 22.9707)" fill="#333848" stroke="#9D9D9D" stroke-width="0.3"/>
<rect x="-0.15" y="0.15" width="3.77251" height="4.02704" transform="matrix(-1 0 0 1 9.37578 18.9023)" fill="#333848" stroke="#9D9D9D" stroke-width="0.3"/>
<path d="M133.802 14.564L136.779 15.1809C138.273 15.4905 139.233 16.9527 138.924 18.4467C138.614 19.9408 137.152 20.9011 135.658 20.5915L132.681 19.9746L133.802 14.564Z" fill="#333848" stroke="#9D9D9D" stroke-width="0.3"/>
<mask id="path-7-inside-1_153_1079" fill="white">
<path fill-rule="evenodd" clip-rule="evenodd" d="M96.7158 11.906L96.7157 11.9065L96.6769 11.8985C96.5019 12.743 95.99 13.4816 95.2539 13.9518C94.5177 14.422 93.6175 14.5854 92.7514 14.4059C91.8852 14.2264 91.1241 13.7188 90.6354 12.9948C90.1466 12.2707 89.9704 11.3896 90.1454 10.5451L89.0017 10.3081L89.0013 10.3101L88.7353 10.255C88.5603 11.0995 88.0484 11.8381 87.3122 12.3083C86.576 12.7786 85.6758 12.9419 84.8097 12.7624C83.9436 12.583 83.1824 12.0754 82.6937 11.3513C82.205 10.6273 82.0287 9.74608 82.2037 8.9016L81.06 8.66461C80.8238 9.80484 81.0617 10.9946 81.7216 11.9722C82.3815 12.9499 83.4092 13.6352 84.5786 13.8775C85.7481 14.1199 86.9635 13.8993 87.9575 13.2644C88.382 12.9933 88.7512 12.6561 89.0534 12.2699C89.1773 12.7436 89.3819 13.1989 89.6633 13.6157C90.3231 14.5933 91.3508 15.2787 92.5203 15.521C93.6898 15.7633 94.9052 15.5428 95.8992 14.9079C96.2521 14.6824 96.5668 14.4113 96.8366 14.1044C96.9622 14.4931 97.1432 14.8667 97.3774 15.2137C98.0373 16.1913 99.065 16.8766 100.234 17.119C101.404 17.3613 102.619 17.1407 103.613 16.5058C103.97 16.278 104.288 16.0036 104.559 15.6926C104.685 16.0867 104.868 16.4656 105.105 16.817C105.765 17.7946 106.792 18.48 107.962 18.7223C109.131 18.9646 110.347 18.7441 111.341 18.1091C112.335 17.4742 113.026 16.477 113.262 15.3367L112.119 15.0998C111.944 15.9442 111.432 16.6828 110.696 17.1531C109.959 17.6233 109.059 17.7867 108.193 17.6072C107.327 17.4277 106.566 16.9201 106.077 16.1961C105.588 15.472 105.412 14.5908 105.587 13.7464L105.534 13.7354C105.534 13.7348 105.535 13.7341 105.535 13.7334L104.391 13.4964C104.216 14.3409 103.704 15.0795 102.968 15.5498C102.232 16.02 101.332 16.1833 100.465 16.0039C99.5994 15.8244 98.8382 15.3168 98.3495 14.5928C97.8608 13.8687 97.6845 12.9875 97.8595 12.143L96.7158 11.906Z"/>
</mask>
<path fill-rule="evenodd" clip-rule="evenodd" d="M96.7158 11.906L96.7157 11.9065L96.6769 11.8985C96.5019 12.743 95.99 13.4816 95.2539 13.9518C94.5177 14.422 93.6175 14.5854 92.7514 14.4059C91.8852 14.2264 91.1241 13.7188 90.6354 12.9948C90.1466 12.2707 89.9704 11.3896 90.1454 10.5451L89.0017 10.3081L89.0013 10.3101L88.7353 10.255C88.5603 11.0995 88.0484 11.8381 87.3122 12.3083C86.576 12.7786 85.6758 12.9419 84.8097 12.7624C83.9436 12.583 83.1824 12.0754 82.6937 11.3513C82.205 10.6273 82.0287 9.74608 82.2037 8.9016L81.06 8.66461C80.8238 9.80484 81.0617 10.9946 81.7216 11.9722C82.3815 12.9499 83.4092 13.6352 84.5786 13.8775C85.7481 14.1199 86.9635 13.8993 87.9575 13.2644C88.382 12.9933 88.7512 12.6561 89.0534 12.2699C89.1773 12.7436 89.3819 13.1989 89.6633 13.6157C90.3231 14.5933 91.3508 15.2787 92.5203 15.521C93.6898 15.7633 94.9052 15.5428 95.8992 14.9079C96.2521 14.6824 96.5668 14.4113 96.8366 14.1044C96.9622 14.4931 97.1432 14.8667 97.3774 15.2137C98.0373 16.1913 99.065 16.8766 100.234 17.119C101.404 17.3613 102.619 17.1407 103.613 16.5058C103.97 16.278 104.288 16.0036 104.559 15.6926C104.685 16.0867 104.868 16.4656 105.105 16.817C105.765 17.7946 106.792 18.48 107.962 18.7223C109.131 18.9646 110.347 18.7441 111.341 18.1091C112.335 17.4742 113.026 16.477 113.262 15.3367L112.119 15.0998C111.944 15.9442 111.432 16.6828 110.696 17.1531C109.959 17.6233 109.059 17.7867 108.193 17.6072C107.327 17.4277 106.566 16.9201 106.077 16.1961C105.588 15.472 105.412 14.5908 105.587 13.7464L105.534 13.7354C105.534 13.7348 105.535 13.7341 105.535 13.7334L104.391 13.4964C104.216 14.3409 103.704 15.0795 102.968 15.5498C102.232 16.02 101.332 16.1833 100.465 16.0039C99.5994 15.8244 98.8382 15.3168 98.3495 14.5928C97.8608 13.8687 97.6845 12.9875 97.8595 12.143L96.7158 11.906Z" fill="#333848"/>
<path d="M96.7157 11.9065L96.6548 12.2003L96.9486 12.2611L97.0095 11.9674L96.7157 11.9065ZM96.7158 11.906L96.7767 11.6123L96.4829 11.5514L96.4221 11.8452L96.7158 11.906ZM96.6769 11.8985L96.7378 11.6047L96.444 11.5438L96.3832 11.8376L96.6769 11.8985ZM95.2539 13.9518L95.4153 14.2046L95.4153 14.2046L95.2539 13.9518ZM92.7514 14.4059L92.8122 14.1121L92.7514 14.4059ZM90.6354 12.9948L90.3867 13.1626L90.6354 12.9948ZM90.1454 10.5451L90.4391 10.6059L90.5 10.3122L90.2062 10.2513L90.1454 10.5451ZM89.0017 10.3081L89.0625 10.0143L88.7687 9.95342L88.7079 10.2473L89.0017 10.3081ZM89.0013 10.3101L88.9404 10.6039L89.2343 10.6648L89.295 10.3709L89.0013 10.3101ZM88.7353 10.255L88.7961 9.96125L88.5024 9.90038L88.4415 10.1941L88.7353 10.255ZM84.8097 12.7624L84.8706 12.4687L84.8097 12.7624ZM82.6937 11.3513L82.445 11.5192L82.445 11.5192L82.6937 11.3513ZM82.2037 8.9016L82.4975 8.96247L82.5583 8.66871L82.2646 8.60784L82.2037 8.9016ZM81.06 8.66461L81.1209 8.37085L80.8271 8.30998L80.7663 8.60374L81.06 8.66461ZM81.7216 11.9722L81.473 12.1401L81.7216 11.9722ZM84.5786 13.8775L84.6395 13.5838L84.5786 13.8775ZM87.9575 13.2644L88.119 13.5172L87.9575 13.2644ZM89.0534 12.2699L89.3436 12.194L89.1903 11.6081L88.8171 12.085L89.0534 12.2699ZM89.6633 13.6157L89.4146 13.7835L89.4146 13.7835L89.6633 13.6157ZM92.5203 15.521L92.5812 15.2272L92.5203 15.521ZM95.8992 14.9079L96.0607 15.1607L96.0607 15.1607L95.8992 14.9079ZM96.8366 14.1044L97.1221 14.0122L96.9598 13.5098L96.6113 13.9063L96.8366 14.1044ZM97.3774 15.2137L97.1287 15.3815L97.1287 15.3815L97.3774 15.2137ZM100.234 17.119L100.295 16.8252L100.234 17.119ZM103.613 16.5058L103.452 16.253L103.452 16.253L103.613 16.5058ZM104.559 15.6926L104.845 15.6014L104.683 15.0946L104.333 15.4952L104.559 15.6926ZM105.105 16.817L104.856 16.9848L104.856 16.9848L105.105 16.817ZM107.962 18.7223L108.023 18.4285L107.962 18.7223ZM113.262 15.3367L113.556 15.3976L113.617 15.1039L113.323 15.043L113.262 15.3367ZM112.119 15.0998L112.179 14.806L111.886 14.7451L111.825 15.0389L112.119 15.0998ZM108.193 17.6072L108.254 17.3134L108.193 17.6072ZM106.077 16.1961L106.326 16.0282L106.326 16.0282L106.077 16.1961ZM105.587 13.7464L105.881 13.8072L105.942 13.5135L105.648 13.4526L105.587 13.7464ZM105.534 13.7354L105.241 13.6746L105.18 13.9683L105.473 14.0292L105.534 13.7354ZM105.535 13.7334L105.829 13.7943L105.889 13.5005L105.596 13.4397L105.535 13.7334ZM104.391 13.4964L104.452 13.2027L104.158 13.1418L104.097 13.4356L104.391 13.4964ZM100.465 16.0039L100.526 15.7101L100.465 16.0039ZM98.3495 14.5928L98.5981 14.4249L98.5981 14.4249L98.3495 14.5928ZM97.8595 12.143L98.1533 12.2039L98.2141 11.9101L97.9204 11.8493L97.8595 12.143ZM97.0095 11.9674L97.0096 11.9669L96.4221 11.8452L96.422 11.8456L97.0095 11.9674ZM96.6161 12.1922L96.6548 12.2003L96.7766 11.6128L96.7378 11.6047L96.6161 12.1922ZM95.4153 14.2046C96.2187 13.6915 96.779 12.8842 96.9707 11.9593L96.3832 11.8376C96.2248 12.6017 95.7614 13.2716 95.0924 13.699L95.4153 14.2046ZM92.6905 14.6997C93.6322 14.8948 94.6123 14.7176 95.4153 14.2046L95.0924 13.699C94.423 14.1265 93.6028 14.276 92.8122 14.1121L92.6905 14.6997ZM90.3867 13.1626C90.9198 13.9524 91.7488 14.5045 92.6905 14.6997L92.8122 14.1121C92.0216 13.9483 91.3283 13.4852 90.884 12.827L90.3867 13.1626ZM89.8516 10.4842C89.66 11.409 89.8534 12.3725 90.3867 13.1626L90.884 12.827C90.4399 12.169 90.2808 11.3701 90.4391 10.6059L89.8516 10.4842ZM88.9408 10.6018L90.0845 10.8388L90.2062 10.2513L89.0625 10.0143L88.9408 10.6018ZM89.295 10.3709L89.2955 10.3688L88.7079 10.2473L88.7075 10.2494L89.295 10.3709ZM88.6744 10.5488L88.9404 10.6039L89.0621 10.0164L88.7961 9.96125L88.6744 10.5488ZM87.4737 12.5612C88.2771 12.048 88.8374 11.2407 89.029 10.3159L88.4415 10.1941C88.2832 10.9583 87.8197 11.6282 87.1507 12.0555L87.4737 12.5612ZM84.7488 13.0562C85.6905 13.2513 86.6706 13.0741 87.4737 12.5612L87.1507 12.0555C86.4814 12.483 85.6612 12.6325 84.8706 12.4687L84.7488 13.0562ZM82.445 11.5192C82.9782 12.309 83.8072 12.8611 84.7488 13.0562L84.8706 12.4687C84.08 12.3049 83.3867 11.8418 82.9424 11.1835L82.445 11.5192ZM81.91 8.84073C81.7183 9.76556 81.9117 10.729 82.445 11.5192L82.9424 11.1835C82.4982 10.5255 82.3391 9.72661 82.4975 8.96247L81.91 8.84073ZM80.9992 8.95837L82.1428 9.19536L82.2646 8.60784L81.1209 8.37085L80.9992 8.95837ZM81.9703 11.8044C81.355 10.8929 81.1342 9.78537 81.3538 8.72548L80.7663 8.60374C80.5134 9.82431 80.7685 11.0964 81.473 12.1401L81.9703 11.8044ZM84.6395 13.5838C83.5456 13.3571 82.5857 12.7163 81.9703 11.8044L81.473 12.1401C82.1772 13.1835 83.2728 13.9133 84.5178 14.1713L84.6395 13.5838ZM87.796 13.0116C86.8689 13.6038 85.7334 13.8104 84.6395 13.5838L84.5178 14.1713C85.7628 14.4293 87.0582 14.1948 88.119 13.5172L87.796 13.0116ZM88.8171 12.085C88.5358 12.4445 88.1919 12.7587 87.796 13.0116L88.119 13.5172C88.5721 13.2278 88.9666 12.8676 89.2897 12.4548L88.8171 12.085ZM89.9119 13.4479C89.6496 13.0592 89.459 12.6349 89.3436 12.194L88.7632 12.3458C88.8956 12.8522 89.1143 13.3387 89.4146 13.7835L89.9119 13.4479ZM92.5812 15.2272C91.4872 15.0006 90.5274 14.3597 89.9119 13.4479L89.4146 13.7835C90.1189 14.8269 91.2144 15.5568 92.4594 15.8148L92.5812 15.2272ZM95.7377 14.655C94.8106 15.2472 93.6751 15.4539 92.5812 15.2272L92.4594 15.8148C93.7044 16.0727 94.9998 15.8383 96.0607 15.1607L95.7377 14.655ZM96.6113 13.9063C96.3601 14.1922 96.0668 14.4448 95.7377 14.655L96.0607 15.1607C96.4374 14.9201 96.7736 14.6305 97.0619 14.3024L96.6113 13.9063ZM97.626 15.0458C97.4077 14.7223 97.239 14.3741 97.1221 14.0122L96.5511 14.1966C96.6853 14.6121 96.8788 15.0112 97.1287 15.3815L97.626 15.0458ZM100.295 16.8252C99.2014 16.5985 98.2415 15.9577 97.626 15.0458L97.1287 15.3815C97.833 16.4249 98.9286 17.1547 100.174 17.4127L100.295 16.8252ZM103.452 16.253C102.525 16.8452 101.389 17.0519 100.295 16.8252L100.174 17.4127C101.419 17.6707 102.714 17.4363 103.775 16.7587L103.452 16.253ZM104.333 15.4952C104.08 15.7848 103.784 16.0406 103.452 16.253L103.775 16.7587C104.155 16.5155 104.495 16.2224 104.785 15.89L104.333 15.4952ZM104.273 15.7838C104.408 16.205 104.603 16.6097 104.856 16.9848L105.354 16.6492C105.132 16.3214 104.962 15.9684 104.845 15.6014L104.273 15.7838ZM104.856 16.9848C105.561 18.0282 106.656 18.7581 107.901 19.016L108.023 18.4285C106.929 18.2019 105.969 17.561 105.354 16.6492L104.856 16.9848ZM107.901 19.016C109.146 19.274 110.441 19.0396 111.502 18.362L111.179 17.8563C110.252 18.4485 109.117 18.6552 108.023 18.4285L107.901 19.016ZM111.502 18.362C112.563 17.6842 113.303 16.6182 113.556 15.3976L112.969 15.2759C112.749 16.3358 112.106 17.2643 111.179 17.8563L111.502 18.362ZM113.323 15.043L112.179 14.806L112.058 15.3935L113.201 15.6305L113.323 15.043ZM111.825 15.0389C111.666 15.803 111.203 16.4729 110.534 16.9003L110.857 17.4059C111.66 16.8928 112.221 16.0855 112.412 15.1606L111.825 15.0389ZM110.534 16.9003C109.865 17.3278 109.044 17.4772 108.254 17.3134L108.132 17.9009C109.074 18.0961 110.054 17.9189 110.857 17.4059L110.534 16.9003ZM108.254 17.3134C107.463 17.1496 106.77 16.6865 106.326 16.0282L105.828 16.3639C106.361 17.1537 107.19 17.7058 108.132 17.9009L108.254 17.3134ZM106.326 16.0282C105.882 15.3703 105.722 14.5714 105.881 13.8072L105.293 13.6855C105.102 14.6103 105.295 15.5738 105.828 16.3639L106.326 16.0282ZM105.648 13.4526L105.595 13.4417L105.473 14.0292L105.526 14.0401L105.648 13.4526ZM105.241 13.6726C105.241 13.6729 105.241 13.6732 105.241 13.6736C105.241 13.6739 105.241 13.6742 105.241 13.6746L105.828 13.7963C105.828 13.796 105.828 13.7956 105.828 13.7953C105.828 13.795 105.828 13.7946 105.829 13.7943L105.241 13.6726ZM104.33 13.7902L105.474 14.0272L105.596 13.4397L104.452 13.2027L104.33 13.7902ZM103.129 15.8026C103.933 15.2894 104.493 14.4821 104.685 13.5573L104.097 13.4356C103.939 14.1997 103.476 14.8696 102.807 15.2969L103.129 15.8026ZM100.405 16.2976C101.346 16.4928 102.326 16.3155 103.129 15.8026L102.807 15.2969C102.137 15.7245 101.317 15.8739 100.526 15.7101L100.405 16.2976ZM98.1008 14.7606C98.6339 15.5504 99.4629 16.1025 100.405 16.2976L100.526 15.7101C99.7358 15.5463 99.0425 15.0832 98.5981 14.4249L98.1008 14.7606ZM97.5657 12.0822C97.3741 13.007 97.5675 13.9705 98.1008 14.7606L98.5981 14.4249C98.154 13.7669 97.9949 12.968 98.1533 12.2039L97.5657 12.0822ZM96.6549 12.1998L97.7986 12.4368L97.9204 11.8493L96.7767 11.6123L96.6549 12.1998Z" fill="#9D9D9D" mask="url(#path-7-inside-1_153_1079)"/>
<rect x="88.7922" y="10.4166" width="1.36444" height="1.64184" rx="0.682218" transform="rotate(11.7066 88.7922 10.4166)" fill="#333848" stroke="#9D9D9D" stroke-width="0.3"/>
<rect x="80.9114" y="8.78083" width="1.36444" height="1.64184" rx="0.682218" transform="rotate(11.7066 80.9114 8.78083)" fill="#333848" stroke="#9D9D9D" stroke-width="0.3"/>
<rect x="96.6496" y="12.0504" width="1.36444" height="1.64184" rx="0.682218" transform="rotate(11.7066 96.6496 12.0504)" fill="#333848" stroke="#9D9D9D" stroke-width="0.3"/>
<rect x="104.257" y="13.6207" width="1.36444" height="1.64184" rx="0.682218" transform="rotate(11.7066 104.257 13.6207)" fill="#333848" stroke="#9D9D9D" stroke-width="0.3"/>
<rect x="111.859" y="15.1978" width="1.36444" height="1.64184" rx="0.682218" transform="rotate(11.7066 111.859 15.1978)" fill="#333848" stroke="#9D9D9D" stroke-width="0.3"/>
<rect x="77.6965" y="2.93806" width="57.3305" height="5.46305" transform="rotate(11.7066 77.6965 2.93806)" fill="#333848" stroke="#9D9D9D" stroke-width="0.3"/>
<path d="M80.2933 6.22926C80.6981 4.27592 79.4085 2.37444 77.444 2.02795L73.0121 1.24628C72.3693 1.1329 71.778 1.6228 71.77 2.27552L71.7085 7.26927C71.7028 7.72898 72.0238 8.12821 72.4739 8.2215L76.1118 8.9753C78.0248 9.37169 79.8969 8.14225 80.2933 6.22926Z" fill="#333848" stroke="#9D9D9D" stroke-width="0.3"/>
<circle cx="77.7096" cy="5.7773" r="1.23703" transform="rotate(11.7066 77.7096 5.7773)" fill="#333848" stroke="#9D9D9D" stroke-width="0.3"/>
<path d="M6.33668 14.5592L3.35975 15.176C1.86565 15.4856 0.905426 16.9478 1.21502 18.4419C1.52461 19.936 2.98679 20.8962 4.48088 20.5866L7.45781 19.9697L6.33668 14.5592Z" fill="#333848" stroke="#9D9D9D" stroke-width="0.3"/>
<mask id="path-18-inside-2_153_1079" fill="white">
<path fill-rule="evenodd" clip-rule="evenodd" d="M43.4307 11.9676L43.4308 11.968L43.4696 11.96C43.6446 12.8045 44.1564 13.5431 44.8926 14.0133C45.6288 14.4836 46.529 14.6469 47.3951 14.4674C48.2613 14.288 49.0224 13.7804 49.5111 13.0563C49.9999 12.3323 50.1761 11.4511 50.0011 10.6066L51.1448 10.3696L51.1452 10.3716L51.4112 10.3165C51.5862 11.161 52.0981 11.8996 52.8343 12.3699C53.5705 12.8401 54.4706 13.0034 55.3368 12.824C56.2029 12.6445 56.9641 12.1369 57.4528 11.4128C57.9415 10.6888 58.1178 9.80761 57.9428 8.96312L59.0865 8.72614C59.3227 9.86636 59.0847 11.0562 58.4249 12.0338C57.765 13.0114 56.7373 13.6967 55.5678 13.9391C54.3984 14.1814 53.183 13.9608 52.1889 13.3259C51.7645 13.0548 51.3953 12.7176 51.0931 12.3314C50.9692 12.8051 50.7646 13.2604 50.4832 13.6772C49.8234 14.6548 48.7957 15.3402 47.6262 15.5825C46.4567 15.8249 45.2413 15.6043 44.2473 14.9694C43.8944 14.744 43.5796 14.4729 43.3099 14.1659C43.1843 14.5546 43.0033 14.9283 42.7691 15.2752C42.1092 16.2528 41.0815 16.9382 39.9121 17.1805C38.7426 17.4228 37.5272 17.2023 36.5332 16.5674C36.1765 16.3395 35.8589 16.0651 35.5872 15.7541C35.4615 16.1482 35.2788 16.5271 35.0416 16.8785C34.3817 17.8561 33.354 18.5415 32.1845 18.7838C31.0151 19.0261 29.7997 18.8056 28.8057 18.1707C27.8116 17.5358 27.1205 16.5385 26.8842 15.3983L28.0279 15.1613C28.2029 16.0058 28.7148 16.7444 29.451 17.2146C30.1872 17.6848 31.0873 17.8482 31.9535 17.6687C32.8196 17.4892 33.5808 16.9816 34.0695 16.2576C34.5582 15.5336 34.7345 14.6524 34.5595 13.8079L34.6122 13.797C34.612 13.7963 34.6119 13.7956 34.6117 13.795L35.7554 13.558C35.9304 14.4025 36.4423 15.1411 37.1785 15.6113C37.9147 16.0815 38.8149 16.2449 39.681 16.0654C40.5471 15.8859 41.3083 15.3783 41.797 14.6543C42.2857 13.9302 42.462 13.049 42.287 12.2046L43.4307 11.9676Z"/>
</mask>
<path fill-rule="evenodd" clip-rule="evenodd" d="M43.4307 11.9676L43.4308 11.968L43.4696 11.96C43.6446 12.8045 44.1564 13.5431 44.8926 14.0133C45.6288 14.4836 46.529 14.6469 47.3951 14.4674C48.2613 14.288 49.0224 13.7804 49.5111 13.0563C49.9999 12.3323 50.1761 11.4511 50.0011 10.6066L51.1448 10.3696L51.1452 10.3716L51.4112 10.3165C51.5862 11.161 52.0981 11.8996 52.8343 12.3699C53.5705 12.8401 54.4706 13.0034 55.3368 12.824C56.2029 12.6445 56.9641 12.1369 57.4528 11.4128C57.9415 10.6888 58.1178 9.80761 57.9428 8.96312L59.0865 8.72614C59.3227 9.86636 59.0847 11.0562 58.4249 12.0338C57.765 13.0114 56.7373 13.6967 55.5678 13.9391C54.3984 14.1814 53.183 13.9608 52.1889 13.3259C51.7645 13.0548 51.3953 12.7176 51.0931 12.3314C50.9692 12.8051 50.7646 13.2604 50.4832 13.6772C49.8234 14.6548 48.7957 15.3402 47.6262 15.5825C46.4567 15.8249 45.2413 15.6043 44.2473 14.9694C43.8944 14.744 43.5796 14.4729 43.3099 14.1659C43.1843 14.5546 43.0033 14.9283 42.7691 15.2752C42.1092 16.2528 41.0815 16.9382 39.9121 17.1805C38.7426 17.4228 37.5272 17.2023 36.5332 16.5674C36.1765 16.3395 35.8589 16.0651 35.5872 15.7541C35.4615 16.1482 35.2788 16.5271 35.0416 16.8785C34.3817 17.8561 33.354 18.5415 32.1845 18.7838C31.0151 19.0261 29.7997 18.8056 28.8057 18.1707C27.8116 17.5358 27.1205 16.5385 26.8842 15.3983L28.0279 15.1613C28.2029 16.0058 28.7148 16.7444 29.451 17.2146C30.1872 17.6848 31.0873 17.8482 31.9535 17.6687C32.8196 17.4892 33.5808 16.9816 34.0695 16.2576C34.5582 15.5336 34.7345 14.6524 34.5595 13.8079L34.6122 13.797C34.612 13.7963 34.6119 13.7956 34.6117 13.795L35.7554 13.558C35.9304 14.4025 36.4423 15.1411 37.1785 15.6113C37.9147 16.0815 38.8149 16.2449 39.681 16.0654C40.5471 15.8859 41.3083 15.3783 41.797 14.6543C42.2857 13.9302 42.462 13.049 42.287 12.2046L43.4307 11.9676Z" fill="#333848"/>
<path d="M43.4308 11.968L43.4916 12.2618L43.1979 12.3227L43.137 12.0289L43.4308 11.968ZM43.4307 11.9676L43.3698 11.6738L43.6636 11.6129L43.7244 11.9067L43.4307 11.9676ZM43.4696 11.96L43.4087 11.6662L43.7025 11.6054L43.7633 11.8991L43.4696 11.96ZM44.8926 14.0133L44.7311 14.2661L44.7311 14.2661L44.8926 14.0133ZM47.3951 14.4674L47.3343 14.1737L47.3951 14.4674ZM49.5111 13.0563L49.7598 13.2242L49.5111 13.0563ZM50.0011 10.6066L49.7074 10.6675L49.6465 10.3737L49.9402 10.3128L50.0011 10.6066ZM51.1448 10.3696L51.0839 10.0758L51.3778 10.0149L51.4386 10.3089L51.1448 10.3696ZM51.1452 10.3716L51.2061 10.6654L50.9122 10.7263L50.8514 10.4324L51.1452 10.3716ZM51.4112 10.3165L51.3503 10.0228L51.6441 9.9619L51.705 10.2557L51.4112 10.3165ZM55.3368 12.824L55.2759 12.5302L55.3368 12.824ZM57.4528 11.4128L57.7014 11.5807L57.7014 11.5807L57.4528 11.4128ZM57.9428 8.96312L57.649 9.02399L57.5881 8.73023L57.8819 8.66936L57.9428 8.96312ZM59.0865 8.72614L59.0256 8.43238L59.3193 8.37151L59.3802 8.66527L59.0865 8.72614ZM58.4249 12.0338L58.6735 12.2016L58.4249 12.0338ZM55.5678 13.9391L55.507 13.6453L55.5678 13.9391ZM52.1889 13.3259L52.0275 13.5787L52.1889 13.3259ZM51.0931 12.3314L50.8029 12.2555L50.9561 11.6696L51.3294 12.1466L51.0931 12.3314ZM50.4832 13.6772L50.7319 13.8451L50.4832 13.6772ZM47.6262 15.5825L47.5653 15.2888L47.6262 15.5825ZM44.2473 14.9694L44.0858 15.2222L44.0858 15.2222L44.2473 14.9694ZM43.3099 14.1659L43.0244 14.0737L43.1867 13.5713L43.5352 13.9679L43.3099 14.1659ZM42.7691 15.2752L43.0178 15.443L43.0178 15.443L42.7691 15.2752ZM39.9121 17.1805L39.8512 16.8867L39.9121 17.1805ZM36.5332 16.5674L36.6947 16.3145L36.6947 16.3145L36.5332 16.5674ZM35.5872 15.7541L35.3014 15.6629L35.4631 15.1561L35.8131 15.5568L35.5872 15.7541ZM35.0416 16.8785L34.7929 16.7107L34.7929 16.7107L35.0416 16.8785ZM32.1845 18.7838L32.1237 18.4901L32.1845 18.7838ZM26.8842 15.3983L26.5905 15.4591L26.5296 15.1654L26.8234 15.1045L26.8842 15.3983ZM28.0279 15.1613L27.967 14.8675L28.2608 14.8067L28.3217 15.1004L28.0279 15.1613ZM31.9535 17.6687L31.8926 17.375L31.9535 17.6687ZM34.0695 16.2576L33.8208 16.0898L33.8208 16.0898L34.0695 16.2576ZM34.5595 13.8079L34.2657 13.8687L34.2048 13.575L34.4986 13.5141L34.5595 13.8079ZM34.6122 13.797L34.9059 13.7361L34.9668 14.0298L34.673 14.0907L34.6122 13.797ZM34.6117 13.795L34.318 13.8558L34.2571 13.5621L34.5509 13.5012L34.6117 13.795ZM35.7554 13.558L35.6946 13.2642L35.9883 13.2033L36.0492 13.4971L35.7554 13.558ZM39.681 16.0654L39.6201 15.7716L39.681 16.0654ZM41.797 14.6543L41.5483 14.4864L41.5483 14.4864L41.797 14.6543ZM42.287 12.2046L41.9932 12.2654L41.9324 11.9717L42.2261 11.9108L42.287 12.2046ZM43.137 12.0289L43.1369 12.0284L43.7244 11.9067L43.7245 11.9072L43.137 12.0289ZM43.5304 12.2538L43.4916 12.2618L43.3699 11.6743L43.4087 11.6662L43.5304 12.2538ZM44.7311 14.2661C43.9278 13.753 43.3674 12.9457 43.1758 12.0209L43.7633 11.8991C43.9217 12.6633 44.3851 13.3332 45.0541 13.7605L44.7311 14.2661ZM47.456 14.7612C46.5143 14.9563 45.5342 14.7791 44.7311 14.2661L45.0541 13.7605C45.7234 14.188 46.5437 14.3375 47.3343 14.1737L47.456 14.7612ZM49.7598 13.2242C49.2267 14.014 48.3977 14.5661 47.456 14.7612L47.3343 14.1737C48.1249 14.0098 48.8181 13.5468 49.2625 12.8885L49.7598 13.2242ZM50.2949 10.5457C50.4865 11.4705 50.2931 12.434 49.7598 13.2242L49.2625 12.8885C49.7066 12.2305 49.8657 11.4316 49.7074 10.6675L50.2949 10.5457ZM51.2057 10.6634L50.062 10.9004L49.9402 10.3128L51.0839 10.0758L51.2057 10.6634ZM50.8514 10.4324L50.851 10.4303L51.4386 10.3089L51.439 10.3109L50.8514 10.4324ZM51.4721 10.6103L51.2061 10.6654L51.0844 10.0779L51.3503 10.0228L51.4721 10.6103ZM52.6728 12.6227C51.8694 12.1095 51.3091 11.3022 51.1175 10.3774L51.705 10.2557C51.8633 11.0198 52.3268 11.6897 52.9958 12.117L52.6728 12.6227ZM55.3976 13.1177C54.456 13.3128 53.4758 13.1356 52.6728 12.6227L52.9958 12.117C53.6651 12.5445 54.4853 12.694 55.2759 12.5302L55.3976 13.1177ZM57.7014 11.5807C57.1683 12.3705 56.3393 12.9226 55.3976 13.1177L55.2759 12.5302C56.0665 12.3664 56.7598 11.9033 57.2041 11.245L57.7014 11.5807ZM58.2365 8.90225C58.4282 9.82708 58.2347 10.7906 57.7014 11.5807L57.2041 11.245C57.6483 10.587 57.8073 9.78813 57.649 9.02399L58.2365 8.90225ZM59.1473 9.0199L58.0036 9.25688L57.8819 8.66936L59.0256 8.43238L59.1473 9.0199ZM58.1762 11.8659C58.7915 10.9544 59.0123 9.84689 58.7927 8.78701L59.3802 8.66527C59.6331 9.88584 59.378 11.1579 58.6735 12.2016L58.1762 11.8659ZM55.507 13.6453C56.6009 13.4186 57.5607 12.7778 58.1762 11.8659L58.6735 12.2016C57.9693 13.245 56.8737 13.9748 55.6287 14.2328L55.507 13.6453ZM52.3504 13.0731C53.2776 13.6653 54.413 13.872 55.507 13.6453L55.6287 14.2328C54.3837 14.4908 53.0883 14.2564 52.0275 13.5787L52.3504 13.0731ZM51.3294 12.1466C51.6107 12.5061 51.9546 12.8203 52.3504 13.0731L52.0275 13.5787C51.5744 13.2893 51.1799 12.9292 50.8568 12.5163L51.3294 12.1466ZM50.2346 13.5094C50.4969 13.1207 50.6875 12.6964 50.8029 12.2555L51.3833 12.4074C51.2509 12.9137 51.0322 13.4002 50.7319 13.8451L50.2346 13.5094ZM47.5653 15.2888C48.6592 15.0621 49.6191 14.4212 50.2346 13.5094L50.7319 13.8451C50.0276 14.8884 48.9321 15.6183 47.6871 15.8763L47.5653 15.2888ZM44.4088 14.7166C45.3359 15.3088 46.4714 15.5154 47.5653 15.2888L47.6871 15.8763C46.4421 16.1343 45.1467 15.8998 44.0858 15.2222L44.4088 14.7166ZM43.5352 13.9679C43.7864 14.2537 44.0797 14.5063 44.4088 14.7166L44.0858 15.2222C43.7091 14.9816 43.3729 14.692 43.0845 14.3639L43.5352 13.9679ZM42.5204 15.1074C42.7388 14.7838 42.9075 14.4356 43.0244 14.0737L43.5954 14.2581C43.4611 14.6736 43.2677 15.0727 43.0178 15.443L42.5204 15.1074ZM39.8512 16.8867C40.9451 16.6601 41.905 16.0192 42.5204 15.1074L43.0178 15.443C42.3135 16.4864 41.2179 17.2163 39.9729 17.4743L39.8512 16.8867ZM36.6947 16.3145C37.6218 16.9067 38.7573 17.1134 39.8512 16.8867L39.9729 17.4743C38.7279 17.7322 37.4325 17.4978 36.3717 16.8202L36.6947 16.3145ZM35.8131 15.5568C36.0661 15.8463 36.3621 16.1021 36.6947 16.3145L36.3717 16.8202C35.991 16.577 35.6516 16.2839 35.3613 15.9515L35.8131 15.5568ZM35.873 15.8453C35.7386 16.2666 35.5434 16.6712 35.2902 17.0464L34.7929 16.7107C35.0141 16.3829 35.1843 16.0299 35.3014 15.6629L35.873 15.8453ZM35.2902 17.0464C34.586 18.0897 33.4904 18.8196 32.2454 19.0776L32.1237 18.4901C33.2176 18.2634 34.1774 17.6225 34.7929 16.7107L35.2902 17.0464ZM32.2454 19.0776C31.0004 19.3355 29.705 19.1011 28.6442 18.4235L28.9671 17.9178C29.8943 18.51 31.0297 18.7167 32.1237 18.4901L32.2454 19.0776ZM28.6442 18.4235C27.583 17.7457 26.8434 16.6797 26.5905 15.4591L27.178 15.3374C27.3976 16.3973 28.0403 17.3258 28.9671 17.9178L28.6442 18.4235ZM26.8234 15.1045L27.967 14.8675L28.0888 15.455L26.9451 15.692L26.8234 15.1045ZM28.3217 15.1004C28.48 15.8646 28.9435 16.5345 29.6125 16.9618L29.2895 17.4674C28.4861 16.9543 27.9258 16.147 27.7342 15.2222L28.3217 15.1004ZM29.6125 16.9618C30.2818 17.3893 31.102 17.5388 31.8926 17.375L32.0143 17.9625C31.0727 18.1576 30.0925 17.9804 29.2895 17.4674L29.6125 16.9618ZM31.8926 17.375C32.6832 17.2111 33.3765 16.748 33.8208 16.0898L34.3181 16.4254C33.785 17.2153 32.956 17.7673 32.0143 17.9625L31.8926 17.375ZM33.8208 16.0898C34.265 15.4318 34.424 14.6329 34.2657 13.8687L34.8532 13.747C35.0449 14.6718 34.8515 15.6353 34.3181 16.4254L33.8208 16.0898ZM34.4986 13.5141L34.5513 13.5032L34.673 14.0907L34.6203 14.1016L34.4986 13.5141ZM34.9055 13.7341C34.9055 13.7341 34.9055 13.7341 34.9055 13.7341C34.9055 13.7341 34.9055 13.7341 34.9055 13.7341C34.9055 13.7341 34.9055 13.7341 34.9055 13.7341C34.9055 13.7341 34.9055 13.7341 34.9055 13.7341C34.9055 13.7341 34.9055 13.7341 34.9055 13.7341C34.9055 13.7341 34.9055 13.7341 34.9055 13.7341C34.9055 13.7341 34.9055 13.7341 34.9055 13.7341C34.9055 13.7341 34.9055 13.7341 34.9055 13.7341C34.9055 13.7341 34.9055 13.7341 34.9055 13.7341C34.9055 13.7341 34.9055 13.7341 34.9055 13.7341C34.9055 13.7341 34.9055 13.7341 34.9055 13.7341C34.9055 13.7341 34.9055 13.7341 34.9055 13.7341C34.9055 13.7341 34.9055 13.7341 34.9055 13.7341C34.9055 13.7341 34.9055 13.7341 34.9055 13.7341C34.9055 13.7341 34.9055 13.7341 34.9055 13.7341C34.9055 13.7341 34.9055 13.7341 34.9055 13.7341C34.9055 13.7341 34.9055 13.7341 34.9055 13.7341C34.9055 13.7341 34.9055 13.7342 34.9055 13.7342C34.9055 13.7342 34.9055 13.7342 34.9055 13.7342C34.9055 13.7342 34.9055 13.7342 34.9055 13.7342C34.9055 13.7342 34.9055 13.7342 34.9055 13.7342C34.9055 13.7342 34.9055 13.7342 34.9055 13.7342C34.9055 13.7342 34.9055 13.7342 34.9055 13.7342C34.9055 13.7342 34.9055 13.7342 34.9055 13.7342C34.9055 13.7342 34.9055 13.7342 34.9055 13.7342C34.9055 13.7342 34.9055 13.7342 34.9055 13.7342C34.9055 13.7342 34.9055 13.7342 34.9055 13.7342C34.9055 13.7342 34.9055 13.7342 34.9055 13.7342C34.9055 13.7342 34.9055 13.7342 34.9055 13.7342C34.9055 13.7342 34.9055 13.7342 34.9055 13.7342C34.9055 13.7342 34.9055 13.7342 34.9055 13.7342C34.9055 13.7342 34.9055 13.7342 34.9055 13.7342C34.9055 13.7342 34.9055 13.7342 34.9055 13.7342C34.9055 13.7342 34.9055 13.7342 34.9055 13.7342C34.9055 13.7342 34.9055 13.7342 34.9055 13.7342C34.9055 13.7342 34.9055 13.7342 34.9055 13.7342C34.9055 13.7342 34.9055 13.7342 34.9055 13.7342C34.9055 13.7342 34.9055 13.7342 34.9055 13.7342C34.9055 13.7342 34.9055 13.7342 34.9055 13.7342C34.9055 13.7342 34.9055 13.7342 34.9055 13.7342C34.9055 13.7342 34.9055 13.7342 34.9055 13.7342C34.9055 13.7342 34.9055 13.7342 34.9055 13.7342C34.9055 13.7342 34.9055 13.7342 34.9055 13.7343C34.9055 13.7343 34.9055 13.7343 34.9055 13.7343C34.9055 13.7343 34.9055 13.7343 34.9055 13.7343C34.9055 13.7343 34.9055 13.7343 34.9055 13.7343C34.9055 13.7343 34.9055 13.7343 34.9055 13.7343C34.9055 13.7343 34.9055 13.7343 34.9055 13.7343C34.9055 13.7343 34.9055 13.7343 34.9055 13.7343C34.9055 13.7343 34.9055 13.7343 34.9055 13.7343C34.9055 13.7343 34.9055 13.7343 34.9055 13.7343C34.9055 13.7343 34.9055 13.7343 34.9055 13.7343C34.9055 13.7343 34.9055 13.7343 34.9055 13.7343C34.9055 13.7343 34.9055 13.7343 34.9055 13.7343C34.9055 13.7343 34.9055 13.7343 34.9055 13.7343C34.9055 13.7343 34.9055 13.7343 34.9055 13.7343C34.9055 13.7343 34.9055 13.7343 34.9055 13.7343C34.9055 13.7343 34.9055 13.7343 34.9055 13.7343C34.9055 13.7343 34.9055 13.7343 34.9055 13.7343C34.9055 13.7343 34.9055 13.7343 34.9055 13.7343C34.9055 13.7343 34.9055 13.7343 34.9055 13.7343C34.9055 13.7343 34.9055 13.7343 34.9055 13.7343C34.9055 13.7343 34.9056 13.7343 34.9056 13.7343C34.9056 13.7343 34.9056 13.7343 34.9056 13.7343C34.9056 13.7343 34.9056 13.7343 34.9056 13.7343C34.9056 13.7343 34.9056 13.7343 34.9056 13.7343C34.9056 13.7343 34.9056 13.7343 34.9056 13.7343C34.9056 13.7343 34.9056 13.7343 34.9056 13.7343C34.9056 13.7343 34.9056 13.7344 34.9056 13.7344C34.9056 13.7344 34.9056 13.7344 34.9056 13.7344C34.9056 13.7344 34.9056 13.7344 34.9056 13.7344C34.9056 13.7344 34.9056 13.7344 34.9056 13.7344C34.9056 13.7344 34.9056 13.7344 34.9056 13.7344C34.9056 13.7344 34.9056 13.7344 34.9056 13.7344C34.9056 13.7344 34.9056 13.7344 34.9056 13.7344C34.9056 13.7344 34.9056 13.7344 34.9056 13.7344C34.9056 13.7344 34.9056 13.7344 34.9056 13.7344C34.9056 13.7344 34.9056 13.7344 34.9056 13.7344C34.9056 13.7344 34.9056 13.7344 34.9056 13.7344C34.9056 13.7344 34.9056 13.7344 34.9056 13.7344C34.9056 13.7344 34.9056 13.7344 34.9056 13.7344C34.9056 13.7344 34.9056 13.7344 34.9056 13.7344C34.9056 13.7344 34.9056 13.7344 34.9056 13.7344C34.9056 13.7344 34.9056 13.7344 34.9056 13.7344C34.9056 13.7344 34.9056 13.7344 34.9056 13.7344C34.9056 13.7344 34.9056 13.7344 34.9056 13.7344C34.9056 13.7344 34.9056 13.7344 34.9056 13.7344C34.9056 13.7344 34.9056 13.7344 34.9056 13.7344C34.9056 13.7344 34.9056 13.7344 34.9056 13.7344C34.9056 13.7344 34.9056 13.7344 34.9056 13.7344C34.9056 13.7344 34.9056 13.7344 34.9056 13.7344C34.9056 13.7344 34.9056 13.7344 34.9056 13.7344C34.9056 13.7344 34.9056 13.7344 34.9056 13.7344C34.9056 13.7344 34.9056 13.7344 34.9056 13.7345C34.9056 13.7345 34.9056 13.7345 34.9056 13.7345C34.9056 13.7345 34.9056 13.7345 34.9056 13.7345C34.9056 13.7345 34.9056 13.7345 34.9056 13.7345C34.9056 13.7345 34.9056 13.7345 34.9056 13.7345C34.9056 13.7345 34.9056 13.7345 34.9056 13.7345C34.9056 13.7345 34.9056 13.7345 34.9056 13.7345C34.9056 13.7345 34.9056 13.7345 34.9056 13.7345C34.9056 13.7345 34.9056 13.7345 34.9056 13.7345C34.9056 13.7345 34.9056 13.7345 34.9056 13.7345C34.9056 13.7345 34.9056 13.7345 34.9056 13.7345C34.9056 13.7345 34.9056 13.7345 34.9056 13.7345C34.9056 13.7345 34.9056 13.7345 34.9056 13.7345C34.9056 13.7345 34.9056 13.7345 34.9056 13.7345C34.9056 13.7345 34.9056 13.7345 34.9056 13.7345C34.9056 13.7345 34.9056 13.7345 34.9056 13.7345C34.9056 13.7345 34.9056 13.7345 34.9056 13.7345C34.9056 13.7345 34.9056 13.7345 34.9056 13.7345C34.9056 13.7345 34.9056 13.7345 34.9056 13.7345C34.9056 13.7345 34.9056 13.7345 34.9056 13.7345C34.9056 13.7345 34.9056 13.7345 34.9056 13.7345C34.9056 13.7345 34.9056 13.7345 34.9056 13.7345C34.9056 13.7345 34.9056 13.7345 34.9056 13.7345C34.9056 13.7345 34.9056 13.7345 34.9056 13.7345C34.9056 13.7345 34.9056 13.7345 34.9056 13.7345C34.9056 13.7345 34.9056 13.7345 34.9056 13.7345C34.9056 13.7345 34.9056 13.7346 34.9056 13.7346C34.9056 13.7346 34.9056 13.7346 34.9056 13.7346C34.9056 13.7346 34.9056 13.7346 34.9056 13.7346C34.9056 13.7346 34.9056 13.7346 34.9056 13.7346C34.9056 13.7346 34.9056 13.7346 34.9056 13.7346C34.9056 13.7346 34.9056 13.7346 34.9056 13.7346C34.9056 13.7346 34.9056 13.7346 34.9056 13.7346C34.9056 13.7346 34.9056 13.7346 34.9056 13.7346C34.9056 13.7346 34.9056 13.7346 34.9056 13.7346C34.9056 13.7346 34.9056 13.7346 34.9056 13.7346C34.9056 13.7346 34.9056 13.7346 34.9056 13.7346C34.9056 13.7346 34.9056 13.7346 34.9056 13.7346C34.9056 13.7346 34.9056 13.7346 34.9056 13.7346C34.9056 13.7346 34.9056 13.7346 34.9056 13.7346C34.9056 13.7346 34.9056 13.7346 34.9056 13.7346C34.9056 13.7346 34.9056 13.7346 34.9056 13.7346C34.9056 13.7346 34.9056 13.7346 34.9056 13.7346C34.9056 13.7346 34.9056 13.7346 34.9056 13.7346C34.9056 13.7346 34.9056 13.7346 34.9056 13.7346C34.9056 13.7346 34.9056 13.7346 34.9056 13.7346C34.9056 13.7346 34.9056 13.7346 34.9056 13.7346C34.9056 13.7346 34.9056 13.7346 34.9056 13.7346C34.9056 13.7346 34.9056 13.7346 34.9056 13.7346C34.9056 13.7346 34.9056 13.7346 34.9056 13.7346C34.9056 13.7346 34.9056 13.7346 34.9056 13.7346C34.9056 13.7346 34.9056 13.7346 34.9056 13.7347C34.9056 13.7347 34.9056 13.7347 34.9056 13.7347C34.9056 13.7347 34.9056 13.7347 34.9056 13.7347C34.9056 13.7347 34.9056 13.7347 34.9056 13.7347C34.9056 13.7347 34.9056 13.7347 34.9056 13.7347C34.9056 13.7347 34.9056 13.7347 34.9056 13.7347C34.9056 13.7347 34.9056 13.7347 34.9056 13.7347C34.9056 13.7347 34.9056 13.7347 34.9056 13.7347C34.9056 13.7347 34.9056 13.7347 34.9056 13.7347C34.9056 13.7347 34.9056 13.7347 34.9056 13.7347C34.9056 13.7347 34.9056 13.7347 34.9056 13.7347C34.9056 13.7347 34.9056 13.7347 34.9056 13.7347C34.9056 13.7347 34.9056 13.7347 34.9056 13.7347C34.9056 13.7347 34.9056 13.7347 34.9056 13.7347C34.9056 13.7347 34.9056 13.7347 34.9056 13.7347C34.9056 13.7347 34.9056 13.7347 34.9056 13.7347C34.9056 13.7347 34.9056 13.7347 34.9056 13.7347C34.9056 13.7347 34.9056 13.7347 34.9056 13.7347C34.9056 13.7347 34.9056 13.7347 34.9056 13.7347C34.9056 13.7347 34.9056 13.7347 34.9056 13.7347C34.9056 13.7347 34.9056 13.7347 34.9056 13.7347C34.9056 13.7347 34.9056 13.7347 34.9056 13.7347C34.9056 13.7347 34.9056 13.7347 34.9056 13.7347C34.9056 13.7347 34.9056 13.7347 34.9056 13.7347C34.9056 13.7347 34.9056 13.7347 34.9056 13.7347C34.9056 13.7347 34.9056 13.7347 34.9056 13.7347C34.9056 13.7347 34.9056 13.7348 34.9056 13.7348C34.9056 13.7348 34.9056 13.7348 34.9056 13.7348C34.9056 13.7348 34.9056 13.7348 34.9056 13.7348C34.9056 13.7348 34.9056 13.7348 34.9056 13.7348C34.9056 13.7348 34.9056 13.7348 34.9056 13.7348C34.9056 13.7348 34.9056 13.7348 34.9056 13.7348C34.9056 13.7348 34.9056 13.7348 34.9056 13.7348C34.9056 13.7348 34.9056 13.7348 34.9056 13.7348C34.9056 13.7348 34.9056 13.7348 34.9056 13.7348C34.9056 13.7348 34.9056 13.7348 34.9056 13.7348C34.9056 13.7348 34.9056 13.7348 34.9056 13.7348C34.9056 13.7348 34.9056 13.7348 34.9056 13.7348C34.9056 13.7348 34.9056 13.7348 34.9056 13.7348C34.9056 13.7348 34.9056 13.7348 34.9056 13.7348C34.9056 13.7348 34.9056 13.7348 34.9056 13.7348C34.9056 13.7348 34.9056 13.7348 34.9057 13.7348C34.9057 13.7348 34.9057 13.7348 34.9057 13.7348C34.9057 13.7348 34.9057 13.7348 34.9057 13.7348C34.9057 13.7348 34.9057 13.7348 34.9057 13.7348C34.9057 13.7348 34.9057 13.7348 34.9057 13.7348C34.9057 13.7348 34.9057 13.7348 34.9057 13.7348C34.9057 13.7348 34.9057 13.7348 34.9057 13.7348C34.9057 13.7348 34.9057 13.7348 34.9057 13.7348C34.9057 13.7348 34.9057 13.7348 34.9057 13.7348C34.9057 13.7348 34.9057 13.7348 34.9057 13.7348C34.9057 13.7348 34.9057 13.7348 34.9057 13.7349C34.9057 13.7349 34.9057 13.7349 34.9057 13.7349C34.9057 13.7349 34.9057 13.7349 34.9057 13.7349C34.9057 13.7349 34.9057 13.7349 34.9057 13.7349C34.9057 13.7349 34.9057 13.7349 34.9057 13.7349C34.9057 13.7349 34.9057 13.7349 34.9057 13.7349C34.9057 13.7349 34.9057 13.7349 34.9057 13.7349C34.9057 13.7349 34.9057 13.7349 34.9057 13.7349C34.9057 13.7349 34.9057 13.7349 34.9057 13.7349C34.9057 13.7349 34.9057 13.7349 34.9057 13.7349C34.9057 13.7349 34.9057 13.7349 34.9057 13.7349C34.9057 13.7349 34.9057 13.7349 34.9057 13.7349C34.9057 13.7349 34.9057 13.7349 34.9057 13.7349C34.9057 13.7349 34.9057 13.7349 34.9057 13.7349C34.9057 13.7349 34.9057 13.7349 34.9057 13.7349C34.9057 13.7349 34.9057 13.7349 34.9057 13.7349C34.9057 13.7349 34.9057 13.7349 34.9057 13.7349C34.9057 13.7349 34.9057 13.7349 34.9057 13.7349C34.9057 13.7349 34.9057 13.7349 34.9057 13.7349C34.9057 13.7349 34.9057 13.7349 34.9057 13.7349C34.9057 13.7349 34.9057 13.7349 34.9057 13.7349C34.9057 13.7349 34.9057 13.7349 34.9057 13.7349C34.9057 13.7349 34.9057 13.7349 34.9057 13.7349C34.9057 13.7349 34.9057 13.7349 34.9057 13.7349C34.9057 13.7349 34.9057 13.7349 34.9057 13.7349C34.9057 13.7349 34.9057 13.7349 34.9057 13.7349C34.9057 13.7349 34.9057 13.735 34.9057 13.735C34.9057 13.735 34.9057 13.735 34.9057 13.735C34.9057 13.735 34.9057 13.735 34.9057 13.735C34.9057 13.735 34.9057 13.735 34.9057 13.735C34.9057 13.735 34.9057 13.735 34.9057 13.735C34.9057 13.735 34.9057 13.735 34.9057 13.735C34.9057 13.735 34.9057 13.735 34.9057 13.735C34.9057 13.735 34.9057 13.735 34.9057 13.735C34.9057 13.735 34.9057 13.735 34.9057 13.735C34.9057 13.735 34.9057 13.735 34.9057 13.735C34.9057 13.735 34.9057 13.735 34.9057 13.735C34.9057 13.735 34.9057 13.735 34.9057 13.735C34.9057 13.735 34.9057 13.735 34.9057 13.735C34.9057 13.735 34.9057 13.735 34.9057 13.735C34.9057 13.735 34.9057 13.735 34.9057 13.735C34.9057 13.735 34.9057 13.735 34.9057 13.735C34.9057 13.735 34.9057 13.735 34.9057 13.735C34.9057 13.735 34.9057 13.735 34.9057 13.735C34.9057 13.735 34.9057 13.735 34.9057 13.735C34.9057 13.735 34.9057 13.735 34.9057 13.735C34.9057 13.735 34.9057 13.735 34.9057 13.735C34.9057 13.735 34.9057 13.735 34.9057 13.735C34.9057 13.735 34.9057 13.735 34.9057 13.735C34.9057 13.735 34.9057 13.735 34.9057 13.735C34.9057 13.735 34.9057 13.735 34.9057 13.735C34.9057 13.735 34.9057 13.735 34.9057 13.7351C34.9057 13.7351 34.9057 13.7351 34.9057 13.7351C34.9057 13.7351 34.9057 13.7351 34.9057 13.7351C34.9057 13.7351 34.9057 13.7351 34.9057 13.7351C34.9057 13.7351 34.9057 13.7351 34.9057 13.7351C34.9057 13.7351 34.9057 13.7351 34.9057 13.7351C34.9057 13.7351 34.9057 13.7351 34.9057 13.7351C34.9057 13.7351 34.9057 13.7351 34.9057 13.7351C34.9057 13.7351 34.9057 13.7351 34.9057 13.7351C34.9057 13.7351 34.9057 13.7351 34.9057 13.7351C34.9057 13.7351 34.9057 13.7351 34.9057 13.7351C34.9057 13.7351 34.9057 13.7351 34.9057 13.7351C34.9057 13.7351 34.9057 13.7351 34.9057 13.7351C34.9057 13.7351 34.9057 13.7351 34.9057 13.7351C34.9057 13.7351 34.9057 13.7351 34.9057 13.7351C34.9057 13.7351 34.9057 13.7351 34.9057 13.7351C34.9057 13.7351 34.9057 13.7351 34.9057 13.7351C34.9057 13.7351 34.9057 13.7351 34.9057 13.7351C34.9057 13.7351 34.9057 13.7351 34.9057 13.7351C34.9057 13.7351 34.9057 13.7351 34.9057 13.7351C34.9057 13.7351 34.9057 13.7351 34.9057 13.7351C34.9057 13.7351 34.9057 13.7351 34.9057 13.7351C34.9057 13.7351 34.9057 13.7351 34.9057 13.7351C34.9057 13.7351 34.9057 13.7351 34.9057 13.7351C34.9057 13.7351 34.9057 13.7351 34.9057 13.7351C34.9057 13.7351 34.9057 13.7351 34.9057 13.7351C34.9057 13.7351 34.9057 13.7352 34.9057 13.7352C34.9057 13.7352 34.9057 13.7352 34.9057 13.7352C34.9057 13.7352 34.9057 13.7352 34.9057 13.7352C34.9057 13.7352 34.9057 13.7352 34.9057 13.7352C34.9057 13.7352 34.9057 13.7352 34.9057 13.7352C34.9057 13.7352 34.9057 13.7352 34.9057 13.7352C34.9057 13.7352 34.9057 13.7352 34.9057 13.7352C34.9057 13.7352 34.9057 13.7352 34.9057 13.7352C34.9057 13.7352 34.9057 13.7352 34.9057 13.7352C34.9057 13.7352 34.9057 13.7352 34.9057 13.7352C34.9057 13.7352 34.9057 13.7352 34.9057 13.7352C34.9057 13.7352 34.9057 13.7352 34.9057 13.7352C34.9057 13.7352 34.9057 13.7352 34.9057 13.7352C34.9057 13.7352 34.9057 13.7352 34.9057 13.7352C34.9057 13.7352 34.9057 13.7352 34.9057 13.7352C34.9057 13.7352 34.9057 13.7352 34.9057 13.7352C34.9057 13.7352 34.9057 13.7352 34.9057 13.7352C34.9057 13.7352 34.9057 13.7352 34.9057 13.7352C34.9057 13.7352 34.9057 13.7352 34.9057 13.7352C34.9057 13.7352 34.9057 13.7352 34.9057 13.7352C34.9057 13.7352 34.9057 13.7352 34.9057 13.7352C34.9057 13.7352 34.9057 13.7352 34.9057 13.7352C34.9057 13.7352 34.9057 13.7352 34.9057 13.7352C34.9057 13.7352 34.9057 13.7352 34.9057 13.7352C34.9057 13.7352 34.9057 13.7352 34.9057 13.7352C34.9057 13.7352 34.9057 13.7352 34.9057 13.7352C34.9057 13.7353 34.9057 13.7353 34.9057 13.7353C34.9057 13.7353 34.9057 13.7353 34.9057 13.7353C34.9057 13.7353 34.9057 13.7353 34.9057 13.7353C34.9057 13.7353 34.9057 13.7353 34.9057 13.7353C34.9057 13.7353 34.9057 13.7353 34.9057 13.7353C34.9057 13.7353 34.9057 13.7353 34.9057 13.7353C34.9057 13.7353 34.9057 13.7353 34.9057 13.7353C34.9057 13.7353 34.9057 13.7353 34.9057 13.7353C34.9057 13.7353 34.9057 13.7353 34.9057 13.7353C34.9057 13.7353 34.9057 13.7353 34.9057 13.7353C34.9057 13.7353 34.9057 13.7353 34.9058 13.7353C34.9058 13.7353 34.9058 13.7353 34.9058 13.7353C34.9058 13.7353 34.9058 13.7353 34.9058 13.7353C34.9058 13.7353 34.9058 13.7353 34.9058 13.7353C34.9058 13.7353 34.9058 13.7353 34.9058 13.7353C34.9058 13.7353 34.9058 13.7353 34.9058 13.7353C34.9058 13.7353 34.9058 13.7353 34.9058 13.7353C34.9058 13.7353 34.9058 13.7353 34.9058 13.7353C34.9058 13.7353 34.9058 13.7353 34.9058 13.7353C34.9058 13.7353 34.9058 13.7353 34.9058 13.7353C34.9058 13.7353 34.9058 13.7353 34.9058 13.7353C34.9058 13.7353 34.9058 13.7353 34.9058 13.7353C34.9058 13.7353 34.9058 13.7353 34.9058 13.7353C34.9058 13.7353 34.9058 13.7353 34.9058 13.7353C34.9058 13.7353 34.9058 13.7353 34.9058 13.7353C34.9058 13.7353 34.9058 13.7354 34.9058 13.7354C34.9058 13.7354 34.9058 13.7354 34.9058 13.7354C34.9058 13.7354 34.9058 13.7354 34.9058 13.7354C34.9058 13.7354 34.9058 13.7354 34.9058 13.7354C34.9058 13.7354 34.9058 13.7354 34.9058 13.7354C34.9058 13.7354 34.9058 13.7354 34.9058 13.7354C34.9058 13.7354 34.9058 13.7354 34.9058 13.7354C34.9058 13.7354 34.9058 13.7354 34.9058 13.7354C34.9058 13.7354 34.9058 13.7354 34.9058 13.7354C34.9058 13.7354 34.9058 13.7354 34.9058 13.7354C34.9058 13.7354 34.9058 13.7354 34.9058 13.7354C34.9058 13.7354 34.9058 13.7354 34.9058 13.7354C34.9058 13.7354 34.9058 13.7354 34.9058 13.7354C34.9058 13.7354 34.9058 13.7354 34.9058 13.7354C34.9058 13.7354 34.9058 13.7354 34.9058 13.7354C34.9058 13.7354 34.9058 13.7354 34.9058 13.7354C34.9058 13.7354 34.9058 13.7354 34.9058 13.7354C34.9058 13.7354 34.9058 13.7354 34.9058 13.7354C34.9058 13.7354 34.9058 13.7354 34.9058 13.7354C34.9058 13.7354 34.9058 13.7354 34.9058 13.7354C34.9058 13.7354 34.9058 13.7354 34.9058 13.7354C34.9058 13.7354 34.9058 13.7354 34.9058 13.7354C34.9058 13.7354 34.9058 13.7354 34.9058 13.7354C34.9058 13.7354 34.9058 13.7354 34.9058 13.7354C34.9058 13.7354 34.9058 13.7354 34.9058 13.7354C34.9058 13.7354 34.9058 13.7354 34.9058 13.7354C34.9058 13.7355 34.9058 13.7355 34.9058 13.7355C34.9058 13.7355 34.9058 13.7355 34.9058 13.7355C34.9058 13.7355 34.9058 13.7355 34.9058 13.7355C34.9058 13.7355 34.9058 13.7355 34.9058 13.7355C34.9058 13.7355 34.9058 13.7355 34.9058 13.7355C34.9058 13.7355 34.9058 13.7355 34.9058 13.7355C34.9058 13.7355 34.9058 13.7355 34.9058 13.7355C34.9058 13.7355 34.9058 13.7355 34.9058 13.7355C34.9058 13.7355 34.9058 13.7355 34.9058 13.7355C34.9058 13.7355 34.9058 13.7355 34.9058 13.7355C34.9058 13.7355 34.9058 13.7355 34.9058 13.7355C34.9058 13.7355 34.9058 13.7355 34.9058 13.7355C34.9058 13.7355 34.9058 13.7355 34.9058 13.7355C34.9058 13.7355 34.9058 13.7355 34.9058 13.7355C34.9058 13.7355 34.9058 13.7355 34.9058 13.7355C34.9058 13.7355 34.9058 13.7355 34.9058 13.7355C34.9058 13.7355 34.9058 13.7355 34.9058 13.7355C34.9058 13.7355 34.9058 13.7355 34.9058 13.7355C34.9058 13.7355 34.9058 13.7355 34.9058 13.7355C34.9058 13.7355 34.9058 13.7355 34.9058 13.7355C34.9058 13.7355 34.9058 13.7355 34.9058 13.7355C34.9058 13.7355 34.9058 13.7355 34.9058 13.7355C34.9058 13.7355 34.9058 13.7355 34.9058 13.7355C34.9058 13.7355 34.9058 13.7355 34.9058 13.7355C34.9058 13.7355 34.9058 13.7355 34.9058 13.7355C34.9058 13.7355 34.9058 13.7356 34.9058 13.7356C34.9058 13.7356 34.9058 13.7356 34.9058 13.7356C34.9058 13.7356 34.9058 13.7356 34.9058 13.7356C34.9058 13.7356 34.9058 13.7356 34.9058 13.7356C34.9058 13.7356 34.9058 13.7356 34.9058 13.7356C34.9058 13.7356 34.9058 13.7356 34.9058 13.7356C34.9058 13.7356 34.9058 13.7356 34.9058 13.7356C34.9058 13.7356 34.9058 13.7356 34.9058 13.7356C34.9058 13.7356 34.9058 13.7356 34.9058 13.7356C34.9058 13.7356 34.9058 13.7356 34.9058 13.7356C34.9058 13.7356 34.9058 13.7356 34.9058 13.7356C34.9058 13.7356 34.9058 13.7356 34.9058 13.7356C34.9058 13.7356 34.9058 13.7356 34.9058 13.7356C34.9058 13.7356 34.9058 13.7356 34.9058 13.7356C34.9058 13.7356 34.9058 13.7356 34.9058 13.7356C34.9058 13.7356 34.9058 13.7356 34.9058 13.7356C34.9058 13.7356 34.9058 13.7356 34.9058 13.7356C34.9058 13.7356 34.9058 13.7356 34.9058 13.7356C34.9058 13.7356 34.9058 13.7356 34.9058 13.7356C34.9058 13.7356 34.9058 13.7356 34.9058 13.7356C34.9058 13.7356 34.9058 13.7356 34.9058 13.7356C34.9058 13.7356 34.9058 13.7356 34.9058 13.7356C34.9058 13.7356 34.9058 13.7356 34.9058 13.7356C34.9058 13.7356 34.9058 13.7356 34.9058 13.7356C34.9058 13.7356 34.9058 13.7356 34.9058 13.7356C34.9058 13.7356 34.9058 13.7356 34.9058 13.7356C34.9058 13.7357 34.9058 13.7357 34.9058 13.7357C34.9058 13.7357 34.9058 13.7357 34.9058 13.7357C34.9058 13.7357 34.9058 13.7357 34.9058 13.7357C34.9058 13.7357 34.9058 13.7357 34.9058 13.7357C34.9058 13.7357 34.9058 13.7357 34.9058 13.7357C34.9058 13.7357 34.9058 13.7357 34.9058 13.7357C34.9058 13.7357 34.9058 13.7357 34.9058 13.7357C34.9058 13.7357 34.9058 13.7357 34.9058 13.7357C34.9058 13.7357 34.9058 13.7357 34.9058 13.7357C34.9058 13.7357 34.9058 13.7357 34.9058 13.7357C34.9058 13.7357 34.9058 13.7357 34.9058 13.7357C34.9058 13.7357 34.9058 13.7357 34.9058 13.7357C34.9058 13.7357 34.9058 13.7357 34.9058 13.7357C34.9058 13.7357 34.9058 13.7357 34.9058 13.7357C34.9058 13.7357 34.9058 13.7357 34.9058 13.7357C34.9058 13.7357 34.9058 13.7357 34.9058 13.7357C34.9058 13.7357 34.9058 13.7357 34.9058 13.7357C34.9058 13.7357 34.9058 13.7357 34.9058 13.7357C34.9058 13.7357 34.9058 13.7357 34.9058 13.7357C34.9058 13.7357 34.9058 13.7357 34.9058 13.7357C34.9058 13.7357 34.9058 13.7357 34.9058 13.7357C34.9058 13.7357 34.9058 13.7357 34.9058 13.7357C34.9058 13.7357 34.9058 13.7357 34.9058 13.7357C34.9058 13.7357 34.9058 13.7357 34.9058 13.7357C34.9058 13.7357 34.9058 13.7357 34.9058 13.7357C34.9058 13.7357 34.9058 13.7358 34.9058 13.7358C34.9058 13.7358 34.9058 13.7358 34.9058 13.7358C34.9058 13.7358 34.9058 13.7358 34.9058 13.7358C34.9058 13.7358 34.9058 13.7358 34.9058 13.7358C34.9058 13.7358 34.9058 13.7358 34.9058 13.7358C34.9058 13.7358 34.9058 13.7358 34.9058 13.7358C34.9058 13.7358 34.9058 13.7358 34.9059 13.7358C34.9059 13.7358 34.9059 13.7358 34.9059 13.7358C34.9059 13.7358 34.9059 13.7358 34.9059 13.7358C34.9059 13.7358 34.9059 13.7358 34.9059 13.7358C34.9059 13.7358 34.9059 13.7358 34.9059 13.7358C34.9059 13.7358 34.9059 13.7358 34.9059 13.7358C34.9059 13.7358 34.9059 13.7358 34.9059 13.7358C34.9059 13.7358 34.9059 13.7358 34.9059 13.7358C34.9059 13.7358 34.9059 13.7358 34.9059 13.7358C34.9059 13.7358 34.9059 13.7358 34.9059 13.7358C34.9059 13.7358 34.9059 13.7358 34.9059 13.7358C34.9059 13.7358 34.9059 13.7358 34.9059 13.7358C34.9059 13.7358 34.9059 13.7358 34.9059 13.7358C34.9059 13.7358 34.9059 13.7358 34.9059 13.7358C34.9059 13.7358 34.9059 13.7358 34.9059 13.7358C34.9059 13.7358 34.9059 13.7358 34.9059 13.7358C34.9059 13.7358 34.9059 13.7358 34.9059 13.7358C34.9059 13.7358 34.9059 13.7358 34.9059 13.7358C34.9059 13.7358 34.9059 13.7358 34.9059 13.7358C34.9059 13.7358 34.9059 13.7358 34.9059 13.7358C34.9059 13.7359 34.9059 13.7359 34.9059 13.7359C34.9059 13.7359 34.9059 13.7359 34.9059 13.7359C34.9059 13.7359 34.9059 13.7359 34.9059 13.7359C34.9059 13.7359 34.9059 13.7359 34.9059 13.7359C34.9059 13.7359 34.9059 13.7359 34.9059 13.7359C34.9059 13.7359 34.9059 13.7359 34.9059 13.7359C34.9059 13.7359 34.9059 13.7359 34.9059 13.7359C34.9059 13.7359 34.9059 13.7359 34.9059 13.7359C34.9059 13.7359 34.9059 13.7359 34.9059 13.7359C34.9059 13.7359 34.9059 13.7359 34.9059 13.7359C34.9059 13.7359 34.9059 13.7359 34.9059 13.7359C34.9059 13.7359 34.9059 13.7359 34.9059 13.7359C34.9059 13.7359 34.9059 13.7359 34.9059 13.7359C34.9059 13.7359 34.9059 13.7359 34.9059 13.7359C34.9059 13.7359 34.9059 13.7359 34.9059 13.7359C34.9059 13.7359 34.9059 13.7359 34.9059 13.7359C34.9059 13.7359 34.9059 13.7359 34.9059 13.7359C34.9059 13.7359 34.9059 13.7359 34.9059 13.7359C34.9059 13.7359 34.9059 13.7359 34.9059 13.7359C34.9059 13.7359 34.9059 13.7359 34.9059 13.7359C34.9059 13.7359 34.9059 13.7359 34.9059 13.7359C34.9059 13.7359 34.9059 13.7359 34.9059 13.7359C34.9059 13.7359 34.9059 13.7359 34.9059 13.7359C34.9059 13.7359 34.9059 13.7359 34.9059 13.7359C34.9059 13.7359 34.9059 13.7359 34.9059 13.7359C34.9059 13.7359 34.9059 13.736 34.9059 13.736C34.9059 13.736 34.9059 13.736 34.9059 13.736C34.9059 13.736 34.9059 13.736 34.9059 13.736C34.9059 13.736 34.9059 13.736 34.9059 13.736C34.9059 13.736 34.9059 13.736 34.9059 13.736C34.9059 13.736 34.9059 13.736 34.9059 13.736C34.9059 13.736 34.9059 13.736 34.9059 13.736C34.9059 13.736 34.9059 13.736 34.9059 13.736C34.9059 13.736 34.9059 13.736 34.9059 13.736C34.9059 13.736 34.9059 13.736 34.9059 13.736C34.9059 13.736 34.9059 13.736 34.9059 13.736C34.9059 13.736 34.9059 13.736 34.9059 13.736C34.9059 13.736 34.9059 13.736 34.9059 13.736C34.9059 13.736 34.9059 13.736 34.9059 13.736C34.9059 13.736 34.9059 13.736 34.9059 13.736C34.9059 13.736 34.9059 13.736 34.9059 13.736C34.9059 13.736 34.9059 13.736 34.9059 13.736C34.9059 13.736 34.9059 13.736 34.9059 13.736C34.9059 13.736 34.9059 13.736 34.9059 13.736C34.9059 13.736 34.9059 13.736 34.9059 13.736C34.9059 13.736 34.9059 13.736 34.9059 13.736C34.9059 13.736 34.9059 13.736 34.9059 13.736C34.9059 13.736 34.9059 13.736 34.9059 13.736C34.9059 13.736 34.9059 13.736 34.9059 13.736C34.9059 13.736 34.9059 13.736 34.9059 13.736C34.9059 13.736 34.9059 13.736 34.9059 13.736C34.9059 13.7361 34.9059 13.7361 34.9059 13.7361C34.9059 13.7361 34.9059 13.7361 34.9059 13.7361C34.9059 13.7361 34.9059 13.7361 34.9059 13.7361C34.9059 13.7361 34.9059 13.7361 34.9059 13.7361C34.9059 13.7361 34.9059 13.7361 34.9059 13.7361C34.9059 13.7361 34.9059 13.7361 34.9059 13.7361C34.9059 13.7361 34.9059 13.7361 34.9059 13.7361C34.9059 13.7361 34.9059 13.7361 34.9059 13.7361C34.9059 13.7361 34.9059 13.7361 34.9059 13.7361C34.9059 13.7361 34.9059 13.7361 34.9059 13.7361L34.3184 13.8578C34.3184 13.8578 34.3184 13.8578 34.3184 13.8578C34.3184 13.8578 34.3184 13.8578 34.3184 13.8578C34.3184 13.8578 34.3184 13.8578 34.3184 13.8578C34.3184 13.8578 34.3184 13.8578 34.3184 13.8578C34.3184 13.8578 34.3184 13.8578 34.3184 13.8578C34.3184 13.8578 34.3184 13.8578 34.3184 13.8578C34.3184 13.8578 34.3184 13.8578 34.3184 13.8578C34.3184 13.8578 34.3184 13.8578 34.3184 13.8578C34.3184 13.8578 34.3184 13.8578 34.3184 13.8578C34.3184 13.8578 34.3184 13.8578 34.3184 13.8578C34.3184 13.8578 34.3184 13.8578 34.3184 13.8578C34.3184 13.8578 34.3184 13.8578 34.3184 13.8578C34.3184 13.8578 34.3184 13.8578 34.3184 13.8578C34.3184 13.8578 34.3184 13.8578 34.3184 13.8578C34.3184 13.8578 34.3184 13.8578 34.3184 13.8578C34.3184 13.8578 34.3184 13.8578 34.3184 13.8578C34.3184 13.8578 34.3184 13.8578 34.3184 13.8578C34.3184 13.8578 34.3184 13.8578 34.3184 13.8578C34.3184 13.8578 34.3184 13.8578 34.3184 13.8578C34.3184 13.8578 34.3184 13.8578 34.3184 13.8578C34.3184 13.8577 34.3184 13.8577 34.3184 13.8577C34.3184 13.8577 34.3184 13.8577 34.3184 13.8577C34.3184 13.8577 34.3184 13.8577 34.3184 13.8577C34.3184 13.8577 34.3184 13.8577 34.3184 13.8577C34.3184 13.8577 34.3184 13.8577 34.3184 13.8577C34.3184 13.8577 34.3184 13.8577 34.3184 13.8577C34.3184 13.8577 34.3184 13.8577 34.3184 13.8577C34.3184 13.8577 34.3184 13.8577 34.3184 13.8577C34.3184 13.8577 34.3184 13.8577 34.3184 13.8577C34.3184 13.8577 34.3184 13.8577 34.3184 13.8577C34.3184 13.8577 34.3184 13.8577 34.3184 13.8577C34.3184 13.8577 34.3184 13.8577 34.3184 13.8577C34.3184 13.8577 34.3184 13.8577 34.3184 13.8577C34.3184 13.8577 34.3184 13.8577 34.3184 13.8577C34.3184 13.8577 34.3184 13.8577 34.3184 13.8577C34.3184 13.8577 34.3184 13.8577 34.3184 13.8577C34.3184 13.8577 34.3184 13.8577 34.3184 13.8577C34.3184 13.8577 34.3184 13.8577 34.3184 13.8577C34.3184 13.8577 34.3184 13.8577 34.3184 13.8577C34.3184 13.8577 34.3184 13.8577 34.3184 13.8577C34.3184 13.8577 34.3184 13.8577 34.3184 13.8577C34.3184 13.8577 34.3184 13.8577 34.3184 13.8577C34.3184 13.8577 34.3184 13.8577 34.3184 13.8577C34.3184 13.8577 34.3184 13.8577 34.3184 13.8577C34.3184 13.8577 34.3184 13.8577 34.3184 13.8577C34.3184 13.8577 34.3184 13.8577 34.3184 13.8576C34.3184 13.8576 34.3184 13.8576 34.3184 13.8576C34.3184 13.8576 34.3184 13.8576 34.3184 13.8576C34.3184 13.8576 34.3184 13.8576 34.3184 13.8576C34.3184 13.8576 34.3184 13.8576 34.3184 13.8576C34.3184 13.8576 34.3184 13.8576 34.3184 13.8576C34.3184 13.8576 34.3184 13.8576 34.3184 13.8576C34.3184 13.8576 34.3184 13.8576 34.3184 13.8576C34.3184 13.8576 34.3184 13.8576 34.3184 13.8576C34.3184 13.8576 34.3184 13.8576 34.3184 13.8576C34.3184 13.8576 34.3183 13.8576 34.3183 13.8576C34.3183 13.8576 34.3183 13.8576 34.3183 13.8576C34.3183 13.8576 34.3183 13.8576 34.3183 13.8576C34.3183 13.8576 34.3183 13.8576 34.3183 13.8576C34.3183 13.8576 34.3183 13.8576 34.3183 13.8576C34.3183 13.8576 34.3183 13.8576 34.3183 13.8576C34.3183 13.8576 34.3183 13.8576 34.3183 13.8576C34.3183 13.8576 34.3183 13.8576 34.3183 13.8576C34.3183 13.8576 34.3183 13.8576 34.3183 13.8576C34.3183 13.8576 34.3183 13.8576 34.3183 13.8576C34.3183 13.8576 34.3183 13.8576 34.3183 13.8576C34.3183 13.8576 34.3183 13.8576 34.3183 13.8576C34.3183 13.8576 34.3183 13.8576 34.3183 13.8576C34.3183 13.8576 34.3183 13.8576 34.3183 13.8576C34.3183 13.8576 34.3183 13.8576 34.3183 13.8576C34.3183 13.8576 34.3183 13.8576 34.3183 13.8576C34.3183 13.8575 34.3183 13.8575 34.3183 13.8575C34.3183 13.8575 34.3183 13.8575 34.3183 13.8575C34.3183 13.8575 34.3183 13.8575 34.3183 13.8575C34.3183 13.8575 34.3183 13.8575 34.3183 13.8575C34.3183 13.8575 34.3183 13.8575 34.3183 13.8575C34.3183 13.8575 34.3183 13.8575 34.3183 13.8575C34.3183 13.8575 34.3183 13.8575 34.3183 13.8575C34.3183 13.8575 34.3183 13.8575 34.3183 13.8575C34.3183 13.8575 34.3183 13.8575 34.3183 13.8575C34.3183 13.8575 34.3183 13.8575 34.3183 13.8575C34.3183 13.8575 34.3183 13.8575 34.3183 13.8575C34.3183 13.8575 34.3183 13.8575 34.3183 13.8575C34.3183 13.8575 34.3183 13.8575 34.3183 13.8575C34.3183 13.8575 34.3183 13.8575 34.3183 13.8575C34.3183 13.8575 34.3183 13.8575 34.3183 13.8575C34.3183 13.8575 34.3183 13.8575 34.3183 13.8575C34.3183 13.8575 34.3183 13.8575 34.3183 13.8575C34.3183 13.8575 34.3183 13.8575 34.3183 13.8575C34.3183 13.8575 34.3183 13.8575 34.3183 13.8575C34.3183 13.8575 34.3183 13.8575 34.3183 13.8575C34.3183 13.8575 34.3183 13.8575 34.3183 13.8575C34.3183 13.8575 34.3183 13.8575 34.3183 13.8575C34.3183 13.8575 34.3183 13.8575 34.3183 13.8575C34.3183 13.8575 34.3183 13.8575 34.3183 13.8575C34.3183 13.8575 34.3183 13.8575 34.3183 13.8575C34.3183 13.8575 34.3183 13.8575 34.3183 13.8574C34.3183 13.8574 34.3183 13.8574 34.3183 13.8574C34.3183 13.8574 34.3183 13.8574 34.3183 13.8574C34.3183 13.8574 34.3183 13.8574 34.3183 13.8574C34.3183 13.8574 34.3183 13.8574 34.3183 13.8574C34.3183 13.8574 34.3183 13.8574 34.3183 13.8574C34.3183 13.8574 34.3183 13.8574 34.3183 13.8574C34.3183 13.8574 34.3183 13.8574 34.3183 13.8574C34.3183 13.8574 34.3183 13.8574 34.3183 13.8574C34.3183 13.8574 34.3183 13.8574 34.3183 13.8574C34.3183 13.8574 34.3183 13.8574 34.3183 13.8574C34.3183 13.8574 34.3183 13.8574 34.3183 13.8574C34.3183 13.8574 34.3183 13.8574 34.3183 13.8574C34.3183 13.8574 34.3183 13.8574 34.3183 13.8574C34.3183 13.8574 34.3183 13.8574 34.3183 13.8574C34.3183 13.8574 34.3183 13.8574 34.3183 13.8574C34.3183 13.8574 34.3183 13.8574 34.3183 13.8574C34.3183 13.8574 34.3183 13.8574 34.3183 13.8574C34.3183 13.8574 34.3183 13.8574 34.3183 13.8574C34.3183 13.8574 34.3183 13.8574 34.3183 13.8574C34.3183 13.8574 34.3183 13.8574 34.3183 13.8574C34.3183 13.8574 34.3183 13.8574 34.3183 13.8574C34.3183 13.8574 34.3183 13.8574 34.3183 13.8574C34.3183 13.8574 34.3183 13.8574 34.3183 13.8574C34.3183 13.8574 34.3183 13.8574 34.3183 13.8574C34.3183 13.8574 34.3183 13.8574 34.3183 13.8574C34.3183 13.8573 34.3183 13.8573 34.3183 13.8573C34.3183 13.8573 34.3183 13.8573 34.3183 13.8573C34.3183 13.8573 34.3183 13.8573 34.3183 13.8573C34.3183 13.8573 34.3183 13.8573 34.3183 13.8573C34.3183 13.8573 34.3183 13.8573 34.3183 13.8573C34.3183 13.8573 34.3183 13.8573 34.3183 13.8573C34.3183 13.8573 34.3183 13.8573 34.3183 13.8573C34.3183 13.8573 34.3183 13.8573 34.3183 13.8573C34.3183 13.8573 34.3183 13.8573 34.3183 13.8573C34.3183 13.8573 34.3183 13.8573 34.3183 13.8573C34.3183 13.8573 34.3183 13.8573 34.3183 13.8573C34.3183 13.8573 34.3183 13.8573 34.3183 13.8573C34.3183 13.8573 34.3183 13.8573 34.3183 13.8573C34.3183 13.8573 34.3183 13.8573 34.3183 13.8573C34.3183 13.8573 34.3183 13.8573 34.3183 13.8573C34.3183 13.8573 34.3183 13.8573 34.3183 13.8573C34.3183 13.8573 34.3183 13.8573 34.3183 13.8573C34.3183 13.8573 34.3183 13.8573 34.3183 13.8573C34.3183 13.8573 34.3183 13.8573 34.3183 13.8573C34.3183 13.8573 34.3183 13.8573 34.3183 13.8573C34.3183 13.8573 34.3183 13.8573 34.3183 13.8573C34.3183 13.8573 34.3183 13.8573 34.3183 13.8573C34.3183 13.8573 34.3183 13.8573 34.3183 13.8573C34.3183 13.8573 34.3183 13.8573 34.3183 13.8573C34.3183 13.8573 34.3183 13.8573 34.3183 13.8573C34.3183 13.8573 34.3183 13.8573 34.3183 13.8572C34.3183 13.8572 34.3183 13.8572 34.3183 13.8572C34.3183 13.8572 34.3183 13.8572 34.3183 13.8572C34.3183 13.8572 34.3183 13.8572 34.3183 13.8572C34.3183 13.8572 34.3183 13.8572 34.3183 13.8572C34.3183 13.8572 34.3183 13.8572 34.3183 13.8572C34.3183 13.8572 34.3183 13.8572 34.3183 13.8572C34.3183 13.8572 34.3183 13.8572 34.3183 13.8572C34.3183 13.8572 34.3183 13.8572 34.3183 13.8572C34.3183 13.8572 34.3183 13.8572 34.3183 13.8572C34.3183 13.8572 34.3183 13.8572 34.3183 13.8572C34.3183 13.8572 34.3183 13.8572 34.3183 13.8572C34.3183 13.8572 34.3183 13.8572 34.3183 13.8572C34.3183 13.8572 34.3183 13.8572 34.3183 13.8572C34.3183 13.8572 34.3183 13.8572 34.3183 13.8572C34.3183 13.8572 34.3183 13.8572 34.3183 13.8572C34.3183 13.8572 34.3183 13.8572 34.3183 13.8572C34.3183 13.8572 34.3183 13.8572 34.3183 13.8572C34.3183 13.8572 34.3183 13.8572 34.3183 13.8572C34.3183 13.8572 34.3183 13.8572 34.3183 13.8572C34.3183 13.8572 34.3183 13.8572 34.3183 13.8572C34.3183 13.8572 34.3183 13.8572 34.3183 13.8572C34.3183 13.8572 34.3183 13.8572 34.3183 13.8572C34.3183 13.8572 34.3183 13.8572 34.3183 13.8572C34.3183 13.8572 34.3183 13.8572 34.3183 13.8572C34.3183 13.8572 34.3183 13.8572 34.3183 13.8572C34.3183 13.8571 34.3183 13.8571 34.3183 13.8571C34.3183 13.8571 34.3183 13.8571 34.3183 13.8571C34.3183 13.8571 34.3183 13.8571 34.3183 13.8571C34.3183 13.8571 34.3183 13.8571 34.3183 13.8571C34.3183 13.8571 34.3183 13.8571 34.3183 13.8571C34.3183 13.8571 34.3182 13.8571 34.3182 13.8571C34.3182 13.8571 34.3182 13.8571 34.3182 13.8571C34.3182 13.8571 34.3182 13.8571 34.3182 13.8571C34.3182 13.8571 34.3182 13.8571 34.3182 13.8571C34.3182 13.8571 34.3182 13.8571 34.3182 13.8571C34.3182 13.8571 34.3182 13.8571 34.3182 13.8571C34.3182 13.8571 34.3182 13.8571 34.3182 13.8571C34.3182 13.8571 34.3182 13.8571 34.3182 13.8571C34.3182 13.8571 34.3182 13.8571 34.3182 13.8571C34.3182 13.8571 34.3182 13.8571 34.3182 13.8571C34.3182 13.8571 34.3182 13.8571 34.3182 13.8571C34.3182 13.8571 34.3182 13.8571 34.3182 13.8571C34.3182 13.8571 34.3182 13.8571 34.3182 13.8571C34.3182 13.8571 34.3182 13.8571 34.3182 13.8571C34.3182 13.8571 34.3182 13.8571 34.3182 13.8571C34.3182 13.8571 34.3182 13.8571 34.3182 13.8571C34.3182 13.8571 34.3182 13.8571 34.3182 13.8571C34.3182 13.8571 34.3182 13.8571 34.3182 13.8571C34.3182 13.8571 34.3182 13.8571 34.3182 13.8571C34.3182 13.8571 34.3182 13.8571 34.3182 13.8571C34.3182 13.8571 34.3182 13.8571 34.3182 13.857C34.3182 13.857 34.3182 13.857 34.3182 13.857C34.3182 13.857 34.3182 13.857 34.3182 13.857C34.3182 13.857 34.3182 13.857 34.3182 13.857C34.3182 13.857 34.3182 13.857 34.3182 13.857C34.3182 13.857 34.3182 13.857 34.3182 13.857C34.3182 13.857 34.3182 13.857 34.3182 13.857C34.3182 13.857 34.3182 13.857 34.3182 13.857C34.3182 13.857 34.3182 13.857 34.3182 13.857C34.3182 13.857 34.3182 13.857 34.3182 13.857C34.3182 13.857 34.3182 13.857 34.3182 13.857C34.3182 13.857 34.3182 13.857 34.3182 13.857C34.3182 13.857 34.3182 13.857 34.3182 13.857C34.3182 13.857 34.3182 13.857 34.3182 13.857C34.3182 13.857 34.3182 13.857 34.3182 13.857C34.3182 13.857 34.3182 13.857 34.3182 13.857C34.3182 13.857 34.3182 13.857 34.3182 13.857C34.3182 13.857 34.3182 13.857 34.3182 13.857C34.3182 13.857 34.3182 13.857 34.3182 13.857C34.3182 13.857 34.3182 13.857 34.3182 13.857C34.3182 13.857 34.3182 13.857 34.3182 13.857C34.3182 13.857 34.3182 13.857 34.3182 13.857C34.3182 13.857 34.3182 13.857 34.3182 13.857C34.3182 13.857 34.3182 13.857 34.3182 13.857C34.3182 13.857 34.3182 13.857 34.3182 13.857C34.3182 13.857 34.3182 13.857 34.3182 13.857C34.3182 13.8569 34.3182 13.8569 34.3182 13.8569C34.3182 13.8569 34.3182 13.8569 34.3182 13.8569C34.3182 13.8569 34.3182 13.8569 34.3182 13.8569C34.3182 13.8569 34.3182 13.8569 34.3182 13.8569C34.3182 13.8569 34.3182 13.8569 34.3182 13.8569C34.3182 13.8569 34.3182 13.8569 34.3182 13.8569C34.3182 13.8569 34.3182 13.8569 34.3182 13.8569C34.3182 13.8569 34.3182 13.8569 34.3182 13.8569C34.3182 13.8569 34.3182 13.8569 34.3182 13.8569C34.3182 13.8569 34.3182 13.8569 34.3182 13.8569C34.3182 13.8569 34.3182 13.8569 34.3182 13.8569C34.3182 13.8569 34.3182 13.8569 34.3182 13.8569C34.3182 13.8569 34.3182 13.8569 34.3182 13.8569C34.3182 13.8569 34.3182 13.8569 34.3182 13.8569C34.3182 13.8569 34.3182 13.8569 34.3182 13.8569C34.3182 13.8569 34.3182 13.8569 34.3182 13.8569C34.3182 13.8569 34.3182 13.8569 34.3182 13.8569C34.3182 13.8569 34.3182 13.8569 34.3182 13.8569C34.3182 13.8569 34.3182 13.8569 34.3182 13.8569C34.3182 13.8569 34.3182 13.8569 34.3182 13.8569C34.3182 13.8569 34.3182 13.8569 34.3182 13.8569C34.3182 13.8569 34.3182 13.8569 34.3182 13.8569C34.3182 13.8569 34.3182 13.8569 34.3182 13.8569C34.3182 13.8569 34.3182 13.8569 34.3182 13.8569C34.3182 13.8569 34.3182 13.8569 34.3182 13.8569C34.3182 13.8569 34.3182 13.8569 34.3182 13.8568C34.3182 13.8568 34.3182 13.8568 34.3182 13.8568C34.3182 13.8568 34.3182 13.8568 34.3182 13.8568C34.3182 13.8568 34.3182 13.8568 34.3182 13.8568C34.3182 13.8568 34.3182 13.8568 34.3182 13.8568C34.3182 13.8568 34.3182 13.8568 34.3182 13.8568C34.3182 13.8568 34.3182 13.8568 34.3182 13.8568C34.3182 13.8568 34.3182 13.8568 34.3182 13.8568C34.3182 13.8568 34.3182 13.8568 34.3182 13.8568C34.3182 13.8568 34.3182 13.8568 34.3182 13.8568C34.3182 13.8568 34.3182 13.8568 34.3182 13.8568C34.3182 13.8568 34.3182 13.8568 34.3182 13.8568C34.3182 13.8568 34.3182 13.8568 34.3182 13.8568C34.3182 13.8568 34.3182 13.8568 34.3182 13.8568C34.3182 13.8568 34.3182 13.8568 34.3182 13.8568C34.3182 13.8568 34.3182 13.8568 34.3182 13.8568C34.3182 13.8568 34.3182 13.8568 34.3182 13.8568C34.3182 13.8568 34.3182 13.8568 34.3182 13.8568C34.3182 13.8568 34.3182 13.8568 34.3182 13.8568C34.3182 13.8568 34.3182 13.8568 34.3182 13.8568C34.3182 13.8568 34.3182 13.8568 34.3182 13.8568C34.3182 13.8568 34.3182 13.8568 34.3182 13.8568C34.3182 13.8568 34.3182 13.8568 34.3182 13.8568C34.3182 13.8568 34.3182 13.8568 34.3182 13.8568C34.3182 13.8568 34.3182 13.8568 34.3182 13.8568C34.3182 13.8568 34.3182 13.8568 34.3182 13.8568C34.3182 13.8567 34.3182 13.8567 34.3182 13.8567C34.3182 13.8567 34.3182 13.8567 34.3182 13.8567C34.3182 13.8567 34.3182 13.8567 34.3182 13.8567C34.3182 13.8567 34.3182 13.8567 34.3182 13.8567C34.3182 13.8567 34.3182 13.8567 34.3182 13.8567C34.3182 13.8567 34.3182 13.8567 34.3182 13.8567C34.3182 13.8567 34.3182 13.8567 34.3182 13.8567C34.3182 13.8567 34.3182 13.8567 34.3182 13.8567C34.3182 13.8567 34.3182 13.8567 34.3182 13.8567C34.3182 13.8567 34.3182 13.8567 34.3182 13.8567C34.3182 13.8567 34.3182 13.8567 34.3182 13.8567C34.3182 13.8567 34.3182 13.8567 34.3182 13.8567C34.3182 13.8567 34.3182 13.8567 34.3182 13.8567C34.3182 13.8567 34.3182 13.8567 34.3182 13.8567C34.3182 13.8567 34.3182 13.8567 34.3182 13.8567C34.3182 13.8567 34.3182 13.8567 34.3182 13.8567C34.3182 13.8567 34.3182 13.8567 34.3182 13.8567C34.3182 13.8567 34.3182 13.8567 34.3182 13.8567C34.3182 13.8567 34.3182 13.8567 34.3182 13.8567C34.3182 13.8567 34.3182 13.8567 34.3182 13.8567C34.3182 13.8567 34.3182 13.8567 34.3182 13.8567C34.3182 13.8567 34.3182 13.8567 34.3182 13.8567C34.3182 13.8567 34.3182 13.8567 34.3182 13.8567C34.3182 13.8567 34.3182 13.8567 34.3182 13.8567C34.3182 13.8567 34.3182 13.8567 34.3182 13.8567C34.3182 13.8567 34.3182 13.8567 34.3182 13.8566C34.3182 13.8566 34.3182 13.8566 34.3181 13.8566C34.3181 13.8566 34.3181 13.8566 34.3181 13.8566C34.3181 13.8566 34.3181 13.8566 34.3181 13.8566C34.3181 13.8566 34.3181 13.8566 34.3181 13.8566C34.3181 13.8566 34.3181 13.8566 34.3181 13.8566C34.3181 13.8566 34.3181 13.8566 34.3181 13.8566C34.3181 13.8566 34.3181 13.8566 34.3181 13.8566C34.3181 13.8566 34.3181 13.8566 34.3181 13.8566C34.3181 13.8566 34.3181 13.8566 34.3181 13.8566C34.3181 13.8566 34.3181 13.8566 34.3181 13.8566C34.3181 13.8566 34.3181 13.8566 34.3181 13.8566C34.3181 13.8566 34.3181 13.8566 34.3181 13.8566C34.3181 13.8566 34.3181 13.8566 34.3181 13.8566C34.3181 13.8566 34.3181 13.8566 34.3181 13.8566C34.3181 13.8566 34.3181 13.8566 34.3181 13.8566C34.3181 13.8566 34.3181 13.8566 34.3181 13.8566C34.3181 13.8566 34.3181 13.8566 34.3181 13.8566C34.3181 13.8566 34.3181 13.8566 34.3181 13.8566C34.3181 13.8566 34.3181 13.8566 34.3181 13.8566C34.3181 13.8566 34.3181 13.8566 34.3181 13.8566C34.3181 13.8566 34.3181 13.8566 34.3181 13.8566C34.3181 13.8566 34.3181 13.8566 34.3181 13.8566C34.3181 13.8566 34.3181 13.8566 34.3181 13.8566C34.3181 13.8566 34.3181 13.8566 34.3181 13.8566C34.3181 13.8566 34.3181 13.8566 34.3181 13.8566C34.3181 13.8566 34.3181 13.8565 34.3181 13.8565C34.3181 13.8565 34.3181 13.8565 34.3181 13.8565C34.3181 13.8565 34.3181 13.8565 34.3181 13.8565C34.3181 13.8565 34.3181 13.8565 34.3181 13.8565C34.3181 13.8565 34.3181 13.8565 34.3181 13.8565C34.3181 13.8565 34.3181 13.8565 34.3181 13.8565C34.3181 13.8565 34.3181 13.8565 34.3181 13.8565C34.3181 13.8565 34.3181 13.8565 34.3181 13.8565C34.3181 13.8565 34.3181 13.8565 34.3181 13.8565C34.3181 13.8565 34.3181 13.8565 34.3181 13.8565C34.3181 13.8565 34.3181 13.8565 34.3181 13.8565C34.3181 13.8565 34.3181 13.8565 34.3181 13.8565C34.3181 13.8565 34.3181 13.8565 34.3181 13.8565C34.3181 13.8565 34.3181 13.8565 34.3181 13.8565C34.3181 13.8565 34.3181 13.8565 34.3181 13.8565C34.3181 13.8565 34.3181 13.8565 34.3181 13.8565C34.3181 13.8565 34.3181 13.8565 34.3181 13.8565C34.3181 13.8565 34.3181 13.8565 34.3181 13.8565C34.3181 13.8565 34.3181 13.8565 34.3181 13.8565C34.3181 13.8565 34.3181 13.8565 34.3181 13.8565C34.3181 13.8565 34.3181 13.8565 34.3181 13.8565C34.3181 13.8565 34.3181 13.8565 34.3181 13.8565C34.3181 13.8565 34.3181 13.8565 34.3181 13.8565C34.3181 13.8565 34.3181 13.8565 34.3181 13.8565C34.3181 13.8565 34.3181 13.8565 34.3181 13.8565C34.3181 13.8565 34.3181 13.8565 34.3181 13.8564C34.3181 13.8564 34.3181 13.8564 34.3181 13.8564C34.3181 13.8564 34.3181 13.8564 34.3181 13.8564C34.3181 13.8564 34.3181 13.8564 34.3181 13.8564C34.3181 13.8564 34.3181 13.8564 34.3181 13.8564C34.3181 13.8564 34.3181 13.8564 34.3181 13.8564C34.3181 13.8564 34.3181 13.8564 34.3181 13.8564C34.3181 13.8564 34.3181 13.8564 34.3181 13.8564C34.3181 13.8564 34.3181 13.8564 34.3181 13.8564C34.3181 13.8564 34.3181 13.8564 34.3181 13.8564C34.3181 13.8564 34.3181 13.8564 34.3181 13.8564C34.3181 13.8564 34.3181 13.8564 34.3181 13.8564C34.3181 13.8564 34.3181 13.8564 34.3181 13.8564C34.3181 13.8564 34.3181 13.8564 34.3181 13.8564C34.3181 13.8564 34.3181 13.8564 34.3181 13.8564C34.3181 13.8564 34.3181 13.8564 34.3181 13.8564C34.3181 13.8564 34.3181 13.8564 34.3181 13.8564C34.3181 13.8564 34.3181 13.8564 34.3181 13.8564C34.3181 13.8564 34.3181 13.8564 34.3181 13.8564C34.3181 13.8564 34.3181 13.8564 34.3181 13.8564C34.3181 13.8564 34.3181 13.8564 34.3181 13.8564C34.3181 13.8564 34.3181 13.8564 34.3181 13.8564C34.3181 13.8564 34.3181 13.8564 34.3181 13.8564C34.3181 13.8564 34.3181 13.8564 34.3181 13.8564C34.3181 13.8564 34.3181 13.8564 34.3181 13.8564C34.3181 13.8564 34.3181 13.8564 34.3181 13.8564C34.3181 13.8564 34.3181 13.8563 34.3181 13.8563C34.3181 13.8563 34.3181 13.8563 34.3181 13.8563C34.3181 13.8563 34.3181 13.8563 34.3181 13.8563C34.3181 13.8563 34.3181 13.8563 34.3181 13.8563C34.3181 13.8563 34.3181 13.8563 34.3181 13.8563C34.3181 13.8563 34.3181 13.8563 34.3181 13.8563C34.3181 13.8563 34.3181 13.8563 34.3181 13.8563C34.3181 13.8563 34.3181 13.8563 34.3181 13.8563C34.3181 13.8563 34.3181 13.8563 34.3181 13.8563C34.3181 13.8563 34.3181 13.8563 34.3181 13.8563C34.3181 13.8563 34.3181 13.8563 34.3181 13.8563C34.3181 13.8563 34.3181 13.8563 34.3181 13.8563C34.3181 13.8563 34.3181 13.8563 34.3181 13.8563C34.3181 13.8563 34.3181 13.8563 34.3181 13.8563C34.3181 13.8563 34.3181 13.8563 34.3181 13.8563C34.3181 13.8563 34.3181 13.8563 34.3181 13.8563C34.3181 13.8563 34.3181 13.8563 34.3181 13.8563C34.3181 13.8563 34.3181 13.8563 34.3181 13.8563C34.3181 13.8563 34.3181 13.8563 34.3181 13.8563C34.3181 13.8563 34.3181 13.8563 34.3181 13.8563C34.3181 13.8563 34.3181 13.8563 34.3181 13.8563C34.3181 13.8563 34.3181 13.8563 34.3181 13.8563C34.3181 13.8563 34.3181 13.8563 34.3181 13.8563C34.3181 13.8563 34.3181 13.8563 34.3181 13.8563C34.3181 13.8563 34.3181 13.8563 34.3181 13.8563C34.3181 13.8563 34.3181 13.8563 34.3181 13.8562C34.3181 13.8562 34.3181 13.8562 34.3181 13.8562C34.3181 13.8562 34.3181 13.8562 34.3181 13.8562C34.3181 13.8562 34.3181 13.8562 34.3181 13.8562C34.3181 13.8562 34.3181 13.8562 34.3181 13.8562C34.3181 13.8562 34.3181 13.8562 34.3181 13.8562C34.3181 13.8562 34.3181 13.8562 34.3181 13.8562C34.3181 13.8562 34.3181 13.8562 34.3181 13.8562C34.3181 13.8562 34.3181 13.8562 34.3181 13.8562C34.3181 13.8562 34.3181 13.8562 34.3181 13.8562C34.3181 13.8562 34.3181 13.8562 34.3181 13.8562C34.3181 13.8562 34.3181 13.8562 34.3181 13.8562C34.3181 13.8562 34.3181 13.8562 34.3181 13.8562C34.3181 13.8562 34.3181 13.8562 34.3181 13.8562C34.3181 13.8562 34.3181 13.8562 34.3181 13.8562C34.3181 13.8562 34.3181 13.8562 34.3181 13.8562C34.3181 13.8562 34.3181 13.8562 34.3181 13.8562C34.3181 13.8562 34.3181 13.8562 34.3181 13.8562C34.3181 13.8562 34.3181 13.8562 34.3181 13.8562C34.3181 13.8562 34.3181 13.8562 34.3181 13.8562C34.3181 13.8562 34.3181 13.8562 34.3181 13.8562C34.3181 13.8562 34.3181 13.8562 34.3181 13.8562C34.3181 13.8562 34.3181 13.8562 34.318 13.8562C34.318 13.8562 34.318 13.8562 34.318 13.8562C34.318 13.8562 34.318 13.8562 34.318 13.8562C34.318 13.8562 34.318 13.8562 34.318 13.8562C34.318 13.8562 34.318 13.8561 34.318 13.8561C34.318 13.8561 34.318 13.8561 34.318 13.8561C34.318 13.8561 34.318 13.8561 34.318 13.8561C34.318 13.8561 34.318 13.8561 34.318 13.8561C34.318 13.8561 34.318 13.8561 34.318 13.8561C34.318 13.8561 34.318 13.8561 34.318 13.8561C34.318 13.8561 34.318 13.8561 34.318 13.8561C34.318 13.8561 34.318 13.8561 34.318 13.8561C34.318 13.8561 34.318 13.8561 34.318 13.8561C34.318 13.8561 34.318 13.8561 34.318 13.8561C34.318 13.8561 34.318 13.8561 34.318 13.8561C34.318 13.8561 34.318 13.8561 34.318 13.8561C34.318 13.8561 34.318 13.8561 34.318 13.8561C34.318 13.8561 34.318 13.8561 34.318 13.8561C34.318 13.8561 34.318 13.8561 34.318 13.8561C34.318 13.8561 34.318 13.8561 34.318 13.8561C34.318 13.8561 34.318 13.8561 34.318 13.8561C34.318 13.8561 34.318 13.8561 34.318 13.8561C34.318 13.8561 34.318 13.8561 34.318 13.8561C34.318 13.8561 34.318 13.8561 34.318 13.8561C34.318 13.8561 34.318 13.8561 34.318 13.8561C34.318 13.8561 34.318 13.8561 34.318 13.8561C34.318 13.8561 34.318 13.8561 34.318 13.8561C34.318 13.8561 34.318 13.8561 34.318 13.8561C34.318 13.8561 34.318 13.8561 34.318 13.8561C34.318 13.8561 34.318 13.8561 34.318 13.856C34.318 13.856 34.318 13.856 34.318 13.856C34.318 13.856 34.318 13.856 34.318 13.856C34.318 13.856 34.318 13.856 34.318 13.856C34.318 13.856 34.318 13.856 34.318 13.856C34.318 13.856 34.318 13.856 34.318 13.856C34.318 13.856 34.318 13.856 34.318 13.856C34.318 13.856 34.318 13.856 34.318 13.856C34.318 13.856 34.318 13.856 34.318 13.856C34.318 13.856 34.318 13.856 34.318 13.856C34.318 13.856 34.318 13.856 34.318 13.856C34.318 13.856 34.318 13.856 34.318 13.856C34.318 13.856 34.318 13.856 34.318 13.856C34.318 13.856 34.318 13.856 34.318 13.856C34.318 13.856 34.318 13.856 34.318 13.856C34.318 13.856 34.318 13.856 34.318 13.856C34.318 13.856 34.318 13.856 34.318 13.856C34.318 13.856 34.318 13.856 34.318 13.856C34.318 13.856 34.318 13.856 34.318 13.856C34.318 13.856 34.318 13.856 34.318 13.856C34.318 13.856 34.318 13.856 34.318 13.856C34.318 13.856 34.318 13.856 34.318 13.856C34.318 13.856 34.318 13.856 34.318 13.856C34.318 13.856 34.318 13.856 34.318 13.856C34.318 13.856 34.318 13.856 34.318 13.856C34.318 13.856 34.318 13.856 34.318 13.856C34.318 13.856 34.318 13.8559 34.318 13.8559C34.318 13.8559 34.318 13.8559 34.318 13.8559C34.318 13.8559 34.318 13.8559 34.318 13.8559C34.318 13.8559 34.318 13.8559 34.318 13.8559C34.318 13.8559 34.318 13.8559 34.318 13.8559C34.318 13.8559 34.318 13.8559 34.318 13.8559C34.318 13.8559 34.318 13.8559 34.318 13.8559C34.318 13.8559 34.318 13.8559 34.318 13.8559C34.318 13.8559 34.318 13.8559 34.318 13.8559C34.318 13.8559 34.318 13.8559 34.318 13.8559C34.318 13.8559 34.318 13.8559 34.318 13.8559C34.318 13.8559 34.318 13.8559 34.318 13.8559C34.318 13.8559 34.318 13.8559 34.318 13.8559C34.318 13.8559 34.318 13.8559 34.318 13.8559C34.318 13.8559 34.318 13.8559 34.318 13.8559C34.318 13.8559 34.318 13.8559 34.318 13.8559C34.318 13.8559 34.318 13.8559 34.318 13.8559C34.318 13.8559 34.318 13.8559 34.318 13.8559C34.318 13.8559 34.318 13.8559 34.318 13.8559C34.318 13.8559 34.318 13.8559 34.318 13.8559C34.318 13.8559 34.318 13.8559 34.318 13.8559C34.318 13.8559 34.318 13.8559 34.318 13.8559C34.318 13.8559 34.318 13.8559 34.318 13.8559C34.318 13.8559 34.318 13.8559 34.318 13.8559C34.318 13.8559 34.318 13.8559 34.318 13.8559C34.318 13.8559 34.318 13.8559 34.318 13.8558C34.318 13.8558 34.318 13.8558 34.318 13.8558C34.318 13.8558 34.318 13.8558 34.318 13.8558C34.318 13.8558 34.318 13.8558 34.318 13.8558C34.318 13.8558 34.318 13.8558 34.318 13.8558C34.318 13.8558 34.318 13.8558 34.318 13.8558C34.318 13.8558 34.318 13.8558 34.318 13.8558C34.318 13.8558 34.318 13.8558 34.318 13.8558L34.9055 13.7341ZM35.8163 13.8517L34.6726 14.0887L34.5509 13.5012L35.6946 13.2642L35.8163 13.8517ZM37.017 15.8641C36.2136 15.351 35.6533 14.5437 35.4617 13.6188L36.0492 13.4971C36.2075 14.2612 36.671 14.9311 37.34 15.3585L37.017 15.8641ZM39.7419 16.3592C38.8002 16.5543 37.8201 16.3771 37.017 15.8641L37.34 15.3585C38.0093 15.786 38.8295 15.9355 39.6201 15.7716L39.7419 16.3592ZM42.0457 14.8221C41.5125 15.6119 40.6835 16.164 39.7419 16.3592L39.6201 15.7716C40.4107 15.6078 41.104 15.1447 41.5483 14.4864L42.0457 14.8221ZM42.5807 12.1437C42.7724 13.0685 42.579 14.032 42.0457 14.8221L41.5483 14.4864C41.9925 13.8285 42.1516 13.0296 41.9932 12.2654L42.5807 12.1437ZM43.4915 12.2613L42.3479 12.4983L42.2261 11.9108L43.3698 11.6738L43.4915 12.2613Z" fill="#9D9D9D" mask="url(#path-18-inside-2_153_1079)"/>
<rect x="-0.116445" y="0.177315" width="1.36444" height="1.64184" rx="0.682218" transform="matrix(-0.979199 0.202901 0.202901 0.979199 51.2082 10.3291)" fill="#333848" stroke="#9D9D9D" stroke-width="0.3"/>
<rect x="-0.116445" y="0.177315" width="1.36444" height="1.64184" rx="0.682218" transform="matrix(-0.979199 0.202901 0.202901 0.979199 59.089 8.69333)" fill="#333848" stroke="#9D9D9D" stroke-width="0.3"/>
<rect x="-0.116445" y="0.177315" width="1.36444" height="1.64184" rx="0.682218" transform="matrix(-0.979199 0.202901 0.202901 0.979199 43.3371 11.958)" fill="#333848" stroke="#9D9D9D" stroke-width="0.3"/>
<rect x="-0.116445" y="0.177315" width="1.36444" height="1.64184" rx="0.682218" transform="matrix(-0.979199 0.202901 0.202901 0.979199 35.7433 13.5351)" fill="#333848" stroke="#9D9D9D" stroke-width="0.3"/>
<rect x="-0.116445" y="0.177315" width="1.36444" height="1.64184" rx="0.682218" transform="matrix(-0.979199 0.202901 0.202901 0.979199 28.1418 15.1084)" fill="#333848" stroke="#9D9D9D" stroke-width="0.3"/>
<rect x="-0.116445" y="0.177315" width="57.3305" height="5.46305" transform="matrix(-0.979199 0.202901 0.202901 0.979199 62.2961 2.78415)" fill="#333848" stroke="#9D9D9D" stroke-width="0.3"/>
<path d="M59.8382 6.21758C59.4333 4.26371 60.7251 2.36228 62.6907 2.01887L67.184 1.23385C67.8361 1.11994 68.4331 1.6217 68.4332 2.2836L68.4336 7.26284C68.4336 7.71888 68.1134 8.11226 67.6668 8.2048L64.0161 8.96127C62.1047 9.35732 60.2342 8.12893 59.8382 6.21758Z" fill="#333848" stroke="#9D9D9D" stroke-width="0.3"/>
<circle cx="1.38703" cy="1.38703" r="1.23703" transform="matrix(-0.979199 0.202901 0.202901 0.979199 63.5156 4.12598)" fill="#333848" stroke="#9D9D9D" stroke-width="0.3"/>
<rect x="134.418" y="23.2281" width="3.64109" height="128.63" transform="rotate(90 134.418 23.2281)" fill="#333848" stroke="#9D9D9D" stroke-width="0.3"/>
</svg>
