<svg width="15" height="21" viewBox="0 0 15 21" fill="none" xmlns="http://www.w3.org/2000/svg">
<path fill-rule="evenodd" clip-rule="evenodd" d="M0 7.5C0 3.35786 3.35786 0 7.5 0C11.6421 0 15 3.35786 15 7.5C15 10.0098 13.7672 12.2317 11.874 13.5931L14.3302 18.3068C14.7131 19.0415 14.4278 19.9474 13.6932 20.3302C12.9585 20.7131 12.0526 20.4278 11.6698 19.6932L9.13154 14.822C8.60629 14.9386 8.06032 15 7.5 15C3.35786 15 0 11.6421 0 7.5ZM7.5 12C5.01472 12 3 9.98528 3 7.5C3 5.01472 5.01472 3 7.5 3C9.98528 3 12 5.01472 12 7.5C12 9.98528 9.98528 12 7.5 12Z" fill="#BFBFBF"/>
</svg>
