<svg width="32" height="35" viewBox="0 0 32 35" fill="none" xmlns="http://www.w3.org/2000/svg">
<path d="M21.0735 0.633217C22.52 1.02399 23.5248 2.3362 23.5248 3.83454V30.3473C23.5248 32.5306 21.4515 34.118 19.3438 33.5486C17.8973 33.1578 16.8926 31.8456 16.8926 30.3473V24.83C16.8926 24.5223 17.0529 24.2402 17.2972 24.0533C17.8637 23.6201 18.313 23.1059 18.6196 22.5399C18.9262 21.9739 19.084 21.3673 19.084 20.7547C19.084 20.1421 18.9262 19.5355 18.6196 18.9695C18.313 18.4035 17.8637 17.8893 17.2972 17.4561C17.0529 17.2692 16.8926 16.9871 16.8926 16.6795V3.83455C16.8926 1.6513 18.9658 0.0638107 21.0735 0.633217Z" fill="white"/>
<path d="M4.18095 1.12951C2.07326 0.560105 0 2.14759 0 4.33084V30.8436C0 32.3419 1.00475 33.6541 2.45124 34.0449C4.55893 34.6143 6.63219 33.0268 6.63219 30.8436V4.33084C6.63219 2.83249 5.62744 1.52029 4.18095 1.12951Z" fill="white"/>
<path d="M27.9978 11.0476C27.2577 11.282 26.4644 11.4027 25.6633 11.4027V2.07275C26.4644 2.07275 27.2577 2.19342 27.9978 2.42785C28.738 2.66229 29.4105 3.00591 29.9769 3.43909C30.5434 3.87227 30.9927 4.38653 31.2993 4.95251C31.6059 5.51849 31.7637 6.1251 31.7637 6.73771C31.7637 7.35032 31.6059 7.95693 31.2993 8.52291C30.9927 9.08889 30.5434 9.60315 29.9769 10.0363C29.4105 10.4695 28.738 10.8131 27.9978 11.0476Z" fill="white"/>
<path d="M8.81274 25.9158C9.61385 25.9158 10.4071 25.7952 11.1472 25.5607C11.8874 25.3263 12.5599 24.9827 13.1263 24.5495C13.6928 24.1163 14.1422 23.6021 14.4487 23.0361C14.7553 22.4701 14.9131 21.8635 14.9131 21.2509C14.9131 20.6383 14.7553 20.0317 14.4487 19.4657C14.1422 18.8997 13.6928 18.3855 13.1263 17.9523C12.5599 17.5191 11.8874 17.1755 11.1472 16.941C10.4071 16.7066 9.61385 16.5859 8.81274 16.5859L8.81274 25.9158Z" fill="white"/>
</svg>
