<svg width="174" height="203" viewBox="0 0 174 203" fill="none" xmlns="http://www.w3.org/2000/svg">
<rect x="0.5" y="0.5" width="7.93903" height="201.405" fill="white" stroke="#333848"/>
<path d="M9.43971 9.75035L141.887 76.3193L141.887 78.3638L9.43971 11.7949L9.43971 9.75035Z" fill="white" stroke="#333848"/>
<mask id="path-3-inside-1_137_939" fill="white">
<path fill-rule="evenodd" clip-rule="evenodd" d="M30.6975 70.7616C29.1242 68.5979 28.4904 65.9198 28.9355 63.3164L31.5468 63.7629C31.2172 65.691 31.6866 67.6745 32.8518 69.277C34.0171 70.8795 35.7827 71.9697 37.7603 72.3079C39.7378 72.646 41.7654 72.2043 43.3969 71.08C45.0283 69.9557 46.1301 68.2409 46.4598 66.3127L49.0711 66.7592L49.071 66.7594L49.6706 66.8619C49.3409 68.79 49.8103 70.7735 50.9756 72.376C52.1408 73.9785 53.9064 75.0687 55.884 75.4068C57.8616 75.745 59.8891 75.3033 61.5206 74.179C63.1521 73.0547 64.2538 71.3399 64.5835 69.4117L67.1948 69.8582L67.1948 69.8582L67.288 69.8742C66.9583 71.8023 67.4277 73.7858 68.593 75.3883C69.7582 76.9908 71.5238 78.081 73.5014 78.4192C75.479 78.7573 77.5065 78.3156 79.138 77.1913C80.7695 76.067 81.8713 74.3522 82.2009 72.424L82.2954 72.4402C82.2954 72.4401 82.2954 72.4401 82.2954 72.44L84.9067 72.8865C84.577 74.8146 85.0464 76.7981 86.2117 78.4006C87.3769 80.0031 89.1425 81.0933 91.1201 81.4315C93.0977 81.7696 95.1252 81.3279 96.7567 80.2036C98.3882 79.0793 99.4899 77.3645 99.8196 75.4363L102.431 75.8828C101.986 78.4862 100.498 80.8016 98.2953 82.3196C96.0925 83.8377 93.3549 84.434 90.6848 83.9775C88.0146 83.5209 85.6307 82.0489 84.0574 79.8852C83.4977 79.1155 83.0569 78.2808 82.7413 77.4074C82.1534 78.1263 81.4603 78.7673 80.6767 79.3073C78.4738 80.8254 75.7362 81.4217 73.0661 80.9652C70.396 80.5086 68.012 79.0366 66.4387 76.8729C65.8793 76.1035 65.4386 75.2691 65.123 74.3962C64.5353 75.1147 63.8425 75.7552 63.0592 76.295C60.8564 77.8131 58.1188 78.4094 55.4487 77.9529C52.7785 77.4963 50.3946 76.0243 48.8213 73.8606C48.1518 72.9398 47.6524 71.9259 47.3339 70.8642C46.6807 71.7597 45.8729 72.5501 44.9355 73.196C42.7327 74.7141 39.9951 75.3104 37.3249 74.8539C34.6548 74.3973 32.2709 72.9253 30.6975 70.7616Z"/>
</mask>
<path fill-rule="evenodd" clip-rule="evenodd" d="M30.6975 70.7616C29.1242 68.5979 28.4904 65.9198 28.9355 63.3164L31.5468 63.7629C31.2172 65.691 31.6866 67.6745 32.8518 69.277C34.0171 70.8795 35.7827 71.9697 37.7603 72.3079C39.7378 72.646 41.7654 72.2043 43.3969 71.08C45.0283 69.9557 46.1301 68.2409 46.4598 66.3127L49.0711 66.7592L49.071 66.7594L49.6706 66.8619C49.3409 68.79 49.8103 70.7735 50.9756 72.376C52.1408 73.9785 53.9064 75.0687 55.884 75.4068C57.8616 75.745 59.8891 75.3033 61.5206 74.179C63.1521 73.0547 64.2538 71.3399 64.5835 69.4117L67.1948 69.8582L67.1948 69.8582L67.288 69.8742C66.9583 71.8023 67.4277 73.7858 68.593 75.3883C69.7582 76.9908 71.5238 78.081 73.5014 78.4192C75.479 78.7573 77.5065 78.3156 79.138 77.1913C80.7695 76.067 81.8713 74.3522 82.2009 72.424L82.2954 72.4402C82.2954 72.4401 82.2954 72.4401 82.2954 72.44L84.9067 72.8865C84.577 74.8146 85.0464 76.7981 86.2117 78.4006C87.3769 80.0031 89.1425 81.0933 91.1201 81.4315C93.0977 81.7696 95.1252 81.3279 96.7567 80.2036C98.3882 79.0793 99.4899 77.3645 99.8196 75.4363L102.431 75.8828C101.986 78.4862 100.498 80.8016 98.2953 82.3196C96.0925 83.8377 93.3549 84.434 90.6848 83.9775C88.0146 83.5209 85.6307 82.0489 84.0574 79.8852C83.4977 79.1155 83.0569 78.2808 82.7413 77.4074C82.1534 78.1263 81.4603 78.7673 80.6767 79.3073C78.4738 80.8254 75.7362 81.4217 73.0661 80.9652C70.396 80.5086 68.012 79.0366 66.4387 76.8729C65.8793 76.1035 65.4386 75.2691 65.123 74.3962C64.5353 75.1147 63.8425 75.7552 63.0592 76.295C60.8564 77.8131 58.1188 78.4094 55.4487 77.9529C52.7785 77.4963 50.3946 76.0243 48.8213 73.8606C48.1518 72.9398 47.6524 71.9259 47.3339 70.8642C46.6807 71.7597 45.8729 72.5501 44.9355 73.196C42.7327 74.7141 39.9951 75.3104 37.3249 74.8539C34.6548 74.3973 32.2709 72.9253 30.6975 70.7616Z" fill="white"/>
<path d="M28.9355 63.3164L29.1041 62.3307L28.1184 62.1622L27.9499 63.1479L28.9355 63.3164ZM30.6975 70.7616L29.8888 71.3497L30.6975 70.7616ZM31.5468 63.7629L32.5325 63.9314L32.7011 62.9457L31.7154 62.7772L31.5468 63.7629ZM32.8518 69.277L32.043 69.8651L32.8518 69.277ZM37.7603 72.3079L37.9288 71.3222L37.7603 72.3079ZM43.3969 71.08L43.9643 71.9034L43.9643 71.9034L43.3969 71.08ZM46.4598 66.3127L46.6283 65.327L45.6426 65.1585L45.4741 66.1442L46.4598 66.3127ZM49.0711 66.7592L50.0568 66.9278L50.2253 65.9421L49.2396 65.7735L49.0711 66.7592ZM49.071 66.7594L48.0853 66.5908L47.9168 67.5765L48.9025 67.7451L49.071 66.7594ZM49.6706 66.8619L50.6563 67.0304L50.8248 66.0447L49.8391 65.8762L49.6706 66.8619ZM50.9756 72.376L50.1668 72.9641L50.9756 72.376ZM61.5206 74.179L60.9532 73.3556L60.9531 73.3556L61.5206 74.179ZM64.5835 69.4117L64.752 68.426L63.7664 68.2575L63.5978 69.2432L64.5835 69.4117ZM67.1948 69.8582L68.1805 70.0267L68.349 69.041L67.3633 68.8725L67.1948 69.8582ZM67.1948 69.8582L66.2091 69.6897L66.0406 70.6754L67.0263 70.8439L67.1948 69.8582ZM67.288 69.8742L68.2737 70.0427L68.4422 69.057L67.4565 68.8885L67.288 69.8742ZM68.593 75.3883L67.7842 75.9764L68.593 75.3883ZM73.5014 78.4192L73.3329 79.4049L73.5014 78.4192ZM79.138 77.1913L78.5706 76.3679L78.5706 76.3679L79.138 77.1913ZM82.2009 72.424L82.3695 71.4383L81.3838 71.2698L81.2152 72.2555L82.2009 72.424ZM82.2954 72.4402L82.1268 73.4259L83.1125 73.5944L83.2811 72.6087L82.2954 72.4402ZM82.2954 72.44L82.4639 71.4543L81.4782 71.2858L81.3097 72.2715L82.2954 72.44ZM84.9067 72.8865L85.8924 73.055L86.0609 72.0693L85.0752 71.9008L84.9067 72.8865ZM86.2117 78.4006L85.4029 78.9887L86.2117 78.4006ZM91.1201 81.4315L91.2886 80.4458L91.1201 81.4315ZM96.7567 80.2036L96.1893 79.3802L96.1893 79.3802L96.7567 80.2036ZM99.8196 75.4363L99.9882 74.4506L99.0025 74.2821L98.8339 75.2678L99.8196 75.4363ZM102.431 75.8828L103.417 76.0514L103.585 75.0657L102.599 74.8971L102.431 75.8828ZM98.2953 82.3196L98.8628 83.1431L98.8628 83.1431L98.2953 82.3196ZM90.6848 83.9775L90.8533 82.9918L90.6848 83.9775ZM84.0574 79.8852L84.8662 79.2971L84.8662 79.2971L84.0574 79.8852ZM82.7413 77.4074L83.6818 77.0675L83.0828 75.4101L81.9672 76.7744L82.7413 77.4074ZM80.6767 79.3073L81.2441 80.1307L81.2441 80.1307L80.6767 79.3073ZM73.0661 80.9652L73.2346 79.9795L73.0661 80.9652ZM66.4387 76.8729L65.6299 77.461L65.6299 77.461L66.4387 76.8729ZM65.123 74.3962L66.0635 74.0562L65.4645 72.3993L64.349 73.763L65.123 74.3962ZM63.0592 76.295L63.6267 77.1184L63.6267 77.1184L63.0592 76.295ZM55.4487 77.9529L55.6172 76.9672L55.4487 77.9529ZM48.8213 73.8606L48.0125 74.4487L48.8213 73.8606ZM47.3339 70.8642L48.2917 70.5769L47.7129 68.6475L46.5259 70.2749L47.3339 70.8642ZM44.9355 73.196L45.5029 74.0195L45.5029 74.0195L44.9355 73.196ZM37.3249 74.8539L37.4935 73.8682L37.3249 74.8539ZM27.9499 63.1479C27.4586 66.0208 28.1592 68.9711 29.8888 71.3497L31.5063 70.1735C30.0893 68.2247 29.5222 65.8187 29.9212 63.4849L27.9499 63.1479ZM31.7154 62.7772L29.1041 62.3307L28.767 64.3021L31.3783 64.7486L31.7154 62.7772ZM33.6606 68.6889C32.6516 67.3013 32.249 65.59 32.5325 63.9314L30.5611 63.5944C30.1854 65.7921 30.7215 68.0477 32.043 69.8651L33.6606 68.6889ZM37.9288 71.3222C36.2047 71.0274 34.6703 70.0775 33.6606 68.6889L32.043 69.8651C33.3638 71.6815 35.3607 72.9121 37.5917 73.2936L37.9288 71.3222ZM42.8294 70.2566C41.4157 71.2308 39.6529 71.617 37.9288 71.3222L37.5917 73.2936C39.8228 73.675 42.115 73.1778 43.9643 71.9034L42.8294 70.2566ZM45.4741 66.1442C45.1905 67.8027 44.2421 69.2831 42.8294 70.2566L43.9643 71.9034C45.8145 70.6284 47.0697 68.679 47.4455 66.4813L45.4741 66.1442ZM49.2396 65.7735L46.6283 65.327L46.2912 67.2984L48.9025 67.7449L49.2396 65.7735ZM50.0567 66.9279L50.0568 66.9278L48.0854 66.5907L48.0853 66.5908L50.0567 66.9279ZM49.8391 65.8762L49.2396 65.7737L48.9025 67.7451L49.502 67.8476L49.8391 65.8762ZM51.7843 71.7879C50.7754 70.4003 50.3727 68.689 50.6563 67.0304L48.6849 66.6933C48.3091 68.8911 48.8453 71.1467 50.1668 72.9641L51.7843 71.7879ZM56.0525 74.4212C54.3284 74.1264 52.794 73.1765 51.7843 71.7879L50.1668 72.9641C51.4876 74.7805 53.4844 76.0111 55.7155 76.3925L56.0525 74.4212ZM60.9531 73.3556C59.5395 74.3298 57.7766 74.7159 56.0525 74.4212L55.7155 76.3925C57.9465 76.774 60.2388 76.2768 62.088 75.0024L60.9531 73.3556ZM63.5978 69.2432C63.3142 70.9017 62.3659 72.382 60.9532 73.3556L62.088 75.0024C63.9383 73.7274 65.1934 71.778 65.5692 69.5803L63.5978 69.2432ZM67.3633 68.8725L64.752 68.426L64.415 70.3974L67.0263 70.8439L67.3633 68.8725ZM68.1805 70.0268L68.1805 70.0267L66.2091 69.6897L66.2091 69.6897L68.1805 70.0268ZM67.4565 68.8885L67.3633 68.8725L67.0263 70.8439L67.1195 70.8599L67.4565 68.8885ZM69.4018 74.8002C68.3928 73.4126 67.9901 71.7013 68.2737 70.0427L66.3023 69.7056C65.9265 71.9034 66.4627 74.159 67.7842 75.9764L69.4018 74.8002ZM73.67 77.4335C71.9459 77.1387 70.4115 76.1888 69.4018 74.8002L67.7842 75.9764C69.105 77.7928 71.1018 79.0234 73.3329 79.4049L73.67 77.4335ZM78.5706 76.3679C77.1569 77.3421 75.3941 77.7283 73.67 77.4335L73.3329 79.4049C75.564 79.7863 77.8562 79.2891 79.7055 78.0147L78.5706 76.3679ZM81.2152 72.2555C80.9317 73.914 79.9833 75.3944 78.5706 76.3679L79.7055 78.0147C81.5557 76.7397 82.8109 74.7903 83.1866 72.5926L81.2152 72.2555ZM82.4639 71.4545L82.3695 71.4383L82.0324 73.4097L82.1268 73.4259L82.4639 71.4545ZM81.3097 72.2715C81.3097 72.2715 81.3097 72.2715 81.3097 72.2715C81.3097 72.2715 81.3097 72.2715 81.3097 72.2715C81.3097 72.2715 81.3097 72.2715 81.3097 72.2715C81.3097 72.2715 81.3097 72.2715 81.3097 72.2715C81.3097 72.2715 81.3097 72.2715 81.3097 72.2715C81.3097 72.2715 81.3097 72.2715 81.3097 72.2715C81.3097 72.2715 81.3097 72.2715 81.3097 72.2715C81.3097 72.2715 81.3097 72.2715 81.3097 72.2715C81.3097 72.2715 81.3097 72.2715 81.3097 72.2715C81.3097 72.2715 81.3097 72.2715 81.3097 72.2715C81.3097 72.2715 81.3097 72.2715 81.3097 72.2715C81.3097 72.2715 81.3097 72.2715 81.3097 72.2715C81.3097 72.2715 81.3097 72.2715 81.3097 72.2715C81.3097 72.2715 81.3097 72.2715 81.3097 72.2715C81.3097 72.2715 81.3097 72.2715 81.3097 72.2715C81.3097 72.2715 81.3097 72.2715 81.3097 72.2715C81.3097 72.2715 81.3097 72.2715 81.3097 72.2715C81.3097 72.2715 81.3097 72.2715 81.3097 72.2715C81.3097 72.2715 81.3097 72.2715 81.3097 72.2715C81.3097 72.2715 81.3097 72.2715 81.3097 72.2715C81.3097 72.2715 81.3097 72.2715 81.3097 72.2715C81.3097 72.2715 81.3097 72.2715 81.3097 72.2715C81.3097 72.2715 81.3097 72.2715 81.3097 72.2715C81.3097 72.2715 81.3097 72.2715 81.3097 72.2715C81.3097 72.2715 81.3097 72.2715 81.3097 72.2715C81.3097 72.2715 81.3097 72.2715 81.3097 72.2715C81.3097 72.2715 81.3097 72.2715 81.3097 72.2715C81.3097 72.2715 81.3097 72.2715 81.3097 72.2715C81.3097 72.2715 81.3097 72.2715 81.3097 72.2715C81.3097 72.2715 81.3097 72.2715 81.3097 72.2715C81.3097 72.2715 81.3097 72.2715 81.3097 72.2715C81.3097 72.2715 81.3097 72.2715 81.3097 72.2715C81.3097 72.2715 81.3097 72.2715 81.3097 72.2715C81.3097 72.2715 81.3097 72.2715 81.3097 72.2715C81.3097 72.2715 81.3097 72.2715 81.3097 72.2715C81.3097 72.2715 81.3097 72.2715 81.3097 72.2715C81.3097 72.2715 81.3097 72.2715 81.3097 72.2715C81.3097 72.2715 81.3097 72.2715 81.3097 72.2715C81.3097 72.2715 81.3097 72.2715 81.3097 72.2715C81.3097 72.2715 81.3097 72.2715 81.3097 72.2715C81.3097 72.2715 81.3097 72.2715 81.3097 72.2715C81.3097 72.2715 81.3097 72.2715 81.3097 72.2715C81.3097 72.2715 81.3097 72.2715 81.3097 72.2715C81.3097 72.2715 81.3097 72.2715 81.3097 72.2715C81.3097 72.2715 81.3097 72.2715 81.3097 72.2715C81.3097 72.2715 81.3097 72.2715 81.3097 72.2715C81.3097 72.2715 81.3097 72.2715 81.3097 72.2715C81.3097 72.2715 81.3097 72.2715 81.3097 72.2715C81.3097 72.2715 81.3097 72.2715 81.3097 72.2715C81.3097 72.2715 81.3097 72.2715 81.3097 72.2715C81.3097 72.2715 81.3097 72.2715 81.3097 72.2715C81.3097 72.2715 81.3097 72.2715 81.3097 72.2715C81.3097 72.2715 81.3097 72.2715 81.3097 72.2715C81.3097 72.2715 81.3097 72.2715 81.3097 72.2715C81.3097 72.2715 81.3097 72.2715 81.3097 72.2715C81.3097 72.2715 81.3097 72.2715 81.3097 72.2715C81.3097 72.2715 81.3097 72.2715 81.3097 72.2715C81.3097 72.2715 81.3097 72.2715 81.3097 72.2715C81.3097 72.2715 81.3097 72.2715 81.3097 72.2715C81.3097 72.2715 81.3097 72.2715 81.3097 72.2715C81.3097 72.2715 81.3097 72.2715 81.3097 72.2715C81.3097 72.2715 81.3097 72.2715 81.3097 72.2715C81.3097 72.2715 81.3097 72.2715 81.3097 72.2715C81.3097 72.2715 81.3097 72.2715 81.3097 72.2715C81.3097 72.2715 81.3097 72.2715 81.3097 72.2715C81.3097 72.2715 81.3097 72.2715 81.3097 72.2715C81.3097 72.2715 81.3097 72.2715 81.3097 72.2715C81.3097 72.2715 81.3097 72.2715 81.3097 72.2715C81.3097 72.2715 81.3097 72.2715 81.3097 72.2715C81.3097 72.2715 81.3097 72.2715 81.3097 72.2715C81.3097 72.2715 81.3097 72.2715 81.3097 72.2715C81.3097 72.2715 81.3097 72.2715 81.3097 72.2715C81.3097 72.2715 81.3097 72.2715 81.3097 72.2715C81.3097 72.2715 81.3097 72.2715 81.3097 72.2715C81.3097 72.2715 81.3097 72.2715 81.3097 72.2715C81.3097 72.2715 81.3097 72.2715 81.3097 72.2715C81.3097 72.2715 81.3097 72.2715 81.3097 72.2715C81.3097 72.2715 81.3097 72.2715 81.3097 72.2715C81.3097 72.2715 81.3097 72.2715 81.3097 72.2715C81.3097 72.2715 81.3097 72.2715 81.3097 72.2715C81.3097 72.2715 81.3097 72.2715 81.3097 72.2715C81.3097 72.2715 81.3097 72.2715 81.3097 72.2715C81.3097 72.2715 81.3097 72.2715 81.3097 72.2715C81.3097 72.2715 81.3097 72.2715 81.3097 72.2715C81.3097 72.2715 81.3097 72.2715 81.3097 72.2715C81.3097 72.2715 81.3097 72.2715 81.3097 72.2715C81.3097 72.2715 81.3097 72.2715 81.3097 72.2715C81.3097 72.2715 81.3097 72.2715 81.3097 72.2715C81.3097 72.2715 81.3097 72.2715 81.3097 72.2715C81.3097 72.2715 81.3097 72.2715 81.3097 72.2715C81.3097 72.2715 81.3097 72.2715 81.3097 72.2715C81.3097 72.2715 81.3097 72.2715 81.3097 72.2715C81.3097 72.2715 81.3097 72.2715 81.3097 72.2715C81.3097 72.2715 81.3097 72.2715 81.3097 72.2715C81.3097 72.2715 81.3097 72.2715 81.3097 72.2715C81.3097 72.2715 81.3097 72.2715 81.3097 72.2715C81.3097 72.2715 81.3097 72.2715 81.3097 72.2715C81.3097 72.2715 81.3097 72.2715 81.3097 72.2715C81.3097 72.2715 81.3097 72.2715 81.3097 72.2715C81.3097 72.2715 81.3097 72.2715 81.3097 72.2715C81.3097 72.2715 81.3097 72.2715 81.3097 72.2715C81.3097 72.2715 81.3097 72.2715 81.3097 72.2715C81.3097 72.2715 81.3097 72.2715 81.3097 72.2715C81.3097 72.2715 81.3097 72.2715 81.3097 72.2715C81.3097 72.2715 81.3097 72.2715 81.3097 72.2715C81.3097 72.2715 81.3097 72.2715 81.3097 72.2715C81.3097 72.2715 81.3097 72.2715 81.3097 72.2715C81.3097 72.2715 81.3097 72.2715 81.3097 72.2715C81.3097 72.2715 81.3097 72.2715 81.3097 72.2715C81.3097 72.2715 81.3097 72.2715 81.3097 72.2715C81.3097 72.2715 81.3097 72.2715 81.3097 72.2715C81.3097 72.2715 81.3097 72.2715 81.3097 72.2715C81.3097 72.2715 81.3097 72.2715 81.3097 72.2715C81.3097 72.2715 81.3097 72.2715 81.3097 72.2715C81.3097 72.2715 81.3097 72.2715 81.3097 72.2715C81.3097 72.2715 81.3097 72.2715 81.3097 72.2715C81.3097 72.2715 81.3097 72.2715 81.3097 72.2715C81.3097 72.2715 81.3097 72.2715 81.3097 72.2715C81.3097 72.2715 81.3097 72.2715 81.3097 72.2715C81.3097 72.2715 81.3097 72.2715 81.3097 72.2715C81.3097 72.2715 81.3097 72.2715 81.3097 72.2715C81.3097 72.2715 81.3097 72.2715 81.3097 72.2715C81.3097 72.2715 81.3097 72.2715 81.3097 72.2715C81.3097 72.2715 81.3097 72.2715 81.3097 72.2715C81.3097 72.2715 81.3097 72.2715 81.3097 72.2715C81.3097 72.2715 81.3097 72.2715 81.3097 72.2715C81.3097 72.2715 81.3097 72.2715 81.3097 72.2715C81.3097 72.2715 81.3097 72.2715 81.3097 72.2715C81.3097 72.2715 81.3097 72.2715 81.3097 72.2715C81.3097 72.2715 81.3097 72.2715 81.3097 72.2715C81.3097 72.2715 81.3097 72.2715 81.3097 72.2715C81.3097 72.2715 81.3097 72.2715 81.3097 72.2715C81.3097 72.2715 81.3097 72.2715 81.3097 72.2715C81.3097 72.2715 81.3097 72.2715 81.3097 72.2715C81.3097 72.2715 81.3097 72.2715 81.3097 72.2715C81.3097 72.2715 81.3097 72.2715 81.3097 72.2715C81.3097 72.2715 81.3097 72.2715 81.3097 72.2715C81.3097 72.2715 81.3097 72.2715 81.3097 72.2715C81.3097 72.2715 81.3097 72.2715 81.3097 72.2715C81.3097 72.2715 81.3097 72.2715 81.3097 72.2715C81.3097 72.2715 81.3097 72.2715 81.3097 72.2715C81.3097 72.2715 81.3097 72.2715 81.3097 72.2715C81.3097 72.2715 81.3097 72.2715 81.3097 72.2715C81.3097 72.2715 81.3097 72.2715 81.3097 72.2715C81.3097 72.2715 81.3097 72.2715 81.3097 72.2715C81.3097 72.2715 81.3097 72.2715 81.3097 72.2715C81.3097 72.2715 81.3097 72.2715 81.3097 72.2715C81.3097 72.2715 81.3097 72.2715 81.3097 72.2715C81.3097 72.2715 81.3097 72.2715 81.3097 72.2715C81.3097 72.2715 81.3097 72.2715 81.3097 72.2715C81.3097 72.2715 81.3097 72.2715 81.3097 72.2715C81.3097 72.2715 81.3097 72.2715 81.3097 72.2715C81.3097 72.2715 81.3097 72.2715 81.3097 72.2715C81.3097 72.2715 81.3097 72.2715 81.3097 72.2715C81.3097 72.2715 81.3097 72.2715 81.3097 72.2715C81.3097 72.2715 81.3097 72.2715 81.3097 72.2715C81.3097 72.2715 81.3097 72.2715 81.3097 72.2715C81.3097 72.2715 81.3097 72.2715 81.3097 72.2715C81.3097 72.2715 81.3097 72.2715 81.3097 72.2715C81.3097 72.2715 81.3097 72.2715 81.3097 72.2715C81.3097 72.2715 81.3097 72.2715 81.3097 72.2715C81.3097 72.2715 81.3097 72.2715 81.3097 72.2715C81.3097 72.2715 81.3097 72.2715 81.3097 72.2715C81.3097 72.2715 81.3097 72.2715 81.3097 72.2715C81.3097 72.2715 81.3097 72.2715 81.3097 72.2715C81.3097 72.2715 81.3097 72.2715 81.3097 72.2715C81.3097 72.2715 81.3097 72.2715 81.3097 72.2715C81.3097 72.2715 81.3097 72.2715 81.3097 72.2715C81.3097 72.2715 81.3097 72.2715 81.3097 72.2715C81.3097 72.2715 81.3097 72.2715 81.3097 72.2715C81.3097 72.2715 81.3097 72.2715 81.3097 72.2715C81.3097 72.2715 81.3097 72.2715 81.3097 72.2715C81.3097 72.2715 81.3097 72.2715 81.3097 72.2715C81.3097 72.2715 81.3097 72.2715 81.3097 72.2715C81.3097 72.2715 81.3097 72.2715 81.3097 72.2715C81.3097 72.2715 81.3097 72.2715 81.3097 72.2715C81.3097 72.2715 81.3097 72.2715 81.3097 72.2715C81.3097 72.2715 81.3097 72.2715 81.3097 72.2715C81.3097 72.2715 81.3097 72.2715 81.3097 72.2715C81.3097 72.2715 81.3097 72.2715 81.3097 72.2715C81.3097 72.2715 81.3097 72.2715 81.3097 72.2715C81.3097 72.2715 81.3097 72.2715 81.3097 72.2715C81.3097 72.2715 81.3097 72.2715 81.3097 72.2715C81.3097 72.2715 81.3097 72.2715 81.3097 72.2715C81.3097 72.2715 81.3097 72.2715 81.3097 72.2715C81.3097 72.2715 81.3097 72.2715 81.3097 72.2715C81.3097 72.2715 81.3097 72.2715 81.3097 72.2715C81.3097 72.2715 81.3097 72.2715 81.3097 72.2715C81.3097 72.2715 81.3097 72.2715 81.3097 72.2715C81.3097 72.2715 81.3097 72.2715 81.3097 72.2715C81.3097 72.2715 81.3097 72.2715 81.3097 72.2715C81.3097 72.2715 81.3097 72.2715 81.3097 72.2715C81.3097 72.2715 81.3097 72.2715 81.3097 72.2715C81.3097 72.2715 81.3097 72.2715 81.3097 72.2715C81.3097 72.2715 81.3097 72.2715 81.3097 72.2715C81.3097 72.2715 81.3097 72.2715 81.3097 72.2715C81.3097 72.2715 81.3097 72.2715 81.3097 72.2715C81.3097 72.2715 81.3097 72.2715 81.3097 72.2715C81.3097 72.2715 81.3097 72.2715 81.3097 72.2715C81.3097 72.2715 81.3097 72.2715 81.3097 72.2715C81.3097 72.2715 81.3097 72.2715 81.3097 72.2715C81.3097 72.2715 81.3097 72.2715 81.3097 72.2715C81.3097 72.2715 81.3097 72.2715 81.3097 72.2715C81.3097 72.2715 81.3097 72.2715 81.3097 72.2715C81.3097 72.2715 81.3097 72.2715 81.3097 72.2715C81.3097 72.2715 81.3097 72.2715 81.3097 72.2715C81.3097 72.2715 81.3097 72.2715 81.3097 72.2715C81.3097 72.2715 81.3097 72.2715 81.3097 72.2715C81.3097 72.2715 81.3097 72.2715 81.3097 72.2715C81.3097 72.2715 81.3097 72.2715 81.3097 72.2715C81.3097 72.2715 81.3097 72.2715 81.3097 72.2715C81.3097 72.2715 81.3097 72.2715 81.3097 72.2715C81.3097 72.2715 81.3097 72.2715 81.3097 72.2715C81.3097 72.2715 81.3097 72.2715 81.3097 72.2715C81.3097 72.2715 81.3097 72.2715 81.3097 72.2715C81.3097 72.2715 81.3097 72.2715 81.3097 72.2715C81.3097 72.2715 81.3097 72.2715 81.3097 72.2715C81.3097 72.2715 81.3097 72.2715 81.3097 72.2715C81.3097 72.2715 81.3097 72.2715 81.3097 72.2715C81.3097 72.2715 81.3097 72.2715 81.3097 72.2715C81.3097 72.2715 81.3097 72.2715 81.3097 72.2715C81.3097 72.2715 81.3097 72.2715 81.3097 72.2715C81.3097 72.2715 81.3097 72.2715 81.3097 72.2715C81.3097 72.2715 81.3097 72.2715 81.3097 72.2715C81.3097 72.2715 81.3097 72.2715 81.3097 72.2715C81.3097 72.2715 81.3097 72.2715 81.3097 72.2715C81.3097 72.2715 81.3097 72.2715 81.3097 72.2715C81.3097 72.2715 81.3097 72.2715 81.3097 72.2715C81.3097 72.2715 81.3097 72.2715 81.3097 72.2715C81.3097 72.2715 81.3097 72.2715 81.3097 72.2715C81.3097 72.2715 81.3097 72.2715 81.3097 72.2715C81.3097 72.2715 81.3097 72.2715 81.3097 72.2715C81.3097 72.2715 81.3097 72.2715 81.3097 72.2715C81.3097 72.2715 81.3097 72.2715 81.3097 72.2715C81.3097 72.2715 81.3097 72.2715 81.3097 72.2715C81.3097 72.2715 81.3097 72.2715 81.3097 72.2715C81.3097 72.2715 81.3097 72.2715 81.3097 72.2715C81.3097 72.2715 81.3097 72.2715 81.3097 72.2715C81.3097 72.2715 81.3097 72.2715 81.3097 72.2715C81.3097 72.2715 81.3097 72.2715 81.3097 72.2715C81.3097 72.2715 81.3097 72.2715 81.3097 72.2715C81.3097 72.2715 81.3097 72.2715 81.3097 72.2715C81.3097 72.2715 81.3097 72.2715 81.3097 72.2715C81.3097 72.2715 81.3097 72.2716 81.3097 72.2716C81.3097 72.2716 81.3097 72.2716 81.3097 72.2716C81.3097 72.2716 81.3097 72.2716 81.3097 72.2716C81.3097 72.2716 81.3097 72.2716 81.3097 72.2716C81.3097 72.2716 81.3097 72.2716 81.3097 72.2716C81.3097 72.2716 81.3097 72.2716 81.3097 72.2716C81.3097 72.2716 81.3097 72.2716 81.3097 72.2716C81.3097 72.2716 81.3097 72.2716 81.3097 72.2716C81.3097 72.2716 81.3097 72.2716 81.3097 72.2716C81.3097 72.2716 81.3097 72.2716 81.3097 72.2716C81.3097 72.2716 81.3097 72.2716 81.3097 72.2716C81.3097 72.2716 81.3097 72.2716 81.3097 72.2716C81.3097 72.2716 81.3097 72.2716 81.3097 72.2716C81.3097 72.2716 81.3097 72.2716 81.3097 72.2716C81.3097 72.2716 81.3097 72.2716 81.3097 72.2716C81.3097 72.2716 81.3097 72.2716 81.3097 72.2716C81.3097 72.2716 81.3097 72.2716 81.3097 72.2716C81.3097 72.2716 81.3097 72.2716 81.3097 72.2716C81.3097 72.2716 81.3097 72.2716 81.3097 72.2716C81.3097 72.2716 81.3097 72.2716 81.3097 72.2716C81.3097 72.2716 81.3097 72.2716 81.3097 72.2716C81.3097 72.2716 81.3097 72.2716 81.3097 72.2716C81.3097 72.2716 81.3097 72.2716 81.3097 72.2716C81.3097 72.2716 81.3097 72.2716 81.3097 72.2716C81.3097 72.2716 81.3097 72.2716 81.3097 72.2716C81.3097 72.2716 81.3097 72.2716 81.3097 72.2716C81.3097 72.2716 81.3097 72.2716 81.3097 72.2716C81.3097 72.2716 81.3097 72.2716 81.3097 72.2716C81.3097 72.2716 81.3097 72.2716 81.3097 72.2716C81.3097 72.2716 81.3097 72.2716 81.3097 72.2716C81.3097 72.2716 81.3097 72.2716 81.3097 72.2716C81.3097 72.2716 81.3097 72.2716 81.3097 72.2716C81.3097 72.2716 81.3097 72.2716 81.3097 72.2716C81.3097 72.2716 81.3097 72.2716 81.3097 72.2716C81.3097 72.2716 81.3097 72.2716 81.3097 72.2716C81.3097 72.2716 81.3097 72.2716 81.3097 72.2716C81.3097 72.2716 81.3097 72.2716 81.3097 72.2716C81.3097 72.2716 81.3097 72.2716 81.3097 72.2716C81.3097 72.2716 81.3097 72.2716 81.3097 72.2716C81.3097 72.2716 81.3097 72.2716 81.3097 72.2716C81.3097 72.2716 81.3097 72.2716 81.3097 72.2716C81.3097 72.2716 81.3097 72.2716 81.3097 72.2716C81.3097 72.2716 81.3097 72.2716 81.3097 72.2716C81.3097 72.2716 81.3097 72.2716 81.3097 72.2716C81.3097 72.2716 81.3097 72.2716 81.3097 72.2716C81.3097 72.2716 81.3097 72.2716 81.3097 72.2716C81.3097 72.2716 81.3097 72.2716 81.3097 72.2716C81.3097 72.2716 81.3097 72.2716 81.3097 72.2716C81.3097 72.2716 81.3097 72.2716 81.3097 72.2716C81.3097 72.2716 81.3097 72.2716 81.3097 72.2716C81.3097 72.2716 81.3097 72.2716 81.3097 72.2716C81.3097 72.2716 81.3097 72.2716 81.3097 72.2716C81.3097 72.2716 81.3097 72.2716 81.3097 72.2716C81.3097 72.2716 81.3097 72.2716 81.3097 72.2716C81.3097 72.2716 81.3097 72.2716 81.3097 72.2716C81.3097 72.2716 81.3097 72.2716 81.3097 72.2716C81.3097 72.2716 81.3097 72.2716 81.3097 72.2716C81.3097 72.2716 81.3097 72.2716 81.3097 72.2716C81.3097 72.2716 81.3097 72.2716 81.3097 72.2716C81.3097 72.2716 81.3097 72.2716 81.3097 72.2716C81.3097 72.2716 81.3097 72.2716 81.3097 72.2716C81.3097 72.2716 81.3097 72.2716 81.3097 72.2716C81.3097 72.2716 81.3097 72.2716 81.3097 72.2716C81.3097 72.2716 81.3097 72.2716 81.3097 72.2716C81.3097 72.2716 81.3097 72.2716 81.3097 72.2716C81.3097 72.2716 81.3097 72.2716 81.3097 72.2716C81.3097 72.2716 81.3097 72.2716 81.3097 72.2716C81.3097 72.2716 81.3097 72.2716 81.3097 72.2716C81.3097 72.2716 81.3097 72.2716 81.3097 72.2716C81.3097 72.2716 81.3097 72.2716 81.3097 72.2716C81.3097 72.2716 81.3097 72.2716 81.3097 72.2716C81.3097 72.2716 81.3097 72.2716 81.3097 72.2716C81.3097 72.2716 81.3097 72.2716 81.3097 72.2716C81.3097 72.2716 81.3097 72.2716 81.3097 72.2716C81.3097 72.2716 81.3097 72.2716 81.3097 72.2716C81.3097 72.2716 81.3097 72.2716 81.3097 72.2716C81.3097 72.2716 81.3097 72.2716 81.3097 72.2716C81.3097 72.2716 81.3097 72.2716 81.3097 72.2716C81.3097 72.2716 81.3097 72.2716 81.3097 72.2716C81.3097 72.2716 81.3097 72.2716 81.3097 72.2716C81.3097 72.2716 81.3097 72.2716 81.3097 72.2716C81.3097 72.2716 81.3097 72.2716 81.3097 72.2716C81.3097 72.2716 81.3097 72.2716 81.3097 72.2716C81.3097 72.2716 81.3097 72.2716 81.3097 72.2716C81.3097 72.2716 81.3097 72.2716 81.3097 72.2716C81.3097 72.2716 81.3097 72.2716 81.3097 72.2716C81.3097 72.2716 81.3097 72.2716 81.3097 72.2716C81.3097 72.2716 81.3097 72.2716 81.3097 72.2716C81.3097 72.2716 81.3097 72.2716 81.3097 72.2716C81.3097 72.2716 81.3097 72.2716 81.3097 72.2716C81.3097 72.2716 81.3097 72.2716 81.3097 72.2716C81.3097 72.2716 81.3097 72.2716 81.3097 72.2716C81.3097 72.2716 81.3097 72.2716 81.3097 72.2716C81.3097 72.2716 81.3097 72.2716 81.3097 72.2716C81.3097 72.2716 81.3097 72.2716 81.3097 72.2716C81.3097 72.2716 81.3097 72.2716 81.3097 72.2716C81.3097 72.2716 81.3097 72.2716 81.3097 72.2716C81.3097 72.2716 81.3097 72.2716 81.3097 72.2716C81.3097 72.2716 81.3097 72.2716 81.3097 72.2716C81.3097 72.2716 81.3097 72.2716 81.3097 72.2716C81.3097 72.2716 81.3097 72.2716 81.3097 72.2716C81.3097 72.2716 81.3097 72.2716 81.3097 72.2716C81.3097 72.2716 81.3097 72.2716 81.3097 72.2716C81.3097 72.2716 81.3097 72.2716 81.3097 72.2716C81.3097 72.2716 81.3097 72.2716 81.3097 72.2716C81.3097 72.2716 81.3097 72.2716 81.3097 72.2716C81.3097 72.2716 81.3097 72.2716 81.3097 72.2716C81.3097 72.2716 81.3097 72.2716 81.3097 72.2716C81.3097 72.2716 81.3097 72.2716 81.3097 72.2716C81.3097 72.2716 81.3097 72.2716 81.3097 72.2716C81.3097 72.2716 81.3097 72.2716 81.3097 72.2716C81.3097 72.2716 81.3097 72.2716 81.3097 72.2716C81.3097 72.2716 81.3097 72.2716 81.3097 72.2716C81.3097 72.2716 81.3097 72.2716 81.3097 72.2716C81.3097 72.2716 81.3097 72.2716 81.3097 72.2716C81.3097 72.2716 81.3097 72.2716 81.3097 72.2716C81.3097 72.2716 81.3097 72.2716 81.3097 72.2716C81.3097 72.2716 81.3097 72.2716 81.3097 72.2716C81.3097 72.2716 81.3097 72.2716 81.3097 72.2716C81.3097 72.2716 81.3097 72.2716 81.3097 72.2716C81.3097 72.2716 81.3097 72.2716 81.3097 72.2716C81.3097 72.2716 81.3097 72.2716 81.3097 72.2716C81.3097 72.2716 81.3097 72.2716 81.3097 72.2716C81.3097 72.2716 81.3097 72.2716 81.3097 72.2716C81.3097 72.2716 81.3097 72.2716 81.3097 72.2716C81.3097 72.2716 81.3097 72.2716 81.3097 72.2716C81.3097 72.2716 81.3097 72.2716 81.3097 72.2716C81.3097 72.2716 81.3097 72.2716 81.3097 72.2716C81.3097 72.2716 81.3097 72.2716 81.3097 72.2716C81.3097 72.2716 81.3097 72.2716 81.3097 72.2716C81.3097 72.2716 81.3097 72.2716 81.3097 72.2716C81.3097 72.2716 81.3097 72.2716 81.3097 72.2716C81.3097 72.2716 81.3097 72.2716 81.3097 72.2716C81.3097 72.2716 81.3097 72.2716 81.3097 72.2716C81.3097 72.2716 81.3097 72.2716 81.3097 72.2716C81.3097 72.2716 81.3097 72.2716 81.3097 72.2716C81.3097 72.2716 81.3097 72.2716 81.3097 72.2716C81.3097 72.2716 81.3097 72.2716 81.3097 72.2716C81.3097 72.2716 81.3097 72.2716 81.3097 72.2716C81.3097 72.2716 81.3097 72.2716 81.3097 72.2716C81.3097 72.2716 81.3097 72.2716 81.3097 72.2716C81.3097 72.2716 81.3097 72.2716 81.3097 72.2716C81.3097 72.2716 81.3097 72.2716 81.3097 72.2716C81.3097 72.2716 81.3097 72.2716 81.3097 72.2716C81.3097 72.2716 81.3097 72.2716 81.3097 72.2716C81.3097 72.2716 81.3097 72.2716 81.3097 72.2716C81.3097 72.2716 81.3097 72.2716 81.3097 72.2716C81.3097 72.2716 81.3097 72.2716 81.3097 72.2716C81.3097 72.2716 81.3097 72.2716 81.3097 72.2716C81.3097 72.2716 81.3097 72.2716 81.3097 72.2716C81.3097 72.2716 81.3097 72.2716 81.3097 72.2716C81.3097 72.2716 81.3097 72.2716 81.3097 72.2716C81.3097 72.2716 81.3097 72.2716 81.3097 72.2716C81.3097 72.2716 81.3097 72.2716 81.3097 72.2716C81.3097 72.2716 81.3097 72.2716 81.3097 72.2716C81.3097 72.2716 81.3097 72.2716 81.3097 72.2716C81.3097 72.2716 81.3097 72.2716 81.3097 72.2716C81.3097 72.2716 81.3097 72.2716 81.3097 72.2716C81.3097 72.2716 81.3097 72.2716 81.3097 72.2716C81.3097 72.2716 81.3097 72.2716 81.3097 72.2716C81.3097 72.2716 81.3097 72.2716 81.3097 72.2716C81.3097 72.2716 81.3097 72.2716 81.3097 72.2716C81.3097 72.2716 81.3097 72.2716 81.3097 72.2716C81.3097 72.2716 81.3097 72.2716 81.3097 72.2716C81.3097 72.2716 81.3097 72.2716 81.3097 72.2716C81.3097 72.2716 81.3097 72.2716 81.3097 72.2716C81.3097 72.2716 81.3097 72.2716 81.3097 72.2716C81.3097 72.2716 81.3097 72.2716 81.3097 72.2716C81.3097 72.2716 81.3097 72.2716 81.3097 72.2716C81.3097 72.2716 81.3097 72.2716 81.3097 72.2716C81.3097 72.2716 81.3097 72.2716 81.3097 72.2716C81.3097 72.2716 81.3097 72.2716 81.3097 72.2716C81.3097 72.2716 81.3097 72.2716 81.3097 72.2716C81.3097 72.2716 81.3097 72.2716 81.3097 72.2716C81.3097 72.2716 81.3097 72.2716 81.3097 72.2716C81.3097 72.2716 81.3097 72.2716 81.3097 72.2716C81.3097 72.2716 81.3097 72.2716 81.3097 72.2716C81.3097 72.2716 81.3097 72.2716 81.3097 72.2716C81.3097 72.2716 81.3097 72.2716 81.3097 72.2716C81.3097 72.2716 81.3097 72.2716 81.3097 72.2716C81.3097 72.2716 81.3097 72.2716 81.3097 72.2716C81.3097 72.2716 81.3097 72.2716 81.3097 72.2716C81.3097 72.2716 81.3097 72.2716 81.3097 72.2716C81.3097 72.2716 81.3097 72.2716 81.3097 72.2716C81.3097 72.2716 81.3097 72.2716 81.3097 72.2716C81.3097 72.2716 81.3097 72.2716 81.3097 72.2716C81.3097 72.2716 81.3097 72.2716 81.3097 72.2716C81.3097 72.2716 81.3097 72.2716 81.3097 72.2716C81.3097 72.2716 81.3097 72.2716 81.3097 72.2716C81.3097 72.2716 81.3097 72.2716 81.3097 72.2716C81.3097 72.2716 81.3097 72.2716 81.3097 72.2716C81.3097 72.2716 81.3097 72.2716 81.3097 72.2716C81.3097 72.2716 81.3097 72.2716 81.3097 72.2716C81.3097 72.2716 81.3097 72.2716 81.3097 72.2716C81.3097 72.2716 81.3097 72.2716 81.3097 72.2716C81.3097 72.2716 81.3097 72.2716 81.3097 72.2716C81.3097 72.2716 81.3097 72.2716 81.3097 72.2716C81.3097 72.2716 81.3097 72.2716 81.3097 72.2716C81.3097 72.2716 81.3097 72.2716 81.3097 72.2716C81.3097 72.2716 81.3097 72.2716 81.3097 72.2716C81.3097 72.2716 81.3097 72.2716 81.3097 72.2716C81.3097 72.2716 81.3097 72.2716 81.3097 72.2716C81.3097 72.2716 81.3097 72.2716 81.3097 72.2716C81.3097 72.2716 81.3097 72.2716 81.3097 72.2716C81.3097 72.2716 81.3097 72.2716 81.3097 72.2716C81.3097 72.2716 81.3097 72.2716 81.3097 72.2716C81.3097 72.2716 81.3097 72.2716 81.3097 72.2716C81.3097 72.2716 81.3097 72.2716 81.3097 72.2716C81.3097 72.2716 81.3097 72.2716 81.3097 72.2716C81.3097 72.2716 81.3097 72.2716 81.3097 72.2716C81.3097 72.2716 81.3097 72.2716 81.3097 72.2716C81.3097 72.2716 81.3097 72.2716 81.3097 72.2716C81.3097 72.2716 81.3097 72.2716 81.3097 72.2716C81.3097 72.2716 81.3097 72.2716 81.3097 72.2716C81.3097 72.2716 81.3097 72.2716 81.3097 72.2716C81.3097 72.2716 81.3097 72.2716 81.3097 72.2716C81.3097 72.2716 81.3097 72.2716 81.3097 72.2716C81.3097 72.2716 81.3097 72.2716 81.3097 72.2716C81.3097 72.2716 81.3097 72.2716 81.3097 72.2716C81.3097 72.2716 81.3097 72.2716 81.3097 72.2716C81.3097 72.2716 81.3097 72.2716 81.3097 72.2716C81.3097 72.2716 81.3097 72.2716 81.3097 72.2716C81.3097 72.2716 81.3097 72.2716 81.3097 72.2716C81.3097 72.2716 81.3097 72.2716 81.3097 72.2716C81.3097 72.2716 81.3097 72.2716 81.3097 72.2716C81.3097 72.2716 81.3097 72.2716 81.3097 72.2716C81.3097 72.2716 81.3097 72.2716 81.3097 72.2716C81.3097 72.2716 81.3097 72.2716 81.3097 72.2716C81.3097 72.2716 81.3097 72.2716 81.3097 72.2716C81.3097 72.2716 81.3097 72.2716 81.3097 72.2716C81.3097 72.2716 81.3097 72.2716 81.3097 72.2716C81.3097 72.2716 81.3097 72.2716 81.3097 72.2716C81.3097 72.2716 81.3097 72.2716 81.3097 72.2716C81.3097 72.2716 81.3097 72.2716 81.3097 72.2716C81.3097 72.2716 81.3097 72.2716 81.3097 72.2716C81.3097 72.2716 81.3097 72.2716 81.3097 72.2716C81.3097 72.2716 81.3097 72.2716 81.3097 72.2716C81.3097 72.2716 81.3097 72.2716 81.3097 72.2716C81.3097 72.2716 81.3097 72.2716 81.3097 72.2716C81.3097 72.2716 81.3097 72.2716 81.3097 72.2716C81.3097 72.2716 81.3097 72.2716 81.3097 72.2716C81.3097 72.2716 81.3097 72.2716 81.3097 72.2716C81.3097 72.2716 81.3097 72.2716 81.3097 72.2716C81.3097 72.2716 81.3097 72.2716 81.3097 72.2716C81.3097 72.2716 81.3097 72.2716 81.3097 72.2716C81.3097 72.2716 81.3097 72.2716 81.3097 72.2716C81.3097 72.2716 81.3097 72.2716 81.3097 72.2716C81.3097 72.2716 81.3097 72.2716 81.3097 72.2716C81.3097 72.2716 81.3097 72.2716 81.3097 72.2716C81.3097 72.2716 81.3097 72.2716 81.3097 72.2716C81.3097 72.2716 81.3097 72.2716 81.3097 72.2716C81.3097 72.2716 81.3097 72.2716 81.3097 72.2716C81.3097 72.2716 81.3097 72.2716 81.3097 72.2716C81.3097 72.2716 81.3097 72.2716 81.3097 72.2716C81.3097 72.2716 81.3097 72.2716 81.3097 72.2716C81.3097 72.2716 81.3097 72.2716 81.3097 72.2716C81.3097 72.2716 81.3097 72.2716 81.3097 72.2716C81.3097 72.2716 81.3097 72.2716 81.3097 72.2716C81.3097 72.2716 81.3097 72.2716 81.3097 72.2716C81.3097 72.2716 81.3097 72.2716 81.3097 72.2716C81.3097 72.2716 81.3097 72.2716 81.3097 72.2716C81.3097 72.2716 81.3097 72.2716 81.3097 72.2716C81.3097 72.2716 81.3097 72.2716 81.3097 72.2716C81.3097 72.2716 81.3097 72.2716 81.3097 72.2716C81.3097 72.2716 81.3097 72.2716 81.3097 72.2716C81.3097 72.2716 81.3097 72.2716 81.3097 72.2716C81.3097 72.2716 81.3097 72.2716 81.3097 72.2716C81.3097 72.2716 81.3097 72.2716 81.3097 72.2716C81.3097 72.2716 81.3097 72.2716 81.3097 72.2716L83.2811 72.6087C83.2811 72.6087 83.2811 72.6087 83.2811 72.6087C83.2811 72.6087 83.2811 72.6087 83.2811 72.6087C83.2811 72.6087 83.2811 72.6087 83.2811 72.6087C83.2811 72.6087 83.2811 72.6087 83.2811 72.6087C83.2811 72.6087 83.2811 72.6087 83.2811 72.6087C83.2811 72.6087 83.2811 72.6087 83.2811 72.6087C83.2811 72.6087 83.2811 72.6087 83.2811 72.6087C83.2811 72.6087 83.2811 72.6087 83.2811 72.6087C83.2811 72.6087 83.2811 72.6087 83.2811 72.6087C83.2811 72.6087 83.2811 72.6087 83.2811 72.6087C83.2811 72.6087 83.2811 72.6087 83.2811 72.6087C83.2811 72.6087 83.2811 72.6087 83.2811 72.6087C83.2811 72.6087 83.2811 72.6087 83.2811 72.6087C83.2811 72.6087 83.2811 72.6087 83.2811 72.6087C83.2811 72.6087 83.2811 72.6087 83.2811 72.6087C83.2811 72.6087 83.2811 72.6087 83.2811 72.6087C83.2811 72.6087 83.2811 72.6087 83.2811 72.6087C83.2811 72.6087 83.2811 72.6087 83.2811 72.6087C83.2811 72.6087 83.2811 72.6087 83.2811 72.6087C83.2811 72.6087 83.2811 72.6087 83.2811 72.6087C83.2811 72.6087 83.2811 72.6087 83.2811 72.6087C83.2811 72.6087 83.2811 72.6087 83.2811 72.6087C83.2811 72.6087 83.2811 72.6087 83.2811 72.6087C83.2811 72.6087 83.2811 72.6087 83.2811 72.6087C83.2811 72.6087 83.2811 72.6087 83.2811 72.6087C83.2811 72.6087 83.2811 72.6087 83.2811 72.6087C83.2811 72.6087 83.2811 72.6087 83.2811 72.6087C83.2811 72.6087 83.2811 72.6087 83.2811 72.6087C83.2811 72.6087 83.2811 72.6087 83.2811 72.6087C83.2811 72.6087 83.2811 72.6087 83.2811 72.6087C83.2811 72.6087 83.2811 72.6087 83.2811 72.6087C83.2811 72.6087 83.2811 72.6087 83.2811 72.6087C83.2811 72.6087 83.2811 72.6087 83.2811 72.6087C83.2811 72.6087 83.2811 72.6087 83.2811 72.6087C83.2811 72.6087 83.2811 72.6087 83.2811 72.6087C83.2811 72.6087 83.2811 72.6087 83.2811 72.6087C83.2811 72.6087 83.2811 72.6087 83.2811 72.6087C83.2811 72.6087 83.2811 72.6087 83.2811 72.6087C83.2811 72.6087 83.2811 72.6087 83.2811 72.6087C83.2811 72.6087 83.2811 72.6087 83.2811 72.6087C83.2811 72.6087 83.2811 72.6087 83.2811 72.6087C83.2811 72.6087 83.2811 72.6087 83.2811 72.6087C83.2811 72.6087 83.2811 72.6087 83.2811 72.6087C83.2811 72.6087 83.2811 72.6087 83.2811 72.6087C83.2811 72.6087 83.2811 72.6087 83.2811 72.6087C83.2811 72.6087 83.2811 72.6087 83.2811 72.6087C83.2811 72.6087 83.2811 72.6087 83.2811 72.6087C83.2811 72.6087 83.2811 72.6087 83.2811 72.6087C83.2811 72.6087 83.2811 72.6087 83.2811 72.6087C83.2811 72.6087 83.2811 72.6087 83.2811 72.6087C83.2811 72.6087 83.2811 72.6087 83.2811 72.6087C83.2811 72.6087 83.2811 72.6087 83.2811 72.6087C83.2811 72.6087 83.2811 72.6087 83.2811 72.6087C83.2811 72.6087 83.2811 72.6087 83.2811 72.6087C83.2811 72.6087 83.2811 72.6087 83.2811 72.6087C83.2811 72.6087 83.2811 72.6087 83.2811 72.6087C83.2811 72.6087 83.2811 72.6087 83.2811 72.6087C83.2811 72.6087 83.2811 72.6087 83.2811 72.6087C83.2811 72.6087 83.2811 72.6087 83.2811 72.6087C83.2811 72.6087 83.2811 72.6087 83.2811 72.6087C83.2811 72.6087 83.2811 72.6087 83.2811 72.6087C83.2811 72.6087 83.2811 72.6087 83.2811 72.6087C83.2811 72.6087 83.2811 72.6087 83.2811 72.6087C83.2811 72.6087 83.2811 72.6087 83.2811 72.6087C83.2811 72.6087 83.2811 72.6087 83.2811 72.6087C83.2811 72.6087 83.2811 72.6087 83.2811 72.6087C83.2811 72.6087 83.2811 72.6087 83.2811 72.6087C83.2811 72.6087 83.2811 72.6087 83.2811 72.6087C83.2811 72.6087 83.2811 72.6087 83.2811 72.6087C83.2811 72.6087 83.2811 72.6087 83.2811 72.6087C83.2811 72.6087 83.2811 72.6087 83.2811 72.6087C83.2811 72.6087 83.2811 72.6087 83.2811 72.6087C83.2811 72.6087 83.2811 72.6087 83.2811 72.6087C83.2811 72.6087 83.2811 72.6087 83.2811 72.6087C83.2811 72.6087 83.2811 72.6087 83.2811 72.6087C83.2811 72.6087 83.2811 72.6087 83.2811 72.6087C83.2811 72.6087 83.2811 72.6087 83.2811 72.6087C83.2811 72.6087 83.2811 72.6087 83.2811 72.6087C83.2811 72.6087 83.2811 72.6087 83.2811 72.6087C83.2811 72.6087 83.2811 72.6087 83.2811 72.6087C83.2811 72.6087 83.2811 72.6087 83.2811 72.6087C83.2811 72.6087 83.2811 72.6087 83.2811 72.6087C83.2811 72.6087 83.2811 72.6087 83.2811 72.6087C83.2811 72.6087 83.2811 72.6087 83.2811 72.6087C83.2811 72.6087 83.2811 72.6087 83.2811 72.6087C83.2811 72.6087 83.2811 72.6087 83.2811 72.6087C83.2811 72.6087 83.2811 72.6087 83.2811 72.6087C83.2811 72.6087 83.2811 72.6087 83.2811 72.6087C83.2811 72.6087 83.2811 72.6087 83.2811 72.6087C83.2811 72.6087 83.2811 72.6087 83.2811 72.6087C83.2811 72.6087 83.2811 72.6087 83.2811 72.6087C83.2811 72.6087 83.2811 72.6087 83.2811 72.6087C83.2811 72.6087 83.2811 72.6087 83.2811 72.6087C83.2811 72.6087 83.2811 72.6087 83.2811 72.6087C83.2811 72.6087 83.2811 72.6087 83.2811 72.6087C83.2811 72.6087 83.2811 72.6087 83.2811 72.6087C83.2811 72.6087 83.2811 72.6087 83.2811 72.6087C83.2811 72.6087 83.2811 72.6087 83.2811 72.6087C83.2811 72.6087 83.2811 72.6087 83.2811 72.6087C83.2811 72.6087 83.2811 72.6087 83.2811 72.6087C83.2811 72.6087 83.2811 72.6087 83.2811 72.6087C83.2811 72.6087 83.2811 72.6087 83.2811 72.6087C83.2811 72.6087 83.2811 72.6087 83.2811 72.6087C83.2811 72.6087 83.2811 72.6087 83.2811 72.6087C83.2811 72.6087 83.2811 72.6087 83.2811 72.6087C83.2811 72.6087 83.2811 72.6087 83.2811 72.6087C83.2811 72.6087 83.2811 72.6087 83.2811 72.6087C83.2811 72.6087 83.2811 72.6087 83.2811 72.6087C83.2811 72.6087 83.2811 72.6087 83.2811 72.6087C83.2811 72.6087 83.2811 72.6087 83.2811 72.6087C83.2811 72.6087 83.2811 72.6087 83.2811 72.6087C83.2811 72.6087 83.2811 72.6087 83.2811 72.6087C83.2811 72.6087 83.2811 72.6087 83.2811 72.6087C83.2811 72.6087 83.2811 72.6087 83.2811 72.6087C83.2811 72.6087 83.2811 72.6087 83.2811 72.6087C83.2811 72.6087 83.2811 72.6087 83.2811 72.6087C83.2811 72.6087 83.2811 72.6087 83.2811 72.6087C83.2811 72.6087 83.2811 72.6087 83.2811 72.6087C83.2811 72.6087 83.2811 72.6087 83.2811 72.6087C83.2811 72.6087 83.2811 72.6087 83.2811 72.6087C83.2811 72.6087 83.2811 72.6087 83.2811 72.6087C83.2811 72.6087 83.2811 72.6087 83.2811 72.6087C83.2811 72.6087 83.2811 72.6087 83.2811 72.6087C83.2811 72.6087 83.2811 72.6087 83.2811 72.6087C83.2811 72.6087 83.2811 72.6087 83.2811 72.6087C83.2811 72.6087 83.2811 72.6087 83.2811 72.6087C83.2811 72.6087 83.2811 72.6087 83.2811 72.6087C83.2811 72.6087 83.2811 72.6087 83.2811 72.6087C83.2811 72.6087 83.2811 72.6087 83.2811 72.6087C83.2811 72.6087 83.2811 72.6087 83.2811 72.6087C83.2811 72.6087 83.2811 72.6087 83.2811 72.6087C83.2811 72.6087 83.2811 72.6087 83.2811 72.6087C83.2811 72.6087 83.2811 72.6087 83.2811 72.6087C83.2811 72.6087 83.2811 72.6087 83.2811 72.6087C83.2811 72.6087 83.2811 72.6087 83.2811 72.6087C83.2811 72.6087 83.2811 72.6087 83.2811 72.6087C83.2811 72.6087 83.2811 72.6087 83.2811 72.6087C83.2811 72.6087 83.2811 72.6087 83.2811 72.6087C83.2811 72.6087 83.2811 72.6087 83.2811 72.6087C83.2811 72.6087 83.2811 72.6087 83.2811 72.6087C83.2811 72.6087 83.2811 72.6087 83.2811 72.6087C83.2811 72.6087 83.2811 72.6087 83.2811 72.6087C83.2811 72.6087 83.2811 72.6087 83.2811 72.6087C83.2811 72.6087 83.2811 72.6087 83.2811 72.6087C83.2811 72.6087 83.2811 72.6087 83.2811 72.6087C83.2811 72.6087 83.2811 72.6087 83.2811 72.6087C83.2811 72.6087 83.2811 72.6087 83.2811 72.6087C83.2811 72.6087 83.2811 72.6087 83.2811 72.6087C83.2811 72.6087 83.2811 72.6087 83.2811 72.6087C83.2811 72.6087 83.2811 72.6087 83.2811 72.6087C83.2811 72.6087 83.2811 72.6087 83.2811 72.6087C83.2811 72.6087 83.2811 72.6087 83.2811 72.6087C83.2811 72.6087 83.2811 72.6087 83.2811 72.6087C83.2811 72.6087 83.2811 72.6087 83.2811 72.6087C83.2811 72.6087 83.2811 72.6087 83.2811 72.6087C83.2811 72.6087 83.2811 72.6087 83.2811 72.6087C83.2811 72.6087 83.2811 72.6087 83.2811 72.6087C83.2811 72.6087 83.2811 72.6087 83.2811 72.6087C83.2811 72.6087 83.2811 72.6087 83.2811 72.6087C83.2811 72.6087 83.2811 72.6087 83.2811 72.6087C83.2811 72.6087 83.2811 72.6087 83.2811 72.6087C83.2811 72.6087 83.2811 72.6087 83.2811 72.6087C83.2811 72.6087 83.2811 72.6087 83.2811 72.6087C83.2811 72.6087 83.2811 72.6087 83.2811 72.6087C83.2811 72.6087 83.2811 72.6087 83.2811 72.6087C83.2811 72.6087 83.2811 72.6087 83.2811 72.6087C83.2811 72.6087 83.2811 72.6087 83.2811 72.6087C83.2811 72.6087 83.2811 72.6087 83.2811 72.6087C83.2811 72.6087 83.2811 72.6087 83.2811 72.6087C83.2811 72.6087 83.2811 72.6087 83.2811 72.6087C83.2811 72.6087 83.2811 72.6087 83.2811 72.6087C83.2811 72.6087 83.2811 72.6087 83.2811 72.6087C83.2811 72.6087 83.2811 72.6087 83.2811 72.6087C83.2811 72.6087 83.2811 72.6087 83.2811 72.6087C83.2811 72.6087 83.2811 72.6087 83.2811 72.6087C83.2811 72.6087 83.2811 72.6087 83.2811 72.6087C83.2811 72.6087 83.2811 72.6087 83.2811 72.6087C83.2811 72.6087 83.2811 72.6087 83.2811 72.6087C83.2811 72.6087 83.2811 72.6087 83.2811 72.6087C83.2811 72.6087 83.2811 72.6087 83.2811 72.6087C83.2811 72.6087 83.2811 72.6087 83.2811 72.6087C83.2811 72.6087 83.2811 72.6087 83.2811 72.6087C83.2811 72.6087 83.2811 72.6087 83.2811 72.6087C83.2811 72.6087 83.2811 72.6087 83.2811 72.6087C83.2811 72.6087 83.2811 72.6087 83.2811 72.6086C83.2811 72.6086 83.2811 72.6086 83.2811 72.6086C83.2811 72.6086 83.2811 72.6086 83.2811 72.6086C83.2811 72.6086 83.2811 72.6086 83.2811 72.6086C83.2811 72.6086 83.2811 72.6086 83.2811 72.6086C83.2811 72.6086 83.2811 72.6086 83.2811 72.6086C83.2811 72.6086 83.2811 72.6086 83.2811 72.6086C83.2811 72.6086 83.2811 72.6086 83.2811 72.6086C83.2811 72.6086 83.2811 72.6086 83.2811 72.6086C83.2811 72.6086 83.2811 72.6086 83.2811 72.6086C83.2811 72.6086 83.2811 72.6086 83.2811 72.6086C83.2811 72.6086 83.2811 72.6086 83.2811 72.6086C83.2811 72.6086 83.2811 72.6086 83.2811 72.6086C83.2811 72.6086 83.2811 72.6086 83.2811 72.6086C83.2811 72.6086 83.2811 72.6086 83.2811 72.6086C83.2811 72.6086 83.2811 72.6086 83.2811 72.6086C83.2811 72.6086 83.2811 72.6086 83.2811 72.6086C83.2811 72.6086 83.2811 72.6086 83.2811 72.6086C83.2811 72.6086 83.2811 72.6086 83.2811 72.6086C83.2811 72.6086 83.2811 72.6086 83.2811 72.6086C83.2811 72.6086 83.2811 72.6086 83.2811 72.6086C83.2811 72.6086 83.2811 72.6086 83.2811 72.6086C83.2811 72.6086 83.2811 72.6086 83.2811 72.6086C83.2811 72.6086 83.2811 72.6086 83.2811 72.6086C83.2811 72.6086 83.2811 72.6086 83.2811 72.6086C83.2811 72.6086 83.2811 72.6086 83.2811 72.6086C83.2811 72.6086 83.2811 72.6086 83.2811 72.6086C83.2811 72.6086 83.2811 72.6086 83.2811 72.6086C83.2811 72.6086 83.2811 72.6086 83.2811 72.6086C83.2811 72.6086 83.2811 72.6086 83.2811 72.6086C83.2811 72.6086 83.2811 72.6086 83.2811 72.6086C83.2811 72.6086 83.2811 72.6086 83.2811 72.6086C83.2811 72.6086 83.2811 72.6086 83.2811 72.6086C83.2811 72.6086 83.2811 72.6086 83.2811 72.6086C83.2811 72.6086 83.2811 72.6086 83.2811 72.6086C83.2811 72.6086 83.2811 72.6086 83.2811 72.6086C83.2811 72.6086 83.2811 72.6086 83.2811 72.6086C83.2811 72.6086 83.2811 72.6086 83.2811 72.6086C83.2811 72.6086 83.2811 72.6086 83.2811 72.6086C83.2811 72.6086 83.2811 72.6086 83.2811 72.6086C83.2811 72.6086 83.2811 72.6086 83.2811 72.6086C83.2811 72.6086 83.2811 72.6086 83.2811 72.6086C83.2811 72.6086 83.2811 72.6086 83.2811 72.6086C83.2811 72.6086 83.2811 72.6086 83.2811 72.6086C83.2811 72.6086 83.2811 72.6086 83.2811 72.6086C83.2811 72.6086 83.2811 72.6086 83.2811 72.6086C83.2811 72.6086 83.2811 72.6086 83.2811 72.6086C83.2811 72.6086 83.2811 72.6086 83.2811 72.6086C83.2811 72.6086 83.2811 72.6086 83.2811 72.6086C83.2811 72.6086 83.2811 72.6086 83.2811 72.6086C83.2811 72.6086 83.2811 72.6086 83.2811 72.6086C83.2811 72.6086 83.2811 72.6086 83.2811 72.6086C83.2811 72.6086 83.2811 72.6086 83.2811 72.6086C83.2811 72.6086 83.2811 72.6086 83.2811 72.6086C83.2811 72.6086 83.2811 72.6086 83.2811 72.6086C83.2811 72.6086 83.2811 72.6086 83.2811 72.6086C83.2811 72.6086 83.2811 72.6086 83.2811 72.6086C83.2811 72.6086 83.2811 72.6086 83.2811 72.6086C83.2811 72.6086 83.2811 72.6086 83.2811 72.6086C83.2811 72.6086 83.2811 72.6086 83.2811 72.6086C83.2811 72.6086 83.2811 72.6086 83.2811 72.6086C83.2811 72.6086 83.2811 72.6086 83.2811 72.6086C83.2811 72.6086 83.2811 72.6086 83.2811 72.6086C83.2811 72.6086 83.2811 72.6086 83.2811 72.6086C83.2811 72.6086 83.2811 72.6086 83.2811 72.6086C83.2811 72.6086 83.2811 72.6086 83.2811 72.6086C83.2811 72.6086 83.2811 72.6086 83.2811 72.6086C83.2811 72.6086 83.2811 72.6086 83.2811 72.6086C83.2811 72.6086 83.2811 72.6086 83.2811 72.6086C83.2811 72.6086 83.2811 72.6086 83.2811 72.6086C83.2811 72.6086 83.2811 72.6086 83.2811 72.6086C83.2811 72.6086 83.2811 72.6086 83.2811 72.6086C83.2811 72.6086 83.2811 72.6086 83.2811 72.6086C83.2811 72.6086 83.2811 72.6086 83.2811 72.6086C83.2811 72.6086 83.2811 72.6086 83.2811 72.6086C83.2811 72.6086 83.2811 72.6086 83.2811 72.6086C83.2811 72.6086 83.2811 72.6086 83.2811 72.6086C83.2811 72.6086 83.2811 72.6086 83.2811 72.6086C83.2811 72.6086 83.2811 72.6086 83.2811 72.6086C83.2811 72.6086 83.2811 72.6086 83.2811 72.6086C83.2811 72.6086 83.2811 72.6086 83.2811 72.6086C83.2811 72.6086 83.2811 72.6086 83.2811 72.6086C83.2811 72.6086 83.2811 72.6086 83.2811 72.6086C83.2811 72.6086 83.2811 72.6086 83.2811 72.6086C83.2811 72.6086 83.2811 72.6086 83.2811 72.6086C83.2811 72.6086 83.2811 72.6086 83.2811 72.6086C83.2811 72.6086 83.2811 72.6086 83.2811 72.6086C83.2811 72.6086 83.2811 72.6086 83.2811 72.6086C83.2811 72.6086 83.2811 72.6086 83.2811 72.6086C83.2811 72.6086 83.2811 72.6086 83.2811 72.6086C83.2811 72.6086 83.2811 72.6086 83.2811 72.6086C83.2811 72.6086 83.2811 72.6086 83.2811 72.6086C83.2811 72.6086 83.2811 72.6086 83.2811 72.6086C83.2811 72.6086 83.2811 72.6086 83.2811 72.6086C83.2811 72.6086 83.2811 72.6086 83.2811 72.6086C83.2811 72.6086 83.2811 72.6086 83.2811 72.6086C83.2811 72.6086 83.2811 72.6086 83.2811 72.6086C83.2811 72.6086 83.2811 72.6086 83.2811 72.6086C83.2811 72.6086 83.2811 72.6086 83.2811 72.6086C83.2811 72.6086 83.2811 72.6086 83.2811 72.6086C83.2811 72.6086 83.2811 72.6086 83.2811 72.6086C83.2811 72.6086 83.2811 72.6086 83.2811 72.6086C83.2811 72.6086 83.2811 72.6086 83.2811 72.6086C83.2811 72.6086 83.2811 72.6086 83.2811 72.6086C83.2811 72.6086 83.2811 72.6086 83.2811 72.6086C83.2811 72.6086 83.2811 72.6086 83.2811 72.6086C83.2811 72.6086 83.2811 72.6086 83.2811 72.6086C83.2811 72.6086 83.2811 72.6086 83.2811 72.6086C83.2811 72.6086 83.2811 72.6086 83.2811 72.6086C83.2811 72.6086 83.2811 72.6086 83.2811 72.6086C83.2811 72.6086 83.2811 72.6086 83.2811 72.6086C83.2811 72.6086 83.2811 72.6086 83.2811 72.6086C83.2811 72.6086 83.2811 72.6086 83.2811 72.6086C83.2811 72.6086 83.2811 72.6086 83.2811 72.6086C83.2811 72.6086 83.2811 72.6086 83.2811 72.6086C83.2811 72.6086 83.2811 72.6086 83.2811 72.6086C83.2811 72.6086 83.2811 72.6086 83.2811 72.6086C83.2811 72.6086 83.2811 72.6086 83.2811 72.6086C83.2811 72.6086 83.2811 72.6086 83.2811 72.6086C83.2811 72.6086 83.2811 72.6086 83.2811 72.6086C83.2811 72.6086 83.2811 72.6086 83.2811 72.6086C83.2811 72.6086 83.2811 72.6086 83.2811 72.6086C83.2811 72.6086 83.2811 72.6086 83.2811 72.6086C83.2811 72.6086 83.2811 72.6086 83.2811 72.6086C83.2811 72.6086 83.2811 72.6086 83.2811 72.6086C83.2811 72.6086 83.2811 72.6086 83.2811 72.6086C83.2811 72.6086 83.2811 72.6086 83.2811 72.6086C83.2811 72.6086 83.2811 72.6086 83.2811 72.6086C83.2811 72.6086 83.2811 72.6086 83.2811 72.6086C83.2811 72.6086 83.2811 72.6086 83.2811 72.6086C83.2811 72.6086 83.2811 72.6086 83.2811 72.6086C83.2811 72.6086 83.2811 72.6086 83.2811 72.6086C83.2811 72.6086 83.2811 72.6086 83.2811 72.6086C83.2811 72.6086 83.2811 72.6086 83.2811 72.6086C83.2811 72.6086 83.2811 72.6086 83.2811 72.6086C83.2811 72.6086 83.2811 72.6086 83.2811 72.6086C83.2811 72.6086 83.2811 72.6086 83.2811 72.6086C83.2811 72.6086 83.2811 72.6086 83.2811 72.6086C83.2811 72.6086 83.2811 72.6086 83.2811 72.6086C83.2811 72.6086 83.2811 72.6086 83.2811 72.6086C83.2811 72.6086 83.2811 72.6086 83.2811 72.6086C83.2811 72.6086 83.2811 72.6086 83.2811 72.6086C83.2811 72.6086 83.2811 72.6086 83.2811 72.6086C83.2811 72.6086 83.2811 72.6086 83.2811 72.6086C83.2811 72.6086 83.2811 72.6086 83.2811 72.6086C83.2811 72.6086 83.2811 72.6086 83.2811 72.6086C83.2811 72.6086 83.2811 72.6086 83.2811 72.6086C83.2811 72.6086 83.2811 72.6086 83.2811 72.6086C83.2811 72.6086 83.2811 72.6086 83.2811 72.6086C83.2811 72.6086 83.2811 72.6086 83.2811 72.6086C83.2811 72.6086 83.2811 72.6086 83.2811 72.6086C83.2811 72.6086 83.2811 72.6086 83.2811 72.6086C83.2811 72.6086 83.2811 72.6086 83.2811 72.6086C83.2811 72.6086 83.2811 72.6086 83.2811 72.6086C83.2811 72.6086 83.2811 72.6086 83.2811 72.6086C83.2811 72.6086 83.2811 72.6086 83.2811 72.6086C83.2811 72.6086 83.2811 72.6086 83.2811 72.6086C83.2811 72.6086 83.2811 72.6086 83.2811 72.6086C83.2811 72.6086 83.2811 72.6086 83.2811 72.6086C83.2811 72.6086 83.2811 72.6086 83.2811 72.6086C83.2811 72.6086 83.2811 72.6086 83.2811 72.6086C83.2811 72.6086 83.2811 72.6086 83.2811 72.6086C83.2811 72.6086 83.2811 72.6086 83.2811 72.6086C83.2811 72.6086 83.2811 72.6086 83.2811 72.6086C83.2811 72.6086 83.2811 72.6086 83.2811 72.6086C83.2811 72.6086 83.2811 72.6086 83.2811 72.6086C83.2811 72.6086 83.2811 72.6086 83.2811 72.6086C83.2811 72.6086 83.2811 72.6086 83.2811 72.6086C83.2811 72.6086 83.2811 72.6086 83.2811 72.6086C83.2811 72.6086 83.2811 72.6086 83.2811 72.6086C83.2811 72.6086 83.2811 72.6086 83.2811 72.6086C83.2811 72.6086 83.2811 72.6086 83.2811 72.6086C83.2811 72.6086 83.2811 72.6086 83.2811 72.6086C83.2811 72.6086 83.2811 72.6086 83.2811 72.6086C83.2811 72.6086 83.2811 72.6086 83.2811 72.6086C83.2811 72.6086 83.2811 72.6086 83.2811 72.6086C83.2811 72.6086 83.2811 72.6086 83.2811 72.6086C83.2811 72.6086 83.2811 72.6086 83.2811 72.6086C83.2811 72.6086 83.2811 72.6086 83.2811 72.6086C83.2811 72.6086 83.2811 72.6086 83.2811 72.6086C83.2811 72.6086 83.2811 72.6086 83.2811 72.6086C83.2811 72.6086 83.2811 72.6086 83.2811 72.6086C83.2811 72.6086 83.2811 72.6086 83.2811 72.6086C83.2811 72.6086 83.2811 72.6086 83.2811 72.6086C83.2811 72.6086 83.2811 72.6086 83.2811 72.6086C83.2811 72.6086 83.2811 72.6086 83.2811 72.6086C83.2811 72.6086 83.2811 72.6086 83.2811 72.6086C83.2811 72.6086 83.2811 72.6086 83.2811 72.6086C83.2811 72.6086 83.2811 72.6086 83.2811 72.6086C83.2811 72.6086 83.2811 72.6086 83.2811 72.6086C83.2811 72.6086 83.2811 72.6086 83.2811 72.6086C83.2811 72.6086 83.2811 72.6086 83.2811 72.6086C83.2811 72.6086 83.2811 72.6086 83.2811 72.6086C83.2811 72.6086 83.2811 72.6086 83.2811 72.6086C83.2811 72.6086 83.2811 72.6086 83.2811 72.6086C83.2811 72.6086 83.2811 72.6086 83.2811 72.6086C83.2811 72.6086 83.2811 72.6086 83.2811 72.6086C83.2811 72.6086 83.2811 72.6086 83.2811 72.6086C83.2811 72.6086 83.2811 72.6086 83.2811 72.6086C83.2811 72.6086 83.2811 72.6086 83.2811 72.6086C83.2811 72.6086 83.2811 72.6086 83.2811 72.6086C83.2811 72.6086 83.2811 72.6086 83.2811 72.6086C83.2811 72.6086 83.2811 72.6086 83.2811 72.6086C83.2811 72.6086 83.2811 72.6086 83.2811 72.6086C83.2811 72.6086 83.2811 72.6086 83.2811 72.6086C83.2811 72.6086 83.2811 72.6086 83.2811 72.6086C83.2811 72.6086 83.2811 72.6086 83.2811 72.6086C83.2811 72.6086 83.2811 72.6086 83.2811 72.6086C83.2811 72.6086 83.2811 72.6086 83.2811 72.6086C83.2811 72.6086 83.2811 72.6086 83.2811 72.6086C83.2811 72.6086 83.2811 72.6086 83.2811 72.6086C83.2811 72.6086 83.2811 72.6086 83.2811 72.6086C83.2811 72.6086 83.2811 72.6086 83.2811 72.6086C83.2811 72.6086 83.2811 72.6086 83.2811 72.6086C83.2811 72.6086 83.2811 72.6086 83.2811 72.6086C83.2811 72.6086 83.2811 72.6086 83.2811 72.6086C83.2811 72.6086 83.2811 72.6086 83.2811 72.6086C83.2811 72.6086 83.2811 72.6086 83.2811 72.6086C83.2811 72.6086 83.2811 72.6086 83.2811 72.6086C83.2811 72.6086 83.2811 72.6086 83.2811 72.6086C83.2811 72.6086 83.2811 72.6086 83.2811 72.6086C83.2811 72.6086 83.2811 72.6086 83.2811 72.6086C83.2811 72.6086 83.2811 72.6086 83.2811 72.6086C83.2811 72.6086 83.2811 72.6086 83.2811 72.6086C83.2811 72.6086 83.2811 72.6086 83.2811 72.6086C83.2811 72.6086 83.2811 72.6086 83.2811 72.6086C83.2811 72.6086 83.2811 72.6086 83.2811 72.6086C83.2811 72.6086 83.2811 72.6086 83.2811 72.6086C83.2811 72.6086 83.2811 72.6086 83.2811 72.6086C83.2811 72.6086 83.2811 72.6086 83.2811 72.6086C83.2811 72.6086 83.2811 72.6086 83.2811 72.6086C83.2811 72.6086 83.2811 72.6086 83.2811 72.6086C83.2811 72.6086 83.2811 72.6086 83.2811 72.6086C83.2811 72.6086 83.2811 72.6086 83.2811 72.6086C83.2811 72.6086 83.2811 72.6086 83.2811 72.6086C83.2811 72.6086 83.2811 72.6086 83.2811 72.6086C83.2811 72.6086 83.2811 72.6086 83.2811 72.6086C83.2811 72.6086 83.2811 72.6086 83.2811 72.6086C83.2811 72.6086 83.2811 72.6086 83.2811 72.6086C83.2811 72.6086 83.2811 72.6086 83.2811 72.6086C83.2811 72.6086 83.2811 72.6086 83.2811 72.6086C83.2811 72.6086 83.2811 72.6086 83.2811 72.6086C83.2811 72.6086 83.2811 72.6086 83.2811 72.6086C83.2811 72.6086 83.2811 72.6086 83.2811 72.6086C83.2811 72.6086 83.2811 72.6086 83.2811 72.6086C83.2811 72.6086 83.2811 72.6086 83.2811 72.6086C83.2811 72.6086 83.2811 72.6086 83.2811 72.6086C83.2811 72.6086 83.2811 72.6086 83.2811 72.6086C83.2811 72.6086 83.2811 72.6086 83.2811 72.6086C83.2811 72.6086 83.2811 72.6086 83.2811 72.6086C83.2811 72.6086 83.2811 72.6086 83.2811 72.6086C83.2811 72.6086 83.2811 72.6086 83.2811 72.6086C83.2811 72.6086 83.2811 72.6086 83.2811 72.6086C83.2811 72.6086 83.2811 72.6086 83.2811 72.6086C83.2811 72.6086 83.2811 72.6086 83.2811 72.6086C83.2811 72.6086 83.2811 72.6086 83.2811 72.6086C83.2811 72.6086 83.2811 72.6086 83.2811 72.6086C83.2811 72.6086 83.2811 72.6086 83.2811 72.6086C83.2811 72.6086 83.2811 72.6086 83.2811 72.6086C83.2811 72.6086 83.2811 72.6086 83.2811 72.6086C83.2811 72.6086 83.2811 72.6086 83.2811 72.6086C83.2811 72.6086 83.2811 72.6086 83.2811 72.6086C83.2811 72.6086 83.2811 72.6086 83.2811 72.6086C83.2811 72.6086 83.2811 72.6086 83.2811 72.6086C83.2811 72.6086 83.2811 72.6086 83.2811 72.6086C83.2811 72.6086 83.2811 72.6086 83.2811 72.6086C83.2811 72.6086 83.2811 72.6086 83.2811 72.6086C83.2811 72.6086 83.2811 72.6086 83.2811 72.6086C83.2811 72.6086 83.2811 72.6086 83.2811 72.6086C83.2811 72.6086 83.2811 72.6086 83.2811 72.6086C83.2811 72.6086 83.2811 72.6086 83.2811 72.6086C83.2811 72.6086 83.2811 72.6086 83.2811 72.6086C83.2811 72.6086 83.2811 72.6086 83.2811 72.6086C83.2811 72.6086 83.2811 72.6086 83.2811 72.6086C83.2811 72.6086 83.2811 72.6086 83.2811 72.6086C83.2811 72.6086 83.2811 72.6086 83.2811 72.6086C83.2811 72.6086 83.2811 72.6086 83.2811 72.6086C83.2811 72.6086 83.2811 72.6086 83.2811 72.6086C83.2811 72.6086 83.2811 72.6086 83.2811 72.6086C83.2811 72.6086 83.2811 72.6086 83.2811 72.6086C83.2811 72.6086 83.2811 72.6086 83.2811 72.6086C83.2811 72.6086 83.2811 72.6086 83.2811 72.6086C83.2811 72.6086 83.2811 72.6086 83.2811 72.6086C83.2811 72.6086 83.2811 72.6086 83.2811 72.6086C83.2811 72.6086 83.2811 72.6086 83.2811 72.6086C83.2811 72.6086 83.2811 72.6086 83.2811 72.6086C83.2811 72.6086 83.2811 72.6086 83.2811 72.6086C83.2811 72.6086 83.2811 72.6086 83.2811 72.6086C83.2811 72.6086 83.2811 72.6086 83.2811 72.6086C83.2811 72.6086 83.2811 72.6086 83.2811 72.6086C83.2811 72.6086 83.2811 72.6086 83.2811 72.6086C83.2811 72.6086 83.2811 72.6086 83.2811 72.6086C83.2811 72.6086 83.2811 72.6086 83.2811 72.6086C83.2811 72.6086 83.2811 72.6086 83.2811 72.6086C83.2811 72.6086 83.2811 72.6086 83.2811 72.6086C83.2811 72.6086 83.2811 72.6086 83.2811 72.6086C83.2811 72.6086 83.2811 72.6086 83.2811 72.6086C83.2811 72.6086 83.2811 72.6086 83.2811 72.6086C83.2811 72.6086 83.2811 72.6086 83.2811 72.6086C83.2811 72.6086 83.2811 72.6086 83.2811 72.6086C83.2811 72.6086 83.2811 72.6086 83.2811 72.6086C83.2811 72.6086 83.2811 72.6086 83.2811 72.6086C83.2811 72.6086 83.2811 72.6086 83.2811 72.6086C83.2811 72.6086 83.2811 72.6086 83.2811 72.6086C83.2811 72.6086 83.2811 72.6086 83.2811 72.6086C83.2811 72.6086 83.2811 72.6086 83.2811 72.6086C83.2811 72.6086 83.2811 72.6086 83.2811 72.6086C83.2811 72.6085 83.2811 72.6085 83.2811 72.6085C83.2811 72.6085 83.2811 72.6085 83.2811 72.6085C83.2811 72.6085 83.2811 72.6085 83.2811 72.6085C83.2811 72.6085 83.2811 72.6085 83.2811 72.6085C83.2811 72.6085 83.2811 72.6085 83.2811 72.6085C83.2811 72.6085 83.2811 72.6085 83.2811 72.6085C83.2811 72.6085 83.2811 72.6085 83.2811 72.6085C83.2811 72.6085 83.2811 72.6085 83.2811 72.6085C83.2811 72.6085 83.2811 72.6085 83.2811 72.6085C83.2811 72.6085 83.2811 72.6085 83.2811 72.6085C83.2811 72.6085 83.2811 72.6085 83.2811 72.6085C83.2811 72.6085 83.2811 72.6085 83.2811 72.6085C83.2811 72.6085 83.2811 72.6085 83.2811 72.6085C83.2811 72.6085 83.2811 72.6085 83.2811 72.6085C83.2811 72.6085 83.2811 72.6085 83.2811 72.6085C83.2811 72.6085 83.2811 72.6085 83.2811 72.6085C83.2811 72.6085 83.2811 72.6085 83.2811 72.6085C83.2811 72.6085 83.2811 72.6085 83.2811 72.6085C83.2811 72.6085 83.2811 72.6085 83.2811 72.6085C83.2811 72.6085 83.2811 72.6085 83.2811 72.6085C83.2811 72.6085 83.2811 72.6085 83.2811 72.6085L81.3097 72.2715ZM85.0752 71.9008L82.4639 71.4543L82.1269 73.4257L84.7381 73.8722L85.0752 71.9008ZM87.0205 77.8125C86.0115 76.4249 85.6088 74.7136 85.8924 73.055L83.921 72.718C83.5452 74.9157 84.0814 77.1713 85.4029 78.9887L87.0205 77.8125ZM91.2886 80.4458C89.5645 80.151 88.0302 79.2011 87.0205 77.8125L85.4029 78.9887C86.7237 80.8051 88.7205 82.0357 90.9516 82.4172L91.2886 80.4458ZM96.1893 79.3802C94.7756 80.3544 93.0127 80.7406 91.2886 80.4458L90.9516 82.4172C93.1826 82.7986 95.4749 82.3014 97.3241 81.027L96.1893 79.3802ZM98.8339 75.2678C98.5503 76.9263 97.602 78.4067 96.1893 79.3802L97.3241 81.027C99.1744 79.752 100.43 77.8026 100.805 75.6049L98.8339 75.2678ZM102.599 74.8971L99.9882 74.4506L99.6511 76.422L102.262 76.8685L102.599 74.8971ZM98.8628 83.1431C101.284 81.4743 102.925 78.9243 103.417 76.0514L101.445 75.7143C101.046 78.0481 99.712 80.1289 97.7279 81.4962L98.8628 83.1431ZM90.5162 84.9632C93.4399 85.4631 96.4422 84.8112 98.8628 83.1431L97.7279 81.4962C95.7429 82.8642 93.27 83.405 90.8533 82.9918L90.5162 84.9632ZM83.2486 80.4733C84.9775 82.8509 87.5926 84.4633 90.5162 84.9632L90.8533 82.9918C88.4367 82.5786 86.2839 81.2469 84.8662 79.2971L83.2486 80.4733ZM81.8009 77.7473C82.1484 78.709 82.6335 79.6274 83.2486 80.4733L84.8662 79.2971C84.362 78.6037 83.9655 77.8525 83.6818 77.0675L81.8009 77.7473ZM81.2441 80.1307C82.1054 79.5372 82.8681 78.8321 83.5155 78.0405L81.9672 76.7744C81.4388 77.4206 80.8152 77.9974 80.1092 78.4839L81.2441 80.1307ZM72.8976 81.9509C75.8212 82.4507 78.8235 81.7989 81.2441 80.1307L80.1092 78.4839C78.1242 79.8519 75.6513 80.3927 73.2346 79.9795L72.8976 81.9509ZM65.6299 77.461C67.3588 79.8386 69.9739 81.451 72.8976 81.9509L73.2346 79.9795C70.818 79.5663 68.6653 78.2346 67.2475 76.2848L65.6299 77.461ZM64.1826 74.7362C64.5301 75.6975 65.0151 76.6154 65.6299 77.461L67.2475 76.2848C66.7435 75.5916 66.3471 74.8408 66.0635 74.0562L64.1826 74.7362ZM63.6267 77.1184C64.4875 76.5252 65.2499 75.8205 65.8971 75.0293L64.349 73.763C63.8208 74.4088 63.1975 74.9853 62.4918 75.4716L63.6267 77.1184ZM55.2801 78.9386C58.2038 79.4384 61.2061 78.7866 63.6267 77.1184L62.4918 75.4716C60.5067 76.8396 58.0339 77.3804 55.6172 76.9672L55.2801 78.9386ZM48.0125 74.4487C49.7413 76.8263 52.3565 78.4387 55.2801 78.9386L55.6172 76.9672C53.2006 76.554 51.0478 75.2223 49.6301 73.2725L48.0125 74.4487ZM46.376 71.1516C46.7269 72.321 47.2766 73.4367 48.0125 74.4487L49.6301 73.2725C49.0269 72.443 48.5779 71.5307 48.2917 70.5769L46.376 71.1516ZM45.5029 74.0195C46.5332 73.3095 47.4223 72.4399 48.1418 71.4535L46.5259 70.2749C45.9391 71.0795 45.2125 71.7907 44.3681 72.3726L45.5029 74.0195ZM37.1564 75.8396C40.08 76.3395 43.0823 75.6876 45.5029 74.0195L44.3681 72.3726C42.383 73.7406 39.9101 74.2814 37.4935 73.8682L37.1564 75.8396ZM29.8888 71.3497C31.6176 73.7273 34.2328 75.3397 37.1564 75.8396L37.4935 73.8682C35.0768 73.455 32.9241 72.1233 31.5063 70.1735L29.8888 71.3497Z" fill="#333848" mask="url(#path-3-inside-1_137_939)"/>
<rect x="46.7015" y="66.8623" width="2.77323" height="3.40211" rx="0.5" transform="rotate(9.70273 46.7015 66.8623)" fill="white" stroke="#333848"/>
<rect x="28.725" y="63.789" width="2.77323" height="3.40211" rx="0.5" transform="rotate(9.70273 28.725 63.789)" fill="white" stroke="#333848"/>
<rect x="64.6762" y="69.9355" width="2.77323" height="3.40211" rx="0.5" transform="rotate(9.70273 64.6762 69.9355)" fill="white" stroke="#333848"/>
<rect x="82.0355" y="72.9043" width="2.77323" height="3.40211" rx="0.5" transform="rotate(9.70273 82.0355 72.9043)" fill="white" stroke="#333848"/>
<rect x="99.391" y="75.8711" width="2.77323" height="3.40211" rx="0.5" transform="rotate(9.70273 99.391 75.8711)" fill="white" stroke="#333848"/>
<path d="M22.3052 54.8445L168.968 80.5605C170.963 80.9104 172.19 82.7892 171.708 84.7569C171.226 86.7247 169.218 88.0362 167.223 87.6863L20.5603 61.9702L22.3052 54.8445Z" fill="white" stroke="#333848"/>
<path d="M27.4556 58.7758C28.3553 54.4335 25.4886 50.2065 21.1215 49.4363L11.0693 47.6633C9.70828 47.4233 8.45654 48.4605 8.43952 49.8424L8.29999 61.1691C8.28809 62.1353 8.96261 62.9744 9.9088 63.1705L18.1601 64.8802C22.4127 65.7614 26.5744 63.0284 27.4556 58.7758Z" fill="white" stroke="#333848"/>
<circle cx="21.7515" cy="57.7863" r="2.64436" transform="rotate(11.7066 21.7515 57.7863)" fill="white" stroke="#333848"/>
<line x1="163.312" y1="79.256" x2="162.035" y2="86.9181" stroke="#333848"/>
</svg>
