<svg width="245" height="244" viewBox="0 0 245 244" fill="none" xmlns="http://www.w3.org/2000/svg">
<rect x="212.01" y="79.1221" width="13.4593" height="164.378" fill="white" stroke="#333848"/>
<rect x="212.01" y="64.6631" width="13.4593" height="14.363" fill="white" stroke="#333848"/>
<path d="M223.357 48.7024L233.958 50.8991C239.281 52.0019 242.701 57.2106 241.598 62.5329C240.495 67.8552 235.287 71.2758 229.965 70.1729L219.363 67.9762L223.357 48.7024Z" fill="white" stroke="#333848"/>
<mask id="path-4-inside-1_137_822" fill="white">
<path fill-rule="evenodd" clip-rule="evenodd" d="M64.1926 33.8547L64.1926 33.8543L68.2554 34.6962C67.6338 37.6961 68.2599 40.8264 69.996 43.3984C71.7321 45.9705 74.4359 47.7736 77.5127 48.4111C80.5895 49.0487 83.7872 48.4684 86.4024 46.798C89.0176 45.1276 90.836 42.5038 91.4576 39.5039L95.5203 40.3458L95.6666 40.3761C95.045 43.376 95.6711 46.5063 97.4071 49.0783C99.1432 51.6504 101.847 53.4535 104.924 54.091C108.001 54.7286 111.198 54.1483 113.814 52.4779C116.429 50.8075 118.247 48.1837 118.869 45.1839L122.932 46.0257L123.078 46.056C122.456 49.0559 123.082 52.1862 124.818 54.7582C126.554 57.3303 129.258 59.1334 132.335 59.771C135.412 60.4085 138.61 59.8283 141.225 58.1578C143.84 56.4874 145.658 53.8637 146.28 50.8638L150.343 51.7056C149.503 55.7561 147.048 59.2987 143.517 61.5541C139.986 63.8095 135.669 64.593 131.514 63.7322C127.36 62.8713 123.709 60.4367 121.365 56.9639C120.531 55.7288 119.887 54.3982 119.441 53.0142C118.482 54.107 117.362 55.072 116.106 55.8742C112.575 58.1296 108.257 58.9131 104.103 58.0522C99.9488 57.1914 96.298 54.7568 93.954 51.284C93.1202 50.0488 92.4761 48.7183 92.0299 47.3342C91.0705 48.427 89.9507 49.3921 88.6948 50.1943C85.1638 52.4497 80.8462 53.2331 76.6919 52.3723C72.5376 51.5115 68.8869 49.0769 66.5428 45.6041C65.5456 44.1267 64.8196 42.513 64.3792 40.8343C63.308 42.1999 62.0004 43.3924 60.4982 44.3519C56.9672 46.6074 52.6496 47.3908 48.4953 46.53C44.341 45.6692 40.6902 43.2346 38.3462 39.7618C36.0021 36.289 35.1567 32.0625 35.996 28.012L40.0588 28.8539C39.4372 31.8538 40.0633 34.984 41.7994 37.5561C43.5354 40.1281 46.2393 41.9313 49.3161 42.5688C52.3929 43.2064 55.5906 42.6261 58.2058 40.9557C60.821 39.2853 62.6394 36.6615 63.261 33.6616L64.1926 33.8547Z"/>
</mask>
<path fill-rule="evenodd" clip-rule="evenodd" d="M64.1926 33.8547L64.1926 33.8543L68.2554 34.6962C67.6338 37.6961 68.2599 40.8264 69.996 43.3984C71.7321 45.9705 74.4359 47.7736 77.5127 48.4111C80.5895 49.0487 83.7872 48.4684 86.4024 46.798C89.0176 45.1276 90.836 42.5038 91.4576 39.5039L95.5203 40.3458L95.6666 40.3761C95.045 43.376 95.6711 46.5063 97.4071 49.0783C99.1432 51.6504 101.847 53.4535 104.924 54.091C108.001 54.7286 111.198 54.1483 113.814 52.4779C116.429 50.8075 118.247 48.1837 118.869 45.1839L122.932 46.0257L123.078 46.056C122.456 49.0559 123.082 52.1862 124.818 54.7582C126.554 57.3303 129.258 59.1334 132.335 59.771C135.412 60.4085 138.61 59.8283 141.225 58.1578C143.84 56.4874 145.658 53.8637 146.28 50.8638L150.343 51.7056C149.503 55.7561 147.048 59.2987 143.517 61.5541C139.986 63.8095 135.669 64.593 131.514 63.7322C127.36 62.8713 123.709 60.4367 121.365 56.9639C120.531 55.7288 119.887 54.3982 119.441 53.0142C118.482 54.107 117.362 55.072 116.106 55.8742C112.575 58.1296 108.257 58.9131 104.103 58.0522C99.9488 57.1914 96.298 54.7568 93.954 51.284C93.1202 50.0488 92.4761 48.7183 92.0299 47.3342C91.0705 48.427 89.9507 49.3921 88.6948 50.1943C85.1638 52.4497 80.8462 53.2331 76.6919 52.3723C72.5376 51.5115 68.8869 49.0769 66.5428 45.6041C65.5456 44.1267 64.8196 42.513 64.3792 40.8343C63.308 42.1999 62.0004 43.3924 60.4982 44.3519C56.9672 46.6074 52.6496 47.3908 48.4953 46.53C44.341 45.6692 40.6902 43.2346 38.3462 39.7618C36.0021 36.289 35.1567 32.0625 35.996 28.012L40.0588 28.8539C39.4372 31.8538 40.0633 34.984 41.7994 37.5561C43.5354 40.1281 46.2393 41.9313 49.3161 42.5688C52.3929 43.2064 55.5906 42.6261 58.2058 40.9557C60.821 39.2853 62.6394 36.6615 63.261 33.6616L64.1926 33.8547Z" fill="white"/>
<path d="M64.1926 33.8543L64.3955 32.8751L63.4163 32.6722L63.2134 33.6514L64.1926 33.8543ZM64.1926 33.8547L63.9897 34.8339L64.9689 35.0368L65.1718 34.0576L64.1926 33.8547ZM68.2554 34.6962L69.2346 34.8991L69.4375 33.9199L68.4583 33.717L68.2554 34.6962ZM69.996 43.3984L70.8248 42.8389L70.8248 42.8389L69.996 43.3984ZM77.5127 48.4111L77.3098 49.3903L77.5127 48.4111ZM86.4024 46.798L86.9407 47.6407L86.9407 47.6407L86.4024 46.798ZM91.4576 39.5039L91.6605 38.5247L90.6813 38.3218L90.4784 39.301L91.4576 39.5039ZM95.5203 40.3458L95.7234 39.3666L95.7232 39.3666L95.5203 40.3458ZM95.6666 40.3761L96.6458 40.579L96.8486 39.6L95.8696 39.3969L95.6666 40.3761ZM97.4071 49.0783L96.5783 49.6378L96.5783 49.6378L97.4071 49.0783ZM104.924 54.091L104.721 55.0702L104.924 54.091ZM113.814 52.4779L113.275 51.6352L113.275 51.6352L113.814 52.4779ZM118.869 45.1839L119.072 44.2047L118.092 44.0018L117.89 44.981L118.869 45.1839ZM122.932 46.0257L123.135 45.0465L123.134 45.0465L122.932 46.0257ZM123.078 46.056L124.057 46.2589L124.26 45.2799L123.281 45.0769L123.078 46.056ZM124.818 54.7582L123.989 55.3177L123.989 55.3177L124.818 54.7582ZM132.335 59.771L132.132 60.7502L132.335 59.771ZM141.225 58.1578L140.686 57.3151L140.686 57.3151L141.225 58.1578ZM146.28 50.8638L146.483 49.8846L145.504 49.6817L145.301 50.6609L146.28 50.8638ZM150.343 51.7056L151.322 51.9085L151.525 50.9293L150.546 50.7264L150.343 51.7056ZM143.517 61.5541L142.979 60.7113L142.979 60.7113L143.517 61.5541ZM131.514 63.7322L131.311 64.7114L131.514 63.7322ZM121.365 56.9639L120.536 57.5234L120.536 57.5234L121.365 56.9639ZM119.441 53.0142L120.393 52.7073L119.852 51.0302L118.69 52.3544L119.441 53.0142ZM116.106 55.8742L116.644 56.7169L116.106 55.8742ZM104.103 58.0522L103.9 59.0314L104.103 58.0522ZM93.954 51.284L94.7828 50.7246L93.954 51.284ZM92.0299 47.3342L92.9817 47.0274L92.441 45.3502L91.2784 46.6745L92.0299 47.3342ZM88.6948 50.1943L88.1565 49.3515L88.6948 50.1943ZM76.6919 52.3723L76.489 53.3515L76.6919 52.3723ZM66.5428 45.6041L65.7139 46.1636L65.7139 46.1636L66.5428 45.6041ZM64.3792 40.8343L65.3465 40.5806L64.8354 38.6327L63.5924 40.2171L64.3792 40.8343ZM60.4982 44.3519L61.0365 45.1947L60.4982 44.3519ZM48.4953 46.53L48.2924 47.5092L48.4953 46.53ZM38.3462 39.7618L37.5173 40.3213L37.5173 40.3213L38.3462 39.7618ZM35.996 28.012L36.1989 27.0328L35.2197 26.8299L35.0168 27.8091L35.996 28.012ZM40.0588 28.8539L41.038 29.0568L41.2409 28.0776L40.2617 27.8747L40.0588 28.8539ZM41.7994 37.5561L42.6282 36.9966L41.7994 37.5561ZM49.3161 42.5688L49.1132 43.548L49.3161 42.5688ZM58.2058 40.9557L57.6675 40.1129L57.6675 40.1129L58.2058 40.9557ZM63.261 33.6616L63.4639 32.6824L62.4847 32.4795L62.2818 33.4587L63.261 33.6616ZM63.2134 33.6514L63.2134 33.6518L65.1718 34.0576L65.1718 34.0572L63.2134 33.6514ZM68.4583 33.717L64.3955 32.8751L63.9897 34.8335L68.0525 35.6754L68.4583 33.717ZM70.8248 42.8389C69.2374 40.4871 68.6685 37.6312 69.2346 34.8991L67.2762 34.4933C66.5991 37.761 67.2824 41.1656 69.1671 43.9579L70.8248 42.8389ZM77.7156 47.4319C74.8906 46.8466 72.413 45.1918 70.8248 42.8389L69.1671 43.9579C71.0512 46.7491 73.9812 48.7006 77.3098 49.3903L77.7156 47.4319ZM85.8641 45.9552C83.4718 47.4833 80.5406 48.0173 77.7156 47.4319L77.3098 49.3903C80.6384 50.0801 84.1026 49.4535 86.9407 47.6407L85.8641 45.9552ZM90.4784 39.301C89.9123 42.0331 88.2554 44.4278 85.8641 45.9552L86.9407 47.6407C89.7798 45.8273 91.7597 42.9745 92.4368 39.7068L90.4784 39.301ZM95.7232 39.3666L91.6605 38.5247L91.2547 40.4831L95.3174 41.325L95.7232 39.3666ZM95.8696 39.3969L95.7234 39.3666L95.3173 41.325L95.4635 41.3553L95.8696 39.3969ZM98.236 48.5189C96.6486 46.167 96.0797 43.3111 96.6458 40.579L94.6874 40.1732C94.0103 43.4409 94.6936 46.8455 96.5783 49.6378L98.236 48.5189ZM105.127 53.1119C102.302 52.5265 99.8241 50.8717 98.236 48.5189L96.5783 49.6378C98.4624 52.4291 101.392 54.3805 104.721 55.0702L105.127 53.1119ZM113.275 51.6352C110.883 53.1632 107.952 53.6972 105.127 53.1119L104.721 55.0702C108.05 55.76 111.514 55.1335 114.352 53.3207L113.275 51.6352ZM117.89 44.981C117.323 47.713 115.667 50.1078 113.275 51.6352L114.352 53.3207C117.191 51.5072 119.171 48.6545 119.848 45.3868L117.89 44.981ZM123.134 45.0465L119.072 44.2047L118.666 46.1631L122.729 47.0049L123.134 45.0465ZM123.281 45.0769L123.135 45.0465L122.728 47.0049L122.875 47.0352L123.281 45.0769ZM125.647 54.1988C124.06 51.8469 123.491 48.991 124.057 46.2589L122.099 45.8531C121.421 49.1208 122.105 52.5254 123.989 55.3177L125.647 54.1988ZM132.538 58.7918C129.713 58.2064 127.235 56.5516 125.647 54.1988L123.989 55.3177C125.874 58.109 128.804 60.0604 132.132 60.7502L132.538 58.7918ZM140.686 57.3151C138.294 58.8431 135.363 59.3771 132.538 58.7918L132.132 60.7502C135.461 61.4399 138.925 60.8134 141.763 59.0006L140.686 57.3151ZM145.301 50.6609C144.735 53.3929 143.078 55.7877 140.686 57.3151L141.763 59.0006C144.602 57.1871 146.582 54.3344 147.259 51.0667L145.301 50.6609ZM150.546 50.7264L146.483 49.8846L146.077 51.843L150.14 52.6848L150.546 50.7264ZM144.055 62.3968C147.81 59.9984 150.427 56.2268 151.322 51.9085L149.363 51.5027C148.58 55.2854 146.286 58.5989 142.979 60.7113L144.055 62.3968ZM131.311 64.7114C135.717 65.6244 140.302 64.7946 144.055 62.3968L142.979 60.7113C139.671 62.8244 135.62 63.5616 131.717 62.753L131.311 64.7114ZM120.536 57.5234C123.028 61.2154 126.905 63.7984 131.311 64.7114L131.717 62.753C127.815 61.9443 124.39 59.6581 122.194 56.4045L120.536 57.5234ZM118.489 53.321C118.964 54.7945 119.65 56.2101 120.536 57.5234L122.194 56.4045C121.413 55.2474 120.81 54.002 120.393 52.7073L118.489 53.321ZM116.644 56.7169C117.98 55.864 119.171 54.8373 120.193 53.6739L118.69 52.3544C117.792 53.3766 116.744 54.28 115.568 55.0314L116.644 56.7169ZM103.9 59.0314C108.306 59.9444 112.89 59.1147 116.644 56.7169L115.568 55.0314C112.26 57.1445 108.208 57.8817 104.306 57.073L103.9 59.0314ZM93.1251 51.8435C95.6171 55.5355 99.4941 58.1184 103.9 59.0314L104.306 57.073C100.403 56.2644 96.9789 53.9781 94.7828 50.7246L93.1251 51.8435ZM91.0781 47.641C91.5531 49.1145 92.2386 50.5302 93.1251 51.8435L94.7828 50.7246C94.0018 49.5675 93.399 48.322 92.9817 47.0274L91.0781 47.641ZM89.2331 51.037C90.5685 50.1841 91.76 49.1574 92.7814 47.994L91.2784 46.6745C90.381 47.6967 89.333 48.6001 88.1565 49.3515L89.2331 51.037ZM76.489 53.3515C80.8951 54.2645 85.4792 53.4348 89.2331 51.037L88.1565 49.3515C84.8484 51.4645 80.7973 52.2018 76.8948 51.3931L76.489 53.3515ZM65.7139 46.1636C68.206 49.8556 72.0829 52.4385 76.489 53.3515L76.8948 51.3931C72.9923 50.5845 69.5677 48.2982 67.3716 45.0446L65.7139 46.1636ZM63.4119 41.0881C63.8809 42.8756 64.6536 44.5927 65.7139 46.1636L67.3716 45.0446C66.4375 43.6608 65.7583 42.1503 65.3465 40.5806L63.4119 41.0881ZM61.0365 45.1947C62.6338 44.1744 64.0253 42.9056 65.166 41.4516L63.5924 40.2171C62.5906 41.4941 61.3671 42.6104 59.9599 43.5092L61.0365 45.1947ZM48.2924 47.5092C52.6985 48.4222 57.2826 47.5925 61.0365 45.1947L59.9599 43.5092C56.6518 45.6222 52.6007 46.3595 48.6982 45.5508L48.2924 47.5092ZM37.5173 40.3213C40.0093 44.0133 43.8863 46.5962 48.2924 47.5092L48.6982 45.5508C44.7957 44.7422 41.3711 42.4559 39.175 39.2023L37.5173 40.3213ZM35.0168 27.8091C34.122 32.1274 35.0246 36.6283 37.5173 40.3213L39.175 39.2023C36.9796 35.9498 36.1914 31.9976 36.9752 28.2149L35.0168 27.8091ZM40.2617 27.8747L36.1989 27.0328L35.7931 28.9912L39.8559 29.8331L40.2617 27.8747ZM42.6282 36.9966C41.0408 34.6448 40.4719 31.7889 41.038 29.0568L39.0796 28.651C38.4025 31.9187 39.0858 35.3233 40.9705 38.1156L42.6282 36.9966ZM49.519 41.5896C46.694 41.0043 44.2163 39.3495 42.6282 36.9966L40.9705 38.1156C42.8546 40.9068 45.7846 42.8583 49.1132 43.548L49.519 41.5896ZM57.6675 40.1129C55.2752 41.641 52.344 42.175 49.519 41.5896L49.1132 43.548C52.4418 44.2378 55.906 43.6112 58.7441 41.7984L57.6675 40.1129ZM62.2818 33.4587C61.7157 36.1908 60.0588 38.5855 57.6675 40.1129L58.7441 41.7984C61.5832 39.985 63.5631 37.1322 64.2402 33.8645L62.2818 33.4587ZM64.3955 32.8755L63.4639 32.6824L63.0581 34.6408L63.9897 34.8339L64.3955 32.8755Z" fill="#333848" mask="url(#path-4-inside-1_137_822)"/>
<rect x="63.3901" y="34.1985" width="4.90951" height="5.89442" rx="0.5" transform="rotate(11.7066 63.3901 34.1985)" fill="white" stroke="#333848"/>
<rect x="35.4214" y="28.4045" width="4.90951" height="5.89442" rx="0.5" transform="rotate(11.7066 35.4214 28.4045)" fill="white" stroke="#333848"/>
<rect x="91.3569" y="39.9944" width="4.90951" height="5.89442" rx="0.5" transform="rotate(11.7066 91.3569 39.9944)" fill="white" stroke="#333848"/>
<rect x="118.363" y="45.5901" width="4.90951" height="5.89442" rx="0.5" transform="rotate(11.7066 118.363 45.5901)" fill="white" stroke="#333848"/>
<rect x="145.367" y="51.1858" width="4.90951" height="5.89442" rx="0.5" transform="rotate(11.7066 145.367 51.1858)" fill="white" stroke="#333848"/>
<rect x="24.0073" y="7.39378" width="203.722" height="19.4722" transform="rotate(11.7066 24.0073 7.39378)" fill="white" stroke="#333848"/>
<path d="M33.3516 18.9135C34.7856 11.9932 30.338 5.22082 23.4178 3.78687L10.4423 1.09821C9.0903 0.818058 7.76719 1.68696 7.48704 3.03895L3.30875 23.2034C3.02861 24.5554 3.89751 25.8785 5.2495 26.1586L18.225 28.8473C25.1453 30.2812 31.9177 25.8337 33.3516 18.9135Z" fill="white" stroke="#333848"/>
<circle cx="24.0983" cy="17.4991" r="4.42459" transform="rotate(11.7066 24.0983 17.4991)" fill="white" stroke="#333848"/>
</svg>
