<svg width="281" height="168" viewBox="0 0 281 168" fill="none" xmlns="http://www.w3.org/2000/svg">
<rect x="137.221" y="0.548828" width="6.4174" height="166.951" fill="white" stroke="#333848"/>
<path d="M144.5 7.81451L254.5 63.6493L254.5 65.1855L144.5 9.35073L144.5 7.81451Z" fill="white" stroke="#333848"/>
<mask id="path-3-inside-1_137_982" fill="white">
<path fill-rule="evenodd" clip-rule="evenodd" d="M205.008 60.1597C205.008 60.1597 205.008 60.1596 205.008 60.1596L207.175 60.5301C206.902 62.13 207.291 63.7758 208.258 65.1056C209.225 66.4353 210.69 67.3399 212.331 67.6205C213.972 67.9011 215.654 67.5346 217.008 66.6017C218.362 65.6687 219.276 64.2458 219.549 62.6459L221.716 63.0164C221.347 65.1766 220.113 67.0978 218.285 68.3575C216.457 69.6171 214.185 70.1119 211.97 69.7331C209.754 69.3543 207.776 68.1328 206.47 66.3374C206.006 65.6985 205.64 65.0054 205.378 64.2804C204.89 64.8773 204.315 65.4094 203.664 65.8577C201.836 67.1174 199.565 67.6122 197.349 67.2334C195.133 66.8545 193.155 65.6331 191.85 63.8377C191.386 63.1995 191.02 62.5075 190.758 61.7834C190.271 62.3797 189.696 62.9113 189.046 63.3592C187.218 64.6188 184.946 65.1136 182.731 64.7348C180.515 64.356 178.537 63.1345 177.231 61.3391C176.676 60.5749 176.261 59.7333 175.997 58.8521C175.455 59.5951 174.785 60.2509 174.007 60.7869C172.179 62.0466 169.907 62.5414 167.692 62.1626C165.476 61.7837 163.498 60.5623 162.192 58.7669C160.887 56.9715 160.361 54.7493 160.73 52.5891L162.897 52.9595C162.624 54.5595 163.013 56.2053 163.98 57.535C164.947 58.8647 166.412 59.7694 168.053 60.05C169.694 60.3305 171.376 59.964 172.73 59.0311C174.084 58.0982 174.998 56.6753 175.272 55.0753L177.438 55.4458L177.438 55.4466L177.936 55.5318C177.663 57.1317 178.052 58.7775 179.019 60.1072C179.986 61.437 181.451 62.3416 183.092 62.6222C184.733 62.9028 186.415 62.5363 187.769 61.6033C189.123 60.6704 190.037 59.2475 190.311 57.6476L190.387 57.6607L190.388 57.6598L192.554 58.0303C192.281 59.6302 192.67 61.2761 193.637 62.6058C194.604 63.9355 196.069 64.8402 197.71 65.1207C199.351 65.4013 201.034 65.0348 202.387 64.1019C203.741 63.169 204.655 61.746 204.929 60.1461L205.008 60.1597Z"/>
</mask>
<path fill-rule="evenodd" clip-rule="evenodd" d="M205.008 60.1597C205.008 60.1597 205.008 60.1596 205.008 60.1596L207.175 60.5301C206.902 62.13 207.291 63.7758 208.258 65.1056C209.225 66.4353 210.69 67.3399 212.331 67.6205C213.972 67.9011 215.654 67.5346 217.008 66.6017C218.362 65.6687 219.276 64.2458 219.549 62.6459L221.716 63.0164C221.347 65.1766 220.113 67.0978 218.285 68.3575C216.457 69.6171 214.185 70.1119 211.97 69.7331C209.754 69.3543 207.776 68.1328 206.47 66.3374C206.006 65.6985 205.64 65.0054 205.378 64.2804C204.89 64.8773 204.315 65.4094 203.664 65.8577C201.836 67.1174 199.565 67.6122 197.349 67.2334C195.133 66.8545 193.155 65.6331 191.85 63.8377C191.386 63.1995 191.02 62.5075 190.758 61.7834C190.271 62.3797 189.696 62.9113 189.046 63.3592C187.218 64.6188 184.946 65.1136 182.731 64.7348C180.515 64.356 178.537 63.1345 177.231 61.3391C176.676 60.5749 176.261 59.7333 175.997 58.8521C175.455 59.5951 174.785 60.2509 174.007 60.7869C172.179 62.0466 169.907 62.5414 167.692 62.1626C165.476 61.7837 163.498 60.5623 162.192 58.7669C160.887 56.9715 160.361 54.7493 160.73 52.5891L162.897 52.9595C162.624 54.5595 163.013 56.2053 163.98 57.535C164.947 58.8647 166.412 59.7694 168.053 60.05C169.694 60.3305 171.376 59.964 172.73 59.0311C174.084 58.0982 174.998 56.6753 175.272 55.0753L177.438 55.4458L177.438 55.4466L177.936 55.5318C177.663 57.1317 178.052 58.7775 179.019 60.1072C179.986 61.437 181.451 62.3416 183.092 62.6222C184.733 62.9028 186.415 62.5363 187.769 61.6033C189.123 60.6704 190.037 59.2475 190.311 57.6476L190.387 57.6607L190.388 57.6598L192.554 58.0303C192.281 59.6302 192.67 61.2761 193.637 62.6058C194.604 63.9355 196.069 64.8402 197.71 65.1207C199.351 65.4013 201.034 65.0348 202.387 64.1019C203.741 63.169 204.655 61.746 204.929 60.1461L205.008 60.1597Z" fill="white"/>
<path d="M205.008 60.1596L205.177 59.1739L204.191 59.0054L204.023 59.991L205.008 60.1596ZM205.008 60.1597L204.84 61.1454L205.825 61.3139L205.994 60.3282L205.008 60.1597ZM207.175 60.5301L208.161 60.6986L208.329 59.7129L207.344 59.5444L207.175 60.5301ZM208.258 65.1056L207.449 65.6937L207.449 65.6937L208.258 65.1056ZM212.331 67.6205L212.499 66.6348L212.331 67.6205ZM217.008 66.6017L217.575 67.4251L217.575 67.4251L217.008 66.6017ZM219.549 62.6459L219.718 61.6602L218.732 61.4916L218.564 62.4773L219.549 62.6459ZM221.716 63.0164L222.702 63.1849L222.87 62.1992L221.885 62.0307L221.716 63.0164ZM218.285 68.3575L217.717 67.5341L217.717 67.5341L218.285 68.3575ZM211.97 69.7331L212.138 68.7474L211.97 69.7331ZM206.47 66.3374L205.662 66.9255L206.47 66.3374ZM205.378 64.2804L206.318 63.9406L205.719 62.2826L204.604 63.6474L205.378 64.2804ZM203.664 65.8577L203.097 65.0343L203.097 65.0343L203.664 65.8577ZM197.349 67.2334L197.517 66.2477L197.349 67.2334ZM191.85 63.8377L192.658 63.2496L192.658 63.2496L191.85 63.8377ZM190.758 61.7834L191.699 61.4434L191.1 59.7867L189.984 61.1503L190.758 61.7834ZM189.046 63.3592L189.613 64.1826L189.613 64.1826L189.046 63.3592ZM182.731 64.7348L182.899 63.7491L182.731 64.7348ZM177.231 61.3391L178.04 60.751L178.04 60.751L177.231 61.3391ZM175.997 58.8521L176.955 58.5648L176.376 56.6352L175.189 58.2628L175.997 58.8521ZM174.007 60.7869L173.439 59.9635L173.439 59.9635L174.007 60.7869ZM167.692 62.1626L167.86 61.1769L167.692 62.1626ZM162.192 58.7669L163.001 58.1788L162.192 58.7669ZM160.73 52.5891L160.899 51.6034L159.913 51.4348L159.745 52.4205L160.73 52.5891ZM162.897 52.9595L163.883 53.1281L164.051 52.1424L163.066 51.9738L162.897 52.9595ZM168.053 60.05L168.222 59.0643L168.053 60.05ZM172.73 59.0311L172.163 58.2077L172.163 58.2077L172.73 59.0311ZM175.272 55.0753L175.44 54.0896L174.454 53.9211L174.286 54.9068L175.272 55.0753ZM177.438 55.4458L178.424 55.6144L178.593 54.6287L177.607 54.4601L177.438 55.4458ZM177.438 55.4466L176.453 55.2781L176.284 56.2638L177.27 56.4323L177.438 55.4466ZM177.936 55.5318L178.922 55.7003L179.09 54.7146L178.105 54.5461L177.936 55.5318ZM183.092 62.6222L183.26 61.6365L183.092 62.6222ZM190.311 57.6476L190.479 56.6619L189.493 56.4933L189.325 57.479L190.311 57.6476ZM190.387 57.6607L190.219 58.6464L191.205 58.815L191.373 57.8293L190.387 57.6607ZM190.388 57.6598L190.556 56.6741L189.57 56.5056L189.402 57.4913L190.388 57.6598ZM192.554 58.0303L193.54 58.1989L193.709 57.2132L192.723 57.0446L192.554 58.0303ZM193.637 62.6058L192.828 63.1939L192.828 63.1939L193.637 62.6058ZM197.71 65.1207L197.879 64.135L197.71 65.1207ZM202.387 64.1019L202.955 64.9253L202.955 64.9253L202.387 64.1019ZM204.929 60.1461L205.097 59.1604L204.112 58.9919L203.943 59.9776L204.929 60.1461ZM204.023 59.991C204.023 59.991 204.023 59.991 204.023 59.991C204.023 59.991 204.023 59.991 204.023 59.991C204.023 59.991 204.023 59.991 204.023 59.991C204.023 59.991 204.023 59.991 204.023 59.991C204.023 59.991 204.023 59.991 204.023 59.991C204.023 59.991 204.023 59.991 204.023 59.991C204.023 59.991 204.023 59.991 204.023 59.991C204.023 59.991 204.023 59.991 204.023 59.991C204.023 59.991 204.023 59.991 204.023 59.991C204.023 59.991 204.023 59.991 204.023 59.991C204.023 59.991 204.023 59.991 204.023 59.991C204.023 59.991 204.023 59.991 204.023 59.991C204.023 59.991 204.023 59.991 204.023 59.991C204.023 59.991 204.023 59.991 204.023 59.991C204.023 59.991 204.023 59.991 204.023 59.9911C204.023 59.9911 204.023 59.9911 204.023 59.9911C204.023 59.9911 204.023 59.9911 204.023 59.9911C204.023 59.9911 204.023 59.9911 204.023 59.9911C204.023 59.9911 204.023 59.9911 204.023 59.9911C204.023 59.9911 204.023 59.9911 204.023 59.9911C204.023 59.9911 204.023 59.9911 204.023 59.9911C204.023 59.9911 204.023 59.9911 204.023 59.9911C204.023 59.9911 204.023 59.9911 204.023 59.9911C204.023 59.9911 204.023 59.9911 204.023 59.9911C204.023 59.9911 204.023 59.9911 204.023 59.9911C204.023 59.9911 204.023 59.9911 204.023 59.9911C204.023 59.9911 204.023 59.9911 204.023 59.9911C204.023 59.9911 204.023 59.9911 204.023 59.9911C204.023 59.9911 204.023 59.9911 204.023 59.9911C204.023 59.9911 204.023 59.9911 204.023 59.9911C204.023 59.9911 204.023 59.9911 204.023 59.9911C204.023 59.9911 204.023 59.9911 204.023 59.9911C204.023 59.9911 204.023 59.9911 204.023 59.9911C204.023 59.9911 204.023 59.9911 204.023 59.9911C204.023 59.9911 204.023 59.9911 204.023 59.9911C204.023 59.9911 204.023 59.9911 204.023 59.9911C204.023 59.9911 204.023 59.9911 204.023 59.9911C204.023 59.9911 204.023 59.9911 204.023 59.9911C204.023 59.9911 204.023 59.9911 204.023 59.9911C204.023 59.9911 204.023 59.9911 204.023 59.9911C204.023 59.9911 204.023 59.9911 204.023 59.9911C204.023 59.9911 204.023 59.9911 204.023 59.9911C204.023 59.9911 204.023 59.9911 204.023 59.9911C204.023 59.9911 204.023 59.9911 204.023 59.9911C204.023 59.9911 204.023 59.9911 204.023 59.9911C204.023 59.9911 204.023 59.9911 204.023 59.9911C204.023 59.9911 204.023 59.9911 204.023 59.9911C204.023 59.9911 204.023 59.9911 204.023 59.9911C204.023 59.9911 204.023 59.9911 204.023 59.9911C204.023 59.9911 204.023 59.9911 204.023 59.9911C204.023 59.9911 204.023 59.9911 204.023 59.9911C204.023 59.9911 204.023 59.9911 204.023 59.9911C204.023 59.9911 204.023 59.9911 204.023 59.9911C204.023 59.9911 204.023 59.9911 204.023 59.9911C204.023 59.9911 204.023 59.9911 204.023 59.9911C204.023 59.9911 204.023 59.9911 204.023 59.9911C204.023 59.9911 204.023 59.9911 204.023 59.9911C204.023 59.9911 204.023 59.9911 204.023 59.9911C204.023 59.9911 204.023 59.9911 204.023 59.9911C204.023 59.9911 204.023 59.9911 204.023 59.9911C204.023 59.9911 204.023 59.9911 204.023 59.9911C204.023 59.9911 204.023 59.9911 204.023 59.9911C204.023 59.9911 204.023 59.9911 204.023 59.9911C204.023 59.9911 204.023 59.9911 204.023 59.9911C204.023 59.9911 204.023 59.9911 204.023 59.9911C204.023 59.9911 204.023 59.9911 204.023 59.9911C204.023 59.9911 204.023 59.9911 204.023 59.9911C204.023 59.9911 204.023 59.9911 204.023 59.9911C204.023 59.9911 204.023 59.9911 204.023 59.9911C204.023 59.9911 204.023 59.9911 204.023 59.9911C204.023 59.9911 204.023 59.9911 204.023 59.9911C204.023 59.9911 204.023 59.9911 204.023 59.9911C204.023 59.9911 204.023 59.9911 204.023 59.9911C204.023 59.9911 204.023 59.9911 204.023 59.9911C204.023 59.9911 204.023 59.9911 204.023 59.9911C204.023 59.9911 204.023 59.9911 204.023 59.9911C204.023 59.9911 204.023 59.9911 204.023 59.9911C204.023 59.9911 204.023 59.9911 204.023 59.9911C204.023 59.9911 204.023 59.9911 204.023 59.9911C204.023 59.9911 204.023 59.9911 204.023 59.9911C204.023 59.9911 204.023 59.9911 204.023 59.9911C204.023 59.9911 204.023 59.9911 204.023 59.9911C204.023 59.9911 204.023 59.9911 204.023 59.9911C204.023 59.9911 204.023 59.9911 204.023 59.9911C204.023 59.9911 204.023 59.9911 204.023 59.9911C204.023 59.9911 204.023 59.9911 204.023 59.9911C204.023 59.9911 204.023 59.9911 204.023 59.9911C204.023 59.9911 204.023 59.9911 204.023 59.9911C204.023 59.9911 204.023 59.9911 204.023 59.9911C204.023 59.9911 204.023 59.9911 204.023 59.9911C204.023 59.9911 204.023 59.9911 204.023 59.9911C204.023 59.9911 204.023 59.9911 204.023 59.9911C204.023 59.9911 204.023 59.9911 204.023 59.9911C204.023 59.9911 204.023 59.9911 204.023 59.9911C204.023 59.9911 204.023 59.9911 204.023 59.9911C204.023 59.9911 204.023 59.9911 204.023 59.9911C204.023 59.9911 204.023 59.9911 204.023 59.9911C204.023 59.9911 204.023 59.9911 204.023 59.9911C204.023 59.9911 204.023 59.9911 204.023 59.9911C204.023 59.9911 204.023 59.9911 204.023 59.9911C204.023 59.9911 204.023 59.9911 204.023 59.9911C204.023 59.9911 204.023 59.9911 204.023 59.9911C204.023 59.9911 204.023 59.9911 204.023 59.9911C204.023 59.9911 204.023 59.9911 204.023 59.9911C204.023 59.9911 204.023 59.9911 204.023 59.9911C204.023 59.9911 204.023 59.9911 204.023 59.9911C204.023 59.9911 204.023 59.9911 204.023 59.9911C204.023 59.9911 204.023 59.9911 204.023 59.9911C204.023 59.9911 204.023 59.9911 204.023 59.9911C204.023 59.9911 204.023 59.9911 204.023 59.9911C204.023 59.9911 204.023 59.9911 204.023 59.9911C204.023 59.9911 204.023 59.9911 204.023 59.9911C204.023 59.9911 204.023 59.9911 204.023 59.9911C204.023 59.9911 204.023 59.9911 204.023 59.9911C204.023 59.9911 204.023 59.9911 204.023 59.9911C204.023 59.9911 204.023 59.9911 204.023 59.9911C204.023 59.9911 204.023 59.9911 204.023 59.9911C204.023 59.9911 204.023 59.9911 204.023 59.9911C204.023 59.9911 204.023 59.9911 204.023 59.9911C204.023 59.9911 204.023 59.9911 204.023 59.9911C204.023 59.9911 204.023 59.9911 204.023 59.9911C204.023 59.9911 204.023 59.9911 204.023 59.9911C204.023 59.9911 204.023 59.9911 204.023 59.9911C204.023 59.9911 204.023 59.9911 204.023 59.9911C204.023 59.9911 204.023 59.9911 204.023 59.9911C204.023 59.9911 204.023 59.9911 204.023 59.9911C204.023 59.9911 204.023 59.9911 204.023 59.9911C204.023 59.9911 204.023 59.9911 204.023 59.9911C204.023 59.9911 204.023 59.9911 204.023 59.9911C204.023 59.9911 204.023 59.9911 204.023 59.9911C204.023 59.9911 204.023 59.9911 204.023 59.9911C204.023 59.9911 204.023 59.9911 204.023 59.9911C204.023 59.9911 204.023 59.9911 204.023 59.9911C204.023 59.9911 204.023 59.9911 204.023 59.9911C204.023 59.9911 204.023 59.9911 204.023 59.9911C204.023 59.9911 204.023 59.9911 204.023 59.9911C204.023 59.9911 204.023 59.9911 204.023 59.9911C204.023 59.9911 204.023 59.9911 204.023 59.9911C204.023 59.9911 204.023 59.9911 204.023 59.9911C204.023 59.9911 204.023 59.9911 204.023 59.9911C204.023 59.9911 204.023 59.9911 204.023 59.9911C204.023 59.9911 204.023 59.9911 204.023 59.9911C204.023 59.9911 204.023 59.9911 204.023 59.9911C204.023 59.9911 204.023 59.9911 204.023 59.9911C204.023 59.9911 204.023 59.9911 204.023 59.9911C204.023 59.9911 204.023 59.9911 204.023 59.9911C204.023 59.9911 204.023 59.9911 204.023 59.9911C204.023 59.9911 204.023 59.9911 204.023 59.9911C204.023 59.9911 204.023 59.9911 204.023 59.9911C204.023 59.9911 204.023 59.9911 204.023 59.9911C204.023 59.9911 204.023 59.9911 204.023 59.9911C204.023 59.9911 204.023 59.9911 204.023 59.9911C204.023 59.9911 204.023 59.9911 204.023 59.9911C204.023 59.9911 204.023 59.9911 204.023 59.9911C204.023 59.9911 204.023 59.9911 204.023 59.9911C204.023 59.9911 204.023 59.9911 204.023 59.9911C204.023 59.9911 204.023 59.9911 204.023 59.9911C204.023 59.9911 204.023 59.9911 204.023 59.9911C204.023 59.9911 204.023 59.9911 204.023 59.9911C204.023 59.9911 204.023 59.9911 204.023 59.9911C204.023 59.9911 204.023 59.9911 204.023 59.9911C204.023 59.9911 204.023 59.9911 204.023 59.9911C204.023 59.9911 204.023 59.9911 204.023 59.9911C204.023 59.9911 204.023 59.9911 204.023 59.9911C204.023 59.9911 204.023 59.9911 204.023 59.9911C204.023 59.9911 204.023 59.9911 204.023 59.9911C204.023 59.9911 204.023 59.9911 204.023 59.9911C204.023 59.9911 204.023 59.9911 204.023 59.9911C204.023 59.9911 204.023 59.9911 204.023 59.9911C204.023 59.9911 204.023 59.9911 204.023 59.9911C204.023 59.9911 204.023 59.9911 204.023 59.9911C204.023 59.9911 204.023 59.9911 204.023 59.9911C204.023 59.9911 204.023 59.9911 204.023 59.9911C204.023 59.9911 204.023 59.9911 204.023 59.9911C204.023 59.9911 204.023 59.9911 204.023 59.9911C204.023 59.9911 204.023 59.9911 204.023 59.9911C204.023 59.9911 204.023 59.9911 204.023 59.9911C204.023 59.9911 204.023 59.9911 204.023 59.9911C204.023 59.9911 204.023 59.9911 204.023 59.9911C204.023 59.9911 204.023 59.9911 204.023 59.9911C204.023 59.9911 204.023 59.9911 204.023 59.9911C204.023 59.9911 204.023 59.9911 204.023 59.9911C204.023 59.9911 204.023 59.9911 204.023 59.9911C204.023 59.9911 204.023 59.9911 204.023 59.9911C204.023 59.9911 204.023 59.9911 204.023 59.9911C204.023 59.9911 204.023 59.9911 204.023 59.9911C204.023 59.9911 204.023 59.9911 204.023 59.9911C204.023 59.9911 204.023 59.9911 204.023 59.9911C204.023 59.9911 204.023 59.9911 204.023 59.9911C204.023 59.9911 204.023 59.9911 204.023 59.9911C204.023 59.9911 204.023 59.9911 204.023 59.9911C204.023 59.9911 204.023 59.9911 204.023 59.9911C204.023 59.9911 204.023 59.9911 204.023 59.9911C204.023 59.9911 204.023 59.9911 204.023 59.9911C204.023 59.9911 204.023 59.9911 204.023 59.9911C204.023 59.9911 204.023 59.9911 204.023 59.9911C204.023 59.9911 204.023 59.9911 204.023 59.9911C204.023 59.9911 204.023 59.9911 204.023 59.9911C204.023 59.9911 204.023 59.9911 204.023 59.9911C204.023 59.9911 204.023 59.9911 204.023 59.9911C204.023 59.9911 204.023 59.9911 204.023 59.9911C204.023 59.9911 204.023 59.9911 204.023 59.9911C204.023 59.9911 204.023 59.9911 204.023 59.9911C204.023 59.9911 204.023 59.9911 204.023 59.9911C204.023 59.9911 204.023 59.9911 204.023 59.9911C204.023 59.9911 204.023 59.9911 204.023 59.9911C204.023 59.9911 204.023 59.9911 204.023 59.9911C204.023 59.9911 204.023 59.9911 204.023 59.9911C204.023 59.9911 204.023 59.9911 204.023 59.9911C204.023 59.9911 204.023 59.9911 204.023 59.9911C204.023 59.9911 204.023 59.9911 204.023 59.9911C204.023 59.9911 204.023 59.9911 204.023 59.9911C204.023 59.9911 204.023 59.9911 204.023 59.9911C204.023 59.9911 204.023 59.9911 204.023 59.9911C204.023 59.9911 204.023 59.9911 204.023 59.9911C204.023 59.9911 204.023 59.9911 204.023 59.9911C204.023 59.9911 204.023 59.9911 204.023 59.9911C204.023 59.9911 204.023 59.9911 204.023 59.9911C204.023 59.9911 204.023 59.9911 204.023 59.9911C204.023 59.9911 204.023 59.9911 204.023 59.9911C204.023 59.9911 204.023 59.9911 204.023 59.9911C204.023 59.9911 204.023 59.9911 204.023 59.9911C204.023 59.9911 204.023 59.9911 204.023 59.9911C204.023 59.9911 204.023 59.9911 204.023 59.9911C204.023 59.9911 204.023 59.9911 204.023 59.9911C204.023 59.9911 204.023 59.9911 204.023 59.9911C204.023 59.9911 204.023 59.9911 204.023 59.9911C204.023 59.9911 204.023 59.9911 204.023 59.9911C204.023 59.9911 204.023 59.9911 204.023 59.9911C204.023 59.9911 204.023 59.9911 204.023 59.9911C204.023 59.9911 204.023 59.9911 204.023 59.9911C204.023 59.9911 204.023 59.9911 204.023 59.9911C204.023 59.9911 204.023 59.9911 204.023 59.9911C204.023 59.9911 204.023 59.9911 204.023 59.9911C204.023 59.9911 204.023 59.9911 204.023 59.9911C204.023 59.9911 204.023 59.9911 204.023 59.9911C204.023 59.9911 204.023 59.9911 204.023 59.9911C204.023 59.9911 204.023 59.9911 204.023 59.9911C204.023 59.9911 204.023 59.9911 204.023 59.9911C204.023 59.9911 204.023 59.9911 204.023 59.9911C204.023 59.9911 204.023 59.9911 204.023 59.9911C204.023 59.9911 204.023 59.9911 204.023 59.9911C204.023 59.9911 204.023 59.9911 204.023 59.9911C204.023 59.9911 204.023 59.9911 204.023 59.9911C204.023 59.9911 204.023 59.9911 204.023 59.9911C204.023 59.9911 204.023 59.9911 204.023 59.9911C204.023 59.9911 204.023 59.9911 204.023 59.9911C204.023 59.9911 204.023 59.9911 204.023 59.9911C204.023 59.9911 204.023 59.9911 204.023 59.9911C204.023 59.9911 204.023 59.9911 204.023 59.9911C204.023 59.9911 204.023 59.9911 204.023 59.9911C204.023 59.9911 204.023 59.9911 204.023 59.9911C204.023 59.9911 204.023 59.9911 204.023 59.9911C204.023 59.9911 204.023 59.9911 204.023 59.9911C204.023 59.9911 204.023 59.9911 204.023 59.9911C204.023 59.9911 204.023 59.9911 204.023 59.9911C204.023 59.9911 204.023 59.9911 204.023 59.9911C204.023 59.9911 204.023 59.9911 204.023 59.9911C204.023 59.9911 204.023 59.9911 204.023 59.9911C204.023 59.9911 204.023 59.9911 204.023 59.9911C204.023 59.9911 204.023 59.9911 204.023 59.9911C204.023 59.9911 204.023 59.9911 204.023 59.9911C204.023 59.9911 204.023 59.9911 204.023 59.9911C204.023 59.9911 204.023 59.9911 204.023 59.9911C204.023 59.9911 204.023 59.9911 204.023 59.9911C204.023 59.9911 204.023 59.9911 204.023 59.9911C204.023 59.9911 204.023 59.9911 204.023 59.9911C204.023 59.9911 204.023 59.9911 204.023 59.9911C204.023 59.9911 204.023 59.9911 204.023 59.9911C204.023 59.9911 204.023 59.9911 204.023 59.9911C204.023 59.9911 204.023 59.9911 204.023 59.9911C204.023 59.9911 204.023 59.9911 204.023 59.9911C204.023 59.9911 204.023 59.9911 204.023 59.9911C204.023 59.9911 204.023 59.9911 204.023 59.9911C204.023 59.9911 204.023 59.9911 204.023 59.9911C204.023 59.9911 204.023 59.9911 204.023 59.9911C204.023 59.9911 204.023 59.9911 204.023 59.9911C204.023 59.9911 204.023 59.9911 204.023 59.9911C204.023 59.9911 204.023 59.9911 204.023 59.9911C204.023 59.9911 204.023 59.9911 204.023 59.9911C204.023 59.9911 204.023 59.9911 204.023 59.9911C204.023 59.9911 204.023 59.9911 204.023 59.9911C204.023 59.9911 204.023 59.9911 204.023 59.9911C204.023 59.9911 204.023 59.9911 204.023 59.9911C204.023 59.9911 204.023 59.9911 204.023 59.9911C204.023 59.9911 204.023 59.9911 204.023 59.9911C204.023 59.9911 204.023 59.9911 204.023 59.9911C204.023 59.9911 204.023 59.9911 204.023 59.9911C204.023 59.9911 204.023 59.9911 204.023 59.9911C204.023 59.9911 204.023 59.9911 204.023 59.9911C204.023 59.9911 204.023 59.9911 204.023 59.9911C204.023 59.9911 204.023 59.9911 204.023 59.9911C204.023 59.9911 204.023 59.9911 204.023 59.9911C204.023 59.9911 204.023 59.9911 204.023 59.9911C204.023 59.9911 204.023 59.9911 204.023 59.9911C204.023 59.9911 204.023 59.9911 204.023 59.9911C204.023 59.9911 204.023 59.9911 204.023 59.9911C204.023 59.9911 204.023 59.9911 204.023 59.9911C204.023 59.9911 204.023 59.9911 204.023 59.9911C204.023 59.9911 204.023 59.9911 204.023 59.9911C204.023 59.9911 204.023 59.9911 204.023 59.9911C204.023 59.9911 204.023 59.9911 204.023 59.9911C204.023 59.9911 204.023 59.9911 204.023 59.9911C204.023 59.9911 204.023 59.9911 204.023 59.9911C204.023 59.9911 204.023 59.9911 204.023 59.9911C204.023 59.9911 204.023 59.9911 204.023 59.9911C204.023 59.9911 204.023 59.9911 204.023 59.9911C204.023 59.9911 204.023 59.9911 204.023 59.9911C204.023 59.9911 204.023 59.9911 204.023 59.9911C204.023 59.9911 204.023 59.9911 204.023 59.9911C204.023 59.9911 204.023 59.9911 204.023 59.9911C204.023 59.9911 204.023 59.9911 204.023 59.9911C204.023 59.9911 204.023 59.9911 204.023 59.9911C204.023 59.9911 204.023 59.9911 204.023 59.9911C204.023 59.9911 204.023 59.9911 204.023 59.9911C204.023 59.9911 204.023 59.9911 204.023 59.9911C204.023 59.9911 204.023 59.9911 204.023 59.9911C204.023 59.9911 204.023 59.9911 204.023 59.9911C204.023 59.9911 204.023 59.9911 204.023 59.9911C204.023 59.9911 204.023 59.9911 204.023 59.9911C204.023 59.9911 204.023 59.9911 204.023 59.9911C204.023 59.9911 204.023 59.9911 204.023 59.9911C204.023 59.9911 204.023 59.9911 204.023 59.9911C204.023 59.9911 204.023 59.9911 204.023 59.9911C204.023 59.9911 204.023 59.9911 204.023 59.9911C204.023 59.9911 204.023 59.9911 204.023 59.9911C204.023 59.9911 204.023 59.9911 204.023 59.9911C204.023 59.9911 204.023 59.9911 204.023 59.9911C204.023 59.9911 204.023 59.9911 204.023 59.9911C204.023 59.9911 204.023 59.9911 204.023 59.9911C204.023 59.9911 204.023 59.9911 204.023 59.9911C204.023 59.9911 204.023 59.9911 204.023 59.9911C204.023 59.9911 204.023 59.9911 204.023 59.9911C204.023 59.9911 204.023 59.9911 204.023 59.9911C204.023 59.9911 204.023 59.9911 204.023 59.9911C204.023 59.9911 204.023 59.9911 204.023 59.9911C204.023 59.9911 204.023 59.9911 204.023 59.9911C204.023 59.9911 204.023 59.9911 204.023 59.9911C204.023 59.9911 204.023 59.9911 204.023 59.9911C204.023 59.9911 204.023 59.9911 204.023 59.9911C204.023 59.9911 204.023 59.9911 204.023 59.9911C204.023 59.9911 204.023 59.9911 204.023 59.9911C204.023 59.9911 204.023 59.9911 204.023 59.9911C204.023 59.9911 204.023 59.9911 204.023 59.9911C204.023 59.9911 204.023 59.9911 204.023 59.9911C204.023 59.9911 204.023 59.9911 204.023 59.9911C204.023 59.9911 204.023 59.9911 204.023 59.9911C204.023 59.9911 204.023 59.9911 204.023 59.9911C204.023 59.9911 204.023 59.9911 204.023 59.9911C204.023 59.9911 204.023 59.9911 204.023 59.9911C204.023 59.9911 204.023 59.9911 204.023 59.9911C204.023 59.9911 204.023 59.9911 204.023 59.9911C204.023 59.9911 204.023 59.9911 204.023 59.9911C204.023 59.9911 204.023 59.9911 204.023 59.9911C204.023 59.9911 204.023 59.9911 204.023 59.9911C204.023 59.9911 204.023 59.9911 204.023 59.9911C204.023 59.9911 204.023 59.9911 204.023 59.9911C204.023 59.9911 204.023 59.9911 204.023 59.9911C204.023 59.9911 204.023 59.9911 204.023 59.9911C204.023 59.9911 204.023 59.9911 204.023 59.9911C204.023 59.9911 204.023 59.9911 204.023 59.9911C204.023 59.9911 204.023 59.9911 204.023 59.9911C204.023 59.9911 204.023 59.9911 204.023 59.9911C204.023 59.9911 204.023 59.9911 204.023 59.9911C204.023 59.9911 204.023 59.9911 204.023 59.9911C204.023 59.9911 204.023 59.9911 204.023 59.9911C204.023 59.9911 204.023 59.9911 204.023 59.9911C204.023 59.9911 204.023 59.9911 204.023 59.9911C204.023 59.9911 204.023 59.9911 204.023 59.9911C204.023 59.9911 204.023 59.9911 204.023 59.9911C204.023 59.9911 204.023 59.9911 204.023 59.9911C204.023 59.9911 204.023 59.9911 204.023 59.9911C204.023 59.9911 204.023 59.9911 204.023 59.9911C204.023 59.9911 204.023 59.9911 204.023 59.9911C204.023 59.9911 204.023 59.9911 204.023 59.9911C204.023 59.9911 204.023 59.9911 204.023 59.9911C204.023 59.9911 204.023 59.9911 204.023 59.9911C204.023 59.9911 204.023 59.9911 204.023 59.9911C204.023 59.9911 204.023 59.9911 204.023 59.9911C204.023 59.9911 204.023 59.9911 204.023 59.9911C204.023 59.9911 204.023 59.9911 204.023 59.9911C204.023 59.9911 204.023 59.9911 204.023 59.9911C204.023 59.9911 204.023 59.9911 204.023 59.9911C204.023 59.9911 204.023 59.9911 204.023 59.9911C204.023 59.9911 204.023 59.9911 204.023 59.9911C204.023 59.9911 204.023 59.9911 204.023 59.9911C204.023 59.9911 204.023 59.9911 204.023 59.9911C204.023 59.9911 204.023 59.9911 204.023 59.9911C204.023 59.9911 204.023 59.9911 204.023 59.9911C204.023 59.9911 204.023 59.9911 204.023 59.9911C204.023 59.9911 204.023 59.9911 204.023 59.9911C204.023 59.9911 204.023 59.9911 204.023 59.9911C204.023 59.9911 204.023 59.9911 204.023 59.9911C204.023 59.9911 204.023 59.9911 204.023 59.9911C204.023 59.9911 204.023 59.9911 204.023 59.9911C204.023 59.9911 204.023 59.9911 204.023 59.9911C204.023 59.9911 204.023 59.9911 204.023 59.9911C204.023 59.9911 204.023 59.9911 204.023 59.9911C204.023 59.9911 204.023 59.9911 204.023 59.9911C204.023 59.9911 204.023 59.9911 204.023 59.9911C204.023 59.9911 204.023 59.9911 204.023 59.9911C204.023 59.9911 204.023 59.9911 204.023 59.9911C204.023 59.9911 204.023 59.9911 204.023 59.9911C204.023 59.9911 204.023 59.9911 204.023 59.9911C204.023 59.9911 204.023 59.9911 204.023 59.9911C204.023 59.9911 204.023 59.9911 204.023 59.9911C204.023 59.9911 204.023 59.9911 204.023 59.9911C204.023 59.9911 204.023 59.9911 204.023 59.9911C204.023 59.9911 204.023 59.9911 204.023 59.9911C204.023 59.9911 204.023 59.9911 204.023 59.9911C204.023 59.9911 204.023 59.9911 204.023 59.9911C204.023 59.9911 204.023 59.9911 204.023 59.9911C204.023 59.9911 204.023 59.9911 204.023 59.9911C204.023 59.9911 204.023 59.9911 204.023 59.9911C204.023 59.9911 204.023 59.9911 204.023 59.9911C204.023 59.9911 204.023 59.9911 204.023 59.9911C204.023 59.9911 204.023 59.9911 204.023 59.9911C204.023 59.9911 204.023 59.9911 204.023 59.9911C204.023 59.9911 204.023 59.9911 204.023 59.9911C204.023 59.9911 204.023 59.9911 204.023 59.9911C204.023 59.9911 204.023 59.9911 204.023 59.9911C204.023 59.9911 204.023 59.9911 204.023 59.9912C204.023 59.9912 204.023 59.9912 204.023 59.9912C204.023 59.9912 204.023 59.9912 204.023 59.9912C204.023 59.9912 204.023 59.9912 204.023 59.9912C204.023 59.9912 204.023 59.9912 204.023 59.9912C204.023 59.9912 204.023 59.9912 204.023 59.9912C204.023 59.9912 204.023 59.9912 204.023 59.9912C204.023 59.9912 204.023 59.9912 204.023 59.9912C204.023 59.9912 204.023 59.9912 204.023 59.9912C204.023 59.9912 204.023 59.9912 204.023 59.9912C204.023 59.9912 204.023 59.9912 204.023 59.9912C204.023 59.9912 204.023 59.9912 204.023 59.9912C204.023 59.9912 204.023 59.9912 204.023 59.9912C204.023 59.9912 204.023 59.9912 204.023 59.9912C204.023 59.9912 204.023 59.9912 204.023 59.9912C204.023 59.9912 204.023 59.9912 204.023 59.9912C204.023 59.9912 204.023 59.9912 204.023 59.9912C204.023 59.9912 204.023 59.9912 204.023 59.9912C204.023 59.9912 204.023 59.9912 204.023 59.9912C204.023 59.9912 204.023 59.9912 204.023 59.9912C204.023 59.9912 204.023 59.9912 204.023 59.9912C204.023 59.9912 204.023 59.9912 204.023 59.9912C204.023 59.9912 204.023 59.9912 204.023 59.9912C204.023 59.9912 204.023 59.9912 204.023 59.9912C204.023 59.9912 204.023 59.9912 204.023 59.9912C204.023 59.9912 204.023 59.9912 204.023 59.9912C204.023 59.9912 204.023 59.9912 204.023 59.9912C204.023 59.9912 204.023 59.9912 204.023 59.9912C204.023 59.9912 204.023 59.9912 204.023 59.9912C204.023 59.9912 204.023 59.9912 204.023 59.9912C204.023 59.9912 204.023 59.9912 204.023 59.9912C204.023 59.9912 204.023 59.9912 204.023 59.9912C204.023 59.9912 204.023 59.9912 204.023 59.9912C204.023 59.9912 204.023 59.9912 204.023 59.9912C204.023 59.9912 204.023 59.9912 204.023 59.9912C204.023 59.9912 204.023 59.9912 204.023 59.9912C204.023 59.9912 204.023 59.9912 204.023 59.9912C204.023 59.9912 204.023 59.9912 204.023 59.9912C204.023 59.9912 204.023 59.9912 204.023 59.9912C204.023 59.9912 204.023 59.9912 204.023 59.9912C204.023 59.9912 204.023 59.9912 204.023 59.9912C204.023 59.9912 204.023 59.9912 204.023 59.9912C204.023 59.9912 204.023 59.9912 204.023 59.9912C204.023 59.9912 204.023 59.9912 204.023 59.9912C204.023 59.9912 204.023 59.9912 204.023 59.9912C204.023 59.9912 204.023 59.9912 204.023 59.9912C204.023 59.9912 204.023 59.9912 204.023 59.9912C204.023 59.9912 204.023 59.9912 204.023 59.9912C204.023 59.9912 204.023 59.9912 204.023 59.9912C204.023 59.9912 204.023 59.9912 204.023 59.9912C204.023 59.9912 204.023 59.9912 204.023 59.9912C204.023 59.9912 204.023 59.9912 204.023 59.9912C204.023 59.9912 204.023 59.9912 204.023 59.9912C204.023 59.9912 204.023 59.9912 204.023 59.9912C204.023 59.9912 204.023 59.9912 204.023 59.9912C204.023 59.9912 204.023 59.9912 204.023 59.9912C204.023 59.9912 204.023 59.9912 204.023 59.9912C204.023 59.9912 204.023 59.9912 204.023 59.9912C204.023 59.9912 204.023 59.9912 204.023 59.9912C204.023 59.9912 204.023 59.9912 204.023 59.9912C204.023 59.9912 204.023 59.9912 204.023 59.9912C204.023 59.9912 204.023 59.9912 204.023 59.9912C204.023 59.9912 204.023 59.9912 204.023 59.9912C204.023 59.9912 204.023 59.9912 204.023 59.9912C204.023 59.9912 204.023 59.9912 204.023 59.9912C204.023 59.9912 204.023 59.9912 204.023 59.9912C204.023 59.9912 204.023 59.9912 204.023 59.9912C204.023 59.9912 204.023 59.9912 204.023 59.9912C204.023 59.9912 204.023 59.9912 204.023 59.9912C204.023 59.9912 204.023 59.9912 204.023 59.9912C204.023 59.9912 204.023 59.9912 204.023 59.9912C204.023 59.9912 204.023 59.9912 204.023 59.9912C204.023 59.9912 204.023 59.9912 204.023 59.9912C204.023 59.9912 204.023 59.9912 204.023 59.9912C204.023 59.9912 204.023 59.9912 204.023 59.9912C204.023 59.9912 204.023 59.9912 204.023 59.9912C204.023 59.9912 204.023 59.9912 204.023 59.9912C204.023 59.9912 204.023 59.9912 204.023 59.9912C204.023 59.9912 204.023 59.9912 204.023 59.9912C204.023 59.9912 204.023 59.9912 204.023 59.9912C204.023 59.9912 204.023 59.9912 204.023 59.9912C204.023 59.9912 204.023 59.9912 204.023 59.9912C204.023 59.9912 204.023 59.9912 204.023 59.9912C204.023 59.9912 204.023 59.9912 204.023 59.9912C204.023 59.9912 204.023 59.9912 204.023 59.9912C204.023 59.9912 204.023 59.9912 204.023 59.9912C204.023 59.9912 204.023 59.9912 204.023 59.9912C204.023 59.9912 204.023 59.9912 204.023 59.9912C204.023 59.9912 204.023 59.9912 204.023 59.9912C204.023 59.9912 204.023 59.9912 204.023 59.9912C204.023 59.9912 204.023 59.9912 204.023 59.9912L205.994 60.3282C205.994 60.3282 205.994 60.3282 205.994 60.3282C205.994 60.3282 205.994 60.3282 205.994 60.3282C205.994 60.3282 205.994 60.3282 205.994 60.3282C205.994 60.3282 205.994 60.3282 205.994 60.3282C205.994 60.3282 205.994 60.3282 205.994 60.3282C205.994 60.3282 205.994 60.3282 205.994 60.3282C205.994 60.3282 205.994 60.3282 205.994 60.3282C205.994 60.3282 205.994 60.3282 205.994 60.3282C205.994 60.3282 205.994 60.3282 205.994 60.3282C205.994 60.3282 205.994 60.3282 205.994 60.3282C205.994 60.3282 205.994 60.3282 205.994 60.3282C205.994 60.3282 205.994 60.3282 205.994 60.3282C205.994 60.3282 205.994 60.3282 205.994 60.3282C205.994 60.3282 205.994 60.3282 205.994 60.3282C205.994 60.3282 205.994 60.3282 205.994 60.3282C205.994 60.3282 205.994 60.3282 205.994 60.3282C205.994 60.3282 205.994 60.3282 205.994 60.3282C205.994 60.3282 205.994 60.3282 205.994 60.3282C205.994 60.3282 205.994 60.3282 205.994 60.3282C205.994 60.3282 205.994 60.3282 205.994 60.3282C205.994 60.3282 205.994 60.3282 205.994 60.3282C205.994 60.3282 205.994 60.3282 205.994 60.3282C205.994 60.3282 205.994 60.3282 205.994 60.3282C205.994 60.3282 205.994 60.3282 205.994 60.3282C205.994 60.3282 205.994 60.3282 205.994 60.3282C205.994 60.3282 205.994 60.3282 205.994 60.3282C205.994 60.3282 205.994 60.3282 205.994 60.3282C205.994 60.3282 205.994 60.3282 205.994 60.3282C205.994 60.3282 205.994 60.3282 205.994 60.3282C205.994 60.3282 205.994 60.3282 205.994 60.3282C205.994 60.3282 205.994 60.3282 205.994 60.3282C205.994 60.3282 205.994 60.3282 205.994 60.3282C205.994 60.3282 205.994 60.3282 205.994 60.3282C205.994 60.3282 205.994 60.3282 205.994 60.3282C205.994 60.3282 205.994 60.3282 205.994 60.3282C205.994 60.3282 205.994 60.3282 205.994 60.3282C205.994 60.3282 205.994 60.3282 205.994 60.3282C205.994 60.3282 205.994 60.3282 205.994 60.3282C205.994 60.3282 205.994 60.3282 205.994 60.3282C205.994 60.3282 205.994 60.3282 205.994 60.3282C205.994 60.3282 205.994 60.3282 205.994 60.3282C205.994 60.3282 205.994 60.3282 205.994 60.3282C205.994 60.3282 205.994 60.3282 205.994 60.3282C205.994 60.3282 205.994 60.3282 205.994 60.3282C205.994 60.3282 205.994 60.3282 205.994 60.3282C205.994 60.3282 205.994 60.3282 205.994 60.3282C205.994 60.3282 205.994 60.3282 205.994 60.3282C205.994 60.3282 205.994 60.3282 205.994 60.3282C205.994 60.3282 205.994 60.3282 205.994 60.3282C205.994 60.3282 205.994 60.3282 205.994 60.3282C205.994 60.3282 205.994 60.3282 205.994 60.3282C205.994 60.3282 205.994 60.3282 205.994 60.3282C205.994 60.3282 205.994 60.3282 205.994 60.3282C205.994 60.3282 205.994 60.3282 205.994 60.3282C205.994 60.3282 205.994 60.3282 205.994 60.3282C205.994 60.3282 205.994 60.3282 205.994 60.3282C205.994 60.3282 205.994 60.3282 205.994 60.3282C205.994 60.3282 205.994 60.3282 205.994 60.3282C205.994 60.3282 205.994 60.3282 205.994 60.3282C205.994 60.3282 205.994 60.3282 205.994 60.3282C205.994 60.3282 205.994 60.3282 205.994 60.3282C205.994 60.3282 205.994 60.3282 205.994 60.3282C205.994 60.3282 205.994 60.3282 205.994 60.3282C205.994 60.3282 205.994 60.3282 205.994 60.3282C205.994 60.3282 205.994 60.3282 205.994 60.3282C205.994 60.3282 205.994 60.3282 205.994 60.3282C205.994 60.3282 205.994 60.3282 205.994 60.3282C205.994 60.3282 205.994 60.3282 205.994 60.3282C205.994 60.3282 205.994 60.3282 205.994 60.3282C205.994 60.3282 205.994 60.3282 205.994 60.3282C205.994 60.3282 205.994 60.3282 205.994 60.3282C205.994 60.3282 205.994 60.3282 205.994 60.3282C205.994 60.3282 205.994 60.3282 205.994 60.3282C205.994 60.3282 205.994 60.3282 205.994 60.3282C205.994 60.3282 205.994 60.3282 205.994 60.3282C205.994 60.3282 205.994 60.3282 205.994 60.3282C205.994 60.3282 205.994 60.3282 205.994 60.3282C205.994 60.3282 205.994 60.3282 205.994 60.3282C205.994 60.3282 205.994 60.3282 205.994 60.3282C205.994 60.3282 205.994 60.3282 205.994 60.3282C205.994 60.3282 205.994 60.3282 205.994 60.3282C205.994 60.3282 205.994 60.3282 205.994 60.3282C205.994 60.3282 205.994 60.3282 205.994 60.3282C205.994 60.3282 205.994 60.3282 205.994 60.3282C205.994 60.3282 205.994 60.3282 205.994 60.3282C205.994 60.3282 205.994 60.3282 205.994 60.3282C205.994 60.3282 205.994 60.3282 205.994 60.3282C205.994 60.3282 205.994 60.3282 205.994 60.3282C205.994 60.3282 205.994 60.3282 205.994 60.3282C205.994 60.3282 205.994 60.3282 205.994 60.3282C205.994 60.3282 205.994 60.3282 205.994 60.3282C205.994 60.3282 205.994 60.3282 205.994 60.3282C205.994 60.3282 205.994 60.3282 205.994 60.3282C205.994 60.3282 205.994 60.3282 205.994 60.3282C205.994 60.3282 205.994 60.3282 205.994 60.3282C205.994 60.3282 205.994 60.3282 205.994 60.3282C205.994 60.3282 205.994 60.3282 205.994 60.3282C205.994 60.3282 205.994 60.3282 205.994 60.3282C205.994 60.3282 205.994 60.3282 205.994 60.3282C205.994 60.3282 205.994 60.3282 205.994 60.3282C205.994 60.3282 205.994 60.3282 205.994 60.3282C205.994 60.3282 205.994 60.3282 205.994 60.3282C205.994 60.3282 205.994 60.3282 205.994 60.3282C205.994 60.3282 205.994 60.3282 205.994 60.3282C205.994 60.3282 205.994 60.3282 205.994 60.3282C205.994 60.3282 205.994 60.3282 205.994 60.3282C205.994 60.3282 205.994 60.3282 205.994 60.3282C205.994 60.3282 205.994 60.3282 205.994 60.3282C205.994 60.3282 205.994 60.3282 205.994 60.3282C205.994 60.3282 205.994 60.3282 205.994 60.3282C205.994 60.3282 205.994 60.3282 205.994 60.3282C205.994 60.3282 205.994 60.3282 205.994 60.3282C205.994 60.3282 205.994 60.3282 205.994 60.3282C205.994 60.3282 205.994 60.3282 205.994 60.3282C205.994 60.3282 205.994 60.3282 205.994 60.3282C205.994 60.3282 205.994 60.3282 205.994 60.3282C205.994 60.3282 205.994 60.3282 205.994 60.3282C205.994 60.3282 205.994 60.3282 205.994 60.3282C205.994 60.3282 205.994 60.3282 205.994 60.3282C205.994 60.3282 205.994 60.3282 205.994 60.3282C205.994 60.3282 205.994 60.3282 205.994 60.3282C205.994 60.3282 205.994 60.3282 205.994 60.3282C205.994 60.3282 205.994 60.3282 205.994 60.3282C205.994 60.3282 205.994 60.3282 205.994 60.3282C205.994 60.3282 205.994 60.3282 205.994 60.3282C205.994 60.3282 205.994 60.3282 205.994 60.3282C205.994 60.3282 205.994 60.3282 205.994 60.3282C205.994 60.3282 205.994 60.3282 205.994 60.3282C205.994 60.3282 205.994 60.3282 205.994 60.3282C205.994 60.3282 205.994 60.3282 205.994 60.3282C205.994 60.3282 205.994 60.3282 205.994 60.3282C205.994 60.3282 205.994 60.3282 205.994 60.3282C205.994 60.3282 205.994 60.3282 205.994 60.3282C205.994 60.3282 205.994 60.3282 205.994 60.3282C205.994 60.3282 205.994 60.3282 205.994 60.3282C205.994 60.3282 205.994 60.3282 205.994 60.3282C205.994 60.3282 205.994 60.3282 205.994 60.3282C205.994 60.3282 205.994 60.3282 205.994 60.3282C205.994 60.3282 205.994 60.3282 205.994 60.3282C205.994 60.3282 205.994 60.3282 205.994 60.3282C205.994 60.3282 205.994 60.3282 205.994 60.3282C205.994 60.3282 205.994 60.3282 205.994 60.3282C205.994 60.3282 205.994 60.3282 205.994 60.3282C205.994 60.3282 205.994 60.3282 205.994 60.3282C205.994 60.3282 205.994 60.3282 205.994 60.3282C205.994 60.3282 205.994 60.3282 205.994 60.3282C205.994 60.3282 205.994 60.3282 205.994 60.3282C205.994 60.3282 205.994 60.3282 205.994 60.3282C205.994 60.3282 205.994 60.3282 205.994 60.3282C205.994 60.3282 205.994 60.3282 205.994 60.3282C205.994 60.3282 205.994 60.3282 205.994 60.3282C205.994 60.3282 205.994 60.3282 205.994 60.3282C205.994 60.3282 205.994 60.3282 205.994 60.3282C205.994 60.3282 205.994 60.3282 205.994 60.3282C205.994 60.3282 205.994 60.3282 205.994 60.3282C205.994 60.3282 205.994 60.3282 205.994 60.3282C205.994 60.3282 205.994 60.3282 205.994 60.3282C205.994 60.3282 205.994 60.3282 205.994 60.3282C205.994 60.3282 205.994 60.3282 205.994 60.3282C205.994 60.3282 205.994 60.3282 205.994 60.3282C205.994 60.3282 205.994 60.3282 205.994 60.3282C205.994 60.3282 205.994 60.3282 205.994 60.3282C205.994 60.3282 205.994 60.3282 205.994 60.3282C205.994 60.3282 205.994 60.3282 205.994 60.3282C205.994 60.3282 205.994 60.3282 205.994 60.3282C205.994 60.3282 205.994 60.3282 205.994 60.3282C205.994 60.3282 205.994 60.3282 205.994 60.3282C205.994 60.3282 205.994 60.3282 205.994 60.3282C205.994 60.3282 205.994 60.3282 205.994 60.3282C205.994 60.3282 205.994 60.3282 205.994 60.3282C205.994 60.3282 205.994 60.3282 205.994 60.3282C205.994 60.3282 205.994 60.3282 205.994 60.3282C205.994 60.3282 205.994 60.3282 205.994 60.3282C205.994 60.3282 205.994 60.3282 205.994 60.3282C205.994 60.3282 205.994 60.3282 205.994 60.3282C205.994 60.3282 205.994 60.3282 205.994 60.3282C205.994 60.3282 205.994 60.3282 205.994 60.3282C205.994 60.3282 205.994 60.3282 205.994 60.3282C205.994 60.3282 205.994 60.3282 205.994 60.3282C205.994 60.3282 205.994 60.3282 205.994 60.3282C205.994 60.3282 205.994 60.3282 205.994 60.3282C205.994 60.3282 205.994 60.3282 205.994 60.3282C205.994 60.3282 205.994 60.3282 205.994 60.3282C205.994 60.3282 205.994 60.3282 205.994 60.3282C205.994 60.3282 205.994 60.3282 205.994 60.3282C205.994 60.3282 205.994 60.3282 205.994 60.3282C205.994 60.3282 205.994 60.3282 205.994 60.3282C205.994 60.3282 205.994 60.3282 205.994 60.3282C205.994 60.3282 205.994 60.3282 205.994 60.3282C205.994 60.3282 205.994 60.3282 205.994 60.3282C205.994 60.3282 205.994 60.3282 205.994 60.3282C205.994 60.3282 205.994 60.3282 205.994 60.3282C205.994 60.3282 205.994 60.3282 205.994 60.3282C205.994 60.3282 205.994 60.3282 205.994 60.3282C205.994 60.3282 205.994 60.3282 205.994 60.3282C205.994 60.3282 205.994 60.3282 205.994 60.3282C205.994 60.3282 205.994 60.3282 205.994 60.3282C205.994 60.3282 205.994 60.3282 205.994 60.3282C205.994 60.3282 205.994 60.3282 205.994 60.3282C205.994 60.3282 205.994 60.3282 205.994 60.3282C205.994 60.3282 205.994 60.3282 205.994 60.3282C205.994 60.3282 205.994 60.3282 205.994 60.3282C205.994 60.3282 205.994 60.3282 205.994 60.3282C205.994 60.3282 205.994 60.3282 205.994 60.3282C205.994 60.3282 205.994 60.3282 205.994 60.3282C205.994 60.3282 205.994 60.3282 205.994 60.3282C205.994 60.3282 205.994 60.3282 205.994 60.3282C205.994 60.3282 205.994 60.3282 205.994 60.3282C205.994 60.3282 205.994 60.3282 205.994 60.3282C205.994 60.3282 205.994 60.3282 205.994 60.3282C205.994 60.3282 205.994 60.3282 205.994 60.3282C205.994 60.3282 205.994 60.3282 205.994 60.3282C205.994 60.3282 205.994 60.3282 205.994 60.3282C205.994 60.3282 205.994 60.3282 205.994 60.3282C205.994 60.3282 205.994 60.3282 205.994 60.3282C205.994 60.3282 205.994 60.3282 205.994 60.3282C205.994 60.3282 205.994 60.3282 205.994 60.3282C205.994 60.3282 205.994 60.3282 205.994 60.3282C205.994 60.3282 205.994 60.3282 205.994 60.3282C205.994 60.3282 205.994 60.3282 205.994 60.3282C205.994 60.3282 205.994 60.3282 205.994 60.3282C205.994 60.3282 205.994 60.3282 205.994 60.3282C205.994 60.3282 205.994 60.3282 205.994 60.3282C205.994 60.3282 205.994 60.3282 205.994 60.3282C205.994 60.3282 205.994 60.3282 205.994 60.3282C205.994 60.3282 205.994 60.3282 205.994 60.3282C205.994 60.3282 205.994 60.3282 205.994 60.3282C205.994 60.3282 205.994 60.3282 205.994 60.3282C205.994 60.3282 205.994 60.3282 205.994 60.3282C205.994 60.3282 205.994 60.3282 205.994 60.3282C205.994 60.3282 205.994 60.3282 205.994 60.3282C205.994 60.3282 205.994 60.3282 205.994 60.3282C205.994 60.3282 205.994 60.3282 205.994 60.3282C205.994 60.3282 205.994 60.3282 205.994 60.3282C205.994 60.3282 205.994 60.3282 205.994 60.3282C205.994 60.3282 205.994 60.3282 205.994 60.3282C205.994 60.3282 205.994 60.3282 205.994 60.3282C205.994 60.3282 205.994 60.3282 205.994 60.3282C205.994 60.3282 205.994 60.3282 205.994 60.3282C205.994 60.3282 205.994 60.3282 205.994 60.3282C205.994 60.3282 205.994 60.3282 205.994 60.3282C205.994 60.3282 205.994 60.3282 205.994 60.3282C205.994 60.3282 205.994 60.3282 205.994 60.3282C205.994 60.3282 205.994 60.3282 205.994 60.3282C205.994 60.3282 205.994 60.3282 205.994 60.3282C205.994 60.3282 205.994 60.3282 205.994 60.3282C205.994 60.3282 205.994 60.3282 205.994 60.3282C205.994 60.3282 205.994 60.3282 205.994 60.3282C205.994 60.3282 205.994 60.3282 205.994 60.3282C205.994 60.3282 205.994 60.3282 205.994 60.3282C205.994 60.3282 205.994 60.3282 205.994 60.3282C205.994 60.3282 205.994 60.3282 205.994 60.3282C205.994 60.3282 205.994 60.3282 205.994 60.3282C205.994 60.3282 205.994 60.3282 205.994 60.3282C205.994 60.3282 205.994 60.3282 205.994 60.3282C205.994 60.3282 205.994 60.3282 205.994 60.3282C205.994 60.3282 205.994 60.3282 205.994 60.3282C205.994 60.3282 205.994 60.3282 205.994 60.3282C205.994 60.3282 205.994 60.3282 205.994 60.3282C205.994 60.3282 205.994 60.3282 205.994 60.3282C205.994 60.3282 205.994 60.3282 205.994 60.3282C205.994 60.3282 205.994 60.3282 205.994 60.3282C205.994 60.3282 205.994 60.3282 205.994 60.3282C205.994 60.3282 205.994 60.3282 205.994 60.3282C205.994 60.3282 205.994 60.3282 205.994 60.3282C205.994 60.3282 205.994 60.3282 205.994 60.3282C205.994 60.3282 205.994 60.3282 205.994 60.3282C205.994 60.3282 205.994 60.3282 205.994 60.3282C205.994 60.3282 205.994 60.3282 205.994 60.3282C205.994 60.3282 205.994 60.3282 205.994 60.3282C205.994 60.3282 205.994 60.3282 205.994 60.3282C205.994 60.3282 205.994 60.3282 205.994 60.3282C205.994 60.3282 205.994 60.3282 205.994 60.3282C205.994 60.3282 205.994 60.3282 205.994 60.3282C205.994 60.3282 205.994 60.3282 205.994 60.3282C205.994 60.3282 205.994 60.3282 205.994 60.3282C205.994 60.3282 205.994 60.3282 205.994 60.3282C205.994 60.3282 205.994 60.3282 205.994 60.3282C205.994 60.3282 205.994 60.3282 205.994 60.3282C205.994 60.3282 205.994 60.3282 205.994 60.3282C205.994 60.3282 205.994 60.3282 205.994 60.3282C205.994 60.3282 205.994 60.3282 205.994 60.3282C205.994 60.3282 205.994 60.3282 205.994 60.3282C205.994 60.3282 205.994 60.3282 205.994 60.3282C205.994 60.3282 205.994 60.3282 205.994 60.3282C205.994 60.3282 205.994 60.3282 205.994 60.3282C205.994 60.3282 205.994 60.3282 205.994 60.3282C205.994 60.3282 205.994 60.3282 205.994 60.3282C205.994 60.3282 205.994 60.3282 205.994 60.3282C205.994 60.3282 205.994 60.3282 205.994 60.3282C205.994 60.3282 205.994 60.3282 205.994 60.3282C205.994 60.3282 205.994 60.3282 205.994 60.3282C205.994 60.3282 205.994 60.3282 205.994 60.3282C205.994 60.3282 205.994 60.3282 205.994 60.3282C205.994 60.3282 205.994 60.3282 205.994 60.3282C205.994 60.3282 205.994 60.3282 205.994 60.3282C205.994 60.3282 205.994 60.3282 205.994 60.3282C205.994 60.3282 205.994 60.3282 205.994 60.3282C205.994 60.3282 205.994 60.3282 205.994 60.3282C205.994 60.3282 205.994 60.3282 205.994 60.3282C205.994 60.3282 205.994 60.3282 205.994 60.3282C205.994 60.3282 205.994 60.3282 205.994 60.3282C205.994 60.3282 205.994 60.3282 205.994 60.3282C205.994 60.3282 205.994 60.3282 205.994 60.3282C205.994 60.3282 205.994 60.3282 205.994 60.3282C205.994 60.3282 205.994 60.3282 205.994 60.3282C205.994 60.3282 205.994 60.3282 205.994 60.3282C205.994 60.3282 205.994 60.3282 205.994 60.3282C205.994 60.3282 205.994 60.3282 205.994 60.3282C205.994 60.3282 205.994 60.3282 205.994 60.3282C205.994 60.3282 205.994 60.3282 205.994 60.3282C205.994 60.3282 205.994 60.3282 205.994 60.3282C205.994 60.3282 205.994 60.3282 205.994 60.3282C205.994 60.3282 205.994 60.3282 205.994 60.3282C205.994 60.3282 205.994 60.3282 205.994 60.3282C205.994 60.3282 205.994 60.3282 205.994 60.3282C205.994 60.3282 205.994 60.3282 205.994 60.3282C205.994 60.3282 205.994 60.3282 205.994 60.3282C205.994 60.3282 205.994 60.3282 205.994 60.3282C205.994 60.3282 205.994 60.3282 205.994 60.3282C205.994 60.3282 205.994 60.3282 205.994 60.3282C205.994 60.3282 205.994 60.3282 205.994 60.3282C205.994 60.3282 205.994 60.3282 205.994 60.3282C205.994 60.3282 205.994 60.3282 205.994 60.3282C205.994 60.3282 205.994 60.3282 205.994 60.3282C205.994 60.3282 205.994 60.3282 205.994 60.3282C205.994 60.3282 205.994 60.3282 205.994 60.3282C205.994 60.3282 205.994 60.3282 205.994 60.3282C205.994 60.3282 205.994 60.3282 205.994 60.3282C205.994 60.3282 205.994 60.3282 205.994 60.3282C205.994 60.3282 205.994 60.3282 205.994 60.3282C205.994 60.3282 205.994 60.3282 205.994 60.3282C205.994 60.3282 205.994 60.3282 205.994 60.3282C205.994 60.3282 205.994 60.3282 205.994 60.3282C205.994 60.3282 205.994 60.3282 205.994 60.3282C205.994 60.3282 205.994 60.3282 205.994 60.3282C205.994 60.3282 205.994 60.3282 205.994 60.3282C205.994 60.3282 205.994 60.3282 205.994 60.3282C205.994 60.3282 205.994 60.3282 205.994 60.3282C205.994 60.3282 205.994 60.3282 205.994 60.3282C205.994 60.3282 205.994 60.3282 205.994 60.3282C205.994 60.3282 205.994 60.3282 205.994 60.3282C205.994 60.3282 205.994 60.3282 205.994 60.3282C205.994 60.3282 205.994 60.3282 205.994 60.3282C205.994 60.3282 205.994 60.3282 205.994 60.3282C205.994 60.3282 205.994 60.3282 205.994 60.3282C205.994 60.3282 205.994 60.3282 205.994 60.3282C205.994 60.3282 205.994 60.3282 205.994 60.3282C205.994 60.3282 205.994 60.3282 205.994 60.3282C205.994 60.3282 205.994 60.3282 205.994 60.3282C205.994 60.3282 205.994 60.3282 205.994 60.3282C205.994 60.3282 205.994 60.3282 205.994 60.3282C205.994 60.3282 205.994 60.3282 205.994 60.3282C205.994 60.3282 205.994 60.3282 205.994 60.3282C205.994 60.3282 205.994 60.3282 205.994 60.3282C205.994 60.3282 205.994 60.3282 205.994 60.3282C205.994 60.3282 205.994 60.3282 205.994 60.3282C205.994 60.3282 205.994 60.3282 205.994 60.3282C205.994 60.3282 205.994 60.3282 205.994 60.3282C205.994 60.3282 205.994 60.3282 205.994 60.3282C205.994 60.3282 205.994 60.3282 205.994 60.3282C205.994 60.3282 205.994 60.3282 205.994 60.3282C205.994 60.3282 205.994 60.3282 205.994 60.3282C205.994 60.3282 205.994 60.3282 205.994 60.3282C205.994 60.3282 205.994 60.3282 205.994 60.3282C205.994 60.3282 205.994 60.3282 205.994 60.3282C205.994 60.3282 205.994 60.3282 205.994 60.3282C205.994 60.3282 205.994 60.3282 205.994 60.3282C205.994 60.3282 205.994 60.3282 205.994 60.3282C205.994 60.3282 205.994 60.3282 205.994 60.3282C205.994 60.3282 205.994 60.3282 205.994 60.3282C205.994 60.3282 205.994 60.3282 205.994 60.3282C205.994 60.3282 205.994 60.3282 205.994 60.3282C205.994 60.3282 205.994 60.3282 205.994 60.3282C205.994 60.3282 205.994 60.3282 205.994 60.3282C205.994 60.3282 205.994 60.3282 205.994 60.3282C205.994 60.3282 205.994 60.3282 205.994 60.3282C205.994 60.3282 205.994 60.3282 205.994 60.3282C205.994 60.3282 205.994 60.3282 205.994 60.3282C205.994 60.3282 205.994 60.3282 205.994 60.3282C205.994 60.3282 205.994 60.3282 205.994 60.3282C205.994 60.3282 205.994 60.3282 205.994 60.3282C205.994 60.3282 205.994 60.3282 205.994 60.3282C205.994 60.3282 205.994 60.3282 205.994 60.3282C205.994 60.3282 205.994 60.3282 205.994 60.3282C205.994 60.3282 205.994 60.3282 205.994 60.3282C205.994 60.3281 205.994 60.3281 205.994 60.3281C205.994 60.3281 205.994 60.3281 205.994 60.3281C205.994 60.3281 205.994 60.3281 205.994 60.3281C205.994 60.3281 205.994 60.3281 205.994 60.3281C205.994 60.3281 205.994 60.3281 205.994 60.3281C205.994 60.3281 205.994 60.3281 205.994 60.3281C205.994 60.3281 205.994 60.3281 205.994 60.3281C205.994 60.3281 205.994 60.3281 205.994 60.3281C205.994 60.3281 205.994 60.3281 205.994 60.3281C205.994 60.3281 205.994 60.3281 205.994 60.3281C205.994 60.3281 205.994 60.3281 205.994 60.3281C205.994 60.3281 205.994 60.3281 205.994 60.3281C205.994 60.3281 205.994 60.3281 205.994 60.3281C205.994 60.3281 205.994 60.3281 205.994 60.3281C205.994 60.3281 205.994 60.3281 205.994 60.3281C205.994 60.3281 205.994 60.3281 205.994 60.3281C205.994 60.3281 205.994 60.3281 205.994 60.3281C205.994 60.3281 205.994 60.3281 205.994 60.3281C205.994 60.3281 205.994 60.3281 205.994 60.3281C205.994 60.3281 205.994 60.3281 205.994 60.3281C205.994 60.3281 205.994 60.3281 205.994 60.3281C205.994 60.3281 205.994 60.3281 205.994 60.3281C205.994 60.3281 205.994 60.3281 205.994 60.3281C205.994 60.3281 205.994 60.3281 205.994 60.3281C205.994 60.3281 205.994 60.3281 205.994 60.3281C205.994 60.3281 205.994 60.3281 205.994 60.3281C205.994 60.3281 205.994 60.3281 205.994 60.3281C205.994 60.3281 205.994 60.3281 205.994 60.3281C205.994 60.3281 205.994 60.3281 205.994 60.3281C205.994 60.3281 205.994 60.3281 205.994 60.3281C205.994 60.3281 205.994 60.3281 205.994 60.3281C205.994 60.3281 205.994 60.3281 205.994 60.3281C205.994 60.3281 205.994 60.3281 205.994 60.3281C205.994 60.3281 205.994 60.3281 205.994 60.3281C205.994 60.3281 205.994 60.3281 205.994 60.3281C205.994 60.3281 205.994 60.3281 205.994 60.3281C205.994 60.3281 205.994 60.3281 205.994 60.3281C205.994 60.3281 205.994 60.3281 205.994 60.3281C205.994 60.3281 205.994 60.3281 205.994 60.3281C205.994 60.3281 205.994 60.3281 205.994 60.3281C205.994 60.3281 205.994 60.3281 205.994 60.3281C205.994 60.3281 205.994 60.3281 205.994 60.3281C205.994 60.3281 205.994 60.3281 205.994 60.3281C205.994 60.3281 205.994 60.3281 205.994 60.3281C205.994 60.3281 205.994 60.3281 205.994 60.3281C205.994 60.3281 205.994 60.3281 205.994 60.3281C205.994 60.3281 205.994 60.3281 205.994 60.3281C205.994 60.3281 205.994 60.3281 205.994 60.3281C205.994 60.3281 205.994 60.3281 205.994 60.3281C205.994 60.3281 205.994 60.3281 205.994 60.3281C205.994 60.3281 205.994 60.3281 205.994 60.3281C205.994 60.3281 205.994 60.3281 205.994 60.3281C205.994 60.3281 205.994 60.3281 205.994 60.3281C205.994 60.3281 205.994 60.3281 205.994 60.3281C205.994 60.3281 205.994 60.3281 205.994 60.3281C205.994 60.3281 205.994 60.3281 205.994 60.3281C205.994 60.3281 205.994 60.3281 205.994 60.3281C205.994 60.3281 205.994 60.3281 205.994 60.3281C205.994 60.3281 205.994 60.3281 205.994 60.3281C205.994 60.3281 205.994 60.3281 205.994 60.3281C205.994 60.3281 205.994 60.3281 205.994 60.3281C205.994 60.3281 205.994 60.3281 205.994 60.3281C205.994 60.3281 205.994 60.3281 205.994 60.3281C205.994 60.3281 205.994 60.3281 205.994 60.3281C205.994 60.3281 205.994 60.3281 205.994 60.3281C205.994 60.3281 205.994 60.3281 205.994 60.3281C205.994 60.3281 205.994 60.3281 205.994 60.3281C205.994 60.3281 205.994 60.3281 205.994 60.3281C205.994 60.3281 205.994 60.3281 205.994 60.3281C205.994 60.3281 205.994 60.3281 205.994 60.3281C205.994 60.3281 205.994 60.3281 205.994 60.3281C205.994 60.3281 205.994 60.3281 205.994 60.3281C205.994 60.3281 205.994 60.3281 205.994 60.3281C205.994 60.3281 205.994 60.3281 205.994 60.3281C205.994 60.3281 205.994 60.3281 205.994 60.3281C205.994 60.3281 205.994 60.3281 205.994 60.3281C205.994 60.3281 205.994 60.3281 205.994 60.3281C205.994 60.3281 205.994 60.3281 205.994 60.3281C205.994 60.3281 205.994 60.3281 205.994 60.3281C205.994 60.3281 205.994 60.3281 205.994 60.3281C205.994 60.3281 205.994 60.3281 205.994 60.3281C205.994 60.3281 205.994 60.3281 205.994 60.3281C205.994 60.3281 205.994 60.3281 205.994 60.3281C205.994 60.3281 205.994 60.3281 205.994 60.3281C205.994 60.3281 205.994 60.3281 205.994 60.3281C205.994 60.3281 205.994 60.3281 205.994 60.3281C205.994 60.3281 205.994 60.3281 205.994 60.3281C205.994 60.3281 205.994 60.3281 205.994 60.3281C205.994 60.3281 205.994 60.3281 205.994 60.3281C205.994 60.3281 205.994 60.3281 205.994 60.3281C205.994 60.3281 205.994 60.3281 205.994 60.3281C205.994 60.3281 205.994 60.3281 205.994 60.3281C205.994 60.3281 205.994 60.3281 205.994 60.3281C205.994 60.3281 205.994 60.3281 205.994 60.3281C205.994 60.3281 205.994 60.3281 205.994 60.3281C205.994 60.3281 205.994 60.3281 205.994 60.3281C205.994 60.3281 205.994 60.3281 205.994 60.3281C205.994 60.3281 205.994 60.3281 205.994 60.3281C205.994 60.3281 205.994 60.3281 205.994 60.3281C205.994 60.3281 205.994 60.3281 205.994 60.3281C205.994 60.3281 205.994 60.3281 205.994 60.3281C205.994 60.3281 205.994 60.3281 205.994 60.3281C205.994 60.3281 205.994 60.3281 205.994 60.3281C205.994 60.3281 205.994 60.3281 205.994 60.3281C205.994 60.3281 205.994 60.3281 205.994 60.3281C205.994 60.3281 205.994 60.3281 205.994 60.3281C205.994 60.3281 205.994 60.3281 205.994 60.3281C205.994 60.3281 205.994 60.3281 205.994 60.3281C205.994 60.3281 205.994 60.3281 205.994 60.3281C205.994 60.3281 205.994 60.3281 205.994 60.3281C205.994 60.3281 205.994 60.3281 205.994 60.3281C205.994 60.3281 205.994 60.3281 205.994 60.3281C205.994 60.3281 205.994 60.3281 205.994 60.3281C205.994 60.3281 205.994 60.3281 205.994 60.3281C205.994 60.3281 205.994 60.3281 205.994 60.3281C205.994 60.3281 205.994 60.3281 205.994 60.3281C205.994 60.3281 205.994 60.3281 205.994 60.3281C205.994 60.3281 205.994 60.3281 205.994 60.3281C205.994 60.3281 205.994 60.3281 205.994 60.3281C205.994 60.3281 205.994 60.3281 205.994 60.3281C205.994 60.3281 205.994 60.3281 205.994 60.3281C205.994 60.3281 205.994 60.3281 205.994 60.3281C205.994 60.3281 205.994 60.3281 205.994 60.3281C205.994 60.3281 205.994 60.3281 205.994 60.3281C205.994 60.3281 205.994 60.3281 205.994 60.3281C205.994 60.3281 205.994 60.3281 205.994 60.3281L204.023 59.991ZM207.344 59.5444L205.177 59.1739L204.84 61.1453L207.007 61.5158L207.344 59.5444ZM209.067 64.5175C208.256 63.4026 207.933 62.0289 208.161 60.6986L206.189 60.3615C205.87 62.231 206.326 64.1491 207.449 65.6937L209.067 64.5175ZM212.499 66.6348C211.112 66.3976 209.878 65.6333 209.067 64.5175L207.449 65.6937C208.572 67.2373 210.268 68.2823 212.162 68.6062L212.499 66.6348ZM216.44 65.7782C215.305 66.5611 213.887 66.872 212.499 66.6348L212.162 68.6062C214.057 68.9301 216.004 68.5081 217.575 67.4251L216.44 65.7782ZM218.564 62.4773C218.336 63.8077 217.575 64.9961 216.44 65.7782L217.575 67.4251C219.148 66.3414 220.216 64.6839 220.535 62.8144L218.564 62.4773ZM221.885 62.0307L219.718 61.6602L219.381 63.6316L221.548 64.002L221.885 62.0307ZM218.852 69.1809C220.899 67.7705 222.286 65.6147 222.702 63.1849L220.731 62.8478C220.407 64.7385 219.326 66.4252 217.717 67.5341L218.852 69.1809ZM211.801 70.7188C214.27 71.141 216.806 70.5906 218.852 69.1809L217.717 67.5341C216.107 68.6436 214.1 69.0829 212.138 68.7474L211.801 70.7188ZM205.662 66.9255C207.123 68.9348 209.332 70.2966 211.801 70.7188L212.138 68.7474C210.176 68.4119 208.429 67.3308 207.279 65.7493L205.662 66.9255ZM204.437 64.6201C204.731 65.4336 205.141 66.2103 205.662 66.9255L207.279 65.7493C206.87 65.1866 206.548 64.5772 206.318 63.9406L204.437 64.6201ZM204.604 63.6474C204.175 64.1715 203.669 64.6395 203.097 65.0343L204.231 66.6811C204.96 66.1793 205.605 65.583 206.152 64.9133L204.604 63.6474ZM203.097 65.0343C201.486 66.1439 199.48 66.5832 197.517 66.2477L197.18 68.2191C199.649 68.6412 202.186 68.0909 204.231 66.6811L203.097 65.0343ZM197.517 66.2477C195.555 65.9122 193.808 64.8311 192.658 63.2496L191.041 64.4258C192.502 66.4351 194.711 67.7969 197.18 68.2191L197.517 66.2477ZM192.658 63.2496C192.25 62.6876 191.929 62.0791 191.699 61.4434L189.818 62.1235C190.112 62.9359 190.521 63.7115 191.041 64.4258L192.658 63.2496ZM189.984 61.1503C189.556 61.6738 189.051 62.1413 188.478 62.5358L189.613 64.1826C190.341 63.6812 190.985 63.0855 191.532 62.4166L189.984 61.1503ZM188.478 62.5358C186.868 63.6453 184.861 64.0846 182.899 63.7491L182.562 65.7205C185.031 66.1427 187.568 65.5923 189.613 64.1826L188.478 62.5358ZM182.899 63.7491C180.937 63.4136 179.19 62.3325 178.04 60.751L176.423 61.9272C177.884 63.9365 180.093 65.2983 182.562 65.7205L182.899 63.7491ZM178.04 60.751C177.551 60.0781 177.187 59.3382 176.955 58.5648L175.039 59.1393C175.336 60.1284 175.801 61.0717 176.423 61.9272L178.04 60.751ZM175.189 58.2628C174.713 58.9149 174.124 59.4915 173.439 59.9635L174.574 61.6104C175.445 61.0103 176.197 60.2753 176.805 59.4413L175.189 58.2628ZM173.439 59.9635C171.829 61.0731 169.822 61.5124 167.86 61.1769L167.523 63.1483C169.992 63.5704 172.529 63.0201 174.574 61.6104L173.439 59.9635ZM167.86 61.1769C165.898 60.8414 164.151 59.7603 163.001 58.1788L161.384 59.355C162.845 61.3643 165.054 62.7261 167.523 63.1483L167.86 61.1769ZM163.001 58.1788C161.852 56.5983 161.393 54.6482 161.716 52.7576L159.745 52.4205C159.329 54.8503 159.922 57.3447 161.384 59.355L163.001 58.1788ZM160.562 53.5748L162.729 53.9452L163.066 51.9738L160.899 51.6034L160.562 53.5748ZM161.912 52.791C161.592 54.6605 162.048 56.5785 163.171 58.1231L164.789 56.9469C163.978 55.8321 163.655 54.4584 163.883 53.1281L161.912 52.791ZM163.171 58.1231C164.294 59.6668 165.99 60.7117 167.884 61.0357L168.222 59.0643C166.834 58.827 165.6 58.0627 164.789 56.9469L163.171 58.1231ZM167.884 61.0357C169.779 61.3596 171.726 60.9375 173.298 59.8545L172.163 58.2077C171.027 58.9906 169.609 59.3015 168.222 59.0643L167.884 61.0357ZM173.298 59.8545C174.87 58.7709 175.938 57.1134 176.257 55.2439L174.286 54.9068C174.058 56.2371 173.298 57.4256 172.163 58.2077L173.298 59.8545ZM175.103 56.061L177.27 56.4315L177.607 54.4601L175.44 54.0896L175.103 56.061ZM176.453 55.2773L176.453 55.2781L178.424 55.6152L178.424 55.6144L176.453 55.2773ZM177.27 56.4323L177.768 56.5175L178.105 54.5461L177.607 54.4609L177.27 56.4323ZM176.95 55.3632C176.631 57.2327 177.087 59.1508 178.21 60.6954L179.828 59.5191C179.017 58.4043 178.694 57.0306 178.922 55.7003L176.95 55.3632ZM178.21 60.6954C179.333 62.239 181.029 63.284 182.923 63.6079L183.26 61.6365C181.873 61.3993 180.639 60.6349 179.828 59.5191L178.21 60.6954ZM182.923 63.6079C184.818 63.9318 186.765 63.5098 188.336 62.4268L187.202 60.7799C186.066 61.5628 184.648 61.8737 183.26 61.6365L182.923 63.6079ZM188.336 62.4268C189.909 61.3431 190.977 59.6856 191.296 57.8161L189.325 57.479C189.097 58.8094 188.337 59.9978 187.202 60.7799L188.336 62.4268ZM190.142 58.6333L190.219 58.6464L190.556 56.675L190.479 56.6619L190.142 58.6333ZM191.373 57.8293L191.373 57.8284L189.402 57.4913L189.402 57.4922L191.373 57.8293ZM190.219 58.6455L192.386 59.016L192.723 57.0446L190.556 56.6741L190.219 58.6455ZM191.569 57.8618C191.249 59.7313 191.705 61.6493 192.828 63.1939L194.446 62.0177C193.635 60.9029 193.313 59.5292 193.54 58.1989L191.569 57.8618ZM192.828 63.1939C193.951 64.7375 195.647 65.7825 197.542 66.1064L197.879 64.135C196.491 63.8978 195.257 63.1335 194.446 62.0177L192.828 63.1939ZM197.542 66.1064C199.436 66.4304 201.383 66.0083 202.955 64.9253L201.82 63.2785C200.684 64.0613 199.266 64.3723 197.879 64.135L197.542 66.1064ZM202.955 64.9253C204.527 63.8416 205.595 62.1842 205.914 60.3147L203.943 59.9776C203.716 61.3079 202.955 62.4963 201.82 63.2785L202.955 64.9253ZM204.76 61.1318L204.84 61.1454L205.177 59.174L205.097 59.1604L204.76 61.1318Z" fill="#333848" mask="url(#path-3-inside-1_137_982)"/>
<rect x="175.543" y="55.6289" width="2.13094" height="2.65277" rx="0.5" transform="rotate(9.70273 175.543 55.6289)" fill="white" stroke="#333848"/>
<rect x="160.627" y="53.08" width="2.13094" height="2.65277" rx="0.5" transform="rotate(9.70273 160.627 53.08)" fill="white" stroke="#333848"/>
<rect x="190.459" y="58.1797" width="2.13094" height="2.65277" rx="0.5" transform="rotate(9.70273 190.459 58.1797)" fill="white" stroke="#333848"/>
<rect x="204.862" y="60.6425" width="2.13094" height="2.65277" rx="0.5" transform="rotate(9.70273 204.862 60.6425)" fill="white" stroke="#333848"/>
<rect x="219.264" y="63.1045" width="2.13094" height="2.65277" rx="0.5" transform="rotate(9.70273 219.264 63.1045)" fill="white" stroke="#333848"/>
<path d="M155.293 45.656L276.907 66.9799C278.516 67.2621 279.506 68.7775 279.117 70.3646C278.729 71.9517 277.109 73.0096 275.499 72.7273L153.886 51.4035L155.293 45.656Z" fill="white" stroke="#333848"/>
<path d="M159.419 48.8045C160.156 45.2484 157.808 41.7867 154.232 41.1559L145.891 39.6847C144.813 39.4946 143.822 40.3159 143.809 41.4101L143.693 50.8087C143.683 51.5697 144.215 52.2306 144.96 52.385L151.807 53.8037C155.289 54.5254 158.698 52.2871 159.419 48.8045Z" fill="white" stroke="#333848"/>
<circle cx="154.768" cy="48.0003" r="2.10912" transform="rotate(11.7066 154.768 48.0003)" fill="white" stroke="#333848"/>
<path d="M136.5 7.65831L26.5 63.6486L26.5 65.1842L136.5 9.19389L136.5 7.65831Z" fill="white" stroke="#333848"/>
<mask id="path-14-inside-2_137_982" fill="white">
<path fill-rule="evenodd" clip-rule="evenodd" d="M75.5484 60.1587C75.5484 60.1587 75.5484 60.1586 75.5484 60.1586L73.3816 60.5291C73.6551 62.129 73.2656 63.7749 72.2987 65.1046C71.3318 66.4343 69.8668 67.3389 68.2258 67.6195C66.5849 67.9001 64.9025 67.5336 63.5487 66.6007C62.1949 65.6678 61.2807 64.2448 61.0072 62.6449L58.8404 63.0154C59.2097 65.1756 60.4441 67.0969 62.272 68.3565C64.0998 69.6161 66.3714 70.111 68.587 69.7321C70.8027 69.3533 72.7808 68.1318 74.0863 66.3365C74.5509 65.6975 74.9168 65.0044 75.1787 64.2794C75.6667 64.8763 76.2421 65.4084 76.8926 65.8567C78.7205 67.1164 80.9921 67.6112 83.2077 67.2324C85.4233 66.8536 87.4015 65.6321 88.707 63.8367C89.171 63.1986 89.5365 62.5065 89.7984 61.7825C90.286 62.3787 90.861 62.9103 91.5109 63.3582C93.3388 64.6178 95.6104 65.1127 97.826 64.7338C100.042 64.355 102.02 63.1335 103.325 61.3381C103.881 60.5739 104.295 59.7323 104.56 58.8511C105.102 59.5941 105.772 60.25 106.55 60.786C108.378 62.0456 110.649 62.5404 112.865 62.1616C115.081 61.7828 117.059 60.5613 118.364 58.7659C119.67 56.9705 120.196 54.7483 119.826 52.5881L117.659 52.9586C117.933 54.5585 117.543 56.2043 116.577 57.5341C115.61 58.8638 114.145 59.7684 112.504 60.049C110.863 60.3296 109.18 59.9631 107.827 59.0302C106.473 58.0972 105.559 56.6743 105.285 55.0744L103.118 55.4448L103.118 55.4457L102.621 55.5308C102.894 57.1307 102.505 58.7766 101.538 60.1063C100.571 61.436 99.1057 62.3406 97.4648 62.6212C95.8238 62.9018 94.1414 62.5353 92.7877 61.6024C91.4339 60.6694 90.5197 59.2465 90.2461 57.6466L90.1692 57.6597L90.169 57.6589L88.0022 58.0293C88.2758 59.6293 87.8863 61.2751 86.9194 62.6048C85.9525 63.9345 84.4874 64.8392 82.8465 65.1198C81.2055 65.4003 79.5231 65.0339 78.1694 64.1009C76.8156 63.168 75.9014 61.7451 75.6278 60.1451L75.5484 60.1587Z"/>
</mask>
<path fill-rule="evenodd" clip-rule="evenodd" d="M75.5484 60.1587C75.5484 60.1587 75.5484 60.1586 75.5484 60.1586L73.3816 60.5291C73.6551 62.129 73.2656 63.7749 72.2987 65.1046C71.3318 66.4343 69.8668 67.3389 68.2258 67.6195C66.5849 67.9001 64.9025 67.5336 63.5487 66.6007C62.1949 65.6678 61.2807 64.2448 61.0072 62.6449L58.8404 63.0154C59.2097 65.1756 60.4441 67.0969 62.272 68.3565C64.0998 69.6161 66.3714 70.111 68.587 69.7321C70.8027 69.3533 72.7808 68.1318 74.0863 66.3365C74.5509 65.6975 74.9168 65.0044 75.1787 64.2794C75.6667 64.8763 76.2421 65.4084 76.8926 65.8567C78.7205 67.1164 80.9921 67.6112 83.2077 67.2324C85.4233 66.8536 87.4015 65.6321 88.707 63.8367C89.171 63.1986 89.5365 62.5065 89.7984 61.7825C90.286 62.3787 90.861 62.9103 91.5109 63.3582C93.3388 64.6178 95.6104 65.1127 97.826 64.7338C100.042 64.355 102.02 63.1335 103.325 61.3381C103.881 60.5739 104.295 59.7323 104.56 58.8511C105.102 59.5941 105.772 60.25 106.55 60.786C108.378 62.0456 110.649 62.5404 112.865 62.1616C115.081 61.7828 117.059 60.5613 118.364 58.7659C119.67 56.9705 120.196 54.7483 119.826 52.5881L117.659 52.9586C117.933 54.5585 117.543 56.2043 116.577 57.5341C115.61 58.8638 114.145 59.7684 112.504 60.049C110.863 60.3296 109.18 59.9631 107.827 59.0302C106.473 58.0972 105.559 56.6743 105.285 55.0744L103.118 55.4448L103.118 55.4457L102.621 55.5308C102.894 57.1307 102.505 58.7766 101.538 60.1063C100.571 61.436 99.1057 62.3406 97.4648 62.6212C95.8238 62.9018 94.1414 62.5353 92.7877 61.6024C91.4339 60.6694 90.5197 59.2465 90.2461 57.6466L90.1692 57.6597L90.169 57.6589L88.0022 58.0293C88.2758 59.6293 87.8863 61.2751 86.9194 62.6048C85.9525 63.9345 84.4874 64.8392 82.8465 65.1198C81.2055 65.4003 79.5231 65.0339 78.1694 64.1009C76.8156 63.168 75.9014 61.7451 75.6278 60.1451L75.5484 60.1587Z" fill="white"/>
<path d="M75.5484 60.1586L75.3798 59.1729L76.3655 59.0044L76.5341 59.9901L75.5484 60.1586ZM75.5484 60.1587L75.7169 61.1444L74.7312 61.313L74.5627 60.3273L75.5484 60.1587ZM73.3816 60.5291L72.3959 60.6976L72.2273 59.7119L73.213 59.5434L73.3816 60.5291ZM72.2987 65.1046L73.1075 65.6927L73.1075 65.6927L72.2987 65.1046ZM68.2258 67.6195L68.0573 66.6338L68.2258 67.6195ZM63.5487 66.6007L62.9813 67.4241L62.9813 67.4241L63.5487 66.6007ZM61.0072 62.6449L60.8386 61.6592L61.8243 61.4907L61.9929 62.4764L61.0072 62.6449ZM58.8404 63.0154L57.8547 63.1839L57.6862 62.1982L58.6718 62.0297L58.8404 63.0154ZM62.272 68.3565L62.8394 67.5331L62.8394 67.5331L62.272 68.3565ZM68.587 69.7321L68.4185 68.7464L68.587 69.7321ZM74.0863 66.3365L74.8951 66.9246L74.0863 66.3365ZM75.1787 64.2794L74.2382 63.9396L74.8372 62.2816L75.9529 63.6465L75.1787 64.2794ZM76.8926 65.8567L77.4601 65.0333L77.4601 65.0333L76.8926 65.8567ZM83.2077 67.2324L83.0392 66.2467L83.2077 67.2324ZM88.707 63.8367L87.8982 63.2486L87.8982 63.2486L88.707 63.8367ZM89.7984 61.7825L88.858 61.4424L89.4571 59.7858L90.5724 61.1493L89.7984 61.7825ZM91.5109 63.3582L92.0784 62.5348L92.0784 62.5348L91.5109 63.3582ZM97.826 64.7338L97.6575 63.7481L97.826 64.7338ZM103.325 61.3381L104.134 61.9262L104.134 61.9263L103.325 61.3381ZM104.56 58.8511L103.602 58.5638L104.181 56.6342L105.368 58.2618L104.56 58.8511ZM106.55 60.786L107.117 59.9626L107.117 59.9626L106.55 60.786ZM112.865 62.1616L112.696 61.1759L112.865 62.1616ZM118.364 58.7659L117.555 58.1778L118.364 58.7659ZM119.826 52.5881L119.658 51.6024L120.643 51.4338L120.812 52.4195L119.826 52.5881ZM117.659 52.9586L116.674 53.1271L116.505 52.1414L117.491 51.9729L117.659 52.9586ZM112.504 60.049L112.335 59.0633L112.504 60.049ZM107.827 59.0302L108.394 58.2067L108.394 58.2067L107.827 59.0302ZM105.285 55.0744L105.116 54.0887L106.102 53.9201L106.271 54.9058L105.285 55.0744ZM103.118 55.4448L102.133 55.6134L101.964 54.6277L102.95 54.4592L103.118 55.4448ZM103.118 55.4457L104.104 55.2771L104.273 56.2628L103.287 56.4314L103.118 55.4457ZM102.621 55.5308L101.635 55.6993L101.466 54.7136L102.452 54.5451L102.621 55.5308ZM97.4648 62.6212L97.2963 61.6355L97.4648 62.6212ZM90.2461 57.6466L90.0776 56.6609L91.0633 56.4924L91.2318 57.4781L90.2461 57.6466ZM90.1692 57.6597L90.3377 58.6454L89.352 58.814L89.1835 57.8283L90.1692 57.6597ZM90.169 57.6589L90.0005 56.6732L90.9862 56.5046L91.1547 57.4903L90.169 57.6589ZM88.0022 58.0293L87.0165 58.1979L86.848 57.2122L87.8337 57.0436L88.0022 58.0293ZM86.9194 62.6048L87.7282 63.1929L87.7282 63.1929L86.9194 62.6048ZM82.8465 65.1198L82.678 64.1341L82.8465 65.1198ZM78.1694 64.1009L77.6019 64.9243L77.6019 64.9243L78.1694 64.1009ZM75.6278 60.1451L75.4593 59.1595L76.445 58.9909L76.6135 59.9766L75.6278 60.1451ZM76.5341 59.9901C76.5341 59.9901 76.5341 59.9901 76.5341 59.9901C76.5341 59.9902 76.5341 59.9902 76.5341 59.9902L74.5627 60.3273C74.5627 60.3272 74.5627 60.3272 74.5627 60.3272C74.5627 60.3272 74.5627 60.3272 74.5627 60.3271L76.5341 59.9901ZM73.213 59.5434L75.3798 59.1729L75.7169 61.1443L73.5501 61.5148L73.213 59.5434ZM71.4899 64.5165C72.3006 63.4016 72.6233 62.028 72.3959 60.6976L74.3673 60.3606C74.6869 62.2301 74.2307 64.1481 73.1075 65.6927L71.4899 64.5165ZM68.0573 66.6338C69.4448 66.3966 70.6786 65.6323 71.4899 64.5165L73.1075 65.6927C71.9851 67.2363 70.2888 68.2813 68.3944 68.6052L68.0573 66.6338ZM64.1161 65.7773C65.2521 66.5601 66.6698 66.871 68.0573 66.6338L68.3944 68.6052C66.4999 68.9291 64.5528 68.5071 62.9813 67.4241L64.1161 65.7773ZM61.9929 62.4764C62.2203 63.8067 62.9812 64.9951 64.1161 65.7773L62.9813 67.4241C61.4087 66.3404 60.3411 64.6829 60.0215 62.8134L61.9929 62.4764ZM58.6718 62.0297L60.8386 61.6592L61.1757 63.6306L59.0089 64.0011L58.6718 62.0297ZM61.7045 69.1799C59.6579 67.7695 58.2701 65.6137 57.8547 63.1839L59.8261 62.8468C60.1493 64.7375 61.2303 66.4242 62.8394 67.5331L61.7045 69.1799ZM68.7556 70.7178C66.2865 71.14 63.7502 70.5896 61.7045 69.1799L62.8394 67.5331C64.4495 68.6426 66.4564 69.0819 68.4185 68.7464L68.7556 70.7178ZM74.8951 66.9246C73.434 68.9338 71.2247 70.2957 68.7556 70.7178L68.4185 68.7464C70.3806 68.4109 72.1276 67.3298 73.2775 65.7484L74.8951 66.9246ZM76.1192 64.6191C75.8254 65.4326 75.4152 66.2093 74.8951 66.9246L73.2775 65.7484C73.6867 65.1857 74.0082 64.5763 74.2382 63.9396L76.1192 64.6191ZM75.9529 63.6465C76.3814 64.1706 76.8872 64.6385 77.4601 65.0333L76.3252 66.6802C75.597 66.1783 74.952 65.582 74.4045 64.9123L75.9529 63.6465ZM77.4601 65.0333C79.0702 66.1429 81.077 66.5822 83.0392 66.2467L83.3763 68.2181C80.9072 68.6403 78.3708 68.0899 76.3252 66.6802L77.4601 65.0333ZM83.0392 66.2467C85.0013 65.9112 86.7482 64.8301 87.8982 63.2486L89.5158 64.4248C88.0547 66.4341 85.8454 67.7959 83.3763 68.2181L83.0392 66.2467ZM87.8982 63.2486C88.3068 62.6867 88.6281 62.0781 88.858 61.4424L90.7388 62.1226C90.445 62.9349 90.0352 63.7105 89.5158 64.4248L87.8982 63.2486ZM90.5724 61.1493C91.0006 61.6729 91.506 62.1403 92.0784 62.5348L90.9435 64.1816C90.2159 63.6802 89.5715 63.0845 89.0243 62.4156L90.5724 61.1493ZM92.0784 62.5348C93.6885 63.6443 95.6953 64.0836 97.6575 63.7481L97.9945 65.7195C95.5254 66.1417 92.9891 65.5913 90.9435 64.1816L92.0784 62.5348ZM97.6575 63.7481C99.6196 63.4126 101.367 62.3315 102.516 60.75L104.134 61.9263C102.673 63.9355 100.464 65.2973 97.9945 65.7195L97.6575 63.7481ZM102.516 60.75C103.006 60.0771 103.37 59.3372 103.602 58.5638L105.518 59.1383C105.221 60.1274 104.756 61.0707 104.134 61.9262L102.516 60.75ZM105.368 58.2618C105.843 58.9139 106.432 59.4906 107.117 59.9626L105.982 61.6094C105.112 61.0094 104.36 60.2743 103.752 59.4404L105.368 58.2618ZM107.117 59.9626C108.727 61.0721 110.734 61.5114 112.696 61.1759L113.033 63.1473C110.564 63.5695 108.028 63.0191 105.982 61.6094L107.117 59.9626ZM112.696 61.1759C114.658 60.8404 116.405 59.7593 117.555 58.1778L119.173 59.354C117.712 61.3633 115.503 62.7251 113.033 63.1473L112.696 61.1759ZM117.555 58.1778C118.705 56.5973 119.164 54.6472 118.841 52.7566L120.812 52.4195C121.227 54.8494 120.635 57.3438 119.173 59.354L117.555 58.1778ZM119.995 53.5738L117.828 53.9443L117.491 51.9729L119.658 51.6024L119.995 53.5738ZM118.645 52.79C118.965 54.6595 118.508 56.5776 117.385 58.1222L115.768 56.9459C116.578 55.8311 116.901 54.4574 116.674 53.1271L118.645 52.79ZM117.385 58.1222C116.263 59.6658 114.567 60.7108 112.672 61.0347L112.335 59.0633C113.723 58.8261 114.956 58.0618 115.768 56.9459L117.385 58.1222ZM112.672 61.0347C110.778 61.3586 108.831 60.9366 107.259 59.8536L108.394 58.2067C109.53 58.9896 110.948 59.3005 112.335 59.0633L112.672 61.0347ZM107.259 59.8536C105.687 58.7699 104.619 57.1124 104.299 55.2429L106.271 54.9058C106.498 56.2362 107.259 57.4246 108.394 58.2067L107.259 59.8536ZM105.454 56.0601L103.287 56.4305L102.95 54.4592L105.116 54.0887L105.454 56.0601ZM104.104 55.2763L104.104 55.2771L102.133 55.6142L102.133 55.6134L104.104 55.2763ZM103.287 56.4314L102.789 56.5165L102.452 54.5451L102.95 54.46L103.287 56.4314ZM103.606 55.3622C103.926 57.2318 103.47 59.1498 102.346 60.6944L100.729 59.5182C101.54 58.4033 101.862 57.0297 101.635 55.6993L103.606 55.3622ZM102.346 60.6944C101.224 62.238 99.5278 63.283 97.6333 63.6069L97.2963 61.6355C98.6837 61.3983 99.9176 60.634 100.729 59.5182L102.346 60.6944ZM97.6333 63.6069C95.7389 63.9308 93.7918 63.5088 92.2202 62.4258L93.3551 60.779C94.4911 61.5618 95.9088 61.8727 97.2963 61.6355L97.6333 63.6069ZM92.2202 62.4258C90.6477 61.3421 89.5801 59.6846 89.2604 57.8151L91.2318 57.4781C91.4593 58.8084 92.2201 59.9968 93.3551 60.779L92.2202 62.4258ZM90.4147 58.6323L90.3377 58.6454L90.0006 56.674L90.0776 56.6609L90.4147 58.6323ZM89.1835 57.8283L89.1833 57.8274L91.1547 57.4903L91.1549 57.4912L89.1835 57.8283ZM90.3376 58.6446L88.1708 59.015L87.8337 57.0436L90.0005 56.6732L90.3376 58.6446ZM88.9879 57.8608C89.3076 59.7303 88.8513 61.6483 87.7282 63.1929L86.1106 62.0167C86.9213 60.9019 87.244 59.5282 87.0165 58.1979L88.9879 57.8608ZM87.7282 63.1929C86.6058 64.7366 84.9095 65.7815 83.015 66.1055L82.678 64.1341C84.0654 63.8968 85.2993 63.1325 86.1106 62.0167L87.7282 63.1929ZM83.015 66.1055C81.1206 66.4294 79.1735 66.0073 77.6019 64.9243L78.7368 63.2775C79.8728 64.0604 81.2905 64.3713 82.678 64.1341L83.015 66.1055ZM77.6019 64.9243C76.0294 63.8407 74.9618 62.1832 74.6421 60.3137L76.6135 59.9766C76.841 61.3069 77.6018 62.4954 78.7368 63.2775L77.6019 64.9243ZM75.7964 61.1308L75.7169 61.1444L75.3798 59.173L75.4593 59.1595L75.7964 61.1308Z" fill="#333848" mask="url(#path-14-inside-2_137_982)"/>
<rect x="-0.40858" y="0.577116" width="2.13094" height="2.65277" rx="0.5" transform="matrix(-0.985695 0.168536 0.168536 0.985695 104.519 55.1289)" fill="white" stroke="#333848"/>
<rect x="-0.40858" y="0.577116" width="2.13094" height="2.65277" rx="0.5" transform="matrix(-0.985695 0.168536 0.168536 0.985695 119.433 52.5791)" fill="white" stroke="#333848"/>
<rect x="-0.40858" y="0.577116" width="2.13094" height="2.65277" rx="0.5" transform="matrix(-0.985695 0.168536 0.168536 0.985695 89.6012 57.6797)" fill="white" stroke="#333848"/>
<rect x="-0.40858" y="0.577116" width="2.13094" height="2.65277" rx="0.5" transform="matrix(-0.985695 0.168536 0.168536 0.985695 75.1988 60.1425)" fill="white" stroke="#333848"/>
<rect x="-0.40858" y="0.577116" width="2.13094" height="2.65277" rx="0.5" transform="matrix(-0.985695 0.168536 0.168536 0.985695 60.7965 62.6054)" fill="white" stroke="#333848"/>
<path d="M125.267 45.656L3.65383 66.9799C2.04438 67.2621 1.05471 68.7775 1.44335 70.3646C1.83199 71.9517 3.45177 73.0096 5.06123 72.7273L126.674 51.4035L125.267 45.656Z" fill="white" stroke="#333848"/>
<path d="M121.141 48.8045C120.405 45.2484 122.752 41.7867 126.329 41.1559L134.67 39.6847C135.747 39.4946 136.739 40.3159 136.752 41.4101L136.868 50.8087C136.877 51.5697 136.346 52.2306 135.601 52.385L128.754 53.8037C125.271 54.5254 121.863 52.2871 121.141 48.8045Z" fill="white" stroke="#333848"/>
<circle cx="2.60912" cy="2.60912" r="2.10912" transform="matrix(-0.979199 0.202901 0.202901 0.979199 127.818 44.916)" fill="white" stroke="#333848"/>
<line y1="-0.5" x2="6.44547" y2="-0.5" transform="matrix(0.164399 0.986394 0.986394 -0.164399 8.73633 65.7461)" stroke="#333848"/>
<line x1="271.554" y1="65.8283" x2="270.494" y2="72.1861" stroke="#333848"/>
</svg>
