<svg width="265" height="93" viewBox="0 0 265 93" fill="none" xmlns="http://www.w3.org/2000/svg">
<path d="M240.929 52.6633L252.366 55.0331C258.109 56.2233 261.801 61.8441 260.611 67.5877C259.42 73.3313 253.8 77.0226 248.056 75.8324L236.619 73.4626L240.929 52.6633Z" fill="white" stroke="#333848"/>
<mask id="path-2-inside-1_137_801" fill="white">
<path fill-rule="evenodd" clip-rule="evenodd" d="M69.8066 36.743L69.8066 36.7427L74.1754 37.6479C73.507 40.8737 74.1802 44.2398 76.0471 47.0056C77.9139 49.7713 80.8214 51.7103 84.13 52.3959C87.4385 53.0814 90.8771 52.4575 93.6892 50.6612C96.5014 48.865 98.4567 46.0436 99.1252 42.8178L103.494 43.723L103.651 43.7556C102.983 46.9815 103.656 50.3475 105.523 53.1133C107.39 55.8791 110.297 57.818 113.606 58.5036C116.914 59.1892 120.353 58.5652 123.165 56.7689C125.977 54.9727 127.933 52.1513 128.601 48.9255L132.97 49.8308C132.97 49.8308 132.97 49.8308 132.97 49.8308L133.127 49.8634C132.459 53.0892 133.132 56.4553 134.999 59.221C136.865 61.9868 139.773 63.9257 143.082 64.6113C146.39 65.2969 149.829 64.6729 152.641 62.8767C155.453 61.0804 157.408 58.2591 158.077 55.0332L162.445 55.9385C161.543 60.294 158.903 64.1035 155.106 66.5287C151.309 68.954 146.666 69.7965 142.199 68.8709C137.732 67.9452 133.806 65.3272 131.285 61.5929C130.389 60.2646 129.696 58.8339 129.216 57.3456C128.185 58.5207 126.981 59.5584 125.63 60.421C121.833 62.8463 117.19 63.6888 112.723 62.7631C108.256 61.8375 104.33 59.2195 101.81 55.4851C100.913 54.1569 100.22 52.7262 99.7406 51.2378C98.7089 52.413 97.5048 53.4507 96.1543 54.3133C92.3573 56.7386 87.7146 57.5811 83.2474 56.6554C78.7801 55.7297 74.8544 53.1118 72.3338 49.3774C71.2615 47.7888 70.4808 46.0534 70.0072 44.2484C68.8553 45.7167 67.4493 46.9991 65.8339 48.0309C62.037 50.4562 57.3942 51.2987 52.927 50.3731C48.4598 49.4474 44.534 46.8294 42.0134 43.0951C39.4928 39.3607 38.5837 34.8158 39.4863 30.4603L43.855 31.3656C43.1866 34.5914 43.8599 37.9574 45.7267 40.7232C47.5935 43.489 50.5011 45.4279 53.8096 46.1135C57.1181 46.7991 60.5567 46.1751 63.3689 44.3789C66.181 42.5826 68.1364 39.7613 68.8048 36.5354L69.8066 36.743Z"/>
</mask>
<path fill-rule="evenodd" clip-rule="evenodd" d="M69.8066 36.743L69.8066 36.7427L74.1754 37.6479C73.507 40.8737 74.1802 44.2398 76.0471 47.0056C77.9139 49.7713 80.8214 51.7103 84.13 52.3959C87.4385 53.0814 90.8771 52.4575 93.6892 50.6612C96.5014 48.865 98.4567 46.0436 99.1252 42.8178L103.494 43.723L103.651 43.7556C102.983 46.9815 103.656 50.3475 105.523 53.1133C107.39 55.8791 110.297 57.818 113.606 58.5036C116.914 59.1892 120.353 58.5652 123.165 56.7689C125.977 54.9727 127.933 52.1513 128.601 48.9255L132.97 49.8308C132.97 49.8308 132.97 49.8308 132.97 49.8308L133.127 49.8634C132.459 53.0892 133.132 56.4553 134.999 59.221C136.865 61.9868 139.773 63.9257 143.082 64.6113C146.39 65.2969 149.829 64.6729 152.641 62.8767C155.453 61.0804 157.408 58.2591 158.077 55.0332L162.445 55.9385C161.543 60.294 158.903 64.1035 155.106 66.5287C151.309 68.954 146.666 69.7965 142.199 68.8709C137.732 67.9452 133.806 65.3272 131.285 61.5929C130.389 60.2646 129.696 58.8339 129.216 57.3456C128.185 58.5207 126.981 59.5584 125.63 60.421C121.833 62.8463 117.19 63.6888 112.723 62.7631C108.256 61.8375 104.33 59.2195 101.81 55.4851C100.913 54.1569 100.22 52.7262 99.7406 51.2378C98.7089 52.413 97.5048 53.4507 96.1543 54.3133C92.3573 56.7386 87.7146 57.5811 83.2474 56.6554C78.7801 55.7297 74.8544 53.1118 72.3338 49.3774C71.2615 47.7888 70.4808 46.0534 70.0072 44.2484C68.8553 45.7167 67.4493 46.9991 65.8339 48.0309C62.037 50.4562 57.3942 51.2987 52.927 50.3731C48.4598 49.4474 44.534 46.8294 42.0134 43.0951C39.4928 39.3607 38.5837 34.8158 39.4863 30.4603L43.855 31.3656C43.1866 34.5914 43.8599 37.9574 45.7267 40.7232C47.5935 43.489 50.5011 45.4279 53.8096 46.1135C57.1181 46.7991 60.5567 46.1751 63.3689 44.3789C66.181 42.5826 68.1364 39.7613 68.8048 36.5354L69.8066 36.743Z" fill="white"/>
<path d="M69.8066 36.7427L70.0095 35.7635L69.0303 35.5606L68.8274 36.5398L69.8066 36.7427ZM69.8066 36.743L69.6037 37.7222L70.5829 37.9251L70.7858 36.9459L69.8066 36.743ZM74.1754 37.6479L75.1546 37.8508L75.3575 36.8716L74.3783 36.6687L74.1754 37.6479ZM76.0471 47.0056L75.2182 47.565L75.2182 47.565L76.0471 47.0056ZM84.13 52.3959L84.3329 51.4167L84.13 52.3959ZM93.6892 50.6612L94.2275 51.504L93.6892 50.6612ZM99.1252 42.8178L99.3281 41.8386L98.3489 41.6357L98.146 42.6149L99.1252 42.8178ZM103.494 43.723L103.697 42.7439L103.697 42.7438L103.494 43.723ZM103.651 43.7556L104.63 43.9585L104.833 42.9795L103.854 42.7765L103.651 43.7556ZM105.523 53.1133L104.694 53.6728L104.694 53.6728L105.523 53.1133ZM113.606 58.5036L113.809 57.5244L113.606 58.5036ZM123.165 56.7689L123.703 57.6117L123.165 56.7689ZM128.601 48.9255L128.804 47.9463L127.825 47.7434L127.622 48.7226L128.601 48.9255ZM132.97 49.8308L133.949 50.0337L134.152 49.0545L133.173 48.8516L132.97 49.8308ZM132.97 49.8308L131.991 49.6279L131.788 50.6071L132.767 50.81L132.97 49.8308ZM133.127 49.8634L134.106 50.0663L134.309 49.0871L133.33 48.8842L133.127 49.8634ZM134.999 59.221L134.17 59.7805L134.17 59.7805L134.999 59.221ZM143.082 64.6113L143.284 63.6321L143.082 64.6113ZM152.641 62.8767L153.179 63.7194L152.641 62.8767ZM158.077 55.0332L158.28 54.054L157.3 53.8511L157.098 54.8303L158.077 55.0332ZM162.445 55.9385L163.425 56.1414L163.628 55.1622L162.648 54.9593L162.445 55.9385ZM142.199 68.8709L142.402 67.8917L142.199 68.8709ZM131.285 61.5929L130.456 62.1523L130.456 62.1523L131.285 61.5929ZM129.216 57.3456L130.168 57.0388L129.627 55.3616L128.465 56.6858L129.216 57.3456ZM125.63 60.421L126.168 61.2638L126.168 61.2638L125.63 60.421ZM112.723 62.7631L112.926 61.7839L112.723 62.7631ZM101.81 55.4851L100.981 56.0446L100.981 56.0446L101.81 55.4851ZM99.7406 51.2378L100.692 50.931L100.152 49.2539L98.9891 50.5781L99.7406 51.2378ZM96.1543 54.3133L96.6926 55.156L96.6926 55.156L96.1543 54.3133ZM83.2474 56.6554L83.4503 55.6762L83.2474 56.6554ZM72.3338 49.3774L73.1627 48.8179L72.3338 49.3774ZM70.0072 44.2484L70.9745 43.9946L70.4634 42.0467L69.2204 43.6312L70.0072 44.2484ZM65.8339 48.0309L66.3722 48.8737L65.8339 48.0309ZM52.927 50.3731L53.1299 49.3939L52.927 50.3731ZM39.4863 30.4603L39.6892 29.4811L38.71 29.2782L38.5071 30.2574L39.4863 30.4603ZM43.855 31.3656L44.8342 31.5685L45.0371 30.5893L44.0579 30.3864L43.855 31.3656ZM45.7267 40.7232L44.8978 41.2827L45.7267 40.7232ZM53.8096 46.1135L54.0125 45.1343L53.8096 46.1135ZM63.3689 44.3789L62.8306 43.5361L63.3689 44.3789ZM68.8048 36.5354L69.0077 35.5562L68.0285 35.3533L67.8256 36.3325L68.8048 36.5354ZM68.8274 36.5398L68.8274 36.5401L70.7858 36.9459L70.7858 36.9456L68.8274 36.5398ZM74.3783 36.6687L70.0095 35.7635L69.6037 37.7219L73.9725 38.6271L74.3783 36.6687ZM76.8759 46.4461C75.1577 43.9005 74.5417 40.8088 75.1546 37.8508L73.1962 37.445C72.4723 40.9387 73.2027 44.579 75.2182 47.565L76.8759 46.4461ZM84.3329 51.4167C81.2762 50.7833 78.5948 48.9927 76.8759 46.4461L75.2182 47.565C77.233 50.55 80.3667 52.6373 83.9271 53.3751L84.3329 51.4167ZM93.1509 49.8185C90.5617 51.4723 87.3896 52.05 84.3329 51.4167L83.9271 53.3751C87.4874 54.1128 91.1925 53.4426 94.2275 51.504L93.1509 49.8185ZM98.146 42.6149C97.533 45.5729 95.7392 48.1652 93.1509 49.8185L94.2275 51.504C97.2636 49.5647 99.3805 46.5143 100.104 43.0207L98.146 42.6149ZM103.697 42.7438L99.3281 41.8386L98.9223 43.797L103.291 44.7022L103.697 42.7438ZM103.854 42.7765L103.697 42.7439L103.291 44.7022L103.448 44.7348L103.854 42.7765ZM106.352 52.5538C104.634 50.0083 104.017 46.9166 104.63 43.9585L102.672 43.5527C101.948 47.0464 102.679 50.6868 104.694 53.6728L106.352 52.5538ZM113.809 57.5244C110.752 56.891 108.071 55.1004 106.352 52.5538L104.694 53.6728C106.709 56.6578 109.842 58.745 113.403 59.4828L113.809 57.5244ZM122.627 55.9262C120.037 57.5801 116.865 58.1578 113.809 57.5244L113.403 59.4828C116.963 60.2205 120.668 59.5503 123.703 57.6117L122.627 55.9262ZM127.622 48.7226C127.009 51.6806 125.215 54.273 122.627 55.9262L123.703 57.6117C126.739 55.6724 128.856 52.6221 129.58 49.1284L127.622 48.7226ZM133.173 48.8516L128.804 47.9463L128.398 49.9047L132.767 50.81L133.173 48.8516ZM133.949 50.0337C133.949 50.0337 133.949 50.0337 133.949 50.0337C133.949 50.0337 133.949 50.0337 133.949 50.0337C133.949 50.0337 133.949 50.0337 133.949 50.0337C133.949 50.0337 133.949 50.0337 133.949 50.0337C133.949 50.0337 133.949 50.0337 133.949 50.0337C133.949 50.0337 133.949 50.0337 133.949 50.0337C133.949 50.0337 133.949 50.0337 133.949 50.0337C133.949 50.0337 133.949 50.0337 133.949 50.0337C133.949 50.0337 133.949 50.0337 133.949 50.0337C133.949 50.0337 133.949 50.0337 133.949 50.0337C133.949 50.0337 133.949 50.0337 133.949 50.0337C133.949 50.0337 133.949 50.0337 133.949 50.0337C133.949 50.0337 133.949 50.0337 133.949 50.0337C133.949 50.0337 133.949 50.0337 133.949 50.0337C133.949 50.0337 133.949 50.0337 133.949 50.0337C133.949 50.0337 133.949 50.0337 133.949 50.0337C133.949 50.0337 133.949 50.0337 133.949 50.0337C133.949 50.0337 133.949 50.0337 133.949 50.0337C133.949 50.0337 133.949 50.0337 133.949 50.0337C133.949 50.0337 133.949 50.0337 133.949 50.0337C133.949 50.0337 133.949 50.0337 133.949 50.0337C133.949 50.0337 133.949 50.0337 133.949 50.0337C133.949 50.0337 133.949 50.0337 133.949 50.0337C133.949 50.0337 133.949 50.0337 133.949 50.0337C133.949 50.0337 133.949 50.0337 133.949 50.0337C133.949 50.0337 133.949 50.0337 133.949 50.0337C133.949 50.0337 133.949 50.0337 133.949 50.0337C133.949 50.0337 133.949 50.0337 133.949 50.0337C133.949 50.0337 133.949 50.0337 133.949 50.0337C133.949 50.0337 133.949 50.0337 133.949 50.0337C133.949 50.0337 133.949 50.0337 133.949 50.0337C133.949 50.0337 133.949 50.0337 133.949 50.0337C133.949 50.0337 133.949 50.0337 133.949 50.0337C133.949 50.0337 133.949 50.0337 133.949 50.0337C133.949 50.0337 133.949 50.0337 133.949 50.0337C133.949 50.0337 133.949 50.0337 133.949 50.0337C133.949 50.0337 133.949 50.0337 133.949 50.0337C133.949 50.0337 133.949 50.0337 133.949 50.0337C133.949 50.0337 133.949 50.0337 133.949 50.0337C133.949 50.0337 133.949 50.0337 133.949 50.0337C133.949 50.0337 133.949 50.0337 133.949 50.0337C133.949 50.0337 133.949 50.0337 133.949 50.0337C133.949 50.0337 133.949 50.0337 133.949 50.0337C133.949 50.0337 133.949 50.0337 133.949 50.0337C133.949 50.0337 133.949 50.0337 133.949 50.0337C133.949 50.0337 133.949 50.0337 133.949 50.0337C133.949 50.0337 133.949 50.0337 133.949 50.0337C133.949 50.0337 133.949 50.0337 133.949 50.0337C133.949 50.0337 133.949 50.0337 133.949 50.0337C133.949 50.0337 133.949 50.0337 133.949 50.0337C133.949 50.0337 133.949 50.0337 133.949 50.0337C133.949 50.0337 133.949 50.0337 133.949 50.0337C133.949 50.0337 133.949 50.0337 133.949 50.0337C133.949 50.0337 133.949 50.0337 133.949 50.0337C133.949 50.0337 133.949 50.0337 133.949 50.0337C133.949 50.0337 133.949 50.0337 133.949 50.0337C133.949 50.0337 133.949 50.0337 133.949 50.0337C133.949 50.0337 133.949 50.0337 133.949 50.0337C133.949 50.0337 133.949 50.0337 133.949 50.0337C133.949 50.0337 133.949 50.0337 133.949 50.0337C133.949 50.0337 133.949 50.0337 133.949 50.0337C133.949 50.0337 133.949 50.0337 133.949 50.0337C133.949 50.0337 133.949 50.0337 133.949 50.0337C133.949 50.0337 133.949 50.0337 133.949 50.0337C133.949 50.0337 133.949 50.0337 133.949 50.0337C133.949 50.0337 133.949 50.0337 133.949 50.0337C133.949 50.0337 133.949 50.0337 133.949 50.0337C133.949 50.0337 133.949 50.0337 133.949 50.0337C133.949 50.0337 133.949 50.0337 133.949 50.0337C133.949 50.0337 133.949 50.0337 133.949 50.0337C133.949 50.0337 133.949 50.0337 133.949 50.0337C133.949 50.0337 133.949 50.0337 133.949 50.0337C133.949 50.0337 133.949 50.0337 133.949 50.0337C133.949 50.0337 133.949 50.0337 133.949 50.0337C133.949 50.0337 133.949 50.0337 133.949 50.0337C133.949 50.0337 133.949 50.0337 133.949 50.0337C133.949 50.0337 133.949 50.0337 133.949 50.0337C133.949 50.0337 133.949 50.0337 133.949 50.0337C133.949 50.0337 133.949 50.0337 133.949 50.0337C133.949 50.0337 133.949 50.0337 133.949 50.0337C133.949 50.0337 133.949 50.0337 133.949 50.0337C133.949 50.0337 133.949 50.0337 133.949 50.0337C133.949 50.0337 133.949 50.0337 133.949 50.0337C133.949 50.0337 133.949 50.0337 133.949 50.0337C133.949 50.0337 133.949 50.0337 133.949 50.0337C133.949 50.0337 133.949 50.0337 133.949 50.0337C133.949 50.0337 133.949 50.0337 133.949 50.0337C133.949 50.0337 133.949 50.0337 133.949 50.0337C133.949 50.0337 133.949 50.0337 133.949 50.0337C133.949 50.0337 133.949 50.0337 133.949 50.0337C133.949 50.0337 133.949 50.0337 133.949 50.0337C133.949 50.0337 133.949 50.0337 133.949 50.0337C133.949 50.0337 133.949 50.0337 133.949 50.0337C133.949 50.0337 133.949 50.0337 133.949 50.0337C133.949 50.0337 133.949 50.0337 133.949 50.0337C133.949 50.0337 133.949 50.0337 133.949 50.0337C133.949 50.0337 133.949 50.0337 133.949 50.0337C133.949 50.0337 133.949 50.0337 133.949 50.0337C133.949 50.0337 133.949 50.0337 133.949 50.0337C133.949 50.0337 133.949 50.0337 133.949 50.0337C133.949 50.0337 133.949 50.0337 133.949 50.0337C133.949 50.0337 133.949 50.0337 133.949 50.0337C133.949 50.0337 133.949 50.0337 133.949 50.0337C133.949 50.0337 133.949 50.0337 133.949 50.0337C133.949 50.0337 133.949 50.0337 133.949 50.0337C133.949 50.0337 133.949 50.0337 133.949 50.0337C133.949 50.0337 133.949 50.0337 133.949 50.0337C133.949 50.0337 133.949 50.0337 133.949 50.0337C133.949 50.0337 133.949 50.0337 133.949 50.0337C133.949 50.0337 133.949 50.0337 133.949 50.0337C133.949 50.0337 133.949 50.0337 133.949 50.0337C133.949 50.0337 133.949 50.0337 133.949 50.0337C133.949 50.0337 133.949 50.0337 133.949 50.0337C133.949 50.0337 133.949 50.0337 133.949 50.0337C133.949 50.0337 133.949 50.0337 133.949 50.0337C133.949 50.0337 133.949 50.0337 133.949 50.0337C133.949 50.0337 133.949 50.0337 133.949 50.0337C133.949 50.0337 133.949 50.0337 133.949 50.0337C133.949 50.0337 133.949 50.0337 133.949 50.0337C133.949 50.0337 133.949 50.0337 133.949 50.0337C133.949 50.0337 133.949 50.0337 133.949 50.0337C133.949 50.0337 133.949 50.0337 133.949 50.0337C133.949 50.0337 133.949 50.0337 133.949 50.0337C133.949 50.0337 133.949 50.0337 133.949 50.0337C133.949 50.0337 133.949 50.0337 133.949 50.0337C133.949 50.0337 133.949 50.0337 133.949 50.0337C133.949 50.0337 133.949 50.0337 133.949 50.0337C133.949 50.0337 133.949 50.0337 133.949 50.0337C133.949 50.0337 133.949 50.0337 133.949 50.0337C133.949 50.0337 133.949 50.0337 133.949 50.0337C133.949 50.0337 133.949 50.0337 133.949 50.0337C133.949 50.0337 133.949 50.0337 133.949 50.0337C133.949 50.0337 133.949 50.0337 133.949 50.0337C133.949 50.0337 133.949 50.0337 133.949 50.0337C133.949 50.0337 133.949 50.0337 133.949 50.0337C133.949 50.0337 133.949 50.0337 133.949 50.0337C133.949 50.0337 133.949 50.0337 133.949 50.0337C133.949 50.0337 133.949 50.0337 133.949 50.0337C133.949 50.0337 133.949 50.0337 133.949 50.0337C133.949 50.0337 133.949 50.0337 133.949 50.0337C133.949 50.0337 133.949 50.0337 133.949 50.0337C133.949 50.0337 133.949 50.0337 133.949 50.0337C133.949 50.0337 133.949 50.0337 133.949 50.0337C133.949 50.0337 133.949 50.0337 133.949 50.0337C133.949 50.0337 133.949 50.0337 133.949 50.0337C133.949 50.0337 133.949 50.0337 133.949 50.0337C133.949 50.0337 133.949 50.0337 133.949 50.0337C133.949 50.0337 133.949 50.0337 133.949 50.0337C133.949 50.0337 133.949 50.0337 133.949 50.0337C133.949 50.0337 133.949 50.0337 133.949 50.0337C133.949 50.0337 133.949 50.0337 133.949 50.0337C133.949 50.0337 133.949 50.0337 133.949 50.0337C133.949 50.0337 133.949 50.0337 133.949 50.0337C133.949 50.0337 133.949 50.0337 133.949 50.0337C133.949 50.0337 133.949 50.0337 133.949 50.0337C133.949 50.0337 133.949 50.0337 133.949 50.0337C133.949 50.0337 133.949 50.0337 133.949 50.0337C133.949 50.0337 133.949 50.0337 133.949 50.0337C133.949 50.0337 133.949 50.0337 133.949 50.0337C133.949 50.0337 133.949 50.0337 133.949 50.0337C133.949 50.0337 133.949 50.0337 133.949 50.0337C133.949 50.0337 133.949 50.0337 133.949 50.0337C133.949 50.0337 133.949 50.0337 133.949 50.0337C133.949 50.0337 133.949 50.0337 133.949 50.0337C133.949 50.0337 133.949 50.0337 133.949 50.0337C133.949 50.0337 133.949 50.0337 133.949 50.0337C133.949 50.0337 133.949 50.0337 133.949 50.0337C133.949 50.0337 133.949 50.0337 133.949 50.0337C133.949 50.0337 133.949 50.0337 133.949 50.0337C133.949 50.0337 133.949 50.0337 133.949 50.0337C133.949 50.0337 133.949 50.0337 133.949 50.0337C133.949 50.0337 133.949 50.0337 133.949 50.0337C133.949 50.0337 133.949 50.0337 133.949 50.0337C133.949 50.0337 133.949 50.0337 133.949 50.0337C133.949 50.0337 133.949 50.0337 133.949 50.0337C133.949 50.0337 133.949 50.0337 133.949 50.0337C133.949 50.0337 133.949 50.0337 133.949 50.0337C133.949 50.0337 133.949 50.0337 133.949 50.0337C133.949 50.0337 133.949 50.0337 133.949 50.0337C133.949 50.0337 133.949 50.0337 133.949 50.0337C133.949 50.0337 133.949 50.0337 133.949 50.0337C133.949 50.0337 133.949 50.0337 133.949 50.0337C133.949 50.0337 133.949 50.0337 133.949 50.0337C133.949 50.0337 133.949 50.0337 133.949 50.0337C133.949 50.0337 133.949 50.0337 133.949 50.0337C133.949 50.0337 133.949 50.0337 133.949 50.0337C133.949 50.0337 133.949 50.0337 133.949 50.0337C133.949 50.0337 133.949 50.0337 133.949 50.0337C133.949 50.0337 133.949 50.0337 133.949 50.0337C133.949 50.0337 133.949 50.0337 133.949 50.0337C133.949 50.0337 133.949 50.0337 133.949 50.0337C133.949 50.0337 133.949 50.0337 133.949 50.0337C133.949 50.0337 133.949 50.0337 133.949 50.0337C133.949 50.0337 133.949 50.0337 133.949 50.0337C133.949 50.0337 133.949 50.0337 133.949 50.0337C133.949 50.0337 133.949 50.0337 133.949 50.0337C133.949 50.0337 133.949 50.0337 133.949 50.0337C133.949 50.0337 133.949 50.0337 133.949 50.0337C133.949 50.0337 133.949 50.0337 133.949 50.0337C133.949 50.0337 133.949 50.0337 133.949 50.0337C133.949 50.0337 133.949 50.0337 133.949 50.0337C133.949 50.0337 133.949 50.0337 133.949 50.0337C133.949 50.0337 133.949 50.0337 133.949 50.0337C133.949 50.0337 133.949 50.0337 133.949 50.0337C133.949 50.0337 133.949 50.0337 133.949 50.0337C133.949 50.0337 133.949 50.0337 133.949 50.0337C133.949 50.0337 133.949 50.0337 133.949 50.0337C133.949 50.0337 133.949 50.0337 133.949 50.0337C133.949 50.0337 133.949 50.0337 133.949 50.0337C133.949 50.0337 133.949 50.0337 133.949 50.0337C133.949 50.0337 133.949 50.0337 133.949 50.0337C133.949 50.0337 133.949 50.0337 133.949 50.0337C133.949 50.0337 133.949 50.0337 133.949 50.0337C133.949 50.0337 133.949 50.0337 133.949 50.0337C133.949 50.0337 133.949 50.0337 133.949 50.0337C133.949 50.0337 133.949 50.0337 133.949 50.0337C133.949 50.0337 133.949 50.0337 133.949 50.0337C133.949 50.0337 133.949 50.0337 133.949 50.0337C133.949 50.0337 133.949 50.0337 133.949 50.0337C133.949 50.0337 133.949 50.0337 133.949 50.0337C133.949 50.0337 133.949 50.0337 133.949 50.0337C133.949 50.0337 133.949 50.0337 133.949 50.0337C133.949 50.0337 133.949 50.0337 133.949 50.0337C133.949 50.0337 133.949 50.0337 133.949 50.0337C133.949 50.0337 133.949 50.0337 133.949 50.0337C133.949 50.0337 133.949 50.0337 133.949 50.0337C133.949 50.0337 133.949 50.0337 133.949 50.0337C133.949 50.0337 133.949 50.0337 133.949 50.0337C133.949 50.0337 133.949 50.0337 133.949 50.0337C133.949 50.0337 133.949 50.0337 133.949 50.0337C133.949 50.0337 133.949 50.0337 133.949 50.0337C133.949 50.0337 133.949 50.0337 133.949 50.0337C133.949 50.0337 133.949 50.0337 133.949 50.0337C133.949 50.0337 133.949 50.0337 133.949 50.0337C133.949 50.0337 133.949 50.0337 133.949 50.0337C133.949 50.0337 133.949 50.0337 133.949 50.0337C133.949 50.0337 133.949 50.0337 133.949 50.0337C133.949 50.0337 133.949 50.0337 133.949 50.0337C133.949 50.0337 133.949 50.0337 133.949 50.0337C133.949 50.0337 133.949 50.0337 133.949 50.0337C133.949 50.0337 133.949 50.0337 133.949 50.0337C133.949 50.0337 133.949 50.0337 133.949 50.0337C133.949 50.0337 133.949 50.0337 133.949 50.0337C133.949 50.0337 133.949 50.0337 133.949 50.0337C133.949 50.0337 133.949 50.0337 133.949 50.0337C133.949 50.0337 133.949 50.0337 133.949 50.0337C133.949 50.0337 133.949 50.0337 133.949 50.0337C133.949 50.0337 133.949 50.0337 133.949 50.0337C133.949 50.0337 133.949 50.0337 133.949 50.0337C133.949 50.0337 133.949 50.0337 133.949 50.0337C133.949 50.0337 133.949 50.0337 133.949 50.0337C133.949 50.0337 133.949 50.0337 133.949 50.0337C133.949 50.0337 133.949 50.0337 133.949 50.0337C133.949 50.0337 133.949 50.0337 133.949 50.0337C133.949 50.0337 133.949 50.0337 133.949 50.0337C133.949 50.0337 133.949 50.0337 133.949 50.0337C133.949 50.0337 133.949 50.0337 133.949 50.0337C133.949 50.0337 133.949 50.0337 133.949 50.0337C133.949 50.0337 133.949 50.0337 133.949 50.0337C133.949 50.0337 133.949 50.0337 133.949 50.0337C133.949 50.0337 133.949 50.0337 133.949 50.0337C133.949 50.0337 133.949 50.0337 133.949 50.0337C133.949 50.0337 133.949 50.0337 133.949 50.0337C133.949 50.0337 133.949 50.0337 133.949 50.0337C133.949 50.0337 133.949 50.0337 133.949 50.0337C133.949 50.0337 133.949 50.0337 133.949 50.0337C133.949 50.0337 133.949 50.0337 133.949 50.0337C133.949 50.0337 133.949 50.0337 133.949 50.0337C133.949 50.0337 133.949 50.0337 133.949 50.0337C133.949 50.0337 133.949 50.0337 133.949 50.0337C133.949 50.0337 133.949 50.0337 133.949 50.0337C133.949 50.0337 133.949 50.0337 133.949 50.0337C133.949 50.0337 133.949 50.0337 133.949 50.0337C133.949 50.0337 133.949 50.0337 133.949 50.0337C133.949 50.0337 133.949 50.0337 133.949 50.0337C133.949 50.0337 133.949 50.0337 133.949 50.0337C133.949 50.0337 133.949 50.0337 133.949 50.0337C133.949 50.0337 133.949 50.0337 133.949 50.0337C133.949 50.0337 133.949 50.0337 133.949 50.0337C133.949 50.0337 133.949 50.0337 133.949 50.0337C133.949 50.0337 133.949 50.0337 133.949 50.0337C133.949 50.0337 133.949 50.0337 133.949 50.0337C133.949 50.0337 133.949 50.0337 133.949 50.0337C133.949 50.0337 133.949 50.0337 133.949 50.0337C133.949 50.0337 133.949 50.0337 133.949 50.0337C133.949 50.0337 133.949 50.0337 133.949 50.0337C133.949 50.0337 133.949 50.0337 133.949 50.0337C133.949 50.0337 133.949 50.0337 133.949 50.0337C133.949 50.0337 133.949 50.0337 133.949 50.0337C133.949 50.0337 133.949 50.0337 133.949 50.0337C133.949 50.0337 133.949 50.0337 133.949 50.0337C133.949 50.0337 133.949 50.0337 133.949 50.0337C133.949 50.0337 133.949 50.0337 133.949 50.0337C133.949 50.0337 133.949 50.0337 133.949 50.0337C133.949 50.0337 133.949 50.0337 133.949 50.0337C133.949 50.0337 133.949 50.0337 133.949 50.0337C133.949 50.0337 133.949 50.0337 133.949 50.0337C133.949 50.0337 133.949 50.0337 133.949 50.0337C133.949 50.0337 133.949 50.0337 133.949 50.0337C133.949 50.0337 133.949 50.0337 133.949 50.0337C133.949 50.0337 133.949 50.0337 133.949 50.0337C133.949 50.0337 133.949 50.0337 133.949 50.0337C133.949 50.0337 133.949 50.0337 133.949 50.0337C133.949 50.0337 133.949 50.0337 133.949 50.0337C133.949 50.0337 133.949 50.0337 133.949 50.0337C133.949 50.0337 133.949 50.0337 133.949 50.0337C133.949 50.0337 133.949 50.0337 133.949 50.0337C133.949 50.0337 133.949 50.0337 133.949 50.0337C133.949 50.0337 133.949 50.0337 133.949 50.0337C133.949 50.0337 133.949 50.0337 133.949 50.0337C133.949 50.0337 133.949 50.0337 133.949 50.0337C133.949 50.0337 133.949 50.0337 133.949 50.0337C133.949 50.0337 133.949 50.0337 133.949 50.0337C133.949 50.0337 133.949 50.0337 133.949 50.0337C133.949 50.0337 133.949 50.0337 133.949 50.0337C133.949 50.0337 133.949 50.0337 133.949 50.0337C133.949 50.0337 133.949 50.0337 133.949 50.0337C133.949 50.0337 133.949 50.0337 133.949 50.0337C133.949 50.0337 133.949 50.0337 133.949 50.0337C133.949 50.0337 133.949 50.0337 133.949 50.0337C133.949 50.0337 133.949 50.0337 133.949 50.0337C133.949 50.0337 133.949 50.0337 133.949 50.0337C133.949 50.0337 133.949 50.0337 133.949 50.0337C133.949 50.0337 133.949 50.0337 133.949 50.0337C133.949 50.0337 133.949 50.0337 133.949 50.0337C133.949 50.0337 133.949 50.0337 133.949 50.0337C133.949 50.0337 133.949 50.0337 133.949 50.0337C133.949 50.0337 133.949 50.0337 133.949 50.0337C133.949 50.0337 133.949 50.0337 133.949 50.0337C133.949 50.0337 133.949 50.0337 133.949 50.0337C133.949 50.0337 133.949 50.0337 133.949 50.0337C133.949 50.0337 133.949 50.0337 133.949 50.0337C133.949 50.0337 133.949 50.0337 133.949 50.0337C133.949 50.0337 133.949 50.0337 133.949 50.0337C133.949 50.0337 133.949 50.0337 133.949 50.0337C133.949 50.0337 133.949 50.0337 133.949 50.0337C133.949 50.0337 133.949 50.0337 133.949 50.0337C133.949 50.0337 133.949 50.0337 133.949 50.0337C133.949 50.0337 133.949 50.0337 133.949 50.0337C133.949 50.0337 133.949 50.0337 133.949 50.0337C133.949 50.0337 133.949 50.0337 133.949 50.0337C133.949 50.0337 133.949 50.0337 133.949 50.0337C133.949 50.0337 133.949 50.0337 133.949 50.0337C133.949 50.0337 133.949 50.0337 133.949 50.0337C133.949 50.0337 133.949 50.0337 133.949 50.0337C133.949 50.0337 133.949 50.0337 133.949 50.0337C133.949 50.0337 133.949 50.0337 133.949 50.0337C133.949 50.0337 133.949 50.0337 133.949 50.0337C133.949 50.0337 133.949 50.0337 133.949 50.0337C133.949 50.0337 133.949 50.0337 133.949 50.0337C133.949 50.0337 133.949 50.0337 133.949 50.0337C133.949 50.0337 133.949 50.0337 133.949 50.0337C133.949 50.0337 133.949 50.0337 133.949 50.0337C133.949 50.0337 133.949 50.0337 133.949 50.0337C133.949 50.0337 133.949 50.0337 133.949 50.0337C133.949 50.0337 133.949 50.0337 133.949 50.0337C133.949 50.0337 133.949 50.0337 133.949 50.0337C133.949 50.0337 133.949 50.0337 133.949 50.0337C133.949 50.0337 133.949 50.0337 133.949 50.0337C133.949 50.0337 133.949 50.0337 133.949 50.0337C133.949 50.0337 133.949 50.0337 133.949 50.0337C133.949 50.0337 133.949 50.0337 133.949 50.0337C133.949 50.0337 133.949 50.0337 133.949 50.0337C133.949 50.0337 133.949 50.0337 133.949 50.0337C133.949 50.0337 133.949 50.0337 133.949 50.0337C133.949 50.0337 133.949 50.0337 133.949 50.0337C133.949 50.0337 133.949 50.0337 133.949 50.0337C133.949 50.0337 133.949 50.0337 133.949 50.0337C133.949 50.0337 133.949 50.0337 133.949 50.0337C133.949 50.0337 133.949 50.0337 133.949 50.0337C133.949 50.0337 133.949 50.0337 133.949 50.0337C133.949 50.0337 133.949 50.0337 133.949 50.0337C133.949 50.0337 133.949 50.0337 133.949 50.0337C133.949 50.0337 133.949 50.0337 133.949 50.0337C133.949 50.0337 133.949 50.0337 133.949 50.0337C133.949 50.0337 133.949 50.0337 133.949 50.0337C133.949 50.0337 133.949 50.0337 133.949 50.0337C133.949 50.0337 133.949 50.0337 133.949 50.0337C133.949 50.0337 133.949 50.0337 133.949 50.0337C133.949 50.0337 133.949 50.0337 133.949 50.0337C133.949 50.0337 133.949 50.0337 133.949 50.0337C133.949 50.0337 133.949 50.0337 133.949 50.0337C133.949 50.0337 133.949 50.0337 133.949 50.0337C133.949 50.0337 133.949 50.0337 133.949 50.0337C133.949 50.0337 133.949 50.0337 133.949 50.0337C133.949 50.0337 133.949 50.0337 133.949 50.0337C133.949 50.0337 133.949 50.0337 133.949 50.0337C133.949 50.0337 133.949 50.0337 133.949 50.0337C133.949 50.0337 133.949 50.0337 133.949 50.0337C133.949 50.0337 133.949 50.0337 133.949 50.0337C133.949 50.0337 133.949 50.0337 133.949 50.0337C133.949 50.0337 133.949 50.0337 133.949 50.0337C133.949 50.0337 133.949 50.0337 133.949 50.0337C133.949 50.0337 133.949 50.0337 133.949 50.0337C133.949 50.0337 133.949 50.0337 133.949 50.0337C133.949 50.0337 133.949 50.0337 133.949 50.0337C133.949 50.0337 133.949 50.0337 133.949 50.0337C133.949 50.0337 133.949 50.0337 133.949 50.0337C133.949 50.0337 133.949 50.0337 133.949 50.0337C133.949 50.0337 133.949 50.0337 133.949 50.0337C133.949 50.0337 133.949 50.0337 133.949 50.0337C133.949 50.0337 133.949 50.0337 133.949 50.0337C133.949 50.0337 133.949 50.0337 133.949 50.0337C133.949 50.0337 133.949 50.0337 133.949 50.0337C133.949 50.0337 133.949 50.0337 133.949 50.0337C133.949 50.0337 133.949 50.0337 133.949 50.0337C133.949 50.0337 133.949 50.0337 133.949 50.0337C133.949 50.0337 133.949 50.0337 133.949 50.0337C133.949 50.0337 133.949 50.0337 133.949 50.0337C133.949 50.0337 133.949 50.0337 133.949 50.0337C133.949 50.0337 133.949 50.0337 133.949 50.0337C133.949 50.0337 133.949 50.0337 133.949 50.0337C133.949 50.0337 133.949 50.0337 133.949 50.0337C133.949 50.0337 133.949 50.0337 133.949 50.0337C133.949 50.0337 133.949 50.0337 133.949 50.0337C133.949 50.0337 133.949 50.0337 133.949 50.0337C133.949 50.0337 133.949 50.0337 133.949 50.0337C133.949 50.0337 133.949 50.0337 133.949 50.0337C133.949 50.0337 133.949 50.0337 133.949 50.0337C133.949 50.0337 133.949 50.0337 133.949 50.0337C133.949 50.0337 133.949 50.0337 133.949 50.0337C133.949 50.0337 133.949 50.0337 133.949 50.0337C133.949 50.0337 133.949 50.0337 133.949 50.0337C133.949 50.0337 133.949 50.0337 133.949 50.0337C133.949 50.0337 133.949 50.0337 133.949 50.0337C133.949 50.0337 133.949 50.0337 133.949 50.0337C133.949 50.0337 133.949 50.0337 133.949 50.0337C133.949 50.0337 133.949 50.0337 133.949 50.0337C133.949 50.0337 133.949 50.0337 133.949 50.0337C133.949 50.0337 133.949 50.0337 133.949 50.0337C133.949 50.0337 133.949 50.0337 133.949 50.0337C133.949 50.0337 133.949 50.0337 133.949 50.0337C133.949 50.0337 133.949 50.0337 133.949 50.0337C133.949 50.0337 133.949 50.0337 133.949 50.0337C133.949 50.0337 133.949 50.0337 133.949 50.0337C133.949 50.0337 133.949 50.0337 133.949 50.0337C133.949 50.0337 133.949 50.0337 133.949 50.0337C133.949 50.0337 133.949 50.0337 133.949 50.0337C133.949 50.0337 133.949 50.0337 133.949 50.0337C133.949 50.0337 133.949 50.0337 133.949 50.0337C133.949 50.0337 133.949 50.0337 133.949 50.0337C133.949 50.0337 133.949 50.0337 133.949 50.0337C133.949 50.0337 133.949 50.0337 133.949 50.0337C133.949 50.0337 133.949 50.0337 133.949 50.0337C133.949 50.0337 133.949 50.0337 133.949 50.0337C133.949 50.0337 133.949 50.0337 133.949 50.0337C133.949 50.0337 133.949 50.0337 133.949 50.0337C133.949 50.0337 133.949 50.0337 133.949 50.0337C133.949 50.0337 133.949 50.0337 133.949 50.0337C133.949 50.0337 133.949 50.0337 133.949 50.0337C133.949 50.0337 133.949 50.0337 133.949 50.0337C133.949 50.0337 133.949 50.0337 133.949 50.0337C133.949 50.0337 133.949 50.0337 133.949 50.0337C133.949 50.0337 133.949 50.0337 133.949 50.0337C133.949 50.0337 133.949 50.0337 133.949 50.0337C133.949 50.0337 133.949 50.0337 133.949 50.0337C133.949 50.0337 133.949 50.0337 133.949 50.0337C133.949 50.0337 133.949 50.0337 133.949 50.0337C133.949 50.0337 133.949 50.0337 133.949 50.0337C133.949 50.0337 133.949 50.0337 133.949 50.0337C133.949 50.0337 133.949 50.0337 133.949 50.0337C133.949 50.0337 133.949 50.0337 133.949 50.0337C133.949 50.0337 133.949 50.0337 133.949 50.0337C133.949 50.0337 133.949 50.0337 133.949 50.0337C133.949 50.0337 133.949 50.0337 133.949 50.0337C133.949 50.0337 133.949 50.0337 133.949 50.0337C133.949 50.0337 133.949 50.0337 133.949 50.0337C133.949 50.0337 133.949 50.0337 133.949 50.0337C133.949 50.0337 133.949 50.0337 133.949 50.0337C133.949 50.0337 133.949 50.0337 133.949 50.0337C133.949 50.0337 133.949 50.0337 133.949 50.0337C133.949 50.0337 133.949 50.0337 133.949 50.0337C133.949 50.0337 133.949 50.0337 133.949 50.0337C133.949 50.0337 133.949 50.0337 133.949 50.0337C133.949 50.0337 133.949 50.0337 133.949 50.0337C133.949 50.0337 133.949 50.0337 133.949 50.0337C133.949 50.0337 133.949 50.0337 133.949 50.0337C133.949 50.0337 133.949 50.0337 133.949 50.0337C133.949 50.0337 133.949 50.0337 133.949 50.0337C133.949 50.0337 133.949 50.0337 133.949 50.0337C133.949 50.0337 133.949 50.0337 133.949 50.0337C133.949 50.0337 133.949 50.0337 133.949 50.0337C133.949 50.0337 133.949 50.0337 133.949 50.0337C133.949 50.0337 133.949 50.0337 133.949 50.0337C133.949 50.0337 133.949 50.0337 133.949 50.0337C133.949 50.0337 133.949 50.0337 133.949 50.0337C133.949 50.0337 133.949 50.0337 133.949 50.0337C133.949 50.0337 133.949 50.0337 133.949 50.0337C133.949 50.0337 133.949 50.0337 133.949 50.0337C133.949 50.0337 133.949 50.0337 133.949 50.0337C133.949 50.0337 133.949 50.0337 133.949 50.0337C133.949 50.0337 133.949 50.0337 133.949 50.0337C133.949 50.0337 133.949 50.0337 133.949 50.0337C133.949 50.0337 133.949 50.0337 133.949 50.0337C133.949 50.0337 133.949 50.0337 133.949 50.0337C133.949 50.0337 133.949 50.0337 133.949 50.0337C133.949 50.0337 133.949 50.0337 133.949 50.0337C133.949 50.0337 133.949 50.0337 133.949 50.0337C133.949 50.0337 133.949 50.0337 133.949 50.0337C133.949 50.0337 133.949 50.0337 133.949 50.0337C133.949 50.0337 133.949 50.0337 133.949 50.0337C133.949 50.0337 133.949 50.0337 133.949 50.0337C133.949 50.0337 133.949 50.0337 133.949 50.0337C133.949 50.0337 133.949 50.0337 133.949 50.0337C133.949 50.0337 133.949 50.0337 133.949 50.0337C133.949 50.0337 133.949 50.0337 133.949 50.0337C133.949 50.0337 133.949 50.0337 133.949 50.0337C133.949 50.0337 133.949 50.0337 133.949 50.0337C133.949 50.0337 133.949 50.0337 133.949 50.0337C133.949 50.0337 133.949 50.0337 133.949 50.0337C133.949 50.0337 133.949 50.0337 133.949 50.0337C133.949 50.0337 133.949 50.0337 133.949 50.0337L131.991 49.6279C131.991 49.6279 131.991 49.6279 131.991 49.6279C131.991 49.6279 131.991 49.6279 131.991 49.6279C131.991 49.6279 131.991 49.6279 131.991 49.6279C131.991 49.6279 131.991 49.6279 131.991 49.6279C131.991 49.6279 131.991 49.6279 131.991 49.6279C131.991 49.6279 131.991 49.6279 131.991 49.6279C131.991 49.6279 131.991 49.6279 131.991 49.6279C131.991 49.6279 131.991 49.6279 131.991 49.6279C131.991 49.6279 131.991 49.6279 131.991 49.6279C131.991 49.6279 131.991 49.6279 131.991 49.6279C131.991 49.6279 131.991 49.6279 131.991 49.6279C131.991 49.6279 131.991 49.6279 131.991 49.6279C131.991 49.6279 131.991 49.6279 131.991 49.6279C131.991 49.6279 131.991 49.6279 131.991 49.6279C131.991 49.6279 131.991 49.6279 131.991 49.6279C131.991 49.6279 131.991 49.6279 131.991 49.6279C131.991 49.6279 131.991 49.6279 131.991 49.6279C131.991 49.6279 131.991 49.6279 131.991 49.6279C131.991 49.6279 131.991 49.6279 131.991 49.6279C131.991 49.6279 131.991 49.6279 131.991 49.6279C131.991 49.6279 131.991 49.6279 131.991 49.6279C131.991 49.6279 131.991 49.6279 131.991 49.6279C131.991 49.6279 131.991 49.6279 131.991 49.6279C131.991 49.6279 131.991 49.6279 131.991 49.6279C131.991 49.6279 131.991 49.6279 131.991 49.6279C131.991 49.6279 131.991 49.6279 131.991 49.6279C131.991 49.6279 131.991 49.6279 131.991 49.6279C131.991 49.6279 131.991 49.6279 131.991 49.6279C131.991 49.6279 131.991 49.6279 131.991 49.6279C131.991 49.6279 131.991 49.6279 131.991 49.6279C131.991 49.6279 131.991 49.6279 131.991 49.6279C131.991 49.6279 131.991 49.6279 131.991 49.6279C131.991 49.6279 131.991 49.6279 131.991 49.6279C131.991 49.6279 131.991 49.6279 131.991 49.6279C131.991 49.6279 131.991 49.6279 131.991 49.6279C131.991 49.6279 131.991 49.6279 131.991 49.6279C131.991 49.6279 131.991 49.6279 131.991 49.6279C131.991 49.6279 131.991 49.6279 131.991 49.6279C131.991 49.6279 131.991 49.6279 131.991 49.6279C131.991 49.6279 131.991 49.6279 131.991 49.6279C131.991 49.6279 131.991 49.6279 131.991 49.6279C131.991 49.6279 131.991 49.6279 131.991 49.6279C131.991 49.6279 131.991 49.6279 131.991 49.6279C131.991 49.6279 131.991 49.6279 131.991 49.6279C131.991 49.6279 131.991 49.6279 131.991 49.6279C131.991 49.6279 131.991 49.6279 131.991 49.6279C131.991 49.6279 131.991 49.6279 131.991 49.6279C131.991 49.6279 131.991 49.6279 131.991 49.6279C131.991 49.6279 131.991 49.6279 131.991 49.6279C131.991 49.6279 131.991 49.6279 131.991 49.6279C131.991 49.6279 131.991 49.6279 131.991 49.6279C131.991 49.6279 131.991 49.6279 131.991 49.6279C131.991 49.6279 131.991 49.6279 131.991 49.6279C131.991 49.6279 131.991 49.6279 131.991 49.6279C131.991 49.6279 131.991 49.6279 131.991 49.6279C131.991 49.6279 131.991 49.6279 131.991 49.6279C131.991 49.6279 131.991 49.6279 131.991 49.6279C131.991 49.6279 131.991 49.6279 131.991 49.6279C131.991 49.6279 131.991 49.6279 131.991 49.6279C131.991 49.6279 131.991 49.6279 131.991 49.6279C131.991 49.6279 131.991 49.6279 131.991 49.6279C131.991 49.6279 131.991 49.6279 131.991 49.6279C131.991 49.6279 131.991 49.6279 131.991 49.6279C131.991 49.6279 131.991 49.6279 131.991 49.6279C131.991 49.6279 131.991 49.6279 131.991 49.6279C131.991 49.6279 131.991 49.6279 131.991 49.6279C131.991 49.6279 131.991 49.6279 131.991 49.6279C131.991 49.6279 131.991 49.6279 131.991 49.6279C131.991 49.6279 131.991 49.6279 131.991 49.6279C131.991 49.6279 131.991 49.6279 131.991 49.6279C131.991 49.6279 131.991 49.6279 131.991 49.6279C131.991 49.6279 131.991 49.6279 131.991 49.6279C131.991 49.6279 131.991 49.6279 131.991 49.6279C131.991 49.6279 131.991 49.6279 131.991 49.6279C131.991 49.6279 131.991 49.6279 131.991 49.6279C131.991 49.6279 131.991 49.6279 131.991 49.6279C131.991 49.6279 131.991 49.6279 131.991 49.6279C131.991 49.6279 131.991 49.6279 131.991 49.6279C131.991 49.6279 131.991 49.6279 131.991 49.6279C131.991 49.6279 131.991 49.6279 131.991 49.6279C131.991 49.6279 131.991 49.6279 131.991 49.6279C131.991 49.6279 131.991 49.6279 131.991 49.6279C131.991 49.6279 131.991 49.6279 131.991 49.6279C131.991 49.6279 131.991 49.6279 131.991 49.6279C131.991 49.6279 131.991 49.6279 131.991 49.6279C131.991 49.6279 131.991 49.6279 131.991 49.6279C131.991 49.6279 131.991 49.6279 131.991 49.6279C131.991 49.6279 131.991 49.6279 131.991 49.6279C131.991 49.6279 131.991 49.6279 131.991 49.6279C131.991 49.6279 131.991 49.6279 131.991 49.6279C131.991 49.6279 131.991 49.6279 131.991 49.6279C131.991 49.6279 131.991 49.6279 131.991 49.6279C131.991 49.6279 131.991 49.6279 131.991 49.6279C131.991 49.6279 131.991 49.6279 131.991 49.6279C131.991 49.6279 131.991 49.6279 131.991 49.6279C131.991 49.6279 131.991 49.6279 131.991 49.6279C131.991 49.6279 131.991 49.6279 131.991 49.6279C131.991 49.6279 131.991 49.6279 131.991 49.6279C131.991 49.6279 131.991 49.6279 131.991 49.6279C131.991 49.6279 131.991 49.6279 131.991 49.6279C131.991 49.6279 131.991 49.6279 131.991 49.6279C131.991 49.6279 131.991 49.6279 131.991 49.6279C131.991 49.6279 131.991 49.6279 131.991 49.6279C131.991 49.6279 131.991 49.6279 131.991 49.6279C131.991 49.6279 131.991 49.6279 131.991 49.6279C131.991 49.6279 131.991 49.6279 131.991 49.6279C131.991 49.6279 131.991 49.6279 131.991 49.6279C131.991 49.6279 131.991 49.6279 131.991 49.6279C131.991 49.6279 131.991 49.6279 131.991 49.6279C131.991 49.6279 131.991 49.6279 131.991 49.6279C131.991 49.6279 131.991 49.6279 131.991 49.6279C131.991 49.6279 131.991 49.6279 131.991 49.6279C131.991 49.6279 131.991 49.6279 131.991 49.6279C131.991 49.6279 131.991 49.6279 131.991 49.6279C131.991 49.6279 131.991 49.6279 131.991 49.6279C131.991 49.6279 131.991 49.6279 131.991 49.6279C131.991 49.6279 131.991 49.6279 131.991 49.6279C131.991 49.6279 131.991 49.6279 131.991 49.6279C131.991 49.6279 131.991 49.6279 131.991 49.6279C131.991 49.6279 131.991 49.6279 131.991 49.6279C131.991 49.6279 131.991 49.6279 131.991 49.6279C131.991 49.6279 131.991 49.6279 131.991 49.6279C131.991 49.6279 131.991 49.6279 131.991 49.6279C131.991 49.6279 131.991 49.6279 131.991 49.6279C131.991 49.6279 131.991 49.6279 131.991 49.6279C131.991 49.6279 131.991 49.6279 131.991 49.6279C131.991 49.6279 131.991 49.6279 131.991 49.6279C131.991 49.6279 131.991 49.6279 131.991 49.6279C131.991 49.6279 131.991 49.6279 131.991 49.6279C131.991 49.6279 131.991 49.6279 131.991 49.6279C131.991 49.6279 131.991 49.6279 131.991 49.6279C131.991 49.6279 131.991 49.6279 131.991 49.6279C131.991 49.6279 131.991 49.6279 131.991 49.6279C131.991 49.6279 131.991 49.6279 131.991 49.6279C131.991 49.6279 131.991 49.6279 131.991 49.6279C131.991 49.6279 131.991 49.6279 131.991 49.6279C131.991 49.6279 131.991 49.6279 131.991 49.6279C131.991 49.6279 131.991 49.6279 131.991 49.6279C131.991 49.6279 131.991 49.6279 131.991 49.6279C131.991 49.6279 131.991 49.6279 131.991 49.6279C131.991 49.6279 131.991 49.6279 131.991 49.6279C131.991 49.6279 131.991 49.6279 131.991 49.6279C131.991 49.6279 131.991 49.6279 131.991 49.6279C131.991 49.6279 131.991 49.6279 131.991 49.6279C131.991 49.6279 131.991 49.6279 131.991 49.6279C131.991 49.6279 131.991 49.6279 131.991 49.6279C131.991 49.6279 131.991 49.6279 131.991 49.6279C131.991 49.6279 131.991 49.6279 131.991 49.6279C131.991 49.6279 131.991 49.6279 131.991 49.6279C131.991 49.6279 131.991 49.6279 131.991 49.6279C131.991 49.6279 131.991 49.6279 131.991 49.6279C131.991 49.6279 131.991 49.6279 131.991 49.6279C131.991 49.6279 131.991 49.6279 131.991 49.6279C131.991 49.6279 131.991 49.6279 131.991 49.6279C131.991 49.6279 131.991 49.6279 131.991 49.6279C131.991 49.6279 131.991 49.6279 131.991 49.6279C131.991 49.6279 131.991 49.6279 131.991 49.6279C131.991 49.6279 131.991 49.6279 131.991 49.6279C131.991 49.6279 131.991 49.6279 131.991 49.6279C131.991 49.6279 131.991 49.6279 131.991 49.6279C131.991 49.6279 131.991 49.6279 131.991 49.6279C131.991 49.6279 131.991 49.6279 131.991 49.6279C131.991 49.6279 131.991 49.6279 131.991 49.6279C131.991 49.6279 131.991 49.6279 131.991 49.6279C131.991 49.6279 131.991 49.6279 131.991 49.6279C131.991 49.6279 131.991 49.6279 131.991 49.6279C131.991 49.6279 131.991 49.6279 131.991 49.6279C131.991 49.6279 131.991 49.6279 131.991 49.6279C131.991 49.6279 131.991 49.6279 131.991 49.6279C131.991 49.6279 131.991 49.6279 131.991 49.6279C131.991 49.6279 131.991 49.6279 131.991 49.6279C131.991 49.6279 131.991 49.6279 131.991 49.6279C131.991 49.6279 131.991 49.6279 131.991 49.6279C131.991 49.6279 131.991 49.6279 131.991 49.6279C131.991 49.6279 131.991 49.6279 131.991 49.6279C131.991 49.6279 131.991 49.6279 131.991 49.6279C131.991 49.6279 131.991 49.6279 131.991 49.6279C131.991 49.6279 131.991 49.6279 131.991 49.6279C131.991 49.6279 131.991 49.6279 131.991 49.6279C131.991 49.6279 131.991 49.6279 131.991 49.6279C131.991 49.6279 131.991 49.6279 131.991 49.6279C131.991 49.6279 131.991 49.6279 131.991 49.6279C131.991 49.6279 131.991 49.6279 131.991 49.6279C131.991 49.6279 131.991 49.6279 131.991 49.6279C131.991 49.6279 131.991 49.6279 131.991 49.6279C131.991 49.6279 131.991 49.6279 131.991 49.6279C131.991 49.6279 131.991 49.6279 131.991 49.6279C131.991 49.6279 131.991 49.6279 131.991 49.6279C131.991 49.6279 131.991 49.6279 131.991 49.6279C131.991 49.6279 131.991 49.6279 131.991 49.6279C131.991 49.6279 131.991 49.6279 131.991 49.6279C131.991 49.6279 131.991 49.6279 131.991 49.6279C131.991 49.6279 131.991 49.6279 131.991 49.6279C131.991 49.6279 131.991 49.6279 131.991 49.6279C131.991 49.6279 131.991 49.6279 131.991 49.6279C131.991 49.6279 131.991 49.6279 131.991 49.6279C131.991 49.6279 131.991 49.6279 131.991 49.6279C131.991 49.6279 131.991 49.6279 131.991 49.6279C131.991 49.6279 131.991 49.6279 131.991 49.6279C131.991 49.6279 131.991 49.6279 131.991 49.6279C131.991 49.6279 131.991 49.6279 131.991 49.6279C131.991 49.6279 131.991 49.6279 131.991 49.6279C131.991 49.6279 131.991 49.6279 131.991 49.6279C131.991 49.6279 131.991 49.6279 131.991 49.6279C131.991 49.6279 131.991 49.6279 131.991 49.6279C131.991 49.6279 131.991 49.6279 131.991 49.6279C131.991 49.6279 131.991 49.6279 131.991 49.6279C131.991 49.6279 131.991 49.6279 131.991 49.6279C131.991 49.6279 131.991 49.6279 131.991 49.6279C131.991 49.6279 131.991 49.6279 131.991 49.6279C131.991 49.6279 131.991 49.6279 131.991 49.6279C131.991 49.6279 131.991 49.6279 131.991 49.6279C131.991 49.6279 131.991 49.6279 131.991 49.6279C131.991 49.6279 131.991 49.6279 131.991 49.6279C131.991 49.6279 131.991 49.6279 131.991 49.6279C131.991 49.6279 131.991 49.6279 131.991 49.6279C131.991 49.6279 131.991 49.6279 131.991 49.6279C131.991 49.6279 131.991 49.6279 131.991 49.6279C131.991 49.6279 131.991 49.6279 131.991 49.6279C131.991 49.6279 131.991 49.6279 131.991 49.6279C131.991 49.6279 131.991 49.6279 131.991 49.6279C131.991 49.6279 131.991 49.6279 131.991 49.6279C131.991 49.6279 131.991 49.6279 131.991 49.6279C131.991 49.6279 131.991 49.6279 131.991 49.6279C131.991 49.6279 131.991 49.6279 131.991 49.6279C131.991 49.6279 131.991 49.6279 131.991 49.6279C131.991 49.6279 131.991 49.6279 131.991 49.6279C131.991 49.6279 131.991 49.6279 131.991 49.6279C131.991 49.6279 131.991 49.6279 131.991 49.6279C131.991 49.6279 131.991 49.6279 131.991 49.6279C131.991 49.6279 131.991 49.6279 131.991 49.6279C131.991 49.6279 131.991 49.6279 131.991 49.6279C131.991 49.6279 131.991 49.6279 131.991 49.6279C131.991 49.6279 131.991 49.6279 131.991 49.6279C131.991 49.6279 131.991 49.6279 131.991 49.6279C131.991 49.6279 131.991 49.6279 131.991 49.6279C131.991 49.6279 131.991 49.6279 131.991 49.6279C131.991 49.6279 131.991 49.6279 131.991 49.6279C131.991 49.6279 131.991 49.6279 131.991 49.6279C131.991 49.6279 131.991 49.6279 131.991 49.6279C131.991 49.6279 131.991 49.6279 131.991 49.6279C131.991 49.6279 131.991 49.6279 131.991 49.6279C131.991 49.6279 131.991 49.6279 131.991 49.6279C131.991 49.6279 131.991 49.6279 131.991 49.6279C131.991 49.6279 131.991 49.6279 131.991 49.6279C131.991 49.6279 131.991 49.6279 131.991 49.6279C131.991 49.6279 131.991 49.6279 131.991 49.6279C131.991 49.6279 131.991 49.6279 131.991 49.6279C131.991 49.6279 131.991 49.6279 131.991 49.6279C131.991 49.6279 131.991 49.6279 131.991 49.6279C131.991 49.6279 131.991 49.6279 131.991 49.6279C131.991 49.6279 131.991 49.6279 131.991 49.6279C131.991 49.6279 131.991 49.6279 131.991 49.6279C131.991 49.6279 131.991 49.6279 131.991 49.6279C131.991 49.6279 131.991 49.6279 131.991 49.6279C131.991 49.6279 131.991 49.6279 131.991 49.6279C131.991 49.6279 131.991 49.6279 131.991 49.6279C131.991 49.6279 131.991 49.6279 131.991 49.6279C131.991 49.6279 131.991 49.6279 131.991 49.6279C131.991 49.6279 131.991 49.6279 131.991 49.6279C131.991 49.6279 131.991 49.6279 131.991 49.6279C131.991 49.6279 131.991 49.6279 131.991 49.6279C131.991 49.6279 131.991 49.6279 131.991 49.6279C131.991 49.6279 131.991 49.6279 131.991 49.6279C131.991 49.6279 131.991 49.6279 131.991 49.6279C131.991 49.6279 131.991 49.6279 131.991 49.6279C131.991 49.6279 131.991 49.6279 131.991 49.6279C131.991 49.6279 131.991 49.6279 131.991 49.6279C131.991 49.6279 131.991 49.6279 131.991 49.6279C131.991 49.6279 131.991 49.6279 131.991 49.6279C131.991 49.6279 131.991 49.6279 131.991 49.6279C131.991 49.6279 131.991 49.6279 131.991 49.6279C131.991 49.6279 131.991 49.6279 131.991 49.6279C131.991 49.6279 131.991 49.6279 131.991 49.6279C131.991 49.6279 131.991 49.6279 131.991 49.6279C131.991 49.6279 131.991 49.6279 131.991 49.6279C131.991 49.6279 131.991 49.6279 131.991 49.6279C131.991 49.6279 131.991 49.6279 131.991 49.6279C131.991 49.6279 131.991 49.6279 131.991 49.6279C131.991 49.6279 131.991 49.6279 131.991 49.6279C131.991 49.6279 131.991 49.6279 131.991 49.6279C131.991 49.6279 131.991 49.6279 131.991 49.6279C131.991 49.6279 131.991 49.6279 131.991 49.6279C131.991 49.6279 131.991 49.6279 131.991 49.6279C131.991 49.6279 131.991 49.6279 131.991 49.6279C131.991 49.6279 131.991 49.6279 131.991 49.6279C131.991 49.6279 131.991 49.6279 131.991 49.6279C131.991 49.6279 131.991 49.6279 131.991 49.6279C131.991 49.6279 131.991 49.6279 131.991 49.6279C131.991 49.6279 131.991 49.6279 131.991 49.6279C131.991 49.6279 131.991 49.6279 131.991 49.6279C131.991 49.6279 131.991 49.6279 131.991 49.6279C131.991 49.6279 131.991 49.6279 131.991 49.6279C131.991 49.6279 131.991 49.6279 131.991 49.6279C131.991 49.6279 131.991 49.6279 131.991 49.6279C131.991 49.6279 131.991 49.6279 131.991 49.6279C131.991 49.6279 131.991 49.6279 131.991 49.6279C131.991 49.6279 131.991 49.6279 131.991 49.6279C131.991 49.6279 131.991 49.6279 131.991 49.6279C131.991 49.6279 131.991 49.6279 131.991 49.6279C131.991 49.6279 131.991 49.6279 131.991 49.6279C131.991 49.6279 131.991 49.6279 131.991 49.6279C131.991 49.6279 131.991 49.6279 131.991 49.6279C131.991 49.6279 131.991 49.6279 131.991 49.6279C131.991 49.6279 131.991 49.6279 131.991 49.6279C131.991 49.6279 131.991 49.6279 131.991 49.6279C131.991 49.6279 131.991 49.6279 131.991 49.6279C131.991 49.6279 131.991 49.6279 131.991 49.6279C131.991 49.6279 131.991 49.6279 131.991 49.6279C131.991 49.6279 131.991 49.6279 131.991 49.6279C131.991 49.6279 131.991 49.6279 131.991 49.6279C131.991 49.6279 131.991 49.6279 131.991 49.6279C131.991 49.6279 131.991 49.6279 131.991 49.6279C131.991 49.6279 131.991 49.6279 131.991 49.6279C131.991 49.6279 131.991 49.6279 131.991 49.6279C131.991 49.6279 131.991 49.6279 131.991 49.6279C131.991 49.6279 131.991 49.6279 131.991 49.6279C131.991 49.6279 131.991 49.6279 131.991 49.6279C131.991 49.6279 131.991 49.6279 131.991 49.6279C131.991 49.6279 131.991 49.6279 131.991 49.6279C131.991 49.6279 131.991 49.6279 131.991 49.6279C131.991 49.6279 131.991 49.6279 131.991 49.6279C131.991 49.6279 131.991 49.6279 131.991 49.6279C131.991 49.6279 131.991 49.6279 131.991 49.6279C131.991 49.6279 131.991 49.6279 131.991 49.6279C131.991 49.6279 131.991 49.6279 131.991 49.6279C131.991 49.6279 131.991 49.6279 131.991 49.6279C131.991 49.6279 131.991 49.6279 131.991 49.6279C131.991 49.6279 131.991 49.6279 131.991 49.6279C131.991 49.6279 131.991 49.6279 131.991 49.6279C131.991 49.6279 131.991 49.6279 131.991 49.6279C131.991 49.6279 131.991 49.6279 131.991 49.6279C131.991 49.6279 131.991 49.6279 131.991 49.6279C131.991 49.6279 131.991 49.6279 131.991 49.6279C131.991 49.6279 131.991 49.6279 131.991 49.6279C131.991 49.6279 131.991 49.6279 131.991 49.6279C131.991 49.6279 131.991 49.6279 131.991 49.6279C131.991 49.6279 131.991 49.6279 131.991 49.6279C131.991 49.6279 131.991 49.6279 131.991 49.6279C131.991 49.6279 131.991 49.6279 131.991 49.6279C131.991 49.6279 131.991 49.6279 131.991 49.6279C131.991 49.6279 131.991 49.6279 131.991 49.6279C131.991 49.6279 131.991 49.6279 131.991 49.6279C131.991 49.6279 131.991 49.6279 131.991 49.6279C131.991 49.6279 131.991 49.6279 131.991 49.6279C131.991 49.6279 131.991 49.6279 131.991 49.6279C131.991 49.6279 131.991 49.6279 131.991 49.6279C131.991 49.6279 131.991 49.6279 131.991 49.6279C131.991 49.6279 131.991 49.6279 131.991 49.6279C131.991 49.6279 131.991 49.6279 131.991 49.6279C131.991 49.6279 131.991 49.6279 131.991 49.6279C131.991 49.6279 131.991 49.6279 131.991 49.6279C131.991 49.6279 131.991 49.6279 131.991 49.6279C131.991 49.6279 131.991 49.6279 131.991 49.6279C131.991 49.6279 131.991 49.6279 131.991 49.6279C131.991 49.6279 131.991 49.6279 131.991 49.6279C131.991 49.6279 131.991 49.6279 131.991 49.6279C131.991 49.6279 131.991 49.6279 131.991 49.6279C131.991 49.6279 131.991 49.6279 131.991 49.6279C131.991 49.6279 131.991 49.6279 131.991 49.6279C131.991 49.6279 131.991 49.6279 131.991 49.6279C131.991 49.6279 131.991 49.6279 131.991 49.6279C131.991 49.6279 131.991 49.6279 131.991 49.6279C131.991 49.6279 131.991 49.6279 131.991 49.6279C131.991 49.6279 131.991 49.6279 131.991 49.6279C131.991 49.6279 131.991 49.6279 131.991 49.6279C131.991 49.6279 131.991 49.6279 131.991 49.6279C131.991 49.6279 131.991 49.6279 131.991 49.6279C131.991 49.6279 131.991 49.6279 131.991 49.6279C131.991 49.6279 131.991 49.6279 131.991 49.6279C131.991 49.6279 131.991 49.6279 131.991 49.6279C131.991 49.6279 131.991 49.6279 131.991 49.6279C131.991 49.6279 131.991 49.6279 131.991 49.6279C131.991 49.6279 131.991 49.6279 131.991 49.6279C131.991 49.6279 131.991 49.6279 131.991 49.6279C131.991 49.6279 131.991 49.6279 131.991 49.6279C131.991 49.6279 131.991 49.6279 131.991 49.6279C131.991 49.6279 131.991 49.6279 131.991 49.6279C131.991 49.6279 131.991 49.6279 131.991 49.6279C131.991 49.6279 131.991 49.6279 131.991 49.6279C131.991 49.6279 131.991 49.6279 131.991 49.6279C131.991 49.6279 131.991 49.6279 131.991 49.6279C131.991 49.6279 131.991 49.6279 131.991 49.6279C131.991 49.6279 131.991 49.6279 131.991 49.6279C131.991 49.6279 131.991 49.6279 131.991 49.6279C131.991 49.6279 131.991 49.6279 131.991 49.6279C131.991 49.6279 131.991 49.6279 131.991 49.6279C131.991 49.6279 131.991 49.6279 131.991 49.6279C131.991 49.6279 131.991 49.6279 131.991 49.6279C131.991 49.6279 131.991 49.6279 131.991 49.6279C131.991 49.6279 131.991 49.6279 131.991 49.6279C131.991 49.6279 131.991 49.6279 131.991 49.6279C131.991 49.6279 131.991 49.6279 131.991 49.6279C131.991 49.6279 131.991 49.6279 131.991 49.6279C131.991 49.6279 131.991 49.6279 131.991 49.6279C131.991 49.6279 131.991 49.6279 131.991 49.6279C131.991 49.6279 131.991 49.6279 131.991 49.6279C131.991 49.6279 131.991 49.6279 131.991 49.6279C131.991 49.6279 131.991 49.6279 131.991 49.6279C131.991 49.6279 131.991 49.6279 131.991 49.6279C131.991 49.6279 131.991 49.6279 131.991 49.6279C131.991 49.6279 131.991 49.6279 131.991 49.6279C131.991 49.6279 131.991 49.6279 131.991 49.6279C131.991 49.6279 131.991 49.6279 131.991 49.6279C131.991 49.6279 131.991 49.6279 131.991 49.6279C131.991 49.6279 131.991 49.6279 131.991 49.6279C131.991 49.6279 131.991 49.6279 131.991 49.6279C131.991 49.6279 131.991 49.6279 131.991 49.6279C131.991 49.6279 131.991 49.6279 131.991 49.6279C131.991 49.6279 131.991 49.6279 131.991 49.6279C131.991 49.6279 131.991 49.6279 131.991 49.6279C131.991 49.6279 131.991 49.6279 131.991 49.6279C131.991 49.6279 131.991 49.6279 131.991 49.6279C131.991 49.6279 131.991 49.6279 131.991 49.6279C131.991 49.6279 131.991 49.6279 131.991 49.6279C131.991 49.6279 131.991 49.6279 131.991 49.6279C131.991 49.6279 131.991 49.6279 131.991 49.6279C131.991 49.6279 131.991 49.6279 131.991 49.6279C131.991 49.6279 131.991 49.6279 131.991 49.6279C131.991 49.6279 131.991 49.6279 131.991 49.6279C131.991 49.6279 131.991 49.6279 131.991 49.6279C131.991 49.6279 131.991 49.6279 131.991 49.6279C131.991 49.6279 131.991 49.6279 131.991 49.6279C131.991 49.6279 131.991 49.6279 131.991 49.6279C131.991 49.6279 131.991 49.6279 131.991 49.6279C131.991 49.6279 131.991 49.6279 131.991 49.6279C131.991 49.6279 131.991 49.6279 131.991 49.6279C131.991 49.6279 131.991 49.6279 131.991 49.6279C131.991 49.6279 131.991 49.6279 131.991 49.6279C131.991 49.6279 131.991 49.6279 131.991 49.6279C131.991 49.6279 131.991 49.6279 131.991 49.6279C131.991 49.6279 131.991 49.6279 131.991 49.6279C131.991 49.6279 131.991 49.6279 131.991 49.6279C131.991 49.6279 131.991 49.6279 131.991 49.6279C131.991 49.6279 131.991 49.6279 131.991 49.6279C131.991 49.6279 131.991 49.6279 131.991 49.6279C131.991 49.6279 131.991 49.6279 131.991 49.6279C131.991 49.6279 131.991 49.6279 131.991 49.6279C131.991 49.6279 131.991 49.6279 131.991 49.6279C131.991 49.6279 131.991 49.6279 131.991 49.6279C131.991 49.6279 131.991 49.6279 131.991 49.6279C131.991 49.6279 131.991 49.6279 131.991 49.6279C131.991 49.6279 131.991 49.6279 131.991 49.6279C131.991 49.6279 131.991 49.6279 131.991 49.6279C131.991 49.6279 131.991 49.6279 131.991 49.6279C131.991 49.6279 131.991 49.6279 131.991 49.6279C131.991 49.6279 131.991 49.6279 131.991 49.6279C131.991 49.6279 131.991 49.6279 131.991 49.6279C131.991 49.6279 131.991 49.6279 131.991 49.6279C131.991 49.6279 131.991 49.6279 131.991 49.6279C131.991 49.6279 131.991 49.6279 131.991 49.6279C131.991 49.6279 131.991 49.6279 131.991 49.6279C131.991 49.6279 131.991 49.6279 131.991 49.6279C131.991 49.6279 131.991 49.6279 131.991 49.6279C131.991 49.6279 131.991 49.6279 131.991 49.6279C131.991 49.6279 131.991 49.6279 131.991 49.6279C131.991 49.6279 131.991 49.6279 131.991 49.6279C131.991 49.6279 131.991 49.6279 131.991 49.6279C131.991 49.6279 131.991 49.6279 131.991 49.6279C131.991 49.6279 131.991 49.6279 131.991 49.6279C131.991 49.6279 131.991 49.6279 131.991 49.6279C131.991 49.6279 131.991 49.6279 131.991 49.6279C131.991 49.6279 131.991 49.6279 131.991 49.6279C131.991 49.6279 131.991 49.6279 131.991 49.6279C131.991 49.6279 131.991 49.6279 131.991 49.6279C131.991 49.6279 131.991 49.6279 131.991 49.6279C131.991 49.6279 131.991 49.6279 131.991 49.6279C131.991 49.6279 131.991 49.6279 131.991 49.6279C131.991 49.6279 131.991 49.6279 131.991 49.6279C131.991 49.6279 131.991 49.6279 131.991 49.6279C131.991 49.6279 131.991 49.6279 131.991 49.6279C131.991 49.6279 131.991 49.6279 131.991 49.6279C131.991 49.6279 131.991 49.6279 131.991 49.6279C131.991 49.6279 131.991 49.6279 131.991 49.6279C131.991 49.6279 131.991 49.6279 131.991 49.6279C131.991 49.6279 131.991 49.6279 131.991 49.6279C131.991 49.6279 131.991 49.6279 131.991 49.6279C131.991 49.6279 131.991 49.6279 131.991 49.6279C131.991 49.6279 131.991 49.6279 131.991 49.6279C131.991 49.6279 131.991 49.6279 131.991 49.6279C131.991 49.6279 131.991 49.6279 131.991 49.6279C131.991 49.6279 131.991 49.6279 131.991 49.6279C131.991 49.6279 131.991 49.6279 131.991 49.6279C131.991 49.6279 131.991 49.6279 131.991 49.6279C131.991 49.6279 131.991 49.6279 131.991 49.6279C131.991 49.6279 131.991 49.6279 131.991 49.6279C131.991 49.6279 131.991 49.6279 131.991 49.6279C131.991 49.6279 131.991 49.6279 131.991 49.6279C131.991 49.6279 131.991 49.6279 131.991 49.6279C131.991 49.6279 131.991 49.6279 131.991 49.6279C131.991 49.6279 131.991 49.6279 131.991 49.6279C131.991 49.6279 131.991 49.6279 131.991 49.6279C131.991 49.6279 131.991 49.6279 131.991 49.6279C131.991 49.6279 131.991 49.6279 131.991 49.6279C131.991 49.6279 131.991 49.6279 131.991 49.6279C131.991 49.6279 131.991 49.6279 131.991 49.6279C131.991 49.6279 131.991 49.6279 131.991 49.6279C131.991 49.6279 131.991 49.6279 131.991 49.6279C131.991 49.6279 131.991 49.6279 131.991 49.6279C131.991 49.6279 131.991 49.6279 131.991 49.6279C131.991 49.6279 131.991 49.6279 131.991 49.6279C131.991 49.6279 131.991 49.6279 131.991 49.6279C131.991 49.6279 131.991 49.6279 131.991 49.6279C131.991 49.6279 131.991 49.6279 131.991 49.6279C131.991 49.6279 131.991 49.6279 131.991 49.6279C131.991 49.6279 131.991 49.6279 131.991 49.6279C131.991 49.6279 131.991 49.6279 131.991 49.6279C131.991 49.6279 131.991 49.6279 131.991 49.6279C131.991 49.6279 131.991 49.6279 131.991 49.6279C131.991 49.6279 131.991 49.6279 131.991 49.6279C131.991 49.6279 131.991 49.6279 131.991 49.6279C131.991 49.6279 131.991 49.6279 131.991 49.6279L133.949 50.0337ZM133.33 48.8842L133.173 48.8516L132.767 50.81L132.924 50.8426L133.33 48.8842ZM135.827 58.6616C134.109 56.116 133.493 53.0243 134.106 50.0663L132.148 49.6605C131.424 53.1541 132.154 56.7945 134.17 59.7805L135.827 58.6616ZM143.284 63.6321C140.228 62.9987 137.546 61.2081 135.827 58.6616L134.17 59.7805C136.185 62.7655 139.318 64.8528 142.879 65.5905L143.284 63.6321ZM152.102 62.0339C149.513 63.6878 146.341 64.2655 143.284 63.6321L142.879 65.5905C146.439 66.3283 150.144 65.658 153.179 63.7194L152.102 62.0339ZM157.098 54.8303C156.485 57.7884 154.691 60.3807 152.102 62.0339L153.179 63.7194C156.215 61.7802 158.332 58.7298 159.056 55.2361L157.098 54.8303ZM162.648 54.9593L158.28 54.054L157.874 56.0124L162.243 56.9177L162.648 54.9593ZM155.644 67.3715C159.665 64.8032 162.467 60.7647 163.425 56.1414L161.466 55.7356C160.619 59.8233 158.141 63.4037 154.568 65.686L155.644 67.3715ZM141.996 69.8501C146.715 70.8279 151.624 69.9392 155.644 67.3715L154.568 65.686C150.993 67.9689 146.617 68.7651 142.402 67.8917L141.996 69.8501ZM130.456 62.1523C133.125 66.1059 137.277 68.8722 141.996 69.8501L142.402 67.8917C138.186 67.0182 134.487 64.5486 132.114 61.0334L130.456 62.1523ZM128.265 57.6524C128.773 59.2301 129.507 60.746 130.456 62.1523L132.114 61.0334C131.27 59.7833 130.619 58.4376 130.168 57.0388L128.265 57.6524ZM126.168 61.2638C127.598 60.3504 128.874 59.2511 129.968 58.0053L128.465 56.6858C127.495 57.7903 126.363 58.7664 125.092 59.5783L126.168 61.2638ZM112.52 63.7423C117.239 64.7202 122.149 63.8314 126.168 61.2638L125.092 59.5783C121.518 61.8612 117.141 62.6574 112.926 61.7839L112.52 63.7423ZM100.981 56.0446C103.649 59.9982 107.801 62.7645 112.52 63.7423L112.926 61.7839C108.711 60.9105 105.011 58.4408 102.638 54.9257L100.981 56.0446ZM98.7888 51.5447C99.2975 53.1224 100.031 54.6382 100.981 56.0446L102.638 54.9257C101.795 53.6756 101.143 52.3299 100.692 50.931L98.7888 51.5447ZM96.6926 55.156C98.1225 54.2427 99.3984 53.1433 100.492 51.8976L98.9891 50.5781C98.0195 51.6826 96.8871 52.6587 95.616 53.4705L96.6926 55.156ZM83.0445 57.6346C87.7635 58.6124 92.6728 57.7237 96.6926 55.156L95.616 53.4705C92.0419 55.7534 87.6657 56.5497 83.4503 55.6762L83.0445 57.6346ZM71.5049 49.9369C74.1735 53.8905 78.3254 56.6568 83.0445 57.6346L83.4503 55.6762C79.2349 54.8027 75.5353 52.3331 73.1627 48.8179L71.5049 49.9369ZM69.04 44.5022C69.5421 46.416 70.3695 48.2547 71.5049 49.9369L73.1627 48.8179C72.1534 47.3228 71.4195 45.6908 70.9745 43.9946L69.04 44.5022ZM66.3722 48.8737C68.0827 47.7811 69.5727 46.4225 70.794 44.8656L69.2204 43.6312C68.138 45.011 66.816 46.2171 65.2956 47.1882L66.3722 48.8737ZM52.7241 51.3523C57.4431 52.3301 62.3524 51.4413 66.3722 48.8737L65.2956 47.1882C61.7215 49.4711 57.3453 50.2673 53.1299 49.3939L52.7241 51.3523ZM41.1846 43.6545C43.8531 47.6081 48.005 50.3744 52.7241 51.3523L53.1299 49.3939C48.9145 48.5204 45.2149 46.0507 42.8423 42.5356L41.1846 43.6545ZM38.5071 30.2574C37.549 34.8808 38.5153 39.7 41.1846 43.6545L42.8423 42.5356C40.4703 39.0215 39.6184 34.7509 40.4655 30.6632L38.5071 30.2574ZM44.0579 30.3864L39.6892 29.4811L39.2834 31.4395L43.6521 32.3448L44.0579 30.3864ZM46.5556 40.1638C44.8374 37.6182 44.2213 34.5265 44.8342 31.5685L42.8758 31.1627C42.1519 34.6563 42.8824 38.2967 44.8978 41.2827L46.5556 40.1638ZM54.0125 45.1343C50.9558 44.5009 48.2744 42.7103 46.5556 40.1638L44.8978 41.2827C46.9127 44.2677 50.0463 46.355 53.6067 47.0927L54.0125 45.1343ZM62.8306 43.5361C60.2413 45.19 57.0692 45.7677 54.0125 45.1343L53.6067 47.0927C57.1671 47.8305 60.8721 47.1602 63.9072 45.2216L62.8306 43.5361ZM67.8256 36.3325C67.2127 39.2905 65.4188 41.8829 62.8306 43.5361L63.9072 45.2216C66.9432 43.2824 69.0601 40.232 69.784 36.7383L67.8256 36.3325ZM70.0095 35.7638L69.0077 35.5562L68.6019 37.5146L69.6037 37.7222L70.0095 35.7638Z" fill="#333848" mask="url(#path-2-inside-1_137_801)"/>
<rect x="68.9155" y="37.0686" width="5.35461" height="6.41371" rx="0.5" transform="rotate(11.7066 68.9155 37.0686)" fill="white" stroke="#333848"/>
<rect x="38.8393" y="30.8371" width="5.35461" height="6.41371" rx="0.5" transform="rotate(11.7066 38.8393 30.8371)" fill="white" stroke="#333848"/>
<rect x="98.9878" y="43.301" width="5.35461" height="6.41371" rx="0.5" transform="rotate(11.7066 98.9878 43.301)" fill="white" stroke="#333848"/>
<rect x="128.027" y="49.3186" width="5.35461" height="6.41371" rx="0.5" transform="rotate(11.7066 128.027 49.3186)" fill="white" stroke="#333848"/>
<rect x="157.064" y="55.3352" width="5.35461" height="6.41371" rx="0.5" transform="rotate(11.7066 157.064 55.3352)" fill="white" stroke="#333848"/>
<rect x="26.5639" y="8.24437" width="219.142" height="21.0142" transform="rotate(11.7066 26.5639 8.24437)" fill="white" stroke="#333848"/>
<path d="M36.6758 20.6832C38.2219 13.2213 33.4263 5.91891 25.9645 4.37273L11.7904 1.43571C10.4384 1.15556 9.11531 2.02446 8.83516 3.37646L4.25047 25.5022C3.97032 26.8542 4.83922 28.1773 6.19122 28.4574L20.3653 31.3945C27.8272 32.9406 35.1296 28.145 36.6758 20.6832Z" fill="white" stroke="#333848"/>
<circle cx="26.691" cy="19.1553" r="4.79551" transform="rotate(11.7066 26.691 19.1553)" fill="white" stroke="#333848"/>
</svg>
