<svg width="31" height="34" viewBox="0 0 31 34" fill="none" xmlns="http://www.w3.org/2000/svg">
<path d="M15.6816 33.7004C7.16923 31.8086 0.363281 23.7772 0.363281 15.3184V6.12734L15.6816 0L31 6.12734V15.3184C31 23.7802 24.1941 31.8086 15.6816 33.7004ZM3.42695 7.65918V15.3184C3.51449 18.8602 4.7602 22.2757 6.97343 25.0422C9.18665 27.8088 12.2454 29.7738 15.6816 30.6367C19.1178 29.7738 22.1766 27.8088 24.3899 25.0422C26.6031 22.2757 27.8488 18.8602 27.9363 15.3184V7.65918L15.6816 3.06367L3.42695 7.65918Z" fill="black"/>
<path d="M15.6821 15.3182C17.7971 15.3182 19.5117 13.6037 19.5117 11.4887C19.5117 9.37363 17.7971 7.65906 15.6821 7.65906C13.5671 7.65906 11.8525 9.37363 11.8525 11.4887C11.8525 13.6037 13.5671 15.3182 15.6821 15.3182Z" fill="black"/>
<path d="M8.02362 21.4465C8.77865 22.8224 9.88571 23.9729 11.2315 24.7804C12.5773 25.5879 14.1135 26.0233 15.6828 26.042C17.2521 26.0233 18.7883 25.5879 20.1341 24.7804C21.4799 23.9729 22.587 22.8224 23.342 21.4465C23.3037 18.5421 18.2226 16.851 15.6828 16.851C13.1292 16.851 8.06192 18.5421 8.02362 21.4465Z" fill="black"/>
</svg>
