<svg width="30" height="30" viewBox="0 0 30 30" fill="none" xmlns="http://www.w3.org/2000/svg">
<path d="M16.6875 22.3125C16.6875 22.6463 16.5885 22.9725 16.4031 23.25C16.2177 23.5275 15.9541 23.7438 15.6458 23.8715C15.3374 23.9993 14.9981 24.0327 14.6708 23.9676C14.3434 23.9025 14.0428 23.7417 13.8068 23.5057C13.5708 23.2697 13.41 22.9691 13.3449 22.6417C13.2798 22.3144 13.3132 21.9751 13.441 21.6667C13.5687 21.3584 13.785 21.0948 14.0625 20.9094C14.34 20.724 14.6663 20.625 15 20.625C15.4476 20.625 15.8768 20.8028 16.1932 21.1193C16.5097 21.4357 16.6875 21.8649 16.6875 22.3125ZM15 7.125C11.8978 7.125 9.37501 9.39609 9.37501 12.1875V12.75C9.37501 13.0484 9.49353 13.3345 9.70451 13.5455C9.91549 13.7565 10.2016 13.875 10.5 13.875C10.7984 13.875 11.0845 13.7565 11.2955 13.5455C11.5065 13.3345 11.625 13.0484 11.625 12.75V12.1875C11.625 10.6406 13.1395 9.375 15 9.375C16.8605 9.375 18.375 10.6406 18.375 12.1875C18.375 13.7344 16.8605 15 15 15C14.7016 15 14.4155 15.1185 14.2045 15.3295C13.9935 15.5405 13.875 15.8266 13.875 16.125V17.25C13.875 17.5484 13.9935 17.8345 14.2045 18.0455C14.4155 18.2565 14.7016 18.375 15 18.375C15.2984 18.375 15.5845 18.2565 15.7955 18.0455C16.0065 17.8345 16.125 17.5484 16.125 17.25V17.1488C18.69 16.6777 20.625 14.6316 20.625 12.1875C20.625 9.39609 18.1022 7.125 15 7.125ZM29.625 15C29.625 17.8926 28.7673 20.7201 27.1602 23.1252C25.5532 25.5303 23.2691 27.4048 20.5968 28.5117C17.9244 29.6187 14.9838 29.9083 12.1468 29.344C9.30984 28.7797 6.70391 27.3868 4.65857 25.3414C2.61323 23.2961 1.22033 20.6902 0.656022 17.8532C0.091713 15.0162 0.381337 12.0756 1.48827 9.40325C2.5952 6.73089 4.46972 4.44677 6.87479 2.83976C9.27986 1.23274 12.1075 0.375 15 0.375C18.8775 0.379095 22.5951 1.92125 25.3369 4.66309C28.0788 7.40492 29.6209 11.1225 29.625 15ZM27.375 15C27.375 12.5525 26.6492 10.1599 25.2894 8.12482C23.9297 6.08976 21.997 4.50363 19.7357 3.56699C17.4745 2.63036 14.9863 2.38529 12.5858 2.86278C10.1852 3.34027 7.98024 4.51888 6.24956 6.24955C4.51889 7.98023 3.34028 10.1852 2.86279 12.5858C2.3853 14.9863 2.63036 17.4745 3.567 19.7357C4.50363 21.9969 6.08977 23.9297 8.12482 25.2894C10.1599 26.6492 12.5525 27.375 15 27.375C18.2809 27.3713 21.4264 26.0663 23.7463 23.7463C26.0663 21.4264 27.3713 18.2809 27.375 15Z" fill="black"/>
</svg>
