<svg width="32" height="26" viewBox="0 0 32 26" fill="none" xmlns="http://www.w3.org/2000/svg">
<path d="M17.2853 10.1069C17.2853 9.85112 17.3869 9.60585 17.5677 9.42501C17.7486 9.24417 17.9939 9.14258 18.2496 9.14258H25.321C25.5768 9.14258 25.822 9.24417 26.0029 9.42501C26.1837 9.60585 26.2853 9.85112 26.2853 10.1069C26.2853 10.3626 26.1837 10.6079 26.0029 10.7887C25.822 10.9696 25.5768 11.0712 25.321 11.0712H18.2496C17.9939 11.0712 17.7486 10.9696 17.5677 10.7887C17.3869 10.6079 17.2853 10.3626 17.2853 10.1069ZM18.2496 14.2854C17.9939 14.2854 17.7486 14.387 17.5677 14.5679C17.3869 14.7487 17.2853 14.994 17.2853 15.2497C17.2853 15.5055 17.3869 15.7507 17.5677 15.9316C17.7486 16.1124 17.9939 16.214 18.2496 16.214H25.321C25.5768 16.214 25.822 16.1124 26.0029 15.9316C26.1837 15.7507 26.2853 15.5055 26.2853 15.2497C26.2853 14.994 26.1837 14.7487 26.0029 14.5679C25.822 14.387 25.5768 14.2854 25.321 14.2854H18.2496ZM12.4639 10.1069C12.4639 10.7036 12.2268 11.2759 11.8049 11.6979C11.3829 12.1198 10.8106 12.3569 10.2139 12.3569C9.61715 12.3569 9.04485 12.1198 8.6229 11.6979C8.20094 11.2759 7.96389 10.7036 7.96389 10.1069C7.96389 9.51013 8.20094 8.93783 8.6229 8.51587C9.04485 8.09392 9.61715 7.85686 10.2139 7.85686C10.8106 7.85686 11.3829 8.09392 11.8049 8.51587C12.2268 8.93783 12.4639 9.51013 12.4639 10.1069ZM6.9996 13.6426H13.4282C13.7692 13.6426 14.0962 13.778 14.3373 14.0192C14.5784 14.2603 14.7139 14.5873 14.7139 14.9283V15.5712C14.7139 15.5712 14.071 18.7854 10.2139 18.7854C6.35674 18.7854 5.71389 15.5712 5.71389 15.5712V14.9283C5.71389 14.5873 5.84935 14.2603 6.09046 14.0192C6.33158 13.778 6.65861 13.6426 6.9996 13.6426ZM0.576172 3.67829C0.576172 2.74056 0.948684 1.84124 1.61176 1.17816C2.27483 0.51509 3.17416 0.142578 4.11189 0.142578H27.8925C28.8302 0.142578 29.7295 0.51509 30.3926 1.17816C31.0557 1.84124 31.4282 2.74056 31.4282 3.67829V22.3212C31.4282 23.2589 31.0557 24.1582 30.3926 24.8213C29.7295 25.4844 28.8302 25.8569 27.8925 25.8569H4.11317C3.17544 25.8569 2.27612 25.4844 1.61304 24.8213C0.949969 24.1582 0.577458 23.2589 0.577458 22.3212V3.67829H0.576172ZM4.11189 2.07115C3.22474 2.07115 2.50474 2.79115 2.50474 3.67829V22.3212C2.50474 23.2083 3.22474 23.9283 4.11189 23.9283H27.8925C28.7796 23.9283 29.4996 23.2083 29.4996 22.3212V3.67829C29.4996 2.79115 28.7796 2.07115 27.8925 2.07115H4.11189Z" fill="black"/>
</svg>
